<?xml version="1.0" standalone="no"?>
<!DOCTYPE svg PUBLIC "-//W3C//DTD SVG 1.1//EN" "http://www.w3.org/Graphics/SVG/1.1/DTD/svg11.dtd" >
<svg>
<metadata>
Created by FontForge 20090914 at Fri Jul 20 16:37:25 2018
 By www-data
2013 published by FontShop International GmbH
</metadata>
<defs>
<font id="MarkGEO-Regular" horiz-adv-x="600" >
  <font-face 
    font-family="Mark GEO"
    font-weight="400"
    font-stretch="normal"
    units-per-em="1000"
    panose-1="2 11 8 4 2 1 1 1 1 2"
    ascent="790"
    descent="-210"
    x-height="473"
    cap-height="700"
    bbox="-674 -238.002 1558 1104"
    underline-thickness="54"
    underline-position="-130"
    unicode-range="U+000D-U+FEFF"
  />
<missing-glyph horiz-adv-x="598" 
d="M510 700v-700h-422v700h422zM451 641h-303v-581h303v581z" />
    <glyph glyph-name="fi" unicode="fi" horiz-adv-x="678" 
d="M206 412v-412h-68v412h-111v61h111v78c0 54.667 13 98 39 130s66 48 120 48c48 0 91.333 -12.333 130 -37l-25 -55c-14 8 -29.833 14.667 -47.5 20s-35.167 8 -52.5 8c-64 0 -96 -38 -96 -114v-78h195v-61h-195zM590.5 674c9 -9.33301 13.5 -20.666 13.5 -33.999
s-4.5 -24.5 -13.5 -33.5s-20.167 -13.5 -33.5 -13.5c-12.667 0 -23.5 4.5 -32.5 13.5s-13.5 20.167 -13.5 33.5s4.5 24.666 13.5 33.999s19.833 14 32.5 14c13.333 0 24.5 -4.66699 33.5 -14zM524 0v473h67v-473h-67z" />
    <glyph glyph-name="fl" unicode="fl" horiz-adv-x="678" 
d="M206 412v-412h-68v412h-111v61h111v78c0 54.667 13 98 39 130s66 48 120 48c48 0 91.333 -12.333 130 -37l-25 -55c-14 8 -29.833 14.667 -47.5 20s-35.167 8 -52.5 8c-64 0 -96 -38 -96 -114v-78h195v-61h-195zM524 0v720h67v-720h-67z" />
    <glyph glyph-name="f_f" unicode="ff" horiz-adv-x="858" 
d="M206 412v-412h-68v412h-111v61h111v78c0 54.667 13 98 39 130s66 48 120 48c48 0 91.333 -12.333 130 -37l-25 -55c-14 8 -29.833 14.667 -47.5 20s-35.167 8 -52.5 8c-64 0 -96 -38 -96 -114v-78h195v-61h-195zM628 412v-412.001h-68v412h-111v61h111v78
c0 54.667 13 98 39 130s66 48 120 48c46.667 0 90 -12.333 130 -37l-26 -55c-13.333 8 -28.833 14.667 -46.5 20s-35.5 8 -53.5 8c-33.333 0 -57.5 -9.66699 -72.5 -29s-22.5 -47.666 -22.5 -84.999v-78h195v-61h-195z" />
    <glyph glyph-name="f_f_i" unicode="ffi" horiz-adv-x="1100" 
d="M206 412v-412h-68v412h-111v61h111v78c0 54.667 13 98 39 130s66 48 120 48c48 0 91.333 -12.333 130 -37l-25 -55c-14 8 -29.833 14.667 -47.5 20s-35.167 8 -52.5 8c-64 0 -96 -38 -96 -114v-78h195v-61h-195zM628 412v-412.001h-68v412h-111v61h111v78
c0 54.667 13 98 39 130s66 48 120 48c46.667 0 90 -12.333 130 -37l-26 -55c-13.333 8 -28.833 14.667 -46.5 20s-35.5 8 -53.5 8c-33.333 0 -57.5 -9.66699 -72.5 -29s-22.5 -47.666 -22.5 -84.999v-78h195v-61h-195zM1012.5 673.999c9 -9.33301 13.5 -20.666 13.5 -33.999
c0 -12.667 -4.5 -23.667 -13.5 -33s-20.167 -14 -33.5 -14s-24.333 4.5 -33 13.5s-13 20.167 -13 33.5s4.33301 24.666 13 33.999s19.667 14 33 14s24.5 -4.66699 33.5 -14zM945 -0.000976562v473h68v-473h-68z" />
    <glyph glyph-name="f_f_l" unicode="ffl" horiz-adv-x="1100" 
d="M206 412v-412h-68v412h-111v61h111v78c0 54.667 13 98 39 130s66 48 120 48c48 0 91.333 -12.333 130 -37l-25 -55c-14 8 -29.833 14.667 -47.5 20s-35.167 8 -52.5 8c-64 0 -96 -38 -96 -114v-78h195v-61h-195zM628 412v-412.001h-68v412h-111v61h111v78
c0 54.667 13 98 39 130s66 48 120 48c46.667 0 90 -12.333 130 -37l-26 -55c-13.333 8 -28.833 14.667 -46.5 20s-35.5 8 -53.5 8c-33.333 0 -57.5 -9.66699 -72.5 -29s-22.5 -47.666 -22.5 -84.999v-78h195v-61h-195zM945 -0.000976562v720h68v-720h-68z" />
    <glyph glyph-name=".notdef" horiz-adv-x="598" 
d="M510 700v-700h-422v700h422zM451 641h-303v-581h303v581z" />
    <glyph glyph-name="nonmarkingreturn" unicode="&#xd;" horiz-adv-x="263" 
 />
    <glyph glyph-name="space" unicode=" " horiz-adv-x="263" 
 />
    <glyph glyph-name="exclam" unicode="!" horiz-adv-x="263" 
d="M100 221l-10 479h82l-10 -479h-62zM169.5 86c11 -10.667 16.5 -23.334 16.5 -38.001c0 -15.333 -5.5 -28.5 -16.5 -39.5s-23.833 -16.5 -38.5 -16.5c-14 0 -26.5 5.66699 -37.5 17s-16.5 24.333 -16.5 39s5.5 27.334 16.5 38.001s23.5 16 37.5 16
c14.667 0 27.5 -5.33301 38.5 -16z" />
    <glyph glyph-name="quotedbl" unicode="&#x22;" horiz-adv-x="515" 
d="M209 470h-67v250h67v-250zM373 470h-68v250h68v-250z" />
    <glyph glyph-name="numbersign" unicode="#" horiz-adv-x="729" 
d="M284 700h63l-39 -184h184l39 184h64l-40 -184h113l-13 -60h-113l-44 -208h113l-12 -60h-114l-39 -188h-64l40 188h-184l-40 -188h-63l40 188h-114l13 60h114l44 208h-115l13 60h115zM435 248l44 208h-184l-44 -208h184z" />
    <glyph glyph-name="dollar" unicode="$" horiz-adv-x="700" 
d="M326 4c-44 2.66699 -88.002 11.498 -132.002 26.498s-80.333 33.5 -109 55.5l36 56c24 -18 54.5 -34 91.5 -48s74.5 -22.333 112.5 -25v252l-20 3c-64 7.33301 -113.5 26 -148.5 56s-52.5 70 -52.5 120c0 56.667 20.667 102.334 62 137.001s94.333 54.334 159 59.001v95
h61v-95c81.333 -4.66699 154.666 -29 219.999 -73l-35 -56c-25.333 17.333 -53.666 31.5 -84.999 42.5s-64.666 17.833 -99.999 20.5v-249l26 -3c62.667 -8 112.334 -26.5 149.001 -55.5s55 -68.5 55 -118.5c0 -58.667 -21.5 -105.167 -64.5 -139.5
s-98.167 -54.5 -165.5 -60.5v-98h-60v98zM324.998 629.998c-45.333 -4 -81.667 -17.001 -109 -39.001s-41.333 -51 -42 -87c0 -63.333 50.333 -101.666 151 -114.999v241zM501.497 108.997c29 22 43.833 51.668 44.5 89.001c0 63.333 -53.333 101.666 -160 114.999v-243
c48 4 86.5 17 115.5 39z" />
    <glyph glyph-name="percent" unicode="%" horiz-adv-x="961" 
d="M321.5 685.5c27.667 -15.667 49.334 -37.167 65.001 -64.5s23.5 -57.666 23.5 -90.999c0 -34 -7.83301 -64.5 -23.5 -91.5s-37.334 -48.333 -65.001 -64s-58.5 -23.5 -92.5 -23.5c-33.333 0 -63.833 7.83301 -91.5 23.5s-49.334 37 -65.001 64s-23.5 57.5 -23.5 91.5
c0 33.333 7.83301 63.666 23.5 90.999s37.334 48.833 65.001 64.5s58.167 23.5 91.5 23.5c34 0 64.833 -7.83301 92.5 -23.5zM223 0l445 700h70l-445 -700h-70zM144 616.5c-22.667 -23 -34 -51.833 -34 -86.5s11.333 -63.5 34 -86.5s51 -34.5 85 -34.5s62.5 11.5 85.5 34.5
s34.5 51.833 34.5 86.5s-11.5 63.5 -34.5 86.5s-51.5 34.5 -85.5 34.5s-62.333 -11.5 -85 -34.5zM823.5 326c27.667 -15.333 49.5 -36.666 65.5 -63.999s24 -58 24 -92c0 -33.333 -8 -63.666 -24 -90.999s-37.833 -48.833 -65.5 -64.5s-58.5 -23.5 -92.5 -23.5
c-33.333 0 -63.666 7.83301 -90.999 23.5s-48.833 37.167 -64.5 64.5s-23.5 57.666 -23.5 90.999s7.83301 63.666 23.5 90.999s37.167 48.833 64.5 64.5s57.666 23.5 90.999 23.5c34 0 64.833 -7.66699 92.5 -23zM646.5 257.5c-22.333 -23 -33.5 -52.167 -33.5 -87.5
c0 -34.667 11.333 -63.334 34 -86.001s50.667 -34 84 -34c34.667 0 63.334 11.333 86.001 34s34 51.334 34 86.001c0 35.333 -11.333 64.5 -34 87.5s-51.334 34.5 -86.001 34.5c-34 0 -62.167 -11.5 -84.5 -34.5z" />
    <glyph glyph-name="ampersand" unicode="&#x26;" horiz-adv-x="697" 
d="M468 110c-29.333 -36.667 -61 -65.6689 -95 -87.002s-74 -32 -120 -32c-60 0 -107.833 15.667 -143.5 47s-53.5 73.333 -53.5 126c0 42 12.5 79 37.5 111s59.833 64.667 104.5 98c-38 37.333 -64.833 68.833 -80.5 94.5s-23.5 54.5 -23.5 86.5
c0 28.667 7.33301 54.834 22 78.501s35 42.334 61 56.001s55.333 20.5 88 20.5c33.333 0 63 -6.5 89 -19.5s46.167 -31 60.5 -54s21.5 -48.833 21.5 -77.5c0 -36.667 -11.833 -69.167 -35.5 -97.5s-57.5 -58.5 -101.5 -90.5l164 -160l113 165l54 -34l-120 -176l168 -165h-97
zM184.5 490.998c12.333 -18 35.498 -43.999 69.498 -77.999c36.667 27.333 64.334 51.666 83.001 72.999s28 44.333 28 69c0 26 -9.33301 47.667 -28 65s-42.667 26 -72 26s-53.166 -9 -71.499 -27s-27.5 -41 -27.5 -69c0 -21.333 6.16699 -41 18.5 -59zM346.498 79.999
c25.667 16.667 51.167 41.668 76.5 75.001l-180 174c-36.667 -28 -65 -54.333 -85 -79s-30 -52.334 -30 -83.001c0 -33.333 12 -60.333 36 -81s55 -31 93 -31c34 0 63.833 8.33301 89.5 25z" />
    <glyph glyph-name="quotesingle" unicode="'" horiz-adv-x="351" 
d="M209 470h-67v250h67v-250z" />
    <glyph glyph-name="parenleft" unicode="(" horiz-adv-x="403" 
d="M247.5 572c-33 -36.667 -58.5 -79.999 -76.5 -129.999s-27 -102.667 -27 -158s9 -107.833 27 -157.5s43.5 -92.834 76.5 -129.501s71.5 -63.667 115.5 -81l-23 -62c-52.667 19.333 -99.167 50 -139.5 92s-71.666 92.167 -93.999 150.5s-33.5 120.833 -33.5 187.5
s11.167 129.167 33.5 187.5s53.666 108.5 93.999 150.5s86.833 72.667 139.5 92l23 -61c-44 -17.333 -82.5 -44.333 -115.5 -81z" />
    <glyph glyph-name="parenright" unicode=")" horiz-adv-x="403" 
d="M155.5 -3c33 36.667 58.5 80.001 76.5 130.001s27 102.667 27 158s-9 108 -27 158s-43.5 93.167 -76.5 129.5s-71.167 63.166 -114.5 80.499l23 62c52 -19.333 98.167 -50 138.5 -92s71.666 -92.167 93.999 -150.5s33.5 -120.833 33.5 -187.5
s-11.167 -129.167 -33.5 -187.5s-53.666 -108.5 -93.999 -150.5s-86.5 -72.667 -138.5 -92l-23 61c43.333 17.333 81.5 44.333 114.5 81z" />
    <glyph glyph-name="asterisk" unicode="*" horiz-adv-x="439" 
d="M194 720h52v-134l126 42l17 -49l-128 -42l79 -108l-41 -30l-79 108l-79 -108l-41 30l78 108l-127 42l16 49l127 -42v134z" />
    <glyph glyph-name="plus" unicode="+" 
d="M269 234h-184v60h184v187h61v-187h185v-60h-185v-184h-61v184z" />
    <glyph glyph-name="comma" unicode="," horiz-adv-x="247" 
d="M125 -127h-57l31 250h78z" />
    <glyph glyph-name="hyphen" unicode="-" horiz-adv-x="416" 
d="M71 234v60h275v-60h-275z" />
    <glyph glyph-name="period" unicode="." horiz-adv-x="262" 
d="M170 86c10.667 -10.667 16 -23.667 16 -39c0 -14.667 -5.5 -27.667 -16.5 -39s-23.833 -17 -38.5 -17s-27.5 5.66699 -38.5 17s-16.5 24.333 -16.5 39s5.5 27.5 16.5 38.5s23.833 16.5 38.5 16.5c15.333 0 28.333 -5.33301 39 -16z" />
    <glyph glyph-name="slash" unicode="/" horiz-adv-x="496" 
d="M-1 -100l425 870h73l-424 -870h-74z" />
    <glyph glyph-name="zero" unicode="0" horiz-adv-x="709" 
d="M500.5 665.5c43.667 -29 78.1689 -70.668 103.502 -125.001s38 -117.833 38 -190.5c0 -72 -12.833 -135.167 -38.5 -189.5s-60.334 -96.166 -104.001 -125.499s-91.834 -44 -144.501 -44c-53.333 0 -102 14.5 -146 43.5s-78.667 70.667 -104 125s-38 117.833 -38 190.5
s12.667 136.167 38 190.5s60 96 104 125s92.667 43.5 146 43.5s101.833 -14.5 145.5 -43.5zM245.502 606.499c-33 -23 -59 -56.333 -78 -100s-28.5 -95.834 -28.5 -156.501c0 -60 9.5 -112 28.5 -156s45 -77.5 78 -100.5s69.5 -34.5 109.5 -34.5s76.333 11.5 109 34.5
s58.5 56.5 77.5 100.5s28.5 96 28.5 156c0 60.667 -9.5 112.834 -28.5 156.501s-44.833 77 -77.5 100s-69 34.5 -109 34.5s-76.5 -11.5 -109.5 -34.5z" />
    <glyph glyph-name="one" unicode="1" horiz-adv-x="426" 
d="M250 0v608l-216 -93v71l286 122v-708h-70z" />
    <glyph glyph-name="two" unicode="2" horiz-adv-x="548" 
d="M256 709c46 0 85.667 -9.33496 119 -28.002s58.666 -44.167 75.999 -76.5s26 -68.833 26 -109.5c0 -39.333 -8.66699 -75.166 -26 -107.499s-40.333 -63.166 -69 -92.499l-217 -229h337v-66h-440v55l268 280c24 25.333 42.5 50.833 55.5 76.5s19.5 53.167 19.5 82.5
c0 42.667 -13.5 78 -40.5 106s-63.833 42 -110.5 42c-38 0 -69.667 -8.16699 -95 -24.5s-47.666 -38.5 -66.999 -66.5l-49 41c52 78 123 117 213 117z" />
    <glyph glyph-name="three" unicode="3" horiz-adv-x="552" 
d="M370 685c34.667 -16 61.667 -38.3311 81 -66.998s29 -61.334 29 -98.001c0 -41.333 -10.333 -76 -31 -104s-49.334 -48.667 -86.001 -62c40.667 -13.333 73 -34.333 97 -63s36 -63.334 36 -104.001c0 -42 -11.167 -77.833 -33.5 -107.5s-51.666 -51.834 -87.999 -66.501
s-75.833 -22 -118.5 -22c-46.667 0 -88.834 8 -126.501 24s-69.5 38 -95.5 66l43 47c22.667 -22.667 49.167 -40.167 79.5 -52.5s62.833 -18.5 97.5 -18.5c48 0 88.167 11.5 120.5 34.5s48.5 56.167 48.5 99.5c0 40 -16.5 71.833 -49.5 95.5s-74.5 35.5 -124.5 35.5h-94v64
h94c46.667 0 84.667 11.167 114 33.5s44 54.5 44 96.5c0 38 -15.167 68.833 -45.5 92.5s-68.833 35.5 -115.5 35.5c-34 0 -64.5 -7.5 -91.5 -22.5s-49.5 -34.167 -67.5 -57.5l-49 43c22.667 30.667 51.834 55.334 87.501 74.001s77.167 28 124.5 28
c45.333 0 85.333 -8 120 -24z" />
    <glyph glyph-name="four" unicode="4" horiz-adv-x="577" 
d="M551 215v-65h-123v-150h-69v150h-332v53l259 497h79l-255 -485h249v199h69v-199h123z" />
    <glyph glyph-name="five" unicode="5" horiz-adv-x="577" 
d="M173 635l-7.99805 -215.999h106c52.667 0 97.5 -9 134.5 -27s64.833 -42.5 83.5 -73.5s28 -65.833 28 -104.5c0 -46 -10.333 -85.833 -31 -119.5s-49 -59.334 -85 -77.001s-76.667 -26.5 -122 -26.5c-98 0 -176.667 36 -236 108l45 46c22.667 -28 50.667 -49.5 84 -64.5
s68.666 -22.5 105.999 -22.5c52 0 92.833 14 122.5 42s44.5 64 44.5 108c0 43.333 -15.833 78.333 -47.5 105s-80.834 40 -147.501 40h-150l10 347h376v-65h-313z" />
    <glyph glyph-name="six" unicode="6" horiz-adv-x="577" 
d="M294 445c45.333 0 86.502 -9.83203 123.502 -29.499s65.833 -46.667 86.5 -81s31 -72.833 31 -115.5s-10.833 -81.334 -32.5 -116.001s-51.334 -62 -89.001 -82s-79.834 -30 -126.501 -30s-88.834 10 -126.501 30s-67.167 47.333 -88.5 82s-32 73.334 -32 116.001
c0 47.333 16.333 96.666 49 147.999l209 333h85l-175 -271c28.667 10.667 57.334 16 86.001 16zM197.002 361.001c-26.667 -14 -47.5 -33.333 -62.5 -58s-22.5 -52.667 -22.5 -84s7.5 -59.333 22.5 -84s35.833 -44 62.5 -58s56.667 -21 90 -21s63.333 7 90 21
s47.5 33.333 62.5 58s22.5 52.667 22.5 84s-7.5 59.333 -22.5 84s-35.833 44 -62.5 58s-56.667 21 -90 21s-63.333 -7 -90 -21z" />
    <glyph glyph-name="seven" unicode="7" horiz-adv-x="547" 
d="M196 0h-82l317 635h-391v65h475v-54z" />
    <glyph glyph-name="eight" unicode="8" horiz-adv-x="629" 
d="M437 686.5c36.667 -15 65.665 -36.834 86.998 -65.501s32 -62.334 32 -101.001c0 -40.667 -10.667 -74.667 -32 -102s-49.666 -48.333 -84.999 -63c40.667 -14.667 73.167 -36.167 97.5 -64.5s36.5 -63.166 36.5 -104.499c0 -40.667 -11.5 -75.667 -34.5 -105
s-54 -51.666 -93 -66.999s-82.5 -23 -130.5 -23s-91.667 7.66699 -131 23s-70.5 37.666 -93.5 66.999s-34.5 64.333 -34.5 105c0 42 12.167 77 36.5 105s56.5 49.333 96.5 64c-35.333 14.667 -63.5 35.667 -84.5 63s-31.5 61.333 -31.5 102
c0 38.667 10.667 72.334 32 101.001s50.5 50.5 87.5 65.5s77.833 22.5 122.5 22.5s85.334 -7.5 122.001 -22.5zM194.498 609.999c-31.667 -22.667 -47.5 -54 -47.5 -94c0 -42.667 15.833 -75.5 47.5 -98.5s71.834 -34.5 120.501 -34.5c48 0 87.833 11.667 119.5 35
s47.5 56 47.5 98c0 40 -15.833 71.333 -47.5 94s-71.5 34 -119.5 34c-48.667 0 -88.834 -11.333 -120.501 -34zM182.498 288.499c-35 -23.667 -52.501 -56.5 -52.501 -98.5s17.5 -74.833 52.5 -98.5s79.167 -35.5 132.5 -35.5c52.667 0 96.334 11.833 131.001 35.5
s52 56.5 52 98.5s-17.5 74.833 -52.5 98.5s-78.5 35.5 -130.5 35.5c-53.333 0 -97.5 -11.833 -132.5 -35.5z" />
    <glyph glyph-name="nine" unicode="9" horiz-adv-x="577" 
d="M283 255c-45.333 0 -86.334 9.83105 -123.001 29.498s-65.334 46.834 -86.001 81.501s-31 73.334 -31 116.001s10.667 81.167 32 115.5s50.833 61.5 88.5 81.5s79.834 30 126.501 30s88.834 -10 126.501 -30s67.334 -47.167 89.001 -81.5s32.5 -72.833 32.5 -115.5
c0 -25.333 -4 -49.833 -12 -73.5s-20 -48.5 -36 -74.5l-210 -334h-85l174 272c-26.667 -11.333 -55.334 -17 -86.001 -17zM379.999 339.998c26.667 14 47.667 33.333 63 58s23 52.667 23 84c0 30.667 -7.5 58.334 -22.5 83.001s-36 44 -63 58s-57.167 21 -90.5 21
s-63.333 -7 -90 -21s-47.5 -33.333 -62.5 -58s-22.5 -52.334 -22.5 -83.001c0 -31.333 7.5 -59.333 22.5 -84s35.833 -44 62.5 -58s56.667 -21 90 -21s63.333 7 90 21z" />
    <glyph glyph-name="colon" unicode=":" horiz-adv-x="262" 
d="M170 465c10.667 -10.667 16 -23.667 16 -39c0 -14.667 -5.5 -27.5 -16.5 -38.5s-23.833 -16.5 -38.5 -16.5s-27.5 5.5 -38.5 16.5s-16.5 23.833 -16.5 38.5s5.5 27.5 16.5 38.5s23.833 16.5 38.5 16.5c15.333 0 28.333 -5.33301 39 -16zM169.5 86
c11 -10.667 16.5 -23.334 16.5 -38.001c0 -15.333 -5.5 -28.5 -16.5 -39.5s-23.833 -16.5 -38.5 -16.5s-27.5 5.66699 -38.5 17s-16.5 24.333 -16.5 39s5.5 27.334 16.5 38.001s23.833 16 38.5 16s27.5 -5.33301 38.5 -16z" />
    <glyph glyph-name="semicolon" unicode=";" horiz-adv-x="247" 
d="M166 464.5c10.667 -11 16 -23.833 16 -38.5s-5.33301 -27.5 -16 -38.5s-23.334 -16.5 -38.001 -16.5s-27.5 5.5 -38.5 16.5s-16.5 23.833 -16.5 38.5s5.5 27.5 16.5 38.5s23.833 16.5 38.5 16.5s27.334 -5.5 38.001 -16.5zM125 -127h-57l31 250h78z" />
    <glyph glyph-name="less" unicode="&#x3c;" 
d="M106 232v65l389 185v-71l-322 -147l322 -146v-71z" />
    <glyph glyph-name="equal" unicode="=" 
d="M85 325v59h430v-59h-430zM85 144v60h430v-60h-430z" />
    <glyph glyph-name="greater" unicode="&#x3e;" 
d="M495 297v-65l-389 -185v71l322 146l-322 147v71z" />
    <glyph glyph-name="question" unicode="?" horiz-adv-x="427" 
d="M107 378h27.999c58 0 103.333 11.833 136 35.5s49 56.5 49 98.5c0 39.333 -16.5 70.5 -49.5 93.5s-76.833 34.5 -131.5 34.5c-8.66699 0 -30 -1 -64 -3l-6 69c22 3.33301 46.667 5 74 5c50.667 0 94.834 -8.16699 132.501 -24.5s66.834 -39.166 87.501 -68.499
s31 -63.666 31 -102.999c0 -56.667 -19.333 -102.334 -58 -137.001s-93.334 -55.334 -164.001 -62.001l-4 -95h-61v157zM175.999 85.5c10.667 -11 16 -23.833 16 -38.5c0 -15.333 -5.33301 -28.5 -16 -39.5s-23.334 -16.5 -38.001 -16.5s-27.5 5.66699 -38.5 17
s-16.5 24.333 -16.5 39s5.5 27.5 16.5 38.5s23.833 16.5 38.5 16.5s27.334 -5.5 38.001 -16.5z" />
    <glyph glyph-name="at" unicode="@" horiz-adv-x="987" 
d="M697.5 127c10.333 -16 25.832 -23.9961 46.499 -23.9961c28.667 0 52.167 14.333 70.5 43s27.5 68.667 27.5 120c0 65.333 -15.167 123.166 -45.5 173.499s-72 89.5 -125 117.5s-112.167 42 -177.5 42s-124.5 -15.167 -177.5 -45.5s-94.833 -72.166 -125.5 -125.499
s-46 -112.666 -46 -177.999c0 -66.667 15.167 -126.834 45.5 -180.501s72.166 -95.667 125.499 -126s112.333 -45.5 177 -45.5c80.667 0 153 22.667 217 68l31 -43c-72 -52.667 -154.667 -79 -248 -79c-76.667 0 -146.167 17.833 -208.5 53.5s-111.166 84.5 -146.499 146.5
s-53 130.667 -53 206c0 74.667 17.833 142.667 53.5 204s84.667 109.666 147 144.999s131.833 53 208.5 53c77.333 0 147 -16.5 209 -49.5s110.667 -78.833 146 -137.5s53 -125 53 -199c0 -41.333 -6.5 -78.333 -19.5 -111s-31.833 -58.5 -56.5 -77.5
s-53.334 -28.5 -86.001 -28.5c-30 0 -54.333 7.33301 -73 22s-31 34.667 -37 60c-15.333 -24 -35.833 -43.167 -61.5 -57.5s-55.5 -21.5 -89.5 -21.5c-35.333 0 -67.666 8.5 -96.999 25.5s-52.333 40.667 -69 71s-25 64.166 -25 101.499s8.33301 71.166 25 101.499
s39.5 54.166 68.5 71.499s61.167 26 96.5 26c32.667 0 61.334 -6.83301 86.001 -20.5s45 -32.5 61 -56.5v70h57v-239c0 -34.667 5.16699 -60 15.5 -76zM386.999 353.004c-26 -27.333 -39 -61.666 -39 -102.999s13 -75.666 39 -102.999s59.333 -41 100 -41
s74.167 13.667 100.5 41s39.5 61.666 39.5 102.999s-13.167 75.666 -39.5 102.999s-59.833 41 -100.5 41s-74 -13.667 -100 -41z" />
    <glyph glyph-name="A" unicode="A" horiz-adv-x="708" 
d="M612 0l-81 199h-355l-82 -199h-75l291 700h88l291 -700h-77zM502 267l-149 363l-150 -363h299z" />
    <glyph glyph-name="B" unicode="B" horiz-adv-x="699" 
d="M557.5 655.5c44.333 -29.667 66.499 -75.8311 66.499 -138.498c0 -40.667 -10.5 -74.334 -31.5 -101.001s-49.833 -45 -86.5 -55c40.667 -11.333 72.834 -31.333 96.501 -60s35.5 -65 35.5 -109c0 -64.667 -22 -112.834 -66 -144.501s-106 -47.5 -186 -47.5h-285v700h273
c78 0 139.167 -14.833 183.5 -44.5zM173.999 389.003l198.001 -0.000976562c55.333 0 98.666 9.33301 129.999 28s47 50 47 94c0 44.667 -15.667 76.334 -47 95.001s-75 28 -131 28h-197v-245zM174 67.002h209c58 0 102.5 9.83301 133.5 29.5s46.5 52.5 46.5 98.5
s-15.5 78.833 -46.5 98.5s-75.5 29.5 -133.5 29.5h-209v-256z" />
    <glyph glyph-name="C" unicode="C" horiz-adv-x="763" 
d="M588 670c50.667 -26 89.998 -61.6689 117.998 -107.002l-61 -40c-24 36 -55.5 64.333 -94.5 85s-82.167 31 -129.5 31c-53.333 0 -101.666 -12.167 -144.999 -36.5s-77.5 -58.333 -102.5 -102s-37.5 -93.834 -37.5 -150.501s12.5 -106.834 37.5 -150.501
s59.167 -77.667 102.5 -102s91.666 -36.5 144.999 -36.5c46.667 0 89.834 10.333 129.501 31s71.167 49 94.5 85l59 -43c-30 -44.667 -69.833 -79.667 -119.5 -105s-104.167 -38 -163.5 -38c-68 0 -129.5 15.333 -184.5 46s-98 73.334 -129 128.001
s-46.5 116.334 -46.5 185.001s15.5 130.334 46.5 185.001s74 97.334 129 128.001s116.5 46 184.5 46c60.667 0 116.334 -13 167.001 -39z" />
    <glyph glyph-name="D" unicode="D" horiz-adv-x="798" 
d="M560.5 657c57 -28.667 100.833 -69.3301 131.5 -121.997s46 -114.334 46 -185.001s-15.333 -132.334 -46 -185.001s-74.5 -93.334 -131.5 -122.001s-123.5 -43 -199.5 -43h-260v700h260c76 0 142.5 -14.333 199.5 -43zM174 68.0039h187c96 0 170.167 25.333 222.5 76
s78.5 119.334 78.5 206.001c0 87.333 -26 156.166 -78 206.499s-126.333 75.5 -223 75.5h-187v-564z" />
    <glyph glyph-name="E" unicode="E" horiz-adv-x="670" 
d="M101 0v700h484v-67h-411v-247h398v-67h-398v-251h415v-68h-488z" />
    <glyph glyph-name="F" unicode="F" horiz-adv-x="644" 
d="M174 318v-318h-73v700h482v-68h-409v-246h391v-68h-391z" />
    <glyph glyph-name="G" unicode="G" horiz-adv-x="816" 
d="M572.5 678c47 -20.667 86.5 -49.6602 118.5 -86.9932l-53 -51c-26.667 31.333 -58.5 55.666 -95.5 72.999s-77.5 26 -121.5 26c-53.333 0 -101.666 -12.167 -144.999 -36.5s-77.5 -58.333 -102.5 -102s-37.5 -93.834 -37.5 -150.501s12.5 -106.834 37.5 -150.501
s59 -77.667 102 -102s90.5 -36.5 142.5 -36.5c76 0 136.833 21.833 182.5 65.5s71.167 103.5 76.5 179.5h-228v66h306c0.666992 -4.66699 1 -11.334 1 -20.001c0 -68.667 -14 -130.334 -42 -185.001s-67.5 -97.667 -118.5 -129s-110.167 -47 -177.5 -47
c-63.333 0 -122.333 14.667 -177 44s-98.334 71.166 -131.001 125.499s-49 117.5 -49 189.5c0 69.333 15.667 131.166 47 185.499s74.333 96.833 129 127.5s116 46 184 46c54 0 104.5 -10.333 151.5 -31z" />
    <glyph glyph-name="H" unicode="H" horiz-adv-x="782" 
d="M608 387v313h73v-700h-73v319h-434v-319h-73v700h73v-313h434z" />
    <glyph glyph-name="I" unicode="I" horiz-adv-x="275" 
d="M101 0v700h73v-700h-73z" />
    <glyph glyph-name="J" unicode="J" horiz-adv-x="574" 
d="M446.5 111c-21 -39.333 -49.833 -69.167 -86.5 -89.5s-78.334 -30.5 -125.001 -30.5c-87.333 0 -158.333 31.667 -213 95l47 50c18.667 -22 41.834 -40 69.501 -54s59.167 -21 94.5 -21c52.667 0 94.667 17 126 51s47 83 47 147v441h72v-448
c0 -54.667 -10.5 -101.667 -31.5 -141z" />
    <glyph glyph-name="K" unicode="K" horiz-adv-x="688" 
d="M174 318v-318h-73v700h73v-314h89l297 314h93l-332 -344l353 -356h-97l-315 318h-88z" />
    <glyph glyph-name="L" unicode="L" horiz-adv-x="602" 
d="M101 0v700h73v-632h408v-68h-481z" />
    <glyph glyph-name="M" unicode="M" horiz-adv-x="930" 
d="M757 0v616l-254 -535h-76l-253 532v-613h-73v700h108l256 -535l256 535h108v-700h-72z" />
    <glyph glyph-name="N" unicode="N" horiz-adv-x="785" 
d="M618 0l-444 577v-577h-73v700h66l444 -577v577h73v-700h-66z" />
    <glyph glyph-name="O" unicode="O" horiz-adv-x="841" 
d="M604.5 663c54.333 -30.667 97.166 -73.334 128.499 -128.001s47 -116.334 47 -185.001s-15.667 -130.334 -47 -185.001s-74.166 -97.334 -128.499 -128.001s-115.5 -46 -183.5 -46s-129.5 15.333 -184.5 46s-98 73.334 -129 128.001s-46.5 116.334 -46.5 185.001
s15.5 130.334 46.5 185.001s74 97.334 129 128.001s116.5 46 184.5 46s129.167 -15.333 183.5 -46zM276 602.5c-43.333 -24.333 -77.5 -58.333 -102.5 -102s-37.5 -93.834 -37.5 -150.501c0 -56 12.5 -106 37.5 -150s59.167 -78.167 102.5 -102.5
s91.666 -36.5 144.999 -36.5s101.5 12.167 144.5 36.5s77 58.5 102 102.5s37.5 94 37.5 150c0 56.667 -12.5 106.834 -37.5 150.501s-59 77.667 -102 102s-91.167 36.5 -144.5 36.5s-101.666 -12.167 -144.999 -36.5z" />
    <glyph glyph-name="P" unicode="P" horiz-adv-x="665" 
d="M174 0h-73v700h264c78 0 138.833 -18.5 182.5 -55.5s65.5 -88.167 65.5 -153.5c0 -66 -21.833 -117.5 -65.5 -154.5s-104.5 -55.5 -182.5 -55.5h-191v-281zM174 349h189c56 0 99.333 12 130 36s46 59.333 46 106s-15.333 82 -46 106s-74 36 -130 36h-189v-284z" />
    <glyph glyph-name="Q" unicode="Q" horiz-adv-x="842" 
d="M604.5 663c54.333 -30.667 97.167 -73.3359 128.5 -128.003s47 -116.334 47 -185.001c0 -44 -6.5 -85.333 -19.5 -124s-32.167 -73 -57.5 -103l97 -123h-85l-60 74c-30.667 -26 -66.167 -46.333 -106.5 -61s-82.833 -22 -127.5 -22c-68 0 -129.5 15.333 -184.5 46
s-98 73.334 -129 128.001s-46.5 116.334 -46.5 185.001s15.5 130.334 46.5 185.001s74 97.334 129 128.001s116.5 46 184.5 46s129.167 -15.333 183.5 -46zM276.001 602.498c-43.333 -24.333 -77.499 -58.333 -102.499 -102s-37.5 -93.834 -37.5 -150.501
c0 -56 12.5 -106 37.5 -150s59.167 -78.167 102.5 -102.5s91.666 -36.5 144.999 -36.5c36.667 0 71.167 6 103.5 18s61.166 29.333 86.499 52l-166 208h87l124 -156c32.667 47.333 49 103 49 167c0 56.667 -12.5 106.834 -37.5 150.501s-59 77.667 -102 102
s-91.167 36.5 -144.5 36.5s-101.666 -12.167 -144.999 -36.5z" />
    <glyph glyph-name="R" unicode="R" horiz-adv-x="672" 
d="M552.5 648.5c42.333 -34.333 63.501 -82.833 63.501 -145.5c0 -60 -21.167 -107.5 -63.5 -142.5s-99.833 -52.833 -172.5 -53.5h-25l258 -307h-89l-253 306h-97v-306h-73v700h272c77.333 0 137.166 -17.167 179.499 -51.5zM174.001 371l197 -0.000976562
c55.333 0 97.5 11.333 126.5 34s43.5 55.334 43.5 98.001c0 42 -14.667 74.167 -44 96.5s-71.333 33.5 -126 33.5h-197v-262z" />
    <glyph glyph-name="S" unicode="S" horiz-adv-x="673" 
d="M343 640c-54.667 0 -99.333 -11.834 -134 -35.501s-52 -55.834 -52 -96.501c0 -33.333 13.667 -59.666 41 -78.999s69.333 -32.333 126 -39l72 -9c144 -17.333 216 -77.666 216 -180.999c0 -44.667 -12.333 -82.667 -37 -114s-58 -55 -100 -71s-88.667 -24 -140 -24
s-101.5 8.33301 -150.5 25s-90.167 38 -123.5 64l38 58c28 -21.333 63 -39.666 105 -54.999s85.333 -23 130 -23c59.333 0 107.833 11.5 145.5 34.5s56.5 55.833 56.5 98.5c0 35.333 -14.333 62.5 -43 81.5s-72 31.833 -130 38.5l-75 9
c-65.333 7.33301 -116 26.166 -152 56.499s-54 72.166 -54 125.499c0 42.667 11.5 79.334 34.5 110.001s54.5 54.167 94.5 70.5s84.333 24.5 133 24.5c92 0 176 -25.667 252 -77l-37 -59c-63.333 44.667 -135.333 67 -216 67z" />
    <glyph glyph-name="T" unicode="T" horiz-adv-x="608" 
d="M340 632v-632h-73v632h-247v68h567v-68h-247z" />
    <glyph glyph-name="U" unicode="U" horiz-adv-x="754" 
d="M625.5 119c-25 -42.667 -59.166 -74.667 -102.499 -96s-92.333 -32 -147 -32s-103.5 10.667 -146.5 32s-76.833 53.333 -101.5 96s-37 94.334 -37 155.001v426h72v-422c0 -71.333 19.667 -125.333 59 -162s90.666 -55 153.999 -55c64.667 0 116.5 18.333 155.5 55
s58.5 90.667 58.5 162v422h73v-426c0 -60.667 -12.5 -112.334 -37.5 -155.001z" />
    <glyph glyph-name="V" unicode="V" horiz-adv-x="696" 
d="M304 0l-285 700h77l253 -627l254 627h75l-286 -700h-88z" />
    <glyph glyph-name="W" unicode="W" horiz-adv-x="1102" 
d="M752 0l-201 604l-201 -604h-88l-232 700h76l201 -618l205 618h80l204 -618l202 618h74l-232 -700h-88z" />
    <glyph glyph-name="X" unicode="X" horiz-adv-x="686" 
d="M654 0h-87l-225 303l-225 -303h-85l266 358l-254 342h87l212 -287l214 287h85l-255 -342z" />
    <glyph glyph-name="Y" unicode="Y" horiz-adv-x="639" 
d="M356 0h-72v298l-278 402h86l229 -336l228 336h84l-277 -403v-297z" />
    <glyph glyph-name="Z" unicode="Z" horiz-adv-x="661" 
d="M157 68h443v-68h-539v57l441 575h-435v68h532v-56z" />
    <glyph glyph-name="bracketleft" unicode="[" horiz-adv-x="371" 
d="M101 -132v832h229v-62h-160v-708h160v-62h-229z" />
    <glyph glyph-name="backslash" unicode="\" horiz-adv-x="496" 
d="M73 770l424 -870h-73l-425 870h74z" />
    <glyph glyph-name="bracketright" unicode="]" horiz-adv-x="371" 
d="M271 700v-832h-230v62h160v708h-160v62h230z" />
    <glyph glyph-name="asciicircum" unicode="^" 
d="M267 700h66l178 -373h-72l-140 304l-139 -304h-71z" />
    <glyph glyph-name="underscore" unicode="_" horiz-adv-x="468" 
d="M-3 -131v59h473v-59h-473z" />
    <glyph glyph-name="grave" unicode="`" horiz-adv-x="459" 
d="M133 694h84l109 -151h-66z" />
    <glyph glyph-name="a" unicode="a" horiz-adv-x="621" 
d="M467 0l0.000976562 86.002c-19.333 -29.333 -44.333 -52.5 -75 -69.5s-65.667 -25.5 -105 -25.5c-43.333 0 -83 10.667 -119 32s-64.333 50.666 -85 87.999s-31 79 -31 125s10.333 87.667 31 125s49 66.666 85 87.999s75.667 32 119 32c40 0 75.167 -8.33301 105.5 -25
s55.166 -39.667 74.499 -69v86h67v-473h-67zM205.001 394.002c-26.667 -16 -47.332 -37.8359 -61.999 -65.5029s-22 -58.5 -22 -92.5c0 -33.333 7.5 -63.833 22.5 -91.5s35.667 -49.5 62 -65.5s56.166 -24 89.499 -24c34 0 64.167 7.83301 90.5 23.5s47 37.334 62 65.001
s22.5 58.5 22.5 92.5c0 34.667 -7.5 65.834 -22.5 93.501s-35.667 49.334 -62 65.001s-56.5 23.5 -90.5 23.5c-33.333 0 -63.333 -8 -90 -24z" />
    <glyph glyph-name="b" unicode="b" horiz-adv-x="622" 
d="M454 449c36 -21.333 64.333 -50.668 85 -88.001s31 -79 31 -125s-10.333 -87.667 -31 -125s-49 -66.666 -85 -87.999s-75.667 -32 -119 -32c-39.333 0 -74.333 8.33301 -105 25s-55.667 39.667 -75 69v-85h-67v720h67v-331c19.333 28.667 44.333 51.167 75 67.5
s65.667 24.5 105 24.5c43.333 0 83 -10.667 119 -32zM236 394.498c-26.667 -15.667 -47.501 -37.499 -62.501 -65.499s-22.5 -59 -22.5 -93s7.5 -64.833 22.5 -92.5s35.833 -49.334 62.5 -65.001s56.667 -23.5 90 -23.5c34 0 64.333 8 91 24s47.334 37.833 62.001 65.5
s22 58.167 22 91.5c0 34 -7.5 64.833 -22.5 92.5s-35.833 49.5 -62.5 65.5s-56.667 24 -90 24s-63.333 -7.83301 -90 -23.5z" />
    <glyph glyph-name="c" unicode="c" horiz-adv-x="513" 
d="M394 461.5c30.667 -13 56.3311 -31.8291 76.998 -56.4961l-45 -44c-36.667 38 -81 57 -133 57c-32 0 -61.167 -7.83301 -87.5 -23.5s-47 -37.334 -62 -65.001s-22.5 -58.834 -22.5 -93.501s7.5 -65.667 22.5 -93s35.667 -48.833 62 -64.5s55.5 -23.5 87.5 -23.5
c51.333 0 96.333 19.333 135 58l43 -45c-21.333 -24.667 -47.166 -43.667 -77.499 -57s-63.166 -20 -98.499 -20c-47.333 0 -89.333 10.667 -126 32s-65.334 50.666 -86.001 87.999s-31 79 -31 125s10.333 87.667 31 125s49.334 66.666 86.001 87.999s78.667 32 126 32
c35.333 0 68.333 -6.5 99 -19.5z" />
    <glyph glyph-name="d" unicode="d" horiz-adv-x="621" 
d="M391.5 456.5c30.333 -16.333 55.501 -39.165 75.501 -68.498v332h67v-720h-67v86c-19.333 -29.333 -44.333 -52.5 -75 -69.5s-65.667 -25.5 -105 -25.5c-43.333 0 -83 10.667 -119 32s-64.333 50.666 -85 87.999s-31 79 -31 125s10.333 87.667 31 125
s49 66.666 85 87.999s75.667 32 119 32c39.333 0 74.166 -8.16699 104.499 -24.5zM205.001 394.001c-26.667 -16 -47.332 -37.8359 -61.999 -65.5029s-22 -58.5 -22 -92.5c0 -33.333 7.5 -63.833 22.5 -91.5s35.667 -49.5 62 -65.5s56.166 -24 89.499 -24
c34 0 64.167 7.83301 90.5 23.5s47 37.334 62 65.001s22.5 58.5 22.5 92.5c0 34.667 -7.5 65.834 -22.5 93.501s-35.667 49.334 -62 65.001s-56.5 23.5 -90.5 23.5c-33.333 0 -63.333 -8 -90 -24z" />
    <glyph glyph-name="e" unicode="e" horiz-adv-x="560" 
d="M400.5 450c33.667 -20.667 60.166 -49.3301 79.499 -85.9971s29 -78.334 29 -125.001c0 -12.667 -0.333008 -21.334 -1 -26.001h-387c4.66699 -51.333 23 -91.333 55 -120s71.667 -43 119 -43c57.333 0 108.333 21.333 153 64l37 -45c-51.333 -52 -116.333 -78 -195 -78
c-46 0 -87 10.333 -123 31s-64.167 49.667 -84.5 87s-30.5 79.666 -30.5 126.999c0 46.667 10.167 88.667 30.5 126s48.333 66.5 84 87.5s75.834 31.5 120.501 31.5c42 0 79.833 -10.333 113.5 -31zM173.999 379.004c-29.333 -28.667 -46.668 -66 -52.001 -112h318
c-4 46 -20.333 83.333 -49 112s-63.667 43 -105 43c-45.333 0 -82.666 -14.333 -111.999 -43z" />
    <glyph glyph-name="f" unicode="f" horiz-adv-x="436" 
d="M206 412v-412h-68v412h-111v61h111v78c0 54.667 13 98 39 130s66 48 120 48c48 0 91.333 -12.333 130 -37l-25 -55c-14 8 -29.833 14.667 -47.5 20s-35.167 8 -52.5 8c-64 0 -96 -38 -96 -114v-78h195v-61h-195z" />
    <glyph glyph-name="g" unicode="g" horiz-adv-x="617" 
d="M388.5 456c30.333 -16.667 55.165 -40.0039 74.498 -70.0039v87h67v-440c0 -50.667 -10.833 -94.167 -32.5 -130.5s-51.167 -63.666 -88.5 -81.999s-80 -27.5 -128 -27.5c-39.333 0 -76.666 6 -111.999 18s-64.666 28.333 -87.999 49l31 50
c48.667 -36.667 104.667 -55 168 -55c53.333 0 97 15 131 45s51 73.667 51 131v62c-18.667 -30 -43.167 -53.333 -73.5 -70s-65.5 -25 -105.5 -25c-43.333 0 -82.5 10.333 -117.5 31s-62.667 49.334 -83 86.001s-30.5 78.334 -30.5 125.001s10.167 88.334 30.5 125.001
s48 65.167 83 85.5s74.167 30.5 117.5 30.5c40 0 75.167 -8.33301 105.5 -25zM203.999 394.496c-26 -15.667 -46.333 -37.167 -61 -64.5s-22 -57.333 -22 -90c0 -33.333 7.33301 -63.666 22 -90.999s35 -48.833 61 -64.5s55.667 -23.5 89 -23.5s63.166 7.83301 89.499 23.5
s47 37.167 62 64.5s22.5 57.666 22.5 90.999s-7.5 63.5 -22.5 90.5s-35.667 48.333 -62 64s-56.166 23.5 -89.499 23.5s-63 -7.83301 -89 -23.5z" />
    <glyph glyph-name="h" unicode="h" horiz-adv-x="598" 
d="M225.5 459.5c29 14.333 60.168 21.499 93.501 21.499c58.667 0 106.167 -17.167 142.5 -51.5s54.5 -80.166 54.5 -137.499v-292h-68v270c0 46 -12.5 82 -37.5 108s-60.167 39 -105.5 39c-42.667 0 -78.334 -13.833 -107.001 -41.5s-43 -63.5 -43 -107.5v-268h-67v720h67
v-325c18 28.667 41.5 50.167 70.5 64.5z" />
    <glyph glyph-name="i" unicode="i" horiz-adv-x="243" 
d="M155.5 674c9 -9.33301 13.5 -20.666 13.5 -33.999c0 -12.667 -4.5 -23.667 -13.5 -33s-20.167 -14 -33.5 -14s-24.5 4.5 -33.5 13.5s-13.5 20.167 -13.5 33.5s4.5 24.666 13.5 33.999s20.167 14 33.5 14s24.5 -4.66699 33.5 -14zM88 0v473h67v-473h-67z" />
    <glyph glyph-name="j" unicode="j" horiz-adv-x="244" 
d="M156.5 674c9 -9.33301 13.5 -20.666 13.5 -33.999c0 -12.667 -4.5 -23.667 -13.5 -33s-20.167 -14 -33.5 -14c-12.667 0 -23.667 4.66699 -33 14s-14 20.333 -14 33c0 13.333 4.5 24.666 13.5 33.999s20.167 14 33.5 14s24.5 -4.66699 33.5 -14zM127.5 -174.5
c-19.667 -21.667 -46.833 -32.5 -81.5 -32.5c-12 0 -24.167 1.5 -36.5 4.5s-22.5 6.83301 -30.5 11.5l14 58c16 -7.33301 31.333 -11 46 -11c34 0 51 21.333 51 64v553h67v-556c0 -39.333 -9.83301 -69.833 -29.5 -91.5z" />
    <glyph glyph-name="k" unicode="k" horiz-adv-x="525" 
d="M228 278l189 195h85l-220 -223l223 -250h-85l-192 217h-73v-217h-67v720h67v-442h73z" />
    <glyph glyph-name="l" unicode="l" horiz-adv-x="243" 
d="M88 0v720h67v-720h-67z" />
    <glyph glyph-name="m" unicode="m" horiz-adv-x="958" 
d="M821.5 429.5c36.333 -34.333 54.5029 -80.166 54.5029 -137.499v-292h-67v270c0 46 -12.667 82 -38 108s-60.666 39 -105.999 39c-42.667 0 -78.167 -13.833 -106.5 -41.5s-42.5 -63.5 -42.5 -107.5v-268h-68v270c0 46 -12.5 82 -37.5 108s-60.167 39 -105.5 39
c-42.667 0 -78.334 -13.833 -107.001 -41.5s-43 -63.5 -43 -107.5v-268h-67v473h67v-79c17.333 29.333 40.666 51.166 69.999 65.499s60.666 21.5 93.999 21.5c42.667 0 79.667 -9.16699 111 -27.5s54.333 -44.166 69 -77.499c16.667 35.333 41.167 61.666 73.5 78.999
s67.5 26 105.5 26c59.333 0 107.166 -17.167 143.499 -51.5z" />
    <glyph glyph-name="n" unicode="n" horiz-adv-x="598" 
d="M461.5 429.5c36.333 -34.333 54.5029 -80.166 54.5029 -137.499v-292h-68v270c0 46 -12.5 82 -37.5 108s-60.167 39 -105.5 39c-42.667 0 -78.334 -13.833 -107.001 -41.5s-43 -63.5 -43 -107.5v-268h-67v473h67v-79c17.333 29.333 40.666 51.166 69.999 65.499
s60.666 21.5 93.999 21.5c58.667 0 106.167 -17.167 142.5 -51.5z" />
    <glyph glyph-name="o" unicode="o" horiz-adv-x="597" 
d="M424.5 449c37.667 -21.333 67.332 -50.666 88.999 -87.999s32.5 -79 32.5 -125s-10.833 -87.667 -32.5 -125s-51.5 -66.666 -89.5 -87.999s-80 -32 -126 -32s-87.833 10.667 -125.5 32s-67.167 50.666 -88.5 87.999s-32 79 -32 125s10.667 87.667 32 125
s50.833 66.666 88.5 87.999s79.5 32 125.5 32c46.667 0 88.834 -10.667 126.501 -32zM207.498 394.5c-27 -15.667 -48.167 -37.334 -63.5 -65.001s-23 -58.834 -23 -93.501s7.66699 -65.667 23 -93s36.5 -48.833 63.5 -64.5s57.167 -23.5 90.5 -23.5
s63.666 7.83301 90.999 23.5s48.666 37.167 63.999 64.5s23 58.333 23 93s-7.66699 65.834 -23 93.501s-36.666 49.334 -63.999 65.001s-57.666 23.5 -90.999 23.5s-63.5 -7.83301 -90.5 -23.5z" />
    <glyph glyph-name="p" unicode="p" horiz-adv-x="622" 
d="M454 449c36 -21.333 64.333 -50.666 85 -87.999s31 -79 31 -125s-10.333 -87.667 -31 -125s-49 -66.666 -85 -87.999s-75.667 -32 -119 -32c-40 0 -75.167 8.16699 -105.5 24.5s-55.166 39.166 -74.499 68.499v-284h-67v673h67v-85
c19.333 29.333 44.166 52.166 74.499 68.499s65.5 24.5 105.5 24.5c43.333 0 83 -10.667 119 -32zM236 394.5c-26.667 -15.667 -47.501 -37.499 -62.501 -65.499s-22.5 -59 -22.5 -93s7.5 -64.833 22.5 -92.5s35.833 -49.334 62.5 -65.001s56.667 -23.5 90 -23.5
c34 0 64.333 8 91 24s47.334 37.833 62.001 65.5s22 58.167 22 91.5c0 34 -7.5 64.833 -22.5 92.5s-35.833 49.5 -62.5 65.5s-56.667 24 -90 24s-63.333 -7.83301 -90 -23.5z" />
    <glyph glyph-name="q" unicode="q" horiz-adv-x="621" 
d="M392.5 456c30.333 -16.667 55.166 -39.665 74.499 -68.998v86h67v-673h-67v285c-20 -29.333 -45.167 -52.333 -75.5 -69s-65.166 -25 -104.499 -25c-43.333 0 -83 10.667 -119 32s-64.333 50.666 -85 87.999s-31 79 -31 125s10.333 87.667 31 125s49 66.666 85 87.999
s75.667 32 119 32c40 0 75.167 -8.33301 105.5 -25zM205 394.002c-26.667 -16 -47.332 -37.8359 -61.999 -65.5029s-22 -58.5 -22 -92.5c0 -33.333 7.5 -63.833 22.5 -91.5s35.667 -49.5 62 -65.5s56.166 -24 89.499 -24c34 0 64.167 7.83301 90.5 23.5s47 37.334 62 65.001
s22.5 58.5 22.5 92.5c0 34.667 -7.5 65.834 -22.5 93.501s-35.667 49.334 -62 65.001s-56.5 23.5 -90.5 23.5c-33.333 0 -63.333 -8 -90 -24z" />
    <glyph glyph-name="r" unicode="r" horiz-adv-x="409" 
d="M383 465l-15 -67c-22.667 12.667 -50.334 19 -83.001 19c-38 0 -69.167 -13.833 -93.5 -41.5s-36.5 -64.167 -36.5 -109.5v-266h-67v473h66v-76c16 26.667 36.333 47.5 61 62.5s52.334 22.5 83.001 22.5c32 0 60.333 -5.66699 85 -17z" />
    <glyph glyph-name="s" unicode="s" horiz-adv-x="490" 
d="M335.5 408.5c-29 9 -58.5029 13.501 -88.5029 13.501c-35.333 0 -63.666 -7 -84.999 -21s-32 -33.333 -32 -58c0 -20 8.5 -35.667 25.5 -47s42.833 -19.333 77.5 -24l57 -7c50.667 -5.33301 89.334 -18.833 116.001 -40.5s40 -50.834 40 -87.501
c0 -45.333 -18.667 -81 -56 -107s-87 -39 -149 -39c-36 0 -71.167 5 -105.5 15s-64.833 25.333 -91.5 46l30 50c22 -16 46.333 -28.667 73 -38s58.334 -14 95.001 -14c42 0 75 7 99 21s36 34.333 36 61c0 40.667 -34.667 65 -104 73l-58 7c-52 6 -90.667 20 -116 42
s-38 50.667 -38 86c0 44 16.833 78.5 50.5 103.5s78.834 37.5 135.501 37.5c36 0 70.167 -4.66699 102.5 -14s60.166 -22 83.499 -38l-26 -52c-18.667 12 -42.5 22.5 -71.5 31.5z" />
    <glyph glyph-name="t" unicode="t" horiz-adv-x="454" 
d="M200 412v-245.999c0 -36.667 9 -64.334 27 -83.001s42.333 -28 73 -28c19.333 0 37.833 3.16699 55.5 9.5s33.5 14.833 47.5 25.5l30 -50c-18 -14.667 -39 -26.5 -63 -35.5s-49.667 -13.5 -77 -13.5c-51.333 0 -90.833 14.5 -118.5 43.5s-41.5 72.167 -41.5 129.5v248
h-106v61h106v152h67v-152h211v-61h-211z" />
    <glyph glyph-name="u" unicode="u" horiz-adv-x="592" 
d="M481.5 84.5c-19 -31 -44.6689 -54.333 -77.002 -70s-68.166 -23.5 -107.499 -23.5c-40 0 -76.167 7.83301 -108.5 23.5s-58 39 -77 70s-28.5 68.5 -28.5 112.5v276h67v-270c0 -47.333 13.333 -83.833 40 -109.5s62.334 -38.5 107.001 -38.5c44 0 79.333 12.833 106 38.5
s40 62.167 40 109.5v270h67v-276c0 -44 -9.5 -81.5 -28.5 -112.5z" />
    <glyph glyph-name="v" unicode="v" horiz-adv-x="520" 
d="M222 -1l-206 474h73l172 -404l172 404h71l-204 -474h-78z" />
    <glyph glyph-name="w" unicode="w" horiz-adv-x="863" 
d="M769 473h70l-181 -473h-79l-148 399l-147 -399h-79l-181 473h72l151 -402l148 402h74l149 -403z" />
    <glyph glyph-name="x" unicode="x" horiz-adv-x="510" 
d="M492 0h-82l-157 193l-157 -193h-79l194 242l-187 231h82l151 -185l150 185h80l-188 -231z" />
    <glyph glyph-name="y" unicode="y" horiz-adv-x="521" 
d="M52 -202l179 307l-220 368h76l182 -301l170 301h75l-388 -675h-74z" />
    <glyph glyph-name="z" unicode="z" horiz-adv-x="531" 
d="M153 61h317v-61h-408v49l316 363h-306v61h394v-50z" />
    <glyph glyph-name="braceleft" unicode="{" horiz-adv-x="423" 
d="M268 607.5c-19.333 -20.333 -28.333 -50.8359 -27 -91.5029l4 -71c2.66699 -42.667 -4.83301 -77.5 -22.5 -104.5s-44.167 -45.5 -79.5 -55.5c35.333 -10.667 61.833 -29.667 79.5 -57s25.167 -62 22.5 -104l-4 -70c-1.33301 -41.333 7.66699 -72.166 27 -92.499
s46.333 -30.5 81 -30.5h33v-62h-34c-58 0 -102.5 16.5 -133.5 49.5s-44.833 80.167 -41.5 141.5l3 71c2 40.667 -7.33301 71.334 -28 92.001s-49.667 31 -87 31v61c37.333 0 66.333 10.333 87 31s30 51.334 28 92.001l-3 72c-3.33301 60.667 10.5 107.5 41.5 140.5
s75.5 49.5 133.5 49.5h34v-62h-33c-34.667 0 -61.667 -10.167 -81 -30.5z" />
    <glyph glyph-name="bar" unicode="|" horiz-adv-x="351" 
d="M142 -133v833h67v-833h-67z" />
    <glyph glyph-name="braceright" unicode="}" horiz-adv-x="423" 
d="M155 -38.5c19.333 20.333 28.333 51.1689 27 92.502l-4 70c-2.66699 42.667 4.83301 77.5 22.5 104.5s44.167 45.833 79.5 56.5c-35.333 10 -61.833 28.5 -79.5 55.5s-25.167 61.833 -22.5 104.5l4 71c1.33301 40.667 -7.66699 71.167 -27 91.5s-46.333 30.5 -81 30.5
h-33v62h34c58 0 102.5 -16.5 133.5 -49.5s44.833 -79.833 41.5 -140.5l-3 -72c-2 -40.667 7.33301 -71.334 28 -92.001s49.667 -31 87 -31v-61c-37.333 0 -66.333 -10.333 -87 -31s-30 -51.334 -28 -92.001l3 -71c3.33301 -61.333 -10.5 -108.5 -41.5 -141.5
s-75.5 -49.5 -133.5 -49.5h-34v62h33c34.667 0 61.667 10.167 81 30.5z" />
    <glyph glyph-name="asciitilde" unicode="~" 
d="M464 227.5c-20.667 -9.66699 -45 -14.501 -73 -14.501c-21.333 0 -39.5 2 -54.5 6s-31.167 10 -48.5 18c-15.333 6.66699 -29 11.834 -41 15.501s-26 5.5 -42 5.5c-18 0 -33.833 -3.5 -47.5 -10.5s-28.167 -18.167 -43.5 -33.5l-36 42c18 20 37.333 34.833 58 44.5
s44.667 14.5 72 14.5c21.333 0 39.333 -2 54 -6s31.334 -10 50.001 -18c17.333 -6.66699 31.666 -11.667 42.999 -15s25 -5 41 -5c16.667 0 32 3.5 46 10.5s28.667 17.833 44 32.5l35 -42c-17.333 -20 -36.333 -34.833 -57 -44.5z" />
    <glyph glyph-name="uni00A0" unicode="&#xa0;" horiz-adv-x="263" 
 />
    <glyph glyph-name="exclamdown" unicode="&#xa1;" horiz-adv-x="263" 
d="M93.5 387c-11 10.667 -16.5 23.334 -16.5 38.001s5.5 27.667 16.5 39s23.5 17 37.5 17c14.667 0 27.5 -5.5 38.5 -16.5s16.5 -24.167 16.5 -39.5c0 -14.667 -5.5 -27.334 -16.5 -38.001s-23.833 -16 -38.5 -16c-14 0 -26.5 5.33301 -37.5 16zM162 252l10 -480h-81l10 480
h61z" />
    <glyph glyph-name="cent" unicode="&#xa2;" horiz-adv-x="700" 
d="M403 593c32.667 -2 63.001 -9.32812 91.001 -21.9951s52.333 -30 73 -52l-42 -42c-34.667 32.667 -75.334 51 -122.001 55v-363c46.667 2.66699 88 21 124 55l40 -42c-20.667 -22.667 -45 -40.334 -73 -53.001s-58.333 -20 -91 -22v-107h-61v109
c-40.667 6 -76.667 20.167 -108 42.5s-55.666 50.666 -72.999 84.999s-26 72.166 -26 113.499s8.66699 79.166 26 113.499s41.666 62.666 72.999 84.999s67.333 36.5 108 42.5v109h61v-107zM241.001 234.505c26 -32.333 59.667 -53.1689 101 -62.502v357
c-41.333 -9.33301 -75 -30.166 -101 -62.499s-39 -71.166 -39 -116.499c0 -44.667 13 -83.167 39 -115.5z" />
    <glyph glyph-name="sterling" unicode="&#xa3;" horiz-adv-x="700" 
d="M93 0l0.000976562 66.001h92v254h-92v60h92v78c0 54 10.167 99.833 30.5 137.5s48 66 83 85s74.167 28.5 117.5 28.5c38 0 72.5 -7.16699 103.5 -21.5s57.5 -35.5 79.5 -63.5l-50 -46c-32 42.667 -76.333 64 -133 64c-48.667 0 -87.834 -15.833 -117.501 -47.5
s-44.5 -78.834 -44.5 -141.501v-73h268v-60h-268v-254h352v-66h-513z" />
    <glyph glyph-name="currency" unicode="&#xa4;" horiz-adv-x="700" 
d="M219 521c37.333 30 81.333 45 132 45c50 0 94 -15 132 -45l72 73l40 -40l-73 -72c30.667 -40.667 46 -84.667 46 -132s-15.333 -91.666 -46 -132.999l73 -71l-40 -40l-72 73c-38 -30 -82 -45 -132 -45c-50.667 0 -95 15 -133 45l-71 -73l-40 40l73 71
c-30 39.333 -45 83.666 -45 132.999c0 50 15 94 45 132l-73 72l39 40zM432 210.5c24.667 14.333 44.167 33.833 58.5 58.5s21.5 51.667 21.5 81s-7.16699 56.333 -21.5 81s-33.833 44.167 -58.5 58.5s-51.667 21.5 -81 21.5s-56.333 -7.16699 -81 -21.5
s-44.167 -33.833 -58.5 -58.5s-21.5 -51.667 -21.5 -81s7.16699 -56.333 21.5 -81s33.833 -44.167 58.5 -58.5s51.667 -21.5 81 -21.5s56.333 7.16699 81 21.5z" />
    <glyph glyph-name="yen" unicode="&#xa5;" horiz-adv-x="700" 
d="M388 164v-164h-70v164h-202v54h202v104h-202v54h173l-234 324h83l214 -301l213 301h81l-231 -324h173v-54h-200v-104h200v-54h-200z" />
    <glyph glyph-name="brokenbar" unicode="&#xa6;" horiz-adv-x="351" 
d="M142 353v347h67v-347h-67zM142 -133v348h67v-348h-67z" />
    <glyph glyph-name="section" unicode="&#xa7;" horiz-adv-x="655" 
d="M442.5 628c-33.667 11.333 -68.832 16.9961 -105.499 16.9961c-50 0 -90.667 -9.5 -122 -28.5s-47 -45.167 -47 -78.5c0 -54.667 52 -87.667 156 -99l62 -5c57.333 -6.66699 104.333 -22.667 141 -48s55 -60.666 55 -105.999c0 -56 -27 -99.333 -81 -130
c47.333 -27.333 71 -66 71 -116c0 -58 -23.833 -102.333 -71.5 -133s-107.167 -46 -178.5 -46c-48 0 -94 7.33301 -138 22s-81.333 33.667 -112 57l36 55c26 -20.667 57.5 -37.834 94.5 -51.501s76.833 -20.5 119.5 -20.5c53.333 0 96.666 9.5 129.999 28.5
s50.333 46.5 51 82.5c0 52.667 -53 85.334 -159 98.001l-66 6c-58 6.66699 -104 23 -138 49s-51 61.667 -51 107c0 26.667 6.83301 50.834 20.5 72.501s33.167 39.834 58.5 54.501c-46 26.667 -69 66.334 -69 119.001c0 35.333 10.333 66.333 31 93s49 47 85 61
s76.333 21 121 21c85.333 0 161.333 -23.667 228 -71l-33 -55c-25.333 18.667 -54.833 33.667 -88.5 45zM231.002 388.996c-22.667 -9.33301 -40.5 -22.333 -53.5 -39s-19.5 -36 -19.5 -58c0 -27.333 13.167 -49 39.5 -65s64.833 -27 115.5 -33l64 -6
c24 -3.33301 44.333 -7.66602 61 -12.999c50 19.333 75 52 75 98c0 28 -14 50.167 -42 66.5s-66.333 27.166 -115 32.499l-68 6c-18 2 -37 5.66699 -57 11z" />
    <glyph glyph-name="dieresis" unicode="&#xa8;" horiz-adv-x="468" 
d="M164.5 649.5c9 -9 13.5 -20.167 13.5 -33.5c0 -12.667 -4.5 -23.667 -13.5 -33s-20.167 -14 -33.5 -14s-24.333 4.5 -33 13.5s-13 20.167 -13 33.5s4.33301 24.5 13 33.5s19.667 13.5 33 13.5s24.5 -4.5 33.5 -13.5zM370.5 649.5c9 -9 13.5 -20.167 13.5 -33.5
s-4.5 -24.5 -13.5 -33.5s-20.167 -13.5 -33.5 -13.5c-12.667 0 -23.667 4.66699 -33 14s-14 20.333 -14 33c0 13.333 4.66699 24.5 14 33.5s20.333 13.5 33 13.5c13.333 0 24.5 -4.5 33.5 -13.5z" />
    <glyph glyph-name="copyright" unicode="&#xa9;" horiz-adv-x="947" 
d="M675 697.5c61.333 -35.667 110 -84 146 -145s54 -127.5 54 -199.5s-18 -138.5 -54 -199.5s-84.667 -109.5 -146 -145.5s-128.333 -54 -201 -54s-139.667 18 -201 54s-110 84.5 -146 145.5s-54 127.5 -54 199.5s18 138.5 54 199.5s84.667 109.333 146 145
s128.333 53.5 201 53.5s139.667 -17.833 201 -53.5zM303.5 647.5c-52.333 -30.333 -93.666 -71.666 -123.999 -123.999s-45.5 -109.166 -45.5 -170.499s15.167 -118 45.5 -170s71.666 -93.167 123.999 -123.5s109.166 -45.5 170.499 -45.5s118.166 15.167 170.499 45.5
s93.666 71.5 123.999 123.5s45.5 108.667 45.5 170s-15.167 118.166 -45.5 170.499s-71.666 93.666 -123.999 123.999s-109.166 45.5 -170.499 45.5s-118.166 -15.167 -170.499 -45.5zM554 491c-21.333 11.333 -45 16.9971 -71 16.9971c-27.333 0 -52.333 -6.5 -75 -19.5
s-40.5 -31.333 -53.5 -55s-19.5 -50.5 -19.5 -80.5c0 -31.333 6.66699 -58.666 20 -81.999s31.333 -41.166 54 -53.499s47.667 -18.5 75 -18.5c25.333 0 48.833 5.5 70.5 16.5s39.167 26.5 52.5 46.5l47 -35c-18.667 -27.333 -42.667 -48.5 -72 -63.5s-62 -22.5 -98 -22.5
c-39.333 0 -75.166 9 -107.499 27s-57.666 43.167 -75.999 75.5s-27.5 68.833 -27.5 109.5s9.16699 77.334 27.5 110.001s43.666 58 75.999 76s68.166 27 107.499 27c36 0 69.167 -8 99.5 -24s54.166 -37.667 71.499 -65l-49 -33c-13.333 20 -30.666 35.667 -51.999 47z" />
    <glyph glyph-name="ordfeminine" unicode="&#xaa;" horiz-adv-x="392" 
d="M292.5 613.5c25.667 -23 38.498 -57.168 38.498 -102.501v-198h-53v48c-33.333 -36 -73.666 -54 -120.999 -54c-35.333 0 -63.666 9.16699 -84.999 27.5s-32 42.5 -32 72.5s12 53.667 36 71s58 26 102 26h99c-0.666992 32.667 -8.83398 56.834 -24.501 72.501
s-39.5 23.5 -71.5 23.5c-37.333 0 -71 -12 -101 -36l-22 41c36.667 28.667 79.334 43 128.001 43c45.333 0 80.833 -11.5 106.5 -34.5zM229.498 366.499c18.333 9.66699 34.168 22.166 47.501 37.499v62h-91c-30 0 -52.167 -5.16699 -66.5 -15.5
s-21.5 -24.166 -21.5 -41.499c0 -16 6.5 -29.5 19.5 -40.5s30.5 -16.5 52.5 -16.5c21.333 0 41.166 4.83301 59.499 14.5z" />
    <glyph glyph-name="guillemotleft" unicode="&#xab;" horiz-adv-x="505" 
d="M162 80l-96 184l96 184h72l-97 -184l97 -184h-72zM357 80l-97 184l97 184h71l-97 -184l97 -184h-71z" />
    <glyph glyph-name="logicalnot" unicode="&#xac;" 
d="M470 75l-16 137l-320 22l-49 44l365 16l65 -180z" />
    <glyph glyph-name="uni00AD" unicode="&#xad;" horiz-adv-x="416" 
d="M71 234v60h275v-60h-275z" />
    <glyph glyph-name="registered" unicode="&#xae;" horiz-adv-x="449" 
d="M326 690.5c30.667 -17.667 54.833 -41.5 72.5 -71.5s26.5 -63 26.5 -99c0 -35.333 -9 -68 -27 -98s-42.167 -53.833 -72.5 -71.5s-63.5 -26.5 -99.5 -26.5c-36.667 0 -70.5 8.83301 -101.5 26.5s-55.5 41.5 -73.5 71.5s-27 62.667 -27 98c0 36 9 69 27 99
s42.333 53.833 73 71.5s64.667 26.5 102 26.5c36 0 69.333 -8.83301 100 -26.5zM303.999 383.5c24 14.333 43.001 33.5 57.001 57.5s21 50.333 21 79s-7 55 -21 79s-32.833 43 -56.5 57s-49.834 21 -78.501 21c-29.333 0 -56 -7 -80 -21s-43 -33 -57 -57
s-21 -50.333 -21 -79s7 -55 21 -79s33 -43.167 57 -57.5s50.667 -21.5 80 -21.5c28 0 54 7.16699 78 21.5zM291.5 598c13 -10.667 19.5 -25 19.5 -43c0 -14.667 -5.33301 -27 -16 -37s-25.667 -16.333 -45 -19l62 -72h-43l-58 72h-22v-72h-35v187h84
c22.667 0 40.5 -5.33301 53.5 -16zM189 528l48 -0.000976562c11.333 0 20.5 2.33301 27.5 7s10.5 11.334 10.5 20.001s-3.5 15.667 -10.5 21s-16.167 8 -27.5 8h-48v-56z" />
    <glyph glyph-name="macron" unicode="&#xaf;" horiz-adv-x="463" 
d="M381 643v-55h-298v55h298z" />
    <glyph glyph-name="degree" unicode="&#xb0;" horiz-adv-x="390" 
d="M109.5 392.5c-26.333 15 -47.166 35.5 -62.499 61.5s-23 54.667 -23 86c0 30.667 7.66699 58.834 23 84.501s36.166 46.167 62.499 61.5s54.833 23 85.5 23c31.333 0 60 -7.66699 86 -23s46.667 -35.833 62 -61.5s23 -53.834 23 -84.501c0 -31.333 -7.66699 -60 -23 -86
s-36 -46.5 -62 -61.5s-54.667 -22.5 -86 -22.5c-30.667 0 -59.167 7.5 -85.5 22.5zM275.5 457.5c22.333 22.333 33.502 49.833 33.502 82.5c0 31.333 -11.167 58.166 -33.5 80.499s-49.166 33.5 -80.499 33.5c-30.667 0 -57.334 -11.167 -80.001 -33.5
s-34 -49.166 -34 -80.499c0 -32 11.167 -59.333 33.5 -82s49.166 -34 80.499 -34s58.166 11.167 80.499 33.5z" />
    <glyph glyph-name="plusminus" unicode="&#xb1;" 
d="M269 309h-184v60h184v177h61v-177h185v-60h-185v-159h-61v159zM85 31v60h430v-60h-430z" />
    <glyph glyph-name="uni00B2" unicode="&#xb2;" horiz-adv-x="334" 
d="M159 704c39.333 0 70.333 -11 93 -33s34 -50.667 34 -86c0 -22 -4.66699 -41.833 -14 -59.5s-23.333 -35.834 -42 -54.501l-106 -107h175v-51h-254v43l146 146c26 24.667 39 51 39 79c0 20.667 -6.83301 37.667 -20.5 51s-32.167 20 -55.5 20
c-19.333 0 -35.833 -4.16699 -49.5 -12.5s-26.167 -20.166 -37.5 -35.499l-35 35c32 43.333 74.333 65 127 65z" />
    <glyph glyph-name="uni00B3" unicode="&#xb3;" horiz-adv-x="334" 
d="M246 675c24.667 -19.333 37.001 -44.667 37.001 -76c0 -22 -5.66699 -40.667 -17 -56s-27.333 -27 -48 -35c22.667 -7.33301 40.667 -18.833 54 -34.5s20 -34.167 20 -55.5c0 -35.333 -13.5 -62.333 -40.5 -81s-59.833 -28 -98.5 -28c-54 0 -96.667 16.667 -128 50l31 36
c26 -24.667 57.333 -37 94 -37c24.667 0 45 5.5 61 16.5s24 26.833 24 47.5c0 18.667 -8.5 33.667 -25.5 45s-37.833 17 -62.5 17h-51v48h52c22.667 0 41.5 5.5 56.5 16.5s22.5 26.5 22.5 46.5c0 18 -7.33301 32.5 -22 43.5s-33.667 16.5 -57 16.5
c-36.667 0 -66.334 -13.667 -89.001 -41l-33 34c30.667 37.333 72 56 124 56c39.333 0 71.333 -9.66699 96 -29z" />
    <glyph glyph-name="acute" unicode="&#xb4;" horiz-adv-x="459" 
d="M242 694h84l-126 -151h-67z" />
    <glyph glyph-name="uni00B5" unicode="&#xb5;" horiz-adv-x="598" 
d="M83 473h66.999v-270c0 -46 12.667 -82 38 -108s60.333 -39 105 -39c42.667 0 78.334 13.833 107.001 41.5s43 63.5 43 107.5v268h67v-473h-66v79c-18 -29.333 -41.5 -51.333 -70.5 -66s-60.167 -22 -93.5 -22c-54 0 -97.667 16 -131 48v-239h-66v673z" />
    <glyph glyph-name="paragraph" unicode="&#xb6;" horiz-adv-x="571" 
d="M271 364c-62.667 0 -111.501 14.8311 -146.501 44.498s-52.5 70.834 -52.5 123.501s17.333 93.834 52 123.501s83.334 44.5 146.001 44.5h54v-700h-53v364zM375.999 699.998h53v-700h-53v700z" />
    <glyph glyph-name="periodcentered" unicode="&#xb7;" horiz-adv-x="369" 
d="M223 302.5c10.667 -11 16 -23.833 16 -38.5s-5.33301 -27.5 -16 -38.5s-23.334 -16.5 -38.001 -16.5s-27.5 5.5 -38.5 16.5s-16.5 23.833 -16.5 38.5c0 15.333 5.5 28.333 16.5 39s23.833 16 38.5 16s27.334 -5.5 38.001 -16.5z" />
    <glyph glyph-name="cedilla" unicode="&#xb8;" horiz-adv-x="480" 
d="M180 -162l54 165h66l-51 -165h-69z" />
    <glyph glyph-name="uni00B9" unicode="&#xb9;" horiz-adv-x="272" 
d="M138 313v316l-113 -46v54l167 67v-391h-54z" />
    <glyph glyph-name="ordmasculine" unicode="&#xba;" horiz-adv-x="426" 
d="M301.5 626c26.333 -14.667 47 -35 62 -61s22.5 -55 22.5 -87s-7.5 -61 -22.5 -87s-35.667 -46.5 -62 -61.5s-55.833 -22.5 -88.5 -22.5s-62.167 7.5 -88.5 22.5s-47 35.5 -62 61.5s-22.5 55 -22.5 87s7.5 61 22.5 87s35.667 46.333 62 61s55.833 22 88.5 22
s62.167 -7.33301 88.5 -22zM130 564c-22 -22.667 -33 -51.334 -33 -86.001s11 -63.334 33 -86.001s49.667 -34 83 -34s61.333 11.333 84 34s34 51.334 34 86.001s-11.333 63.334 -34 86.001s-50.667 34 -84 34s-61 -11.333 -83 -34z" />
    <glyph glyph-name="guillemotright" unicode="&#xbb;" horiz-adv-x="505" 
d="M149 448l96 -184l-96 -183h-72l97 183l-97 184h72zM343 448l97 -184l-97 -183h-71l97 183l-97 184h71z" />
    <glyph glyph-name="onequarter" unicode="&#xbc;" horiz-adv-x="800" 
d="M138 629l-113 -46v54l167 67v-391h-54v316zM577 700h67l-442 -700h-66zM663 78h-182v39l137 269h60l-133 -259h118v84l13 25h42v-109h63v-49h-63v-78h-55v78z" />
    <glyph glyph-name="onehalf" unicode="&#xbd;" horiz-adv-x="830" 
d="M138 313v316l-113 -46v54l167 67v-391h-54zM136 0l441 700h67l-442 -700h-66zM657 391c38.667 0 69.333 -11 92 -33s34 -50.667 34 -86c0 -22 -4.83301 -42 -14.5 -60s-23.834 -36 -42.501 -54l-106 -107h176v-51h-253v43l145 146c26 26 39 52.333 39 79
c0 20.667 -6.83301 37.667 -20.5 51s-31.834 20 -54.501 20c-35.333 0 -64.666 -16 -87.999 -48l-35 35c30.667 43.333 73.334 65 128.001 65z" />
    <glyph glyph-name="threequarters" unicode="&#xbe;" horiz-adv-x="852" 
d="M246 675c24.667 -19.333 37.001 -44.667 37.001 -76c0 -22 -5.66699 -40.667 -17 -56s-27.333 -27 -48 -35c22.667 -7.33301 40.667 -18.833 54 -34.5s20 -34.167 20 -55.5c0 -35.333 -13.5 -62.333 -40.5 -81s-59.833 -28 -98.5 -28c-54 0 -96.667 16.667 -128 50l31 36
c26 -24.667 57.333 -37 94 -37c24.667 0 45 5.5 61 16.5s24 26.833 24 47.5c0 18.667 -8.5 33.667 -25.5 45s-37.833 17 -62.5 17h-51v48h52c22.667 0 41.5 5.5 56.5 16.5s22.5 26.5 22.5 46.5c0 18 -7.33301 32.5 -22 43.5s-33.667 16.5 -57 16.5
c-36.667 0 -66.334 -13.667 -89.001 -41l-33 34c30.667 37.333 72 56 124 56c39.333 0 71.333 -9.66699 96 -29zM188.001 -0.000976562l441 700h67l-442 -700h-66zM832.001 126.999v-49h-63v-78h-54v78h-183v39l137 269h60l-133 -259h119v84l18 25h36v-109h63z" />
    <glyph glyph-name="questiondown" unicode="&#xbf;" horiz-adv-x="427" 
d="M251.5 387.5c-11 11 -16.5 23.833 -16.5 38.5s5.5 27.5 16.5 38.5s23.833 16.5 38.5 16.5s27.334 -5.5 38.001 -16.5s16 -23.833 16 -38.5s-5.33301 -27.5 -16 -38.5s-23.334 -16.5 -38.001 -16.5s-27.5 5.5 -38.5 16.5zM321 95l-28.001 -0.000976562
c-58 0 -103.5 -11.833 -136.5 -35.5s-49.5 -56.834 -49.5 -99.501c0 -38.667 16.667 -69.667 50 -93s77.333 -35 132 -35c18.667 0 40 1.33301 64 4l6 -69c-23.333 -3.33301 -48 -5 -74 -5c-50.667 0 -95 8 -133 24s-67.333 38.833 -88 68.5s-31 63.834 -31 102.501
c0 57.333 19.333 103.333 58 138s93.334 55.334 164.001 62.001l4 95h62v-157z" />
    <glyph glyph-name="Agrave" unicode="&#xc0;" horiz-adv-x="708" 
d="M310 902l109 -152h-66l-127 152h84zM612 0l-81 199h-355l-82 -199h-75l291 700h88l291 -700h-77zM502 267l-149 363l-150 -363h299z" />
    <glyph glyph-name="Aacute" unicode="&#xc1;" horiz-adv-x="708" 
d="M393 902h84l-126 -152h-66zM612 0l-81 199h-355l-82 -199h-75l291 700h88l291 -700h-77zM502 267l-149 363l-150 -363h299z" />
    <glyph glyph-name="Acircumflex" unicode="&#xc2;" horiz-adv-x="708" 
d="M354 851l-94 -99h-71l122 144h86l122 -144h-70zM612 0l-81 199h-355l-82 -199h-75l291 700h88l291 -700h-77zM502 267l-149 363l-150 -363h299z" />
    <glyph glyph-name="Atilde" unicode="&#xc3;" horiz-adv-x="708" 
d="M227.5 862.5c17 9 37.168 13.5 60.501 13.5c16 0 29.667 -2 41 -6s24.666 -10 39.999 -18c9.33301 -6 17.833 -10.5 25.5 -13.5s16.167 -4.5 25.5 -4.5c13.333 0 25.333 3.16699 36 9.5s21.334 15.833 32.001 28.5l40 -39c-14.667 -19.333 -30.667 -33.5 -48 -42.5
s-37.333 -13.5 -60 -13.5c-16 0 -29.667 2 -41 6s-24 10 -38 18c-12 6 -21.667 10.5 -29 13.5s-15.333 4.5 -24 4.5c-13.333 0 -25.333 -3.16699 -36 -9.5s-21.334 -15.833 -32.001 -28.5l-39 38c14 20 29.5 34.5 46.5 43.5zM612.001 0l-81 199h-355l-82 -199h-75l291 700
h88l291 -700h-77zM502.001 267l-149 363l-150 -363h299z" />
    <glyph glyph-name="Adieresis" unicode="&#xc4;" horiz-adv-x="708" 
d="M284 857c9.33301 -9.33301 14 -20.666 14 -33.999s-4.5 -24.333 -13.5 -33s-20.167 -13 -33.5 -13s-24.5 4.33301 -33.5 13s-13.5 19.667 -13.5 33s4.5 24.666 13.5 33.999s20.167 14 33.5 14c12.667 0 23.667 -4.66699 33 -14zM490.5 857
c9 -9.33301 13.5 -20.666 13.5 -33.999s-4.5 -24.333 -13.5 -33s-20.167 -13 -33.5 -13s-24.5 4.33301 -33.5 13s-13.5 19.667 -13.5 33s4.66699 24.666 14 33.999s20.333 14 33 14c13.333 0 24.5 -4.66699 33.5 -14zM612 0l-81 199h-355l-82 -199h-75l291 700h88l291 -700
h-77zM502 267l-149 363l-150 -363h299z" />
    <glyph glyph-name="Aring" unicode="&#xc5;" horiz-adv-x="708" 
d="M275.5 773c-21.667 21.333 -32.5 47.333 -32.5 78c0 30 10.833 55.833 32.5 77.5s47.834 32.5 78.501 32.5s56.834 -10.833 78.501 -32.5s32.5 -47.5 32.5 -77.5c0 -30.667 -10.833 -56.667 -32.5 -78s-47.834 -32 -78.501 -32s-56.834 10.667 -78.501 32zM401.5 803
c13 13.333 19.5 29.333 19.5 48s-6.5 34.5 -19.5 47.5s-28.833 19.5 -47.5 19.5c-18 0 -33.5 -6.5 -46.5 -19.5s-19.5 -28.833 -19.5 -47.5s6.5 -34.667 19.5 -48s28.5 -20 46.5 -20c18.667 0 34.5 6.66699 47.5 20zM612 0l-81 199h-355l-82 -199h-75l291 700h88l291 -700
h-77zM502 267l-149 363l-150 -363h299z" />
    <glyph glyph-name="AE" unicode="&#xc6;" horiz-adv-x="1136" 
d="M567 0v188h-323l-142 -188h-87l530 700h506v-67h-412v-247h399v-67h-399v-251h416v-68h-488zM567 616l-272 -360h272v360z" />
    <glyph glyph-name="Ccedilla" unicode="&#xc7;" horiz-adv-x="763" 
d="M588 670c50.667 -26 89.998 -61.6699 117.998 -107.003l-61 -40c-24 36 -55.5 64.333 -94.5 85s-82.167 31 -129.5 31c-53.333 0 -101.666 -12.167 -144.999 -36.5s-77.5 -58.333 -102.5 -102s-37.5 -93.834 -37.5 -150.501s12.5 -106.834 37.5 -150.501
s59.167 -77.667 102.5 -102s91.666 -36.5 144.999 -36.5c46.667 0 89.834 10.333 129.501 31s71.167 49 94.5 85l59 -43c-26.667 -39.333 -61.5 -71.5 -104.5 -96.5s-90.5 -39.833 -142.5 -44.5l-49 -155h-72l51 155c-62 4.66699 -117.833 22.834 -167.5 54.501
s-88.5 73.834 -116.5 126.501s-42 111.334 -42 176.001c0 68.667 15.5 130.334 46.5 185.001s74 97.334 129 128.001s116.5 46 184.5 46c60.667 0 116.334 -13 167.001 -39z" />
    <glyph glyph-name="Egrave" unicode="&#xc8;" horiz-adv-x="670" 
d="M296 902l109 -152h-66l-127 152h84zM101 0v700h484v-67h-411v-247h398v-67h-398v-251h415v-68h-488z" />
    <glyph glyph-name="Eacute" unicode="&#xc9;" horiz-adv-x="670" 
d="M380 902h84l-126 -152h-67zM101 0v700h484v-67h-411v-247h398v-67h-398v-251h415v-68h-488z" />
    <glyph glyph-name="Ecircumflex" unicode="&#xca;" horiz-adv-x="670" 
d="M341 851l-95 -99h-71l122 144h87l121 -144h-70zM101 0v700h484v-67h-411v-247h398v-67h-398v-251h415v-68h-488z" />
    <glyph glyph-name="Edieresis" unicode="&#xcb;" horiz-adv-x="670" 
d="M270 857c9.33301 -9.33301 14 -20.666 14 -33.999s-4.5 -24.333 -13.5 -33s-20.167 -13 -33.5 -13s-24.333 4.33301 -33 13s-13 19.667 -13 33s4.33301 24.666 13 33.999s19.667 14 33 14c12.667 0 23.667 -4.66699 33 -14zM477 857
c9.33301 -9.33301 14 -20.666 14 -33.999s-4.66699 -24.333 -14 -33s-20.666 -13 -33.999 -13s-24.5 4.33301 -33.5 13s-13.5 19.667 -13.5 33s4.66699 24.666 14 33.999s20.333 14 33 14c13.333 0 24.666 -4.66699 33.999 -14zM101 0v700h484v-67h-411v-247h398v-67h-398
v-251h415v-68h-488z" />
    <glyph glyph-name="Igrave" unicode="&#xcc;" horiz-adv-x="275" 
d="M94 902l108 -152h-66l-126 152h84zM101 0v700h73v-700h-73z" />
    <glyph glyph-name="Iacute" unicode="&#xcd;" horiz-adv-x="275" 
d="M177 902h84l-127 -152h-66zM101 0v700h73v-700h-73z" />
    <glyph glyph-name="Icircumflex" unicode="&#xce;" horiz-adv-x="275" 
d="M137 851l-94 -99h-72l123 144h87l122 -144h-71zM101 0v700h73v-700h-73z" />
    <glyph glyph-name="Idieresis" unicode="&#xcf;" horiz-adv-x="275" 
d="M67.5 857c9 -9.33301 13.5 -20.666 13.5 -33.999s-4.5 -24.333 -13.5 -33s-20.167 -13 -33.5 -13s-24.5 4.33301 -33.5 13s-13.5 19.667 -13.5 33s4.66699 24.666 14 33.999s20.333 14 33 14c13.333 0 24.5 -4.66699 33.5 -14zM274 857
c9.33301 -9.33301 14 -20.666 14 -33.999s-4.66699 -24.333 -14 -33s-20.666 -13 -33.999 -13s-24.333 4.33301 -33 13s-13 19.667 -13 33s4.33301 24.666 13 33.999s19.667 14 33 14s24.666 -4.66699 33.999 -14zM101 0v700h73v-700h-73z" />
    <glyph glyph-name="Eth" unicode="&#xd0;" horiz-adv-x="880" 
d="M642 657c56.667 -28.667 100.334 -69.3301 131.001 -121.997s46 -114.334 46 -185.001s-15.333 -132.334 -46 -185.001s-74.334 -93.334 -131.001 -122.001s-123 -43 -199 -43h-260v319h-122v68h122v313h260c76 0 142.333 -14.333 199 -43zM255 319.004v-251.002h188
c64 0 118.5 11.5 163.5 34.5s79.167 55.833 102.5 98.5s35 92.334 35 149.001c0 86.667 -26.167 155.334 -78.5 206.001s-126.5 76 -222.5 76h-188v-245h205v-68h-205z" />
    <glyph glyph-name="Ntilde" unicode="&#xd1;" horiz-adv-x="785" 
d="M266.5 862.5c17 9 36.834 13.499 59.501 13.499c16 0 29.667 -2 41 -6s24.666 -10 39.999 -18c10 -6 18.833 -10.5 26.5 -13.5s16.167 -4.5 25.5 -4.5c13.333 0 25.333 3.16699 36 9.5s21.334 15.833 32.001 28.5l39 -39c-14.667 -19.333 -30.5 -33.5 -47.5 -42.5
s-36.833 -13.5 -59.5 -13.5c-16 0 -29.333 2 -40 6s-24 10 -40 18c-12 6.66699 -21.5 11.334 -28.5 14.001s-15.167 4 -24.5 4c-12.667 0 -24.334 -3 -35.001 -9s-21.667 -15.667 -33 -29l-39 38c14.667 20 30.5 34.5 47.5 43.5zM618.001 -0.000976562l-444 577v-577h-73
v700h66l444 -577v577h73v-700h-66z" />
    <glyph glyph-name="Ograve" unicode="&#xd2;" horiz-adv-x="841" 
d="M377 902l108 -152h-66l-126 152h84zM604.5 663c54.333 -30.667 97.166 -73.334 128.499 -128.001s47 -116.334 47 -185.001s-15.667 -130.334 -47 -185.001s-74.166 -97.334 -128.499 -128.001s-115.5 -46 -183.5 -46s-129.5 15.333 -184.5 46s-98 73.334 -129 128.001
s-46.5 116.334 -46.5 185.001s15.5 130.334 46.5 185.001s74 97.334 129 128.001s116.5 46 184.5 46s129.167 -15.333 183.5 -46zM276 602.5c-43.333 -24.333 -77.5 -58.333 -102.5 -102s-37.5 -93.834 -37.5 -150.501c0 -56 12.5 -106 37.5 -150
s59.167 -78.167 102.5 -102.5s91.666 -36.5 144.999 -36.5s101.5 12.167 144.5 36.5s77 58.5 102 102.5s37.5 94 37.5 150c0 56.667 -12.5 106.834 -37.5 150.501s-59 77.667 -102 102s-91.167 36.5 -144.5 36.5s-101.666 -12.167 -144.999 -36.5z" />
    <glyph glyph-name="Oacute" unicode="&#xd3;" horiz-adv-x="841" 
d="M460 902h84l-126 -152h-67zM604.5 663c54.333 -30.667 97.166 -73.334 128.499 -128.001s47 -116.334 47 -185.001s-15.667 -130.334 -47 -185.001s-74.166 -97.334 -128.499 -128.001s-115.5 -46 -183.5 -46s-129.5 15.333 -184.5 46s-98 73.334 -129 128.001
s-46.5 116.334 -46.5 185.001s15.5 130.334 46.5 185.001s74 97.334 129 128.001s116.5 46 184.5 46s129.167 -15.333 183.5 -46zM276 602.5c-43.333 -24.333 -77.5 -58.333 -102.5 -102s-37.5 -93.834 -37.5 -150.501c0 -56 12.5 -106 37.5 -150
s59.167 -78.167 102.5 -102.5s91.666 -36.5 144.999 -36.5s101.5 12.167 144.5 36.5s77 58.5 102 102.5s37.5 94 37.5 150c0 56.667 -12.5 106.834 -37.5 150.501s-59 77.667 -102 102s-91.167 36.5 -144.5 36.5s-101.666 -12.167 -144.999 -36.5z" />
    <glyph glyph-name="Ocircumflex" unicode="&#xd4;" horiz-adv-x="841" 
d="M421 851l-95 -99h-71l122 144h87l122 -144h-71zM604.5 663c54.333 -30.667 97.166 -73.334 128.499 -128.001s47 -116.334 47 -185.001s-15.667 -130.334 -47 -185.001s-74.166 -97.334 -128.499 -128.001s-115.5 -46 -183.5 -46s-129.5 15.333 -184.5 46
s-98 73.334 -129 128.001s-46.5 116.334 -46.5 185.001s15.5 130.334 46.5 185.001s74 97.334 129 128.001s116.5 46 184.5 46s129.167 -15.333 183.5 -46zM276 602.5c-43.333 -24.333 -77.5 -58.333 -102.5 -102s-37.5 -93.834 -37.5 -150.501c0 -56 12.5 -106 37.5 -150
s59.167 -78.167 102.5 -102.5s91.666 -36.5 144.999 -36.5s101.5 12.167 144.5 36.5s77 58.5 102 102.5s37.5 94 37.5 150c0 56.667 -12.5 106.834 -37.5 150.501s-59 77.667 -102 102s-91.167 36.5 -144.5 36.5s-101.666 -12.167 -144.999 -36.5z" />
    <glyph glyph-name="Otilde" unicode="&#xd5;" horiz-adv-x="841" 
d="M293.5 862.5c17 9 37.168 13.499 60.501 13.499c16 0 29.667 -2 41 -6s24.666 -10 39.999 -18c10 -6 18.833 -10.5 26.5 -13.5s16.167 -4.5 25.5 -4.5c12.667 0 24.334 3 35.001 9s21.667 15.667 33 29l40 -39c-15.333 -19.333 -31.5 -33.5 -48.5 -42.5
s-36.833 -13.5 -59.5 -13.5c-16 0 -29.333 2 -40 6s-24 10 -40 18c-12 6.66699 -21.5 11.334 -28.5 14.001s-15.167 4 -24.5 4c-13.333 0 -25.333 -3.16699 -36 -9.5s-21.334 -15.833 -32.001 -28.5l-39 38c14 20 29.5 34.5 46.5 43.5zM604.501 662.999
c54.333 -30.667 97.166 -73.334 128.499 -128.001s47 -116.334 47 -185.001s-15.667 -130.334 -47 -185.001s-74.166 -97.334 -128.499 -128.001s-115.5 -46 -183.5 -46s-129.5 15.333 -184.5 46s-98 73.334 -129 128.001s-46.5 116.334 -46.5 185.001
s15.5 130.334 46.5 185.001s74 97.334 129 128.001s116.5 46 184.5 46s129.167 -15.333 183.5 -46zM276.001 602.499c-43.333 -24.333 -77.5 -58.333 -102.5 -102s-37.5 -93.834 -37.5 -150.501c0 -56 12.5 -106 37.5 -150s59.167 -78.167 102.5 -102.5
s91.666 -36.5 144.999 -36.5s101.5 12.167 144.5 36.5s77 58.5 102 102.5s37.5 94 37.5 150c0 56.667 -12.5 106.834 -37.5 150.501s-59 77.667 -102 102s-91.167 36.5 -144.5 36.5s-101.666 -12.167 -144.999 -36.5z" />
    <glyph glyph-name="Odieresis" unicode="&#xd6;" horiz-adv-x="841" 
d="M350.5 857c9 -9.33301 13.5 -20.666 13.5 -33.999s-4.5 -24.333 -13.5 -33s-20.167 -13 -33.5 -13s-24.333 4.33301 -33 13s-13 19.667 -13 33s4.5 24.666 13.5 33.999s19.833 14 32.5 14c13.333 0 24.5 -4.66699 33.5 -14zM557 857
c9.33301 -9.33301 14 -20.666 14 -33.999s-4.5 -24.333 -13.5 -33s-20.167 -13 -33.5 -13s-24.5 4.33301 -33.5 13s-13.5 19.667 -13.5 33s4.5 24.666 13.5 33.999s20.167 14 33.5 14c12.667 0 23.667 -4.66699 33 -14zM604.5 663
c54.333 -30.667 97.166 -73.334 128.499 -128.001s47 -116.334 47 -185.001s-15.667 -130.334 -47 -185.001s-74.166 -97.334 -128.499 -128.001s-115.5 -46 -183.5 -46s-129.5 15.333 -184.5 46s-98 73.334 -129 128.001s-46.5 116.334 -46.5 185.001
s15.5 130.334 46.5 185.001s74 97.334 129 128.001s116.5 46 184.5 46s129.167 -15.333 183.5 -46zM276 602.5c-43.333 -24.333 -77.5 -58.333 -102.5 -102s-37.5 -93.834 -37.5 -150.501c0 -56 12.5 -106 37.5 -150s59.167 -78.167 102.5 -102.5
s91.666 -36.5 144.999 -36.5s101.5 12.167 144.5 36.5s77 58.5 102 102.5s37.5 94 37.5 150c0 56.667 -12.5 106.834 -37.5 150.501s-59 77.667 -102 102s-91.167 36.5 -144.5 36.5s-101.666 -12.167 -144.999 -36.5z" />
    <glyph glyph-name="multiply" unicode="&#xd7;" 
d="M256 263l-148 148l45 44l147 -147l149 148l43 -43l-149 -149l149 -149l-44 -43l-149 148l-147 -146l-43 43z" />
    <glyph glyph-name="Oslash" unicode="&#xd8;" horiz-adv-x="841" 
d="M547.5 688.5c39.667 -13.667 74.832 -33.5 105.499 -59.5l80 80l46 -47l-78 -79c25.333 -30.667 44.833 -65.834 58.5 -105.501s20.5 -82.167 20.5 -127.5c0 -68.667 -15.667 -130.334 -47 -185.001s-74.166 -97.334 -128.499 -128.001s-115.5 -46 -183.5 -46
c-45.333 0 -87.833 6.83301 -127.5 20.5s-74.834 33.5 -105.501 59.5l-78 -79l-48 46l78 79c-25.333 31.333 -44.833 66.833 -58.5 106.5s-20.5 81.834 -20.5 126.501c0 68.667 15.5 130.334 46.5 185.001s74 97.334 129 128.001s116.5 46 184.5 46
c44.667 0 86.834 -6.83301 126.501 -20.5zM275.998 602.5c-43.333 -24.333 -77.5 -58.332 -102.5 -101.999s-37.5 -93.834 -37.5 -150.501c0 -70 19.333 -130 58 -180l407 407c-24 20 -51.333 35.333 -82 46s-63.334 16 -98.001 16
c-53.333 0 -101.666 -12.167 -144.999 -36.5zM646.998 530.001l-408.001 -407c50.667 -41.333 111.334 -62 182.001 -62c53.333 0 101.5 12.167 144.5 36.5s77 58.5 102 102.5s37.5 94 37.5 150c0 70 -19.333 130 -58 180z" />
    <glyph glyph-name="Ugrave" unicode="&#xd9;" horiz-adv-x="754" 
d="M333 902l109 -152h-67l-126 152h84zM625.5 119c-25 -42.667 -59.166 -74.667 -102.499 -96s-92.333 -32 -147 -32s-103.5 10.667 -146.5 32s-76.833 53.333 -101.5 96s-37 94.334 -37 155.001v426h72v-422c0 -71.333 19.667 -125.333 59 -162s90.666 -55 153.999 -55
c64.667 0 116.5 18.333 155.5 55s58.5 90.667 58.5 162v422h73v-426c0 -60.667 -12.5 -112.334 -37.5 -155.001z" />
    <glyph glyph-name="Uacute" unicode="&#xda;" horiz-adv-x="754" 
d="M416 902h84l-127 -152h-65zM625.5 119c-25 -42.667 -59.166 -74.667 -102.499 -96s-92.333 -32 -147 -32s-103.5 10.667 -146.5 32s-76.833 53.333 -101.5 96s-37 94.334 -37 155.001v426h72v-422c0 -71.333 19.667 -125.333 59 -162s90.666 -55 153.999 -55
c64.667 0 116.5 18.333 155.5 55s58.5 90.667 58.5 162v422h73v-426c0 -60.667 -12.5 -112.334 -37.5 -155.001z" />
    <glyph glyph-name="Ucircumflex" unicode="&#xdb;" horiz-adv-x="754" 
d="M376 851l-94 -99h-70l122 144h86l122 -144h-71zM625.5 119c-25 -42.667 -59.166 -74.667 -102.499 -96s-92.333 -32 -147 -32s-103.5 10.667 -146.5 32s-76.833 53.333 -101.5 96s-37 94.334 -37 155.001v426h72v-422c0 -71.333 19.667 -125.333 59 -162
s90.666 -55 153.999 -55c64.667 0 116.5 18.333 155.5 55s58.5 90.667 58.5 162v422h73v-426c0 -60.667 -12.5 -112.334 -37.5 -155.001z" />
    <glyph glyph-name="Udieresis" unicode="&#xdc;" horiz-adv-x="754" 
d="M307 857c9.33301 -9.33301 14 -20.666 14 -33.999s-4.5 -24.333 -13.5 -33s-20.167 -13 -33.5 -13s-24.5 4.33301 -33.5 13s-13.5 19.667 -13.5 33s4.5 24.666 13.5 33.999s20.167 14 33.5 14c12.667 0 23.667 -4.66699 33 -14zM513 857
c9.33301 -9.33301 14 -20.666 14 -33.999s-4.66699 -24.333 -14 -33s-20.666 -13 -33.999 -13s-24.333 4.33301 -33 13s-13 19.667 -13 33s4.5 24.666 13.5 33.999s19.833 14 32.5 14c13.333 0 24.666 -4.66699 33.999 -14zM625.5 119
c-25 -42.667 -59.166 -74.667 -102.499 -96s-92.333 -32 -147 -32s-103.5 10.667 -146.5 32s-76.833 53.333 -101.5 96s-37 94.334 -37 155.001v426h72v-422c0 -71.333 19.667 -125.333 59 -162s90.666 -55 153.999 -55c64.667 0 116.5 18.333 155.5 55
s58.5 90.667 58.5 162v422h73v-426c0 -60.667 -12.5 -112.334 -37.5 -155.001z" />
    <glyph glyph-name="Yacute" unicode="&#xdd;" horiz-adv-x="639" 
d="M360 902h84l-126 -152h-67zM356 0h-72v298l-278 402h86l229 -336l228 336h84l-277 -403v-297z" />
    <glyph glyph-name="Thorn" unicode="&#xde;" horiz-adv-x="665" 
d="M365 567c78 0 138.833 -18.333 182.5 -55s65.5 -88 65.5 -154s-21.833 -117.5 -65.5 -154.5s-104.5 -55.5 -182.5 -55.5h-191v-148h-73v700h73v-133h191zM174 216h189c56 0 99.333 12 130 36s46 59.333 46 106s-15.333 82 -46 106s-74 36 -130 36h-189v-284z" />
    <glyph glyph-name="germandbls" unicode="&#xdf;" horiz-adv-x="609" 
d="M143 668c39.333 40.667 95.3291 61.001 167.996 61.001c42.667 0 81.334 -8 116.001 -24s61.834 -38.5 81.501 -67.5s29.5 -62.167 29.5 -99.5c0 -42.667 -10.667 -78.834 -32 -108.501s-49 -50.167 -83 -61.5c38.667 -10 70.834 -31 96.501 -63s38.5 -69 38.5 -111
c0 -41.333 -9.16699 -77.333 -27.5 -108s-43.333 -54.167 -75 -70.5s-66.834 -24.5 -105.501 -24.5c-44.667 0 -84.667 8 -120 24l14 60c29.333 -14 61.333 -21 96 -21c44.667 0 80.834 12.5 108.501 37.5s41.5 59.833 41.5 104.5c0 44 -15.5 78 -46.5 102
s-72.167 36 -123.5 36h-34v60h22c46.667 0 85.334 10.833 116.001 32.5s46 55.5 46 101.5c0 43.333 -15.167 77 -45.5 101s-68.5 36 -114.5 36c-48 0 -86.5 -14.333 -115.5 -43s-43.5 -67.667 -43.5 -117v-505h-67v509c0 65.333 19.667 118.333 59 159z" />
    <glyph glyph-name="agrave" unicode="&#xe0;" horiz-adv-x="621" 
d="M253 694l108 -151h-65l-127 151h84zM467 0l0.000976562 86.002c-19.333 -29.333 -44.333 -52.5 -75 -69.5s-65.667 -25.5 -105 -25.5c-43.333 0 -83 10.667 -119 32s-64.333 50.666 -85 87.999s-31 79 -31 125s10.333 87.667 31 125s49 66.666 85 87.999
s75.667 32 119 32c40 0 75.167 -8.33301 105.5 -25s55.166 -39.667 74.499 -69v86h67v-473h-67zM205.001 394.002c-26.667 -16 -47.332 -37.8359 -61.999 -65.5029s-22 -58.5 -22 -92.5c0 -33.333 7.5 -63.833 22.5 -91.5s35.667 -49.5 62 -65.5s56.166 -24 89.499 -24
c34 0 64.167 7.83301 90.5 23.5s47 37.334 62 65.001s22.5 58.5 22.5 92.5c0 34.667 -7.5 65.834 -22.5 93.501s-35.667 49.334 -62 65.001s-56.5 23.5 -90.5 23.5c-33.333 0 -63.333 -8 -90 -24z" />
    <glyph glyph-name="aacute" unicode="&#xe1;" horiz-adv-x="621" 
d="M349 694h84l-126 -151h-66zM467 0l0.000976562 86.002c-19.333 -29.333 -44.333 -52.5 -75 -69.5s-65.667 -25.5 -105 -25.5c-43.333 0 -83 10.667 -119 32s-64.333 50.666 -85 87.999s-31 79 -31 125s10.333 87.667 31 125s49 66.666 85 87.999s75.667 32 119 32
c40 0 75.167 -8.33301 105.5 -25s55.166 -39.667 74.499 -69v86h67v-473h-67zM205.001 394.002c-26.667 -16 -47.332 -37.8359 -61.999 -65.5029s-22 -58.5 -22 -92.5c0 -33.333 7.5 -63.833 22.5 -91.5s35.667 -49.5 62 -65.5s56.166 -24 89.499 -24
c34 0 64.167 7.83301 90.5 23.5s47 37.334 62 65.001s22.5 58.5 22.5 92.5c0 34.667 -7.5 65.834 -22.5 93.501s-35.667 49.334 -62 65.001s-56.5 23.5 -90.5 23.5c-33.333 0 -63.333 -8 -90 -24z" />
    <glyph glyph-name="acircumflex" unicode="&#xe2;" horiz-adv-x="621" 
d="M304 644l-95 -99h-70l122 143h87l122 -143h-72zM467 0l0.000976562 86.002c-19.333 -29.333 -44.333 -52.5 -75 -69.5s-65.667 -25.5 -105 -25.5c-43.333 0 -83 10.667 -119 32s-64.333 50.666 -85 87.999s-31 79 -31 125s10.333 87.667 31 125s49 66.666 85 87.999
s75.667 32 119 32c40 0 75.167 -8.33301 105.5 -25s55.166 -39.667 74.499 -69v86h67v-473h-67zM205.001 394.002c-26.667 -16 -47.332 -37.8359 -61.999 -65.5029s-22 -58.5 -22 -92.5c0 -33.333 7.5 -63.833 22.5 -91.5s35.667 -49.5 62 -65.5s56.166 -24 89.499 -24
c34 0 64.167 7.83301 90.5 23.5s47 37.334 62 65.001s22.5 58.5 22.5 92.5c0 34.667 -7.5 65.834 -22.5 93.501s-35.667 49.334 -62 65.001s-56.5 23.5 -90.5 23.5c-33.333 0 -63.333 -8 -90 -24z" />
    <glyph glyph-name="atilde" unicode="&#xe3;" horiz-adv-x="621" 
d="M182.5 655c17 9.33301 36.834 13.999 59.501 13.999c16 0 29.667 -2 41 -6s24.666 -10 39.999 -18c10 -6 18.833 -10.5 26.5 -13.5s16.167 -4.5 25.5 -4.5c12.667 0 24.334 3 35.001 9s21.667 15.667 33 29l40 -38c-15.333 -20 -31.5 -34.667 -48.5 -44
s-36.833 -14 -59.5 -14c-16.667 0 -30.5 2.16699 -41.5 6.5s-23.833 10.5 -38.5 18.5c-12 6.66699 -21.5 11.334 -28.5 14.001s-15.167 4 -24.5 4c-13.333 0 -25.333 -3.16699 -36 -9.5s-21.334 -15.833 -32.001 -28.5l-39 39c14.667 18.667 30.5 32.667 47.5 42z
M467.001 -0.000976562l0.000976562 86.002c-19.333 -29.333 -44.333 -52.5 -75 -69.5s-65.667 -25.5 -105 -25.5c-43.333 0 -83 10.667 -119 32s-64.333 50.666 -85 87.999s-31 79 -31 125s10.333 87.667 31 125s49 66.666 85 87.999s75.667 32 119 32
c40 0 75.167 -8.33301 105.5 -25s55.166 -39.667 74.499 -69v86h67v-473h-67zM205.002 394.001c-26.667 -16 -47.332 -37.8359 -61.999 -65.5029s-22 -58.5 -22 -92.5c0 -33.333 7.5 -63.833 22.5 -91.5s35.667 -49.5 62 -65.5s56.166 -24 89.499 -24
c34 0 64.167 7.83301 90.5 23.5s47 37.334 62 65.001s22.5 58.5 22.5 92.5c0 34.667 -7.5 65.834 -22.5 93.501s-35.667 49.334 -62 65.001s-56.5 23.5 -90.5 23.5c-33.333 0 -63.333 -8 -90 -24z" />
    <glyph glyph-name="adieresis" unicode="&#xe4;" horiz-adv-x="621" 
d="M234.5 649.5c9 -9 13.5 -20.167 13.5 -33.5c0 -12.667 -4.5 -23.667 -13.5 -33s-20.167 -14 -33.5 -14s-24.5 4.5 -33.5 13.5s-13.5 20.167 -13.5 33.5s4.5 24.5 13.5 33.5s20.167 13.5 33.5 13.5s24.5 -4.5 33.5 -13.5zM440 649.5c9.33301 -9 14 -20.167 14 -33.5
s-4.66699 -24.5 -14 -33.5s-20.666 -13.5 -33.999 -13.5c-12.667 0 -23.5 4.5 -32.5 13.5s-13.5 20.167 -13.5 33.5s4.5 24.5 13.5 33.5s19.833 13.5 32.5 13.5c13.333 0 24.666 -4.5 33.999 -13.5zM467 0l0.000976562 86.002c-19.333 -29.333 -44.333 -52.5 -75 -69.5
s-65.667 -25.5 -105 -25.5c-43.333 0 -83 10.667 -119 32s-64.333 50.666 -85 87.999s-31 79 -31 125s10.333 87.667 31 125s49 66.666 85 87.999s75.667 32 119 32c40 0 75.167 -8.33301 105.5 -25s55.166 -39.667 74.499 -69v86h67v-473h-67zM205.001 394.002
c-26.667 -16 -47.332 -37.8359 -61.999 -65.5029s-22 -58.5 -22 -92.5c0 -33.333 7.5 -63.833 22.5 -91.5s35.667 -49.5 62 -65.5s56.166 -24 89.499 -24c34 0 64.167 7.83301 90.5 23.5s47 37.334 62 65.001s22.5 58.5 22.5 92.5c0 34.667 -7.5 65.834 -22.5 93.501
s-35.667 49.334 -62 65.001s-56.5 23.5 -90.5 23.5c-33.333 0 -63.333 -8 -90 -24z" />
    <glyph glyph-name="aring" unicode="&#xe5;" horiz-adv-x="621" 
d="M225.5 566c-21.667 21.333 -32.5 47.333 -32.5 78c0 30 10.833 55.667 32.5 77s47.834 32 78.501 32s56.834 -10.667 78.501 -32s32.5 -47 32.5 -77c0 -30.667 -10.833 -56.667 -32.5 -78s-47.834 -32 -78.501 -32s-56.834 10.667 -78.501 32zM351 596
c13.333 13.333 20 29.333 20 48s-6.66699 34.5 -20 47.5s-29 19.5 -47 19.5c-18.667 0 -34.5 -6.5 -47.5 -19.5s-19.5 -28.833 -19.5 -47.5s6.5 -34.667 19.5 -48s28.833 -20 47.5 -20c18 0 33.667 6.66699 47 20zM467 0l0.000976562 86.002
c-19.333 -29.333 -44.333 -52.5 -75 -69.5s-65.667 -25.5 -105 -25.5c-43.333 0 -83 10.667 -119 32s-64.333 50.666 -85 87.999s-31 79 -31 125s10.333 87.667 31 125s49 66.666 85 87.999s75.667 32 119 32c40 0 75.167 -8.33301 105.5 -25s55.166 -39.667 74.499 -69v86
h67v-473h-67zM205.001 394.002c-26.667 -16 -47.332 -37.8359 -61.999 -65.5029s-22 -58.5 -22 -92.5c0 -33.333 7.5 -63.833 22.5 -91.5s35.667 -49.5 62 -65.5s56.166 -24 89.499 -24c34 0 64.167 7.83301 90.5 23.5s47 37.334 62 65.001s22.5 58.5 22.5 92.5
c0 34.667 -7.5 65.834 -22.5 93.501s-35.667 49.334 -62 65.001s-56.5 23.5 -90.5 23.5c-33.333 0 -63.333 -8 -90 -24z" />
    <glyph glyph-name="ae" unicode="&#xe6;" horiz-adv-x="905" 
d="M744.5 450c33.667 -20.667 60.1631 -49.3311 79.4961 -85.998s29 -78.334 29 -125.001c0 -12.667 -0.333008 -21.334 -1 -26.001h-387c4.66699 -51.333 23.167 -91.333 55.5 -120s71.833 -43 118.5 -43c58 0 109.333 21.333 154 64l36 -45c-51.333 -52 -116 -78 -194 -78
c-42 0 -79.833 8.66699 -113.5 26s-61.167 41.333 -82.5 72c-23.333 -29.333 -52.333 -53 -87 -71s-74 -27 -118 -27c-56 0 -100.333 12.833 -133 38.5s-49 59.5 -49 101.5s16.833 75.333 50.5 100s82.167 37 145.5 37h148c0 52 -11.667 90.5 -35 115.5
s-59.666 37.5 -108.999 37.5c-51.333 0 -98.666 -16.667 -141.999 -50l-30 51c50.667 39.333 111 59 181 59c95.333 0 155.333 -36.333 180 -109c18.667 34 44.834 60.667 78.501 80s70.834 29 111.501 29c42 0 79.833 -10.333 113.5 -31zM518.996 378.503
c-29.333 -28.333 -46.999 -65.5 -52.999 -111.5h319c-4.66699 46 -21.334 83.167 -50.001 111.5s-63.667 42.5 -105 42.5c-44.667 0 -81.667 -14.167 -111 -42.5zM338.997 73.5029c30.667 15.667 55.667 36.833 75 63.5c-9.33301 21.333 -15 47 -17 77h-141
c-46 0 -79.667 -7.33301 -101 -22s-32 -34.667 -32 -60c0 -24 10.833 -43.667 32.5 -59s51.5 -23 89.5 -23c32 0 63.333 7.83301 94 23.5z" />
    <glyph glyph-name="ccedilla" unicode="&#xe7;" horiz-adv-x="513" 
d="M394 461.5c30.667 -13 56.332 -31.8291 76.999 -56.4961l-45 -44c-36.667 38 -81 57 -133 57c-32 0 -61.167 -7.83301 -87.5 -23.5s-47 -37.334 -62 -65.001s-22.5 -58.834 -22.5 -93.501s7.5 -65.667 22.5 -93s35.667 -48.833 62 -64.5s55.5 -23.5 87.5 -23.5
c51.333 0 96.333 19.333 135 58l43 -45c-36 -43.333 -85.333 -68 -148 -74l-48 -156h-69l51 156c-40.667 5.33301 -76.5 19.166 -107.5 41.499s-55 50.833 -72 85.5s-25.5 73 -25.5 115c0 46 10.333 87.667 31 125s49.334 66.666 86.001 87.999s78.667 32 126 32
c35.333 0 68.333 -6.5 99 -19.5z" />
    <glyph glyph-name="egrave" unicode="&#xe8;" horiz-adv-x="560" 
d="M234 694l109 -151h-67l-126 151h84zM400.5 450c33.667 -20.667 60.166 -49.3301 79.499 -85.9971s29 -78.334 29 -125.001c0 -12.667 -0.333008 -21.334 -1 -26.001h-387c4.66699 -51.333 23 -91.333 55 -120s71.667 -43 119 -43c57.333 0 108.333 21.333 153 64l37 -45
c-51.333 -52 -116.333 -78 -195 -78c-46 0 -87 10.333 -123 31s-64.167 49.667 -84.5 87s-30.5 79.666 -30.5 126.999c0 46.667 10.167 88.667 30.5 126s48.333 66.5 84 87.5s75.834 31.5 120.501 31.5c42 0 79.833 -10.333 113.5 -31zM173.999 379.004
c-29.333 -28.667 -46.668 -66 -52.001 -112h318c-4 46 -20.333 83.333 -49 112s-63.667 43 -105 43c-45.333 0 -82.666 -14.333 -111.999 -43z" />
    <glyph glyph-name="eacute" unicode="&#xe9;" horiz-adv-x="560" 
d="M331 694h84l-127 -151h-66zM400.5 450c33.667 -20.667 60.166 -49.3301 79.499 -85.9971s29 -78.334 29 -125.001c0 -12.667 -0.333008 -21.334 -1 -26.001h-387c4.66699 -51.333 23 -91.333 55 -120s71.667 -43 119 -43c57.333 0 108.333 21.333 153 64l37 -45
c-51.333 -52 -116.333 -78 -195 -78c-46 0 -87 10.333 -123 31s-64.167 49.667 -84.5 87s-30.5 79.666 -30.5 126.999c0 46.667 10.167 88.667 30.5 126s48.333 66.5 84 87.5s75.834 31.5 120.501 31.5c42 0 79.833 -10.333 113.5 -31zM173.999 379.004
c-29.333 -28.667 -46.668 -66 -52.001 -112h318c-4 46 -20.333 83.333 -49 112s-63.667 43 -105 43c-45.333 0 -82.666 -14.333 -111.999 -43z" />
    <glyph glyph-name="ecircumflex" unicode="&#xea;" horiz-adv-x="560" 
d="M285 644l-94 -99h-71l122 143h86l122 -143h-70zM400.5 450c33.667 -20.667 60.166 -49.3301 79.499 -85.9971s29 -78.334 29 -125.001c0 -12.667 -0.333008 -21.334 -1 -26.001h-387c4.66699 -51.333 23 -91.333 55 -120s71.667 -43 119 -43
c57.333 0 108.333 21.333 153 64l37 -45c-51.333 -52 -116.333 -78 -195 -78c-46 0 -87 10.333 -123 31s-64.167 49.667 -84.5 87s-30.5 79.666 -30.5 126.999c0 46.667 10.167 88.667 30.5 126s48.333 66.5 84 87.5s75.834 31.5 120.501 31.5
c42 0 79.833 -10.333 113.5 -31zM173.999 379.004c-29.333 -28.667 -46.668 -66 -52.001 -112h318c-4 46 -20.333 83.333 -49 112s-63.667 43 -105 43c-45.333 0 -82.666 -14.333 -111.999 -43z" />
    <glyph glyph-name="edieresis" unicode="&#xeb;" horiz-adv-x="560" 
d="M215.5 649.5c9 -9 13.5 -20.167 13.5 -33.5c0 -12.667 -4.5 -23.667 -13.5 -33s-20.167 -14 -33.5 -14s-24.5 4.5 -33.5 13.5s-13.5 20.167 -13.5 33.5s4.5 24.5 13.5 33.5s20.167 13.5 33.5 13.5s24.5 -4.5 33.5 -13.5zM421.5 649.5c9 -9 13.5 -20.167 13.5 -33.5
s-4.5 -24.5 -13.5 -33.5s-20.167 -13.5 -33.5 -13.5c-12.667 0 -23.667 4.66699 -33 14s-14 20.333 -14 33c0 13.333 4.66699 24.5 14 33.5s20.333 13.5 33 13.5c13.333 0 24.5 -4.5 33.5 -13.5zM400.5 450c33.667 -20.667 60.166 -49.3301 79.499 -85.9971
s29 -78.334 29 -125.001c0 -12.667 -0.333008 -21.334 -1 -26.001h-387c4.66699 -51.333 23 -91.333 55 -120s71.667 -43 119 -43c57.333 0 108.333 21.333 153 64l37 -45c-51.333 -52 -116.333 -78 -195 -78c-46 0 -87 10.333 -123 31s-64.167 49.667 -84.5 87
s-30.5 79.666 -30.5 126.999c0 46.667 10.167 88.667 30.5 126s48.333 66.5 84 87.5s75.834 31.5 120.501 31.5c42 0 79.833 -10.333 113.5 -31zM173.999 379.004c-29.333 -28.667 -46.668 -66 -52.001 -112h318c-4 46 -20.333 83.333 -49 112s-63.667 43 -105 43
c-45.333 0 -82.666 -14.333 -111.999 -43z" />
    <glyph glyph-name="igrave" unicode="&#xec;" horiz-adv-x="243" 
d="M71 694l109 -151h-67l-127 151h85zM88 0v473h67v-473h-67z" />
    <glyph glyph-name="iacute" unicode="&#xed;" horiz-adv-x="243" 
d="M168 694h84l-127 -151h-66zM88 0v473h67v-473h-67z" />
    <glyph glyph-name="icircumflex" unicode="&#xee;" horiz-adv-x="243" 
d="M122 644l-94 -99h-72l122 143h87l122 -143h-71zM88 0v473h67v-473h-67z" />
    <glyph glyph-name="idieresis" unicode="&#xef;" horiz-adv-x="243" 
d="M51.5 649.5c9 -9 13.5 -20.167 13.5 -33.5s-4.5 -24.5 -13.5 -33.5s-20.167 -13.5 -33.5 -13.5s-24.5 4.66699 -33.5 14s-13.5 20.333 -13.5 33c0 13.333 4.5 24.5 13.5 33.5s20.167 13.5 33.5 13.5s24.5 -4.5 33.5 -13.5zM258.5 649.5c9 -9 13.5 -20.167 13.5 -33.5
c0 -12.667 -4.5 -23.667 -13.5 -33s-20.167 -14 -33.5 -14s-24.5 4.5 -33.5 13.5s-13.5 20.167 -13.5 33.5s4.5 24.5 13.5 33.5s20.167 13.5 33.5 13.5s24.5 -4.5 33.5 -13.5zM88 0v473h67v-473h-67z" />
    <glyph glyph-name="eth" unicode="&#xf0;" horiz-adv-x="595" 
d="M358 613c55.333 -48.667 100.167 -105.832 134.5 -171.499s51.5 -132.834 51.5 -201.501c0 -46.667 -10.833 -88.834 -32.5 -126.501s-51.167 -67.5 -88.5 -89.5s-79 -33 -125 -33s-87.833 10.5 -125.5 31.5s-67.167 49.833 -88.5 86.5s-32 77.667 -32 123
c0 44.667 10.333 85.334 31 122.001s48.667 65.5 84 86.5s74.666 31.5 117.999 31.5c32.667 0 62.834 -6.16699 90.501 -18.5s51.167 -29.833 70.5 -52.5c-29.333 65.333 -77.333 125 -144 179l-127 -75l-25 40l110 65c-32 22 -69.333 43 -112 63l32 52
c48 -20.667 94.333 -47.667 139 -81l120 71l25 -40zM207.501 386.002c-27 -15.333 -48.167 -36.333 -63.5 -63s-23 -57 -23 -91s7.66699 -64.5 23 -91.5s36.5 -48.167 63.5 -63.5s57.167 -23 90.5 -23s63.666 7.66699 90.999 23s48.666 36.5 63.999 63.5s23 57.5 23 91.5
s-7.66699 64.333 -23 91s-36.666 47.667 -63.999 63s-57.666 23 -90.999 23s-63.5 -7.66699 -90.5 -23z" />
    <glyph glyph-name="ntilde" unicode="&#xf1;" horiz-adv-x="598" 
d="M185.5 655c17 9.33301 36.834 14 59.501 14c16 0 29.667 -2 41 -6s24.666 -10 39.999 -18c9.33301 -6 17.833 -10.5 25.5 -13.5s16.167 -4.5 25.5 -4.5c13.333 0 25.333 3.16699 36 9.5s21.334 15.833 32.001 28.5l40 -38c-14.667 -20 -30.5 -34.667 -47.5 -44
s-37.167 -14 -60.5 -14c-16 0 -29.833 2.16699 -41.5 6.5s-24.167 10.5 -37.5 18.5c-12 6 -21.667 10.5 -29 13.5s-15.333 4.5 -24 4.5c-13.333 0 -25.333 -3.16699 -36 -9.5s-21.334 -15.833 -32.001 -28.5l-39 39c14.667 18.667 30.5 32.667 47.5 42zM461.501 429.5
c36.333 -34.333 54.5029 -80.166 54.5029 -137.499v-292h-68v270c0 46 -12.5 82 -37.5 108s-60.167 39 -105.5 39c-42.667 0 -78.334 -13.833 -107.001 -41.5s-43 -63.5 -43 -107.5v-268h-67v473h67v-79c17.333 29.333 40.666 51.166 69.999 65.499s60.666 21.5 93.999 21.5
c58.667 0 106.167 -17.167 142.5 -51.5z" />
    <glyph glyph-name="ograve" unicode="&#xf2;" horiz-adv-x="597" 
d="M247 694l109 -151h-66l-127 151h84zM424.5 449c37.667 -21.333 67.332 -50.666 88.999 -87.999s32.5 -79 32.5 -125s-10.833 -87.667 -32.5 -125s-51.5 -66.666 -89.5 -87.999s-80 -32 -126 -32s-87.833 10.667 -125.5 32s-67.167 50.666 -88.5 87.999s-32 79 -32 125
s10.667 87.667 32 125s50.833 66.666 88.5 87.999s79.5 32 125.5 32c46.667 0 88.834 -10.667 126.501 -32zM207.498 394.5c-27 -15.667 -48.167 -37.334 -63.5 -65.001s-23 -58.834 -23 -93.501s7.66699 -65.667 23 -93s36.5 -48.833 63.5 -64.5s57.167 -23.5 90.5 -23.5
s63.666 7.83301 90.999 23.5s48.666 37.167 63.999 64.5s23 58.333 23 93s-7.66699 65.834 -23 93.501s-36.666 49.334 -63.999 65.001s-57.666 23.5 -90.999 23.5s-63.5 -7.83301 -90.5 -23.5z" />
    <glyph glyph-name="oacute" unicode="&#xf3;" horiz-adv-x="597" 
d="M344 694h84l-126 -151h-67zM424.5 449c37.667 -21.333 67.332 -50.666 88.999 -87.999s32.5 -79 32.5 -125s-10.833 -87.667 -32.5 -125s-51.5 -66.666 -89.5 -87.999s-80 -32 -126 -32s-87.833 10.667 -125.5 32s-67.167 50.666 -88.5 87.999s-32 79 -32 125
s10.667 87.667 32 125s50.833 66.666 88.5 87.999s79.5 32 125.5 32c46.667 0 88.834 -10.667 126.501 -32zM207.498 394.5c-27 -15.667 -48.167 -37.334 -63.5 -65.001s-23 -58.834 -23 -93.501s7.66699 -65.667 23 -93s36.5 -48.833 63.5 -64.5s57.167 -23.5 90.5 -23.5
s63.666 7.83301 90.999 23.5s48.666 37.167 63.999 64.5s23 58.333 23 93s-7.66699 65.834 -23 93.501s-36.666 49.334 -63.999 65.001s-57.666 23.5 -90.999 23.5s-63.5 -7.83301 -90.5 -23.5z" />
    <glyph glyph-name="ocircumflex" unicode="&#xf4;" horiz-adv-x="597" 
d="M298 644l-94 -99h-70l121 143h87l122 -143h-71zM424.5 449c37.667 -21.333 67.332 -50.666 88.999 -87.999s32.5 -79 32.5 -125s-10.833 -87.667 -32.5 -125s-51.5 -66.666 -89.5 -87.999s-80 -32 -126 -32s-87.833 10.667 -125.5 32s-67.167 50.666 -88.5 87.999
s-32 79 -32 125s10.667 87.667 32 125s50.833 66.666 88.5 87.999s79.5 32 125.5 32c46.667 0 88.834 -10.667 126.501 -32zM207.498 394.5c-27 -15.667 -48.167 -37.334 -63.5 -65.001s-23 -58.834 -23 -93.501s7.66699 -65.667 23 -93s36.5 -48.833 63.5 -64.5
s57.167 -23.5 90.5 -23.5s63.666 7.83301 90.999 23.5s48.666 37.167 63.999 64.5s23 58.333 23 93s-7.66699 65.834 -23 93.501s-36.666 49.334 -63.999 65.001s-57.666 23.5 -90.999 23.5s-63.5 -7.83301 -90.5 -23.5z" />
    <glyph glyph-name="otilde" unicode="&#xf5;" horiz-adv-x="597" 
d="M177.5 655c17 9.33301 36.834 14 59.501 14c16 0 29.667 -2 41 -6s24.666 -10 39.999 -18c9.33301 -6 17.833 -10.5 25.5 -13.5s16.167 -4.5 25.5 -4.5c13.333 0 25.333 3.16699 36 9.5s21.334 15.833 32.001 28.5l40 -38c-14.667 -20 -30.5 -34.667 -47.5 -44
s-37.167 -14 -60.5 -14c-16 0 -29.833 2.16699 -41.5 6.5s-24.167 10.5 -37.5 18.5c-12 6 -21.667 10.5 -29 13.5s-15.333 4.5 -24 4.5c-13.333 0 -25.333 -3.16699 -36 -9.5s-21.334 -15.833 -32.001 -28.5l-39 39c14.667 18.667 30.5 32.667 47.5 42zM424.501 449
c37.667 -21.333 67.332 -50.666 88.999 -87.999s32.5 -79 32.5 -125s-10.833 -87.667 -32.5 -125s-51.5 -66.666 -89.5 -87.999s-80 -32 -126 -32s-87.833 10.667 -125.5 32s-67.167 50.666 -88.5 87.999s-32 79 -32 125s10.667 87.667 32 125s50.833 66.666 88.5 87.999
s79.5 32 125.5 32c46.667 0 88.834 -10.667 126.501 -32zM207.499 394.5c-27 -15.667 -48.167 -37.334 -63.5 -65.001s-23 -58.834 -23 -93.501s7.66699 -65.667 23 -93s36.5 -48.833 63.5 -64.5s57.167 -23.5 90.5 -23.5s63.666 7.83301 90.999 23.5
s48.666 37.167 63.999 64.5s23 58.333 23 93s-7.66699 65.834 -23 93.501s-36.666 49.334 -63.999 65.001s-57.666 23.5 -90.999 23.5s-63.5 -7.83301 -90.5 -23.5z" />
    <glyph glyph-name="odieresis" unicode="&#xf6;" horiz-adv-x="597" 
d="M228.5 649.5c9 -9 13.5 -20.167 13.5 -33.5s-4.5 -24.5 -13.5 -33.5s-20.167 -13.5 -33.5 -13.5c-12.667 0 -23.667 4.66699 -33 14s-14 20.333 -14 33c0 13.333 4.66699 24.5 14 33.5s20.333 13.5 33 13.5c13.333 0 24.5 -4.5 33.5 -13.5zM435 649
c9.33301 -9.33301 14 -20.333 14 -33s-4.66699 -23.667 -14 -33s-20.666 -14 -33.999 -14c-12.667 0 -23.5 4.5 -32.5 13.5s-13.5 20.167 -13.5 33.5s4.5 24.5 13.5 33.5s19.833 13.5 32.5 13.5c13.333 0 24.666 -4.66699 33.999 -14zM424.5 449
c37.667 -21.333 67.332 -50.666 88.999 -87.999s32.5 -79 32.5 -125s-10.833 -87.667 -32.5 -125s-51.5 -66.666 -89.5 -87.999s-80 -32 -126 -32s-87.833 10.667 -125.5 32s-67.167 50.666 -88.5 87.999s-32 79 -32 125s10.667 87.667 32 125s50.833 66.666 88.5 87.999
s79.5 32 125.5 32c46.667 0 88.834 -10.667 126.501 -32zM207.498 394.5c-27 -15.667 -48.167 -37.334 -63.5 -65.001s-23 -58.834 -23 -93.501s7.66699 -65.667 23 -93s36.5 -48.833 63.5 -64.5s57.167 -23.5 90.5 -23.5s63.666 7.83301 90.999 23.5
s48.666 37.167 63.999 64.5s23 58.333 23 93s-7.66699 65.834 -23 93.501s-36.666 49.334 -63.999 65.001s-57.666 23.5 -90.999 23.5s-63.5 -7.83301 -90.5 -23.5z" />
    <glyph glyph-name="divide" unicode="&#xf7;" 
d="M333 455.5c9.33301 -9 14 -19.833 14 -32.5c0 -12 -4.66699 -22.667 -14 -32s-20 -14 -32 -14c-12.667 0 -23.667 4.66699 -33 14s-14 20 -14 32c0 12.667 4.66699 23.5 14 32.5s20.333 13.5 33 13.5c12 0 22.667 -4.5 32 -13.5zM85 235v59h430v-59h-430zM333 138.5
c9.33301 -9 14 -19.833 14 -32.5c0 -12 -4.66699 -22.667 -14 -32s-20 -14 -32 -14c-12.667 0 -23.667 4.66699 -33 14s-14 20 -14 32c0 12.667 4.66699 23.5 14 32.5s20.333 13.5 33 13.5c12 0 22.667 -4.5 32 -13.5z" />
    <glyph glyph-name="oslash" unicode="&#xf8;" horiz-adv-x="597" 
d="M381.5 467.5c26.333 -9 49.834 -21.5 70.501 -37.5l57 57l41 -40l-57 -57c16.667 -20.667 29.667 -44.167 39 -70.5s14 -54.166 14 -83.499c0 -46 -10.833 -87.667 -32.5 -125s-51.5 -66.666 -89.5 -87.999s-80 -32 -126 -32c-58 0 -109.333 17 -154 51l-56 -57l-40 40
l56 57c-16.667 20.667 -29.5 44.167 -38.5 70.5s-13.5 54.166 -13.5 83.499c0 46 10.667 87.667 32 125s50.833 66.666 88.5 87.999s79.5 32 125.5 32c29.333 0 57.166 -4.5 83.499 -13.5zM207.501 394.5c-27 -15.667 -48.333 -37.332 -64 -64.999
s-23.5 -58.834 -23.5 -93.501c0 -40 10.667 -75.333 32 -106l254 253c-30.667 23.333 -66.667 35 -108 35c-33.333 0 -63.5 -7.83301 -90.5 -23.5zM444.001 343.002l-253 -253c30.667 -23.333 66.334 -35 107.001 -35c33.333 0 63.666 7.83301 90.999 23.5
s48.833 37.167 64.5 64.5s23.5 58.333 23.5 93c0 40 -11 75.667 -33 107z" />
    <glyph glyph-name="ugrave" unicode="&#xf9;" horiz-adv-x="592" 
d="M246 694l108 -151h-66l-126 151h84zM481.5 84.5c-19 -31 -44.6689 -54.333 -77.002 -70s-68.166 -23.5 -107.499 -23.5c-40 0 -76.167 7.83301 -108.5 23.5s-58 39 -77 70s-28.5 68.5 -28.5 112.5v276h67v-270c0 -47.333 13.333 -83.833 40 -109.5
s62.334 -38.5 107.001 -38.5c44 0 79.333 12.833 106 38.5s40 62.167 40 109.5v270h67v-276c0 -44 -9.5 -81.5 -28.5 -112.5z" />
    <glyph glyph-name="uacute" unicode="&#xfa;" horiz-adv-x="592" 
d="M342 694h84l-127 -151h-65zM481.5 84.5c-19 -31 -44.6689 -54.333 -77.002 -70s-68.166 -23.5 -107.499 -23.5c-40 0 -76.167 7.83301 -108.5 23.5s-58 39 -77 70s-28.5 68.5 -28.5 112.5v276h67v-270c0 -47.333 13.333 -83.833 40 -109.5s62.334 -38.5 107.001 -38.5
c44 0 79.333 12.833 106 38.5s40 62.167 40 109.5v270h67v-276c0 -44 -9.5 -81.5 -28.5 -112.5z" />
    <glyph glyph-name="ucircumflex" unicode="&#xfb;" horiz-adv-x="592" 
d="M297 644l-95 -99h-71l122 143h87l121 -143h-70zM481.5 84.5c-19 -31 -44.6689 -54.333 -77.002 -70s-68.166 -23.5 -107.499 -23.5c-40 0 -76.167 7.83301 -108.5 23.5s-58 39 -77 70s-28.5 68.5 -28.5 112.5v276h67v-270c0 -47.333 13.333 -83.833 40 -109.5
s62.334 -38.5 107.001 -38.5c44 0 79.333 12.833 106 38.5s40 62.167 40 109.5v270h67v-276c0 -44 -9.5 -81.5 -28.5 -112.5z" />
    <glyph glyph-name="udieresis" unicode="&#xfc;" horiz-adv-x="592" 
d="M226.5 649.5c9 -9 13.5 -20.167 13.5 -33.5c0 -12.667 -4.5 -23.667 -13.5 -33s-20.167 -14 -33.5 -14s-24.333 4.5 -33 13.5s-13 20.167 -13 33.5s4.33301 24.5 13 33.5s19.667 13.5 33 13.5s24.5 -4.5 33.5 -13.5zM432.5 649.5c9 -9 13.5 -20.167 13.5 -33.5
s-4.5 -24.5 -13.5 -33.5s-20.167 -13.5 -33.5 -13.5c-12.667 0 -23.667 4.66699 -33 14s-14 20.333 -14 33c0 13.333 4.66699 24.5 14 33.5s20.333 13.5 33 13.5c13.333 0 24.5 -4.5 33.5 -13.5zM481.5 84.5c-19 -31 -44.6689 -54.333 -77.002 -70
s-68.166 -23.5 -107.499 -23.5c-40 0 -76.167 7.83301 -108.5 23.5s-58 39 -77 70s-28.5 68.5 -28.5 112.5v276h67v-270c0 -47.333 13.333 -83.833 40 -109.5s62.334 -38.5 107.001 -38.5c44 0 79.333 12.833 106 38.5s40 62.167 40 109.5v270h67v-276
c0 -44 -9.5 -81.5 -28.5 -112.5z" />
    <glyph glyph-name="yacute" unicode="&#xfd;" horiz-adv-x="521" 
d="M309 694h84l-127 -151h-65zM52 -202l179 307l-220 368h76l182 -301l170 301h75l-388 -675h-74z" />
    <glyph glyph-name="thorn" unicode="&#xfe;" horiz-adv-x="622" 
d="M454 449c36 -21.333 64.332 -50.667 84.999 -88s31 -79 31 -125s-10.333 -87.667 -31 -125s-49 -66.666 -85 -87.999s-75.667 -32 -119 -32c-40 0 -75.167 8.16699 -105.5 24.5s-55.166 39.166 -74.499 68.499v-284h-67v920h67v-331c19.333 28.667 44.333 51.167 75 67.5
s65.667 24.5 105 24.5c43.333 0 83 -10.667 119 -32zM235.999 394.499c-26.667 -15.667 -47.5 -37.499 -62.5 -65.499s-22.5 -59 -22.5 -93s7.5 -64.833 22.5 -92.5s35.833 -49.334 62.5 -65.001s56.667 -23.5 90 -23.5s63.333 8 90 24s47.5 37.833 62.5 65.5
s22.5 58.167 22.5 91.5c0 34 -7.5 64.833 -22.5 92.5s-35.833 49.5 -62.5 65.5s-56.667 24 -90 24s-63.333 -7.83301 -90 -23.5z" />
    <glyph glyph-name="ydieresis" unicode="&#xff;" horiz-adv-x="521" 
d="M193.5 649.5c9 -9 13.5 -20.167 13.5 -33.5c0 -12.667 -4.5 -23.667 -13.5 -33s-20.167 -14 -33.5 -14s-24.333 4.5 -33 13.5s-13 20.167 -13 33.5s4.33301 24.5 13 33.5s19.667 13.5 33 13.5s24.5 -4.5 33.5 -13.5zM399.5 649.5c9 -9 13.5 -20.167 13.5 -33.5
s-4.5 -24.5 -13.5 -33.5s-20.167 -13.5 -33.5 -13.5c-12.667 0 -23.667 4.66699 -33 14s-14 20.333 -14 33c0 13.333 4.66699 24.5 14 33.5s20.333 13.5 33 13.5c13.333 0 24.5 -4.5 33.5 -13.5zM52 -202l179 307l-220 368h76l182 -301l170 301h75l-388 -675h-74z" />
    <glyph glyph-name="Amacron" unicode="&#x100;" horiz-adv-x="708" 
d="M503 850v-54h-297v54h297zM612 0l-81 199h-355l-82 -199h-75l291 700h88l291 -700h-77zM502 267l-149 363l-150 -363h299z" />
    <glyph glyph-name="amacron" unicode="&#x101;" horiz-adv-x="621" 
d="M453 643v-55h-298v55h298zM467 0l0.000976562 86.002c-19.333 -29.333 -44.333 -52.5 -75 -69.5s-65.667 -25.5 -105 -25.5c-43.333 0 -83 10.667 -119 32s-64.333 50.666 -85 87.999s-31 79 -31 125s10.333 87.667 31 125s49 66.666 85 87.999s75.667 32 119 32
c40 0 75.167 -8.33301 105.5 -25s55.166 -39.667 74.499 -69v86h67v-473h-67zM205.001 394.002c-26.667 -16 -47.332 -37.8359 -61.999 -65.5029s-22 -58.5 -22 -92.5c0 -33.333 7.5 -63.833 22.5 -91.5s35.667 -49.5 62 -65.5s56.166 -24 89.499 -24
c34 0 64.167 7.83301 90.5 23.5s47 37.334 62 65.001s22.5 58.5 22.5 92.5c0 34.667 -7.5 65.834 -22.5 93.501s-35.667 49.334 -62 65.001s-56.5 23.5 -90.5 23.5c-33.333 0 -63.333 -8 -90 -24z" />
    <glyph glyph-name="Abreve" unicode="&#x102;" horiz-adv-x="708" 
d="M354 807c57.333 0 95 32.667 113 98l54 -16c-12 -44.667 -32.5 -79 -61.5 -103s-64.167 -36 -105.5 -36s-76.333 12 -105 36s-49.334 58.333 -62.001 103l54 16c18.667 -65.333 56.334 -98 113.001 -98zM612 0l-81 199h-355l-82 -199h-75l291 700h88l291 -700h-77z
M502 267l-149 363l-150 -363h299z" />
    <glyph glyph-name="abreve" unicode="&#x103;" horiz-adv-x="621" 
d="M233 624.5c19.333 -16.333 43 -24.5 71 -24.5c56.667 0 94.334 32.333 113.001 97l54 -16c-12.667 -44.667 -33.334 -78.834 -62.001 -102.501s-63.667 -35.5 -105 -35.5s-76.5 11.833 -105.5 35.5s-49.167 57.834 -60.5 102.501l53 16
c8.66699 -32 22.667 -56.167 42 -72.5zM467 0l0.000976562 86.002c-19.333 -29.333 -44.333 -52.5 -75 -69.5s-65.667 -25.5 -105 -25.5c-43.333 0 -83 10.667 -119 32s-64.333 50.666 -85 87.999s-31 79 -31 125s10.333 87.667 31 125s49 66.666 85 87.999
s75.667 32 119 32c40 0 75.167 -8.33301 105.5 -25s55.166 -39.667 74.499 -69v86h67v-473h-67zM205.001 394.002c-26.667 -16 -47.332 -37.8359 -61.999 -65.5029s-22 -58.5 -22 -92.5c0 -33.333 7.5 -63.833 22.5 -91.5s35.667 -49.5 62 -65.5s56.166 -24 89.499 -24
c34 0 64.167 7.83301 90.5 23.5s47 37.334 62 65.001s22.5 58.5 22.5 92.5c0 34.667 -7.5 65.834 -22.5 93.501s-35.667 49.334 -62 65.001s-56.5 23.5 -90.5 23.5c-33.333 0 -63.333 -8 -90 -24z" />
    <glyph glyph-name="Aogonek" unicode="&#x104;" horiz-adv-x="708" 
d="M596 -207c-30.667 0 -55.667 7.83301 -75 23.5s-29 36.5 -29 62.5c0 25.333 9.66699 48 29 68s48.666 39.667 87.999 59l-78 193h-355l-82 -199h-75l291 701h88l291 -701h-21c-38.667 -18 -67.167 -35.667 -85.5 -53s-27.5 -35.333 -27.5 -54
c0 -13.333 4.33301 -23.833 13 -31.5s20.334 -11.5 35.001 -11.5c19.333 0 37.333 9.33301 54 28l36 -43c-28 -28 -60.333 -42 -97 -42zM502 267l-149 363l-150 -363h299z" />
    <glyph glyph-name="aogonek" unicode="&#x105;" horiz-adv-x="621" 
d="M459 -207c-30.667 0 -55.499 7.83496 -74.499 23.502s-28.5 36.5 -28.5 62.5c0 25.333 9.16699 47.833 27.5 67.5s46.166 38.5 83.499 56.5v83c-19.333 -29.333 -44.333 -52.5 -75 -69.5s-65.667 -25.5 -105 -25.5c-43.333 0 -83 10.667 -119 32
s-64.333 50.666 -85 87.999s-31 79 -31 125s10.333 87.667 31 125s49 66.666 85 87.999s75.667 32 119 32c40 0 75.167 -8.33301 105.5 -25s55.166 -39.667 74.499 -69v86h67v-473c-40 -18 -69.333 -35.5 -88 -52.5s-28 -35.167 -28 -54.5
c0 -13.333 4.33301 -23.833 13 -31.5s20.334 -11.5 35.001 -11.5c20.667 0 38.667 9.33301 54 28l36 -43c-26.667 -28 -59 -42 -97 -42zM205.001 394.002c-26.667 -16 -47.332 -37.8359 -61.999 -65.5029s-22 -58.5 -22 -92.5c0 -33.333 7.5 -63.833 22.5 -91.5
s35.667 -49.5 62 -65.5s56.166 -24 89.499 -24c34 0 64.167 7.83301 90.5 23.5s47 37.334 62 65.001s22.5 58.5 22.5 92.5c0 34.667 -7.5 65.834 -22.5 93.501s-35.667 49.334 -62 65.001s-56.5 23.5 -90.5 23.5c-33.333 0 -63.333 -8 -90 -24z" />
    <glyph glyph-name="Cacute" unicode="&#x106;" horiz-adv-x="763" 
d="M458 902h84l-127 -152h-66zM588 670c50.667 -26 89.998 -61.6689 117.998 -107.002l-61 -40c-24 36 -55.5 64.333 -94.5 85s-82.167 31 -129.5 31c-53.333 0 -101.666 -12.167 -144.999 -36.5s-77.5 -58.333 -102.5 -102s-37.5 -93.834 -37.5 -150.501
s12.5 -106.834 37.5 -150.501s59.167 -77.667 102.5 -102s91.666 -36.5 144.999 -36.5c46.667 0 89.834 10.333 129.501 31s71.167 49 94.5 85l59 -43c-30 -44.667 -69.833 -79.667 -119.5 -105s-104.167 -38 -163.5 -38c-68 0 -129.5 15.333 -184.5 46
s-98 73.334 -129 128.001s-46.5 116.334 -46.5 185.001s15.5 130.334 46.5 185.001s74 97.334 129 128.001s116.5 46 184.5 46c60.667 0 116.334 -13 167.001 -39z" />
    <glyph glyph-name="cacute" unicode="&#x107;" horiz-adv-x="513" 
d="M337 694h84l-126 -151h-67zM394 461.5c30.667 -13 56.3311 -31.8291 76.998 -56.4961l-45 -44c-36.667 38 -81 57 -133 57c-32 0 -61.167 -7.83301 -87.5 -23.5s-47 -37.334 -62 -65.001s-22.5 -58.834 -22.5 -93.501s7.5 -65.667 22.5 -93s35.667 -48.833 62 -64.5
s55.5 -23.5 87.5 -23.5c51.333 0 96.333 19.333 135 58l43 -45c-21.333 -24.667 -47.166 -43.667 -77.499 -57s-63.166 -20 -98.499 -20c-47.333 0 -89.333 10.667 -126 32s-65.334 50.666 -86.001 87.999s-31 79 -31 125s10.333 87.667 31 125s49.334 66.666 86.001 87.999
s78.667 32 126 32c35.333 0 68.333 -6.5 99 -19.5z" />
    <glyph glyph-name="Ccircumflex" unicode="&#x108;" horiz-adv-x="763" 
d="M418 851l-95 -99h-70l122 144h87l121 -144h-71zM588 670c50.667 -26 89.998 -61.6689 117.998 -107.002l-61 -40c-24 36 -55.5 64.333 -94.5 85s-82.167 31 -129.5 31c-53.333 0 -101.666 -12.167 -144.999 -36.5s-77.5 -58.333 -102.5 -102
s-37.5 -93.834 -37.5 -150.501s12.5 -106.834 37.5 -150.501s59.167 -77.667 102.5 -102s91.666 -36.5 144.999 -36.5c46.667 0 89.834 10.333 129.501 31s71.167 49 94.5 85l59 -43c-30 -44.667 -69.833 -79.667 -119.5 -105s-104.167 -38 -163.5 -38
c-68 0 -129.5 15.333 -184.5 46s-98 73.334 -129 128.001s-46.5 116.334 -46.5 185.001s15.5 130.334 46.5 185.001s74 97.334 129 128.001s116.5 46 184.5 46c60.667 0 116.334 -13 167.001 -39z" />
    <glyph glyph-name="ccircumflex" unicode="&#x109;" horiz-adv-x="513" 
d="M291 644l-94 -99h-71l122 143h87l122 -143h-71zM394 461.5c30.667 -13 56.3311 -31.8291 76.998 -56.4961l-45 -44c-36.667 38 -81 57 -133 57c-32 0 -61.167 -7.83301 -87.5 -23.5s-47 -37.334 -62 -65.001s-22.5 -58.834 -22.5 -93.501s7.5 -65.667 22.5 -93
s35.667 -48.833 62 -64.5s55.5 -23.5 87.5 -23.5c51.333 0 96.333 19.333 135 58l43 -45c-21.333 -24.667 -47.166 -43.667 -77.499 -57s-63.166 -20 -98.499 -20c-47.333 0 -89.333 10.667 -126 32s-65.334 50.666 -86.001 87.999s-31 79 -31 125s10.333 87.667 31 125
s49.334 66.666 86.001 87.999s78.667 32 126 32c35.333 0 68.333 -6.5 99 -19.5z" />
    <glyph glyph-name="Cdotaccent" unicode="&#x10a;" horiz-adv-x="763" 
d="M446 859.5c9.33301 -9.66699 14 -21.167 14 -34.5c0 -14 -4.66699 -25.667 -14 -35s-20.666 -14 -33.999 -14c-14 0 -25.667 4.66699 -35 14s-14 21 -14 35c0 13.333 4.66699 24.833 14 34.5s21 14.5 35 14.5c13.333 0 24.666 -4.83301 33.999 -14.5zM588 670
c50.667 -26 89.998 -61.6689 117.998 -107.002l-61 -40c-24 36 -55.5 64.333 -94.5 85s-82.167 31 -129.5 31c-53.333 0 -101.666 -12.167 -144.999 -36.5s-77.5 -58.333 -102.5 -102s-37.5 -93.834 -37.5 -150.501s12.5 -106.834 37.5 -150.501s59.167 -77.667 102.5 -102
s91.666 -36.5 144.999 -36.5c46.667 0 89.834 10.333 129.501 31s71.167 49 94.5 85l59 -43c-30 -44.667 -69.833 -79.667 -119.5 -105s-104.167 -38 -163.5 -38c-68 0 -129.5 15.333 -184.5 46s-98 73.334 -129 128.001s-46.5 116.334 -46.5 185.001
s15.5 130.334 46.5 185.001s74 97.334 129 128.001s116.5 46 184.5 46c60.667 0 116.334 -13 167.001 -39z" />
    <glyph glyph-name="cdotaccent" unicode="&#x10b;" horiz-adv-x="513" 
d="M324.5 674c9 -9.33301 13.5 -20.666 13.5 -33.999c0 -12.667 -4.5 -23.667 -13.5 -33s-20.167 -14 -33.5 -14c-12.667 0 -23.5 4.5 -32.5 13.5s-13.5 20.167 -13.5 33.5s4.5 24.666 13.5 33.999s19.833 14 32.5 14c13.333 0 24.5 -4.66699 33.5 -14zM394 461.5
c30.667 -13 56.3311 -31.8291 76.998 -56.4961l-45 -44c-36.667 38 -81 57 -133 57c-32 0 -61.167 -7.83301 -87.5 -23.5s-47 -37.334 -62 -65.001s-22.5 -58.834 -22.5 -93.501s7.5 -65.667 22.5 -93s35.667 -48.833 62 -64.5s55.5 -23.5 87.5 -23.5
c51.333 0 96.333 19.333 135 58l43 -45c-21.333 -24.667 -47.166 -43.667 -77.499 -57s-63.166 -20 -98.499 -20c-47.333 0 -89.333 10.667 -126 32s-65.334 50.666 -86.001 87.999s-31 79 -31 125s10.333 87.667 31 125s49.334 66.666 86.001 87.999s78.667 32 126 32
c35.333 0 68.333 -6.5 99 -19.5z" />
    <glyph glyph-name="Ccaron" unicode="&#x10c;" horiz-adv-x="763" 
d="M418 796l94 98h71l-121 -143h-87l-122 143h70zM588 670c50.667 -26 89.998 -61.6689 117.998 -107.002l-61 -40c-24 36 -55.5 64.333 -94.5 85s-82.167 31 -129.5 31c-53.333 0 -101.666 -12.167 -144.999 -36.5s-77.5 -58.333 -102.5 -102s-37.5 -93.834 -37.5 -150.501
s12.5 -106.834 37.5 -150.501s59.167 -77.667 102.5 -102s91.666 -36.5 144.999 -36.5c46.667 0 89.834 10.333 129.501 31s71.167 49 94.5 85l59 -43c-30 -44.667 -69.833 -79.667 -119.5 -105s-104.167 -38 -163.5 -38c-68 0 -129.5 15.333 -184.5 46
s-98 73.334 -129 128.001s-46.5 116.334 -46.5 185.001s15.5 130.334 46.5 185.001s74 97.334 129 128.001s116.5 46 184.5 46c60.667 0 116.334 -13 167.001 -39z" />
    <glyph glyph-name="ccaron" unicode="&#x10d;" horiz-adv-x="513" 
d="M291 589l95 98h71l-122 -143h-87l-122 143h71zM394 461.5c30.667 -13 56.3311 -31.8291 76.998 -56.4961l-45 -44c-36.667 38 -81 57 -133 57c-32 0 -61.167 -7.83301 -87.5 -23.5s-47 -37.334 -62 -65.001s-22.5 -58.834 -22.5 -93.501s7.5 -65.667 22.5 -93
s35.667 -48.833 62 -64.5s55.5 -23.5 87.5 -23.5c51.333 0 96.333 19.333 135 58l43 -45c-21.333 -24.667 -47.166 -43.667 -77.499 -57s-63.166 -20 -98.499 -20c-47.333 0 -89.333 10.667 -126 32s-65.334 50.666 -86.001 87.999s-31 79 -31 125s10.333 87.667 31 125
s49.334 66.666 86.001 87.999s78.667 32 126 32c35.333 0 68.333 -6.5 99 -19.5z" />
    <glyph glyph-name="Dcaron" unicode="&#x10e;" horiz-adv-x="798" 
d="M367 796l95 98h71l-122 -143h-87l-122 143h71zM560.5 657c57 -28.667 100.833 -69.3301 131.5 -121.997s46 -114.334 46 -185.001s-15.333 -132.334 -46 -185.001s-74.5 -93.334 -131.5 -122.001s-123.5 -43 -199.5 -43h-260v700h260c76 0 142.5 -14.333 199.5 -43z
M174 68.0039h187c96 0 170.167 25.333 222.5 76s78.5 119.334 78.5 206.001c0 87.333 -26 156.166 -78 206.499s-126.333 75.5 -223 75.5h-187v-564z" />
    <glyph glyph-name="dcaron" unicode="&#x10f;" horiz-adv-x="645" 
d="M391.5 456.5c30.333 -16.333 55.501 -39.165 75.501 -68.498v332h67v-720h-67v86c-19.333 -29.333 -44.333 -52.5 -75 -69.5s-65.667 -25.5 -105 -25.5c-43.333 0 -83 10.667 -119 32s-64.333 50.666 -85 87.999s-31 79 -31 125s10.333 87.667 31 125
s49 66.666 85 87.999s75.667 32 119 32c39.333 0 74.166 -8.16699 104.499 -24.5zM598.001 720.001h68l-17 -197h-56zM205.001 394.001c-26.667 -16 -47.332 -37.8359 -61.999 -65.5029s-22 -58.5 -22 -92.5c0 -33.333 7.5 -63.833 22.5 -91.5s35.667 -49.5 62 -65.5
s56.166 -24 89.499 -24c34 0 64.167 7.83301 90.5 23.5s47 37.334 62 65.001s22.5 58.5 22.5 92.5c0 34.667 -7.5 65.834 -22.5 93.501s-35.667 49.334 -62 65.001s-56.5 23.5 -90.5 23.5c-33.333 0 -63.333 -8 -90 -24z" />
    <glyph glyph-name="Dcroat" unicode="&#x110;" horiz-adv-x="880" 
d="M642 657c56.667 -28.667 100.334 -69.3301 131.001 -121.997s46 -114.334 46 -185.001s-15.333 -132.334 -46 -185.001s-74.334 -93.334 -131.001 -122.001s-123 -43 -199 -43h-260v319h-122v68h122v313h260c76 0 142.333 -14.333 199 -43zM255 319.004v-251.002h188
c64 0 118.5 11.5 163.5 34.5s79.167 55.833 102.5 98.5s35 92.334 35 149.001c0 86.667 -26.167 155.334 -78.5 206.001s-126.5 76 -222.5 76h-188v-245h205v-68h-205z" />
    <glyph glyph-name="dcroat" unicode="&#x111;" horiz-adv-x="620" 
d="M534 560l0.000976562 -559.999h-67v86c-19.333 -29.333 -44.333 -52.5 -75 -69.5s-65.667 -25.5 -105 -25.5c-43.333 0 -83 10.667 -119 32s-64.333 50.666 -85 87.999s-31 79 -31 125s10.333 87.667 31 125s49 66.666 85 87.999s75.667 32 119 32
c39.333 0 74.166 -8.16699 104.499 -24.5s55.5 -39.166 75.5 -68.499v172h-212v60h212v100h67v-100h78v-60h-78zM205.001 394.001c-26.667 -16 -47.332 -37.8359 -61.999 -65.5029s-22 -58.5 -22 -92.5c0 -33.333 7.5 -63.833 22.5 -91.5s35.667 -49.5 62 -65.5
s56.166 -24 89.499 -24c34 0 64.167 7.83301 90.5 23.5s47 37.334 62 65.001s22.5 58.5 22.5 92.5c0 34.667 -7.5 65.834 -22.5 93.501s-35.667 49.334 -62 65.001s-56.5 23.5 -90.5 23.5c-33.333 0 -63.333 -8 -90 -24z" />
    <glyph glyph-name="Emacron" unicode="&#x112;" horiz-adv-x="670" 
d="M489 850v-54h-297v54h297zM101 0v700h484v-67h-411v-247h398v-67h-398v-251h415v-68h-488z" />
    <glyph glyph-name="emacron" unicode="&#x113;" horiz-adv-x="560" 
d="M434 643v-55h-297v55h297zM400.5 450c33.667 -20.667 60.166 -49.3301 79.499 -85.9971s29 -78.334 29 -125.001c0 -12.667 -0.333008 -21.334 -1 -26.001h-387c4.66699 -51.333 23 -91.333 55 -120s71.667 -43 119 -43c57.333 0 108.333 21.333 153 64l37 -45
c-51.333 -52 -116.333 -78 -195 -78c-46 0 -87 10.333 -123 31s-64.167 49.667 -84.5 87s-30.5 79.666 -30.5 126.999c0 46.667 10.167 88.667 30.5 126s48.333 66.5 84 87.5s75.834 31.5 120.501 31.5c42 0 79.833 -10.333 113.5 -31zM173.999 379.004
c-29.333 -28.667 -46.668 -66 -52.001 -112h318c-4 46 -20.333 83.333 -49 112s-63.667 43 -105 43c-45.333 0 -82.666 -14.333 -111.999 -43z" />
    <glyph glyph-name="Ebreve" unicode="&#x114;" horiz-adv-x="670" 
d="M341 807c56.667 0 94.001 32.667 112.001 98l55 -16c-12.667 -44.667 -33.334 -79 -62.001 -103s-63.667 -36 -105 -36s-76.5 12 -105.5 36s-49.5 58.333 -61.5 103l53 16c18.667 -65.333 56.667 -98 114 -98zM101.001 0v700h484v-67h-411v-247h398v-67h-398v-251h415
v-68h-488z" />
    <glyph glyph-name="ebreve" unicode="&#x115;" horiz-adv-x="560" 
d="M285 600c57.333 0 95.001 32.333 113.001 97l55 -16c-12.667 -44.667 -33.334 -78.834 -62.001 -102.501s-64 -35.5 -106 -35.5c-41.333 0 -76.333 11.833 -105 35.5s-49.334 57.834 -62.001 102.501l54 16c18.667 -64.667 56.334 -97 113.001 -97zM400.501 450
c33.667 -20.667 60.166 -49.3301 79.499 -85.9971s29 -78.334 29 -125.001c0 -12.667 -0.333008 -21.334 -1 -26.001h-387c4.66699 -51.333 23 -91.333 55 -120s71.667 -43 119 -43c57.333 0 108.333 21.333 153 64l37 -45c-51.333 -52 -116.333 -78 -195 -78
c-46 0 -87 10.333 -123 31s-64.167 49.667 -84.5 87s-30.5 79.666 -30.5 126.999c0 46.667 10.167 88.667 30.5 126s48.333 66.5 84 87.5s75.834 31.5 120.501 31.5c42 0 79.833 -10.333 113.5 -31zM174 379.004c-29.333 -28.667 -46.668 -66 -52.001 -112h318
c-4 46 -20.333 83.333 -49 112s-63.667 43 -105 43c-45.333 0 -82.666 -14.333 -111.999 -43z" />
    <glyph glyph-name="Edotaccent" unicode="&#x116;" horiz-adv-x="670" 
d="M369 859.5c9.33301 -9.66699 14 -21.167 14 -34.5c0 -14 -4.66699 -25.667 -14 -35s-20.666 -14 -33.999 -14c-14 0 -25.667 4.66699 -35 14s-14 21 -14 35c0 13.333 4.66699 24.833 14 34.5s21 14.5 35 14.5c13.333 0 24.666 -4.83301 33.999 -14.5zM101 0v700h484v-67
h-411v-247h398v-67h-398v-251h415v-68h-488z" />
    <glyph glyph-name="edotaccent" unicode="&#x117;" horiz-adv-x="560" 
d="M318.5 674c9 -9.33301 13.5 -20.666 13.5 -33.999s-4.5 -24.5 -13.5 -33.5s-20.167 -13.5 -33.5 -13.5c-12.667 0 -23.667 4.66699 -33 14s-14 20.333 -14 33c0 13.333 4.5 24.666 13.5 33.999s20.167 14 33.5 14s24.5 -4.66699 33.5 -14zM400.5 450
c33.667 -20.667 60.166 -49.3301 79.499 -85.9971s29 -78.334 29 -125.001c0 -12.667 -0.333008 -21.334 -1 -26.001h-387c4.66699 -51.333 23 -91.333 55 -120s71.667 -43 119 -43c57.333 0 108.333 21.333 153 64l37 -45c-51.333 -52 -116.333 -78 -195 -78
c-46 0 -87 10.333 -123 31s-64.167 49.667 -84.5 87s-30.5 79.666 -30.5 126.999c0 46.667 10.167 88.667 30.5 126s48.333 66.5 84 87.5s75.834 31.5 120.501 31.5c42 0 79.833 -10.333 113.5 -31zM173.999 379.004c-29.333 -28.667 -46.668 -66 -52.001 -112h318
c-4 46 -20.333 83.333 -49 112s-63.667 43 -105 43c-45.333 0 -82.666 -14.333 -111.999 -43z" />
    <glyph glyph-name="Eogonek" unicode="&#x118;" horiz-adv-x="670" 
d="M498 0c-26 -14.667 -45.332 -29.5 -57.999 -44.5s-19 -31.5 -19 -49.5c0 -16.667 6 -30.167 18 -40.5s28 -15.5 48 -15.5c27.333 0 52 10 74 30l35 -41c-14.667 -14.667 -31.834 -26 -51.501 -34s-40.5 -12 -62.5 -12c-37.333 0 -67.5 9.33301 -90.5 28
s-34.5 42.667 -34.5 72c0 22.667 6.16699 42.5 18.5 59.5s30.833 32.833 55.5 47.5h-330v700h484v-67h-411v-247h398v-67h-398v-251h415v-68h-91z" />
    <glyph glyph-name="eogonek" unicode="&#x119;" horiz-adv-x="560" 
d="M366 -207c-37.333 0 -67.668 9.33691 -91.001 28.0039s-35 42.667 -35 72c0 38.667 20 71.667 60 99c-46 -2.66699 -88 6.16602 -126 26.499s-67.833 49.666 -89.5 87.999s-32.5 81.5 -32.5 129.5c0 46.667 10.167 88.667 30.5 126s48.333 66.5 84 87.5
s75.834 31.5 120.501 31.5c42 0 79.833 -10.333 113.5 -31s60.167 -49.334 79.5 -86.001s29 -78.334 29 -125.001c0 -12.667 -0.333008 -21.334 -1 -26.001h-387c4.66699 -51.333 23 -91.333 55 -120s71.667 -43 119 -43c57.333 0 108.333 21.333 153 64l37 -45
c-23.333 -24 -51 -43 -83 -57c-64 -29.333 -96 -64.666 -96 -105.999c0 -16.667 5.83301 -30.167 17.5 -40.5s27.5 -15.5 47.5 -15.5c27.333 0 52 10 74 30l36 -41c-32 -30.667 -70.333 -46 -115 -46zM173.998 379.004c-29.333 -28.667 -46.668 -66 -52.001 -112h318
c-4 46 -20.333 83.333 -49 112s-63.667 43 -105 43c-45.333 0 -82.666 -14.333 -111.999 -43z" />
    <glyph glyph-name="Ecaron" unicode="&#x11a;" horiz-adv-x="670" 
d="M341 796l94 98h70l-121 -143h-87l-122 143h71zM101 0v700h484v-67h-411v-247h398v-67h-398v-251h415v-68h-488z" />
    <glyph glyph-name="ecaron" unicode="&#x11b;" horiz-adv-x="560" 
d="M285 589l95 98h70l-122 -143h-86l-122 143h71zM400.5 450c33.667 -20.667 60.166 -49.3301 79.499 -85.9971s29 -78.334 29 -125.001c0 -12.667 -0.333008 -21.334 -1 -26.001h-387c4.66699 -51.333 23 -91.333 55 -120s71.667 -43 119 -43
c57.333 0 108.333 21.333 153 64l37 -45c-51.333 -52 -116.333 -78 -195 -78c-46 0 -87 10.333 -123 31s-64.167 49.667 -84.5 87s-30.5 79.666 -30.5 126.999c0 46.667 10.167 88.667 30.5 126s48.333 66.5 84 87.5s75.834 31.5 120.501 31.5
c42 0 79.833 -10.333 113.5 -31zM173.999 379.004c-29.333 -28.667 -46.668 -66 -52.001 -112h318c-4 46 -20.333 83.333 -49 112s-63.667 43 -105 43c-45.333 0 -82.666 -14.333 -111.999 -43z" />
    <glyph glyph-name="Gcircumflex" unicode="&#x11c;" horiz-adv-x="816" 
d="M411 851l-95 -99h-71l122 144h87l121 -144h-70zM572.5 678c47 -20.667 86.5 -49.6602 118.5 -86.9932l-53 -51c-26.667 31.333 -58.5 55.666 -95.5 72.999s-77.5 26 -121.5 26c-53.333 0 -101.666 -12.167 -144.999 -36.5s-77.5 -58.333 -102.5 -102
s-37.5 -93.834 -37.5 -150.501s12.5 -106.834 37.5 -150.501s59 -77.667 102 -102s90.5 -36.5 142.5 -36.5c76 0 136.833 21.833 182.5 65.5s71.167 103.5 76.5 179.5h-228v66h306c0.666992 -4.66699 1 -11.334 1 -20.001c0 -68.667 -14 -130.334 -42 -185.001
s-67.5 -97.667 -118.5 -129s-110.167 -47 -177.5 -47c-63.333 0 -122.333 14.667 -177 44s-98.334 71.166 -131.001 125.499s-49 117.5 -49 189.5c0 69.333 15.667 131.166 47 185.499s74.333 96.833 129 127.5s116 46 184 46c54 0 104.5 -10.333 151.5 -31z" />
    <glyph glyph-name="gcircumflex" unicode="&#x11d;" horiz-adv-x="617" 
d="M299 644l-94 -99h-70l122 143h86l122 -143h-71zM388.5 456c30.333 -16.667 55.165 -40.0039 74.498 -70.0039v87h67v-440c0 -50.667 -10.833 -94.167 -32.5 -130.5s-51.167 -63.666 -88.5 -81.999s-80 -27.5 -128 -27.5c-39.333 0 -76.666 6 -111.999 18
s-64.666 28.333 -87.999 49l31 50c48.667 -36.667 104.667 -55 168 -55c53.333 0 97 15 131 45s51 73.667 51 131v62c-18.667 -30 -43.167 -53.333 -73.5 -70s-65.5 -25 -105.5 -25c-43.333 0 -82.5 10.333 -117.5 31s-62.667 49.334 -83 86.001s-30.5 78.334 -30.5 125.001
s10.167 88.334 30.5 125.001s48 65.167 83 85.5s74.167 30.5 117.5 30.5c40 0 75.167 -8.33301 105.5 -25zM203.999 394.496c-26 -15.667 -46.333 -37.167 -61 -64.5s-22 -57.333 -22 -90c0 -33.333 7.33301 -63.666 22 -90.999s35 -48.833 61 -64.5s55.667 -23.5 89 -23.5
s63.166 7.83301 89.499 23.5s47 37.167 62 64.5s22.5 57.666 22.5 90.999s-7.5 63.5 -22.5 90.5s-35.667 48.333 -62 64s-56.166 23.5 -89.499 23.5s-63 -7.83301 -89 -23.5z" />
    <glyph glyph-name="Gbreve" unicode="&#x11e;" horiz-adv-x="816" 
d="M411 807c56.667 0 94.001 32.667 112.001 98l55 -16c-12.667 -44.667 -33.334 -79 -62.001 -103s-63.667 -36 -105 -36s-76.5 12 -105.5 36s-49.5 58.333 -61.5 103l53 16c18.667 -65.333 56.667 -98 114 -98zM572.501 678c47 -20.667 86.5 -49.6602 118.5 -86.9932
l-53 -51c-26.667 31.333 -58.5 55.666 -95.5 72.999s-77.5 26 -121.5 26c-53.333 0 -101.666 -12.167 -144.999 -36.5s-77.5 -58.333 -102.5 -102s-37.5 -93.834 -37.5 -150.501s12.5 -106.834 37.5 -150.501s59 -77.667 102 -102s90.5 -36.5 142.5 -36.5
c76 0 136.833 21.833 182.5 65.5s71.167 103.5 76.5 179.5h-228v66h306c0.666992 -4.66699 1 -11.334 1 -20.001c0 -68.667 -14 -130.334 -42 -185.001s-67.5 -97.667 -118.5 -129s-110.167 -47 -177.5 -47c-63.333 0 -122.333 14.667 -177 44
s-98.334 71.166 -131.001 125.499s-49 117.5 -49 189.5c0 69.333 15.667 131.166 47 185.499s74.333 96.833 129 127.5s116 46 184 46c54 0 104.5 -10.333 151.5 -31z" />
    <glyph glyph-name="gbreve" unicode="&#x11f;" horiz-adv-x="617" 
d="M299 600c57.333 0 95.334 32.333 114.001 97l54 -16c-12.667 -44.667 -33.334 -78.834 -62.001 -102.501s-64 -35.5 -106 -35.5c-41.333 0 -76.333 11.833 -105 35.5s-49 57.834 -61 102.501l54 16c18 -64.667 55.333 -97 112 -97zM388.501 456
c30.333 -16.667 55.165 -40.0039 74.498 -70.0039v87h67v-440c0 -50.667 -10.833 -94.167 -32.5 -130.5s-51.167 -63.666 -88.5 -81.999s-80 -27.5 -128 -27.5c-39.333 0 -76.666 6 -111.999 18s-64.666 28.333 -87.999 49l31 50c48.667 -36.667 104.667 -55 168 -55
c53.333 0 97 15 131 45s51 73.667 51 131v62c-18.667 -30 -43.167 -53.333 -73.5 -70s-65.5 -25 -105.5 -25c-43.333 0 -82.5 10.333 -117.5 31s-62.667 49.334 -83 86.001s-30.5 78.334 -30.5 125.001s10.167 88.334 30.5 125.001s48 65.167 83 85.5
s74.167 30.5 117.5 30.5c40 0 75.167 -8.33301 105.5 -25zM204 394.496c-26 -15.667 -46.333 -37.167 -61 -64.5s-22 -57.333 -22 -90c0 -33.333 7.33301 -63.666 22 -90.999s35 -48.833 61 -64.5s55.667 -23.5 89 -23.5s63.166 7.83301 89.499 23.5s47 37.167 62 64.5
s22.5 57.666 22.5 90.999s-7.5 63.5 -22.5 90.5s-35.667 48.333 -62 64s-56.166 23.5 -89.499 23.5s-63 -7.83301 -89 -23.5z" />
    <glyph glyph-name="Gdotaccent" unicode="&#x120;" horiz-adv-x="816" 
d="M439 859.5c9.33301 -9.66699 14 -21.167 14 -34.5c0 -14 -4.66699 -25.667 -14 -35s-20.666 -14 -33.999 -14c-14 0 -25.667 4.66699 -35 14s-14 21 -14 35c0 13.333 4.66699 24.833 14 34.5s21 14.5 35 14.5c13.333 0 24.666 -4.83301 33.999 -14.5zM572.5 678
c47 -20.667 86.5 -49.6602 118.5 -86.9932l-53 -51c-26.667 31.333 -58.5 55.666 -95.5 72.999s-77.5 26 -121.5 26c-53.333 0 -101.666 -12.167 -144.999 -36.5s-77.5 -58.333 -102.5 -102s-37.5 -93.834 -37.5 -150.501s12.5 -106.834 37.5 -150.501s59 -77.667 102 -102
s90.5 -36.5 142.5 -36.5c76 0 136.833 21.833 182.5 65.5s71.167 103.5 76.5 179.5h-228v66h306c0.666992 -4.66699 1 -11.334 1 -20.001c0 -68.667 -14 -130.334 -42 -185.001s-67.5 -97.667 -118.5 -129s-110.167 -47 -177.5 -47c-63.333 0 -122.333 14.667 -177 44
s-98.334 71.166 -131.001 125.499s-49 117.5 -49 189.5c0 69.333 15.667 131.166 47 185.499s74.333 96.833 129 127.5s116 46 184 46c54 0 104.5 -10.333 151.5 -31z" />
    <glyph glyph-name="gdotaccent" unicode="&#x121;" horiz-adv-x="617" 
d="M332.5 674c9 -9.33301 13.5 -20.666 13.5 -33.999s-4.5 -24.5 -13.5 -33.5s-20.167 -13.5 -33.5 -13.5c-12.667 0 -23.5 4.5 -32.5 13.5s-13.5 20.167 -13.5 33.5s4.5 24.666 13.5 33.999s19.833 14 32.5 14c13.333 0 24.5 -4.66699 33.5 -14zM388.5 456
c30.333 -16.667 55.165 -40.0039 74.498 -70.0039v87h67v-440c0 -50.667 -10.833 -94.167 -32.5 -130.5s-51.167 -63.666 -88.5 -81.999s-80 -27.5 -128 -27.5c-39.333 0 -76.666 6 -111.999 18s-64.666 28.333 -87.999 49l31 50c48.667 -36.667 104.667 -55 168 -55
c53.333 0 97 15 131 45s51 73.667 51 131v62c-18.667 -30 -43.167 -53.333 -73.5 -70s-65.5 -25 -105.5 -25c-43.333 0 -82.5 10.333 -117.5 31s-62.667 49.334 -83 86.001s-30.5 78.334 -30.5 125.001s10.167 88.334 30.5 125.001s48 65.167 83 85.5
s74.167 30.5 117.5 30.5c40 0 75.167 -8.33301 105.5 -25zM203.999 394.496c-26 -15.667 -46.333 -37.167 -61 -64.5s-22 -57.333 -22 -90c0 -33.333 7.33301 -63.666 22 -90.999s35 -48.833 61 -64.5s55.667 -23.5 89 -23.5s63.166 7.83301 89.499 23.5s47 37.167 62 64.5
s22.5 57.666 22.5 90.999s-7.5 63.5 -22.5 90.5s-35.667 48.333 -62 64s-56.166 23.5 -89.499 23.5s-63 -7.83301 -89 -23.5z" />
    <glyph glyph-name="Gcommaaccent" unicode="&#x122;" horiz-adv-x="816" 
d="M572.5 678c47 -20.667 86.5 -49.6602 118.5 -86.9932l-53 -51c-26.667 31.333 -58.5 55.666 -95.5 72.999s-77.5 26 -121.5 26c-53.333 0 -101.666 -12.167 -144.999 -36.5s-77.5 -58.333 -102.5 -102s-37.5 -93.834 -37.5 -150.501s12.5 -106.834 37.5 -150.501
s59 -77.667 102 -102s90.5 -36.5 142.5 -36.5c76 0 136.833 21.833 182.5 65.5s71.167 103.5 76.5 179.5h-228v66h306c0.666992 -4.66699 1 -11.334 1 -20.001c0 -68.667 -14 -130.334 -42 -185.001s-67.5 -97.667 -118.5 -129s-110.167 -47 -177.5 -47
c-63.333 0 -122.333 14.667 -177 44s-98.334 71.166 -131.001 125.499s-49 117.5 -49 189.5c0 69.333 15.667 131.166 47 185.499s74.333 96.833 129 127.5s116 46 184 46c54 0 104.5 -10.333 151.5 -31zM420 -217.993h-59l22 174h72z" />
    <glyph glyph-name="gcommaaccent" unicode="&#x123;" horiz-adv-x="617" 
d="M295 716h59l-22 -173h-73zM388.5 456c30.333 -16.667 55.165 -40.0039 74.498 -70.0039v87h67v-440c0 -50.667 -10.833 -94.167 -32.5 -130.5s-51.167 -63.666 -88.5 -81.999s-80 -27.5 -128 -27.5c-39.333 0 -76.666 6 -111.999 18s-64.666 28.333 -87.999 49l31 50
c48.667 -36.667 104.667 -55 168 -55c53.333 0 97 15 131 45s51 73.667 51 131v62c-18.667 -30 -43.167 -53.333 -73.5 -70s-65.5 -25 -105.5 -25c-43.333 0 -82.5 10.333 -117.5 31s-62.667 49.334 -83 86.001s-30.5 78.334 -30.5 125.001s10.167 88.334 30.5 125.001
s48 65.167 83 85.5s74.167 30.5 117.5 30.5c40 0 75.167 -8.33301 105.5 -25zM203.999 394.496c-26 -15.667 -46.333 -37.167 -61 -64.5s-22 -57.333 -22 -90c0 -33.333 7.33301 -63.666 22 -90.999s35 -48.833 61 -64.5s55.667 -23.5 89 -23.5s63.166 7.83301 89.499 23.5
s47 37.167 62 64.5s22.5 57.666 22.5 90.999s-7.5 63.5 -22.5 90.5s-35.667 48.333 -62 64s-56.166 23.5 -89.499 23.5s-63 -7.83301 -89 -23.5z" />
    <glyph glyph-name="Hcircumflex" unicode="&#x124;" horiz-adv-x="782" 
d="M391 851l-95 -99h-70l122 144h86l122 -144h-71zM608 387v313h73v-700h-73v319h-434v-319h-73v700h73v-313h434z" />
    <glyph glyph-name="hcircumflex" unicode="&#x125;" horiz-adv-x="598" 
d="M303 871l-95 -98h-71l122 143h87l122 -143h-71zM225.5 459.5c29 14.333 60.168 21.499 93.501 21.499c58.667 0 106.167 -17.167 142.5 -51.5s54.5 -80.166 54.5 -137.499v-292h-68v270c0 46 -12.5 82 -37.5 108s-60.167 39 -105.5 39
c-42.667 0 -78.334 -13.833 -107.001 -41.5s-43 -63.5 -43 -107.5v-268h-67v720h67v-325c18 28.667 41.5 50.167 70.5 64.5z" />
    <glyph glyph-name="Hbar" unicode="&#x126;" horiz-adv-x="811" 
d="M695 509v-509h-72v319h-435v-319h-72v509h-85v60h85v131h72v-131h435v131h72v-131h85v-60h-85zM623 509h-435v-122h435v122z" />
    <glyph glyph-name="hbar" unicode="&#x127;" horiz-adv-x="598" 
d="M155 560l0.000976562 -165.001c18 28.667 41.5 50.167 70.5 64.5s60.167 21.5 93.5 21.5c58.667 0 106.167 -17.167 142.5 -51.5s54.5 -80.166 54.5 -137.499v-292h-68v270c0 46 -12.5 82 -37.5 108s-60.167 39 -105.5 39c-42.667 0 -78.334 -13.833 -107.001 -41.5
s-43 -63.5 -43 -107.5v-268h-67v560h-89v60h89v100h67v-100h202v-60h-202z" />
    <glyph glyph-name="Itilde" unicode="&#x128;" horiz-adv-x="275" 
d="M10.5 862.5c17 9 36.8291 13.5 59.4961 13.5c16.667 0 30.834 -2 42.501 -6s24.5 -10 38.5 -18c10.667 -6 19.834 -10.5 27.501 -13.5s16.167 -4.5 25.5 -4.5c12.667 0 24.334 3 35.001 9s21.667 15.667 33 29l39 -39c-14.667 -19.333 -30.5 -33.5 -47.5 -42.5
s-36.833 -13.5 -59.5 -13.5c-16 0 -30 2 -42 6s-24.667 10 -38 18c-12 6 -21.667 10.5 -29 13.5s-15.666 4.5 -24.999 4.5c-12.667 0 -24.167 -3 -34.5 -9s-21.5 -15.667 -33.5 -29l-39 38c14.667 20 30.5 34.5 47.5 43.5zM100.996 0v700h73v-700h-73z" />
    <glyph glyph-name="itilde" unicode="&#x129;" horiz-adv-x="243" 
d="M-0.5 655.5c17 9 36.8311 13.5 59.498 13.5c16.667 0 30.834 -2 42.501 -6s24.5 -10 38.5 -18c10 -6 19 -10.5 27 -13.5s16.667 -4.5 26 -4.5c12.667 0 24.334 3 35.001 9s21.667 15.667 33 29l39 -38c-14.667 -20 -30.5 -34.667 -47.5 -44s-36.833 -14 -59.5 -14
c-16 0 -29.5 2 -40.5 6s-24.167 10 -39.5 18c-10.667 6.66699 -20 11.5 -28 14.5s-16.667 4.5 -26 4.5c-12.667 0 -24.167 -3 -34.5 -9s-21.5 -15.667 -33.5 -29l-39 39c14.667 19.333 30.5 33.5 47.5 42.5zM87.998 0v473h67v-473h-67z" />
    <glyph glyph-name="Imacron" unicode="&#x12a;" horiz-adv-x="275" 
d="M287 850v-54h-299v54h299zM101 0v700h73v-700h-73z" />
    <glyph glyph-name="imacron" unicode="&#x12b;" horiz-adv-x="243" 
d="M271 643v-55h-299v55h299zM88 0v473h67v-473h-67z" />
    <glyph glyph-name="Ibreve" unicode="&#x12c;" horiz-adv-x="275" 
d="M66.5 831.5c19 -16.333 42.501 -24.5 70.501 -24.5s51.667 8.16699 71 24.5s33.666 40.833 42.999 73.5l53 -16c-12 -44.667 -32.5 -79 -61.5 -103s-64.167 -36 -105.5 -36s-76.5 12 -105.5 36s-49.5 58.333 -61.5 103l55 16c8.66699 -32.667 22.5 -57.167 41.5 -73.5z
M101.001 0v700h73v-700h-73z" />
    <glyph glyph-name="ibreve" unicode="&#x12d;" horiz-adv-x="243" 
d="M51 624.5c19.333 -16.333 42.998 -24.5 70.998 -24.5s51.667 8.16699 71 24.5s33.333 40.5 42 72.5l54 -16c-12 -44.667 -32.5 -78.834 -61.5 -102.501s-64.167 -35.5 -105.5 -35.5s-76.666 11.833 -105.999 35.5s-49.666 57.834 -60.999 102.501l54 16
c8.66699 -32 22.667 -56.167 42 -72.5zM87.998 0v473h67v-473h-67z" />
    <glyph glyph-name="Iogonek" unicode="&#x12e;" horiz-adv-x="275" 
d="M141 -207c-30.667 0 -55.667 7.83301 -75 23.5s-29 36.5 -29 62.5c0 22 6.83301 42.667 20.5 62s33.5 39 59.5 59h-16v700h73v-700c-49.333 -39.333 -74 -75 -74 -107c0 -13.333 4.16699 -23.833 12.5 -31.5s19.833 -11.5 34.5 -11.5c20 0 38.333 9.33301 55 28l35 -43
c-26.667 -28 -58.667 -42 -96 -42z" />
    <glyph glyph-name="iogonek" unicode="&#x12f;" horiz-adv-x="243" 
d="M155.5 674c9 -9.33301 13.5 -20.666 13.5 -33.999c0 -12.667 -4.5 -23.667 -13.5 -33s-20.167 -14 -33.5 -14s-24.5 4.5 -33.5 13.5s-13.5 20.167 -13.5 33.5s4.5 24.666 13.5 33.999s20.167 14 33.5 14s24.5 -4.66699 33.5 -14zM82 -107
c0 -13.333 4.33301 -23.833 13 -31.5s20 -11.5 34 -11.5c20 0 38.333 9.33301 55 28l35 -43c-27.333 -28 -59.333 -42 -96 -42c-30.667 0 -55.667 7.83301 -75 23.5s-29 36.5 -29 62.5c0 22 7 42.667 21 62s34 39 60 59h-12v473h67v-473c-48.667 -39.333 -73 -75 -73 -107z
" />
    <glyph glyph-name="Idotaccent" unicode="&#x130;" horiz-adv-x="275" 
d="M166 859.5c9.33301 -9.66699 14 -21.167 14 -34.5c0 -14 -4.66699 -25.667 -14 -35s-21 -14 -35 -14c-13.333 0 -24.666 4.66699 -33.999 14s-14 21 -14 35c0 13.333 4.66699 24.833 14 34.5s20.666 14.5 33.999 14.5c14 0 25.667 -4.83301 35 -14.5zM101 0v700h73v-700
h-73z" />
    <glyph glyph-name="dotlessi" unicode="&#x131;" horiz-adv-x="243" 
d="M88 0v473h67v-473h-67z" />
    <glyph glyph-name="IJ" unicode="&#x132;" horiz-adv-x="848" 
d="M101 0v700h73v-700h-73zM721.5 111c-21 -39.333 -50.001 -69.167 -87.001 -89.5s-78.833 -30.5 -125.5 -30.5c-86 0 -157 31.667 -213 95l47 50c18.667 -22 41.834 -40 69.501 -54s59.5 -21 95.5 -21c52.667 0 94.667 17 126 51s47 83 47 147v441h72v-448
c0 -54.667 -10.5 -101.667 -31.5 -141z" />
    <glyph glyph-name="ij" unicode="&#x133;" horiz-adv-x="487" 
d="M155.5 674c9 -9.33301 13.5 -20.666 13.5 -33.999c0 -12.667 -4.5 -23.667 -13.5 -33s-20.167 -14 -33.5 -14s-24.5 4.5 -33.5 13.5s-13.5 20.167 -13.5 33.5s4.5 24.666 13.5 33.999s20.167 14 33.5 14s24.5 -4.66699 33.5 -14zM398.5 674
c9 -9.33301 13.5 -20.666 13.5 -33.999s-4.5 -24.5 -13.5 -33.5s-20.167 -13.5 -33.5 -13.5c-12.667 0 -23.5 4.5 -32.5 13.5s-13.5 20.167 -13.5 33.5s4.5 24.666 13.5 33.999s19.833 14 32.5 14c13.333 0 24.5 -4.66699 33.5 -14zM88 0v473h67v-473h-67zM370 -174.5
c-20 -21.667 -47.334 -32.5 -82.001 -32.5c-11.333 0 -23.166 1.5 -35.499 4.5s-22.5 6.83301 -30.5 11.5l15 58c14.667 -7.33301 29.667 -11 45 -11c33.333 0 50 21.333 50 64v553h68v-556c0 -39.333 -10 -69.833 -30 -91.5z" />
    <glyph glyph-name="Jcircumflex" unicode="&#x134;" horiz-adv-x="574" 
d="M442 851l-94 -99h-71l121 144h87l122 -144h-70zM446.5 111c-21 -39.333 -49.833 -69.167 -86.5 -89.5s-78.334 -30.5 -125.001 -30.5c-87.333 0 -158.333 31.667 -213 95l47 50c18.667 -22 41.834 -40 69.501 -54s59.167 -21 94.5 -21c52.667 0 94.667 17 126 51
s47 83 47 147v441h72v-448c0 -54.667 -10.5 -101.667 -31.5 -141z" />
    <glyph glyph-name="jcircumflex" unicode="&#x135;" horiz-adv-x="244" 
d="M123 644l-94 -99h-72l122 143h87l122 -143h-70zM127.5 -174.5c-19.667 -21.667 -46.833 -32.5 -81.5 -32.5c-12 0 -24.167 1.5 -36.5 4.5s-22.5 6.83301 -30.5 11.5l14 58c16 -7.33301 31.333 -11 46 -11c34 0 51 21.333 51 64v553h67v-556
c0 -39.333 -9.83301 -69.833 -29.5 -91.5z" />
    <glyph glyph-name="Kcommaaccent" unicode="&#x136;" horiz-adv-x="688" 
d="M174 318v-318h-73v700h73v-314h89l297 314h93l-332 -344l353 -356h-97l-315 318h-88zM355 -218h-59l22 174h73z" />
    <glyph glyph-name="kcommaaccent" unicode="&#x137;" horiz-adv-x="525" 
d="M228 278l189 195h85l-220 -223l223 -250h-85l-192 217h-73v-217h-67v720h67v-442h73zM286 -218h-59l22 174h73z" />
    <glyph glyph-name="kgreenlandic" unicode="&#x138;" horiz-adv-x="519" 
d="M225 278l187 195h83l-215 -223l219 -250h-85l-189 217h-70v-217h-67v473h67v-195h70z" />
    <glyph glyph-name="Lacute" unicode="&#x139;" horiz-adv-x="602" 
d="M177 902h84l-127 -152h-66zM101 0v700h73v-632h408v-68h-481z" />
    <glyph glyph-name="lacute" unicode="&#x13a;" horiz-adv-x="243" 
d="M146 924h84l-126 -152h-66zM88 0v720h67v-720h-67z" />
    <glyph glyph-name="Lcommaaccent" unicode="&#x13b;" horiz-adv-x="602" 
d="M101 0v700h73v-632h408v-68h-481zM348 -218h-59l22 174h73z" />
    <glyph glyph-name="lcommaaccent" unicode="&#x13c;" horiz-adv-x="243" 
d="M88 0v720h67v-720h-67zM130 -218h-59l22 174h73z" />
    <glyph glyph-name="Lcaron" unicode="&#x13d;" horiz-adv-x="602" 
d="M101 0v700h73v-632h408v-68h-481zM303 700h68l-17 -197h-56z" />
    <glyph glyph-name="lcaron" unicode="&#x13e;" horiz-adv-x="264" 
d="M88 0v720h67v-720h-67zM215 720h69l-18 -197h-56z" />
    <glyph glyph-name="Ldot" unicode="&#x13f;" horiz-adv-x="602" 
d="M101 0v700h73v-632h408v-68h-481zM459 387.5c9.33301 -9.66699 14 -21.167 14 -34.5s-4.66699 -24.666 -14 -33.999s-21 -14 -35 -14c-13.333 0 -24.666 4.66699 -33.999 14s-14 20.666 -14 33.999s4.66699 24.833 14 34.5s20.666 14.5 33.999 14.5
c14 0 25.667 -4.83301 35 -14.5z" />
    <glyph glyph-name="ldot" unicode="&#x140;" horiz-adv-x="296" 
d="M88 0v720h67v-720h-67zM301.5 399c9 -9.33301 13.5 -20.666 13.5 -33.999c0 -12.667 -4.33301 -23.5 -13 -32.5s-19.667 -13.5 -33 -13.5s-24.333 4.33301 -33 13s-13 19.667 -13 33s4.33301 24.666 13 33.999s19.667 14 33 14c12.667 0 23.5 -4.66699 32.5 -14z" />
    <glyph glyph-name="Lslash" unicode="&#x141;" horiz-adv-x="672" 
d="M171 0v258l-110 -62v76l110 61v367h72v-326l262 148v-76l-262 -147v-231h408v-68h-480z" />
    <glyph glyph-name="lslash" unicode="&#x142;" horiz-adv-x="333" 
d="M306 510v-70l-106 -76v-364h-67v316l-106 -76v70l106 76v334h67v-287z" />
    <glyph glyph-name="Nacute" unicode="&#x143;" horiz-adv-x="785" 
d="M432 902h84l-127 -152h-65zM618 0l-444 577v-577h-73v700h66l444 -577v577h73v-700h-66z" />
    <glyph glyph-name="nacute" unicode="&#x144;" horiz-adv-x="598" 
d="M352 694h84l-126 -151h-67zM461.5 429.5c36.333 -34.333 54.5029 -80.166 54.5029 -137.499v-292h-68v270c0 46 -12.5 82 -37.5 108s-60.167 39 -105.5 39c-42.667 0 -78.334 -13.833 -107.001 -41.5s-43 -63.5 -43 -107.5v-268h-67v473h67v-79
c17.333 29.333 40.666 51.166 69.999 65.499s60.666 21.5 93.999 21.5c58.667 0 106.167 -17.167 142.5 -51.5z" />
    <glyph glyph-name="Ncommaaccent" unicode="&#x145;" horiz-adv-x="785" 
d="M618 0l-444 577v-577h-73v700h66l444 -577v577h73v-700h-66zM402 -218h-59l22 174h73z" />
    <glyph glyph-name="ncommaaccent" unicode="&#x146;" horiz-adv-x="598" 
d="M461.5 429.5c36.333 -34.333 54.5029 -80.166 54.5029 -137.499v-292h-68v270c0 46 -12.5 82 -37.5 108s-60.167 39 -105.5 39c-42.667 0 -78.334 -13.833 -107.001 -41.5s-43 -63.5 -43 -107.5v-268h-67v473h67v-79c17.333 29.333 40.666 51.166 69.999 65.499
s60.666 21.5 93.999 21.5c58.667 0 106.167 -17.167 142.5 -51.5zM310.003 -218h-60l22 174h73z" />
    <glyph glyph-name="Ncaron" unicode="&#x147;" horiz-adv-x="785" 
d="M392 796l95 98h71l-122 -143h-86l-122 143h70zM618 0l-444 577v-577h-73v700h66l444 -577v577h73v-700h-66z" />
    <glyph glyph-name="ncaron" unicode="&#x148;" horiz-adv-x="598" 
d="M306 589l95 98h71l-122 -143h-86l-122 143h70zM461.5 429.5c36.333 -34.333 54.5029 -80.166 54.5029 -137.499v-292h-68v270c0 46 -12.5 82 -37.5 108s-60.167 39 -105.5 39c-42.667 0 -78.334 -13.833 -107.001 -41.5s-43 -63.5 -43 -107.5v-268h-67v473h67v-79
c17.333 29.333 40.666 51.166 69.999 65.499s60.666 21.5 93.999 21.5c58.667 0 106.167 -17.167 142.5 -51.5z" />
    <glyph glyph-name="napostrophe" unicode="&#x149;" horiz-adv-x="740" 
d="M125 471h-57l31 249h78zM602.5 429.5c36.333 -34.333 54.5 -80.166 54.5 -137.499v-292h-68v270c0 46 -12.5 82 -37.5 108s-60.167 39 -105.5 39c-42.667 0 -78.167 -13.833 -106.5 -41.5s-42.5 -63.5 -42.5 -107.5v-268h-67v473h66v-79
c18 29.333 41.5 51.166 70.5 65.499s60.167 21.5 93.5 21.5c58.667 0 106.167 -17.167 142.5 -51.5z" />
    <glyph glyph-name="Eng" unicode="&#x14a;" horiz-adv-x="785" 
d="M642 -155.5c-28 -34.333 -70.333 -51.501 -127 -51.501c-49.333 0 -93 11 -131 33l26 62c30 -17.333 62.333 -26 97 -26c36 0 62.333 10.833 79 32.5s25 51.834 25 90.501v23l-437 569v-577h-73v700h66l444 -577v577h73v-719c0 -56.667 -14 -102.167 -42 -136.5z" />
    <glyph glyph-name="eng" unicode="&#x14b;" horiz-adv-x="598" 
d="M461.5 429.5c36.333 -34.333 54.502 -80.166 54.502 -137.499v-334c0 -40 -9.83301 -70.667 -29.5 -92s-47.167 -32 -82.5 -32c-25.333 0 -47 5 -65 15l14 59c14.667 -7.33301 29.334 -11 44.001 -11c34 0 51 21.333 51 64v309c0 46 -12.5 82 -37.5 108
s-60.167 39 -105.5 39c-42.667 0 -78.334 -13.833 -107.001 -41.5s-43 -63.5 -43 -107.5v-268h-67v473h67v-79c17.333 29.333 40.666 51.166 69.999 65.499s60.666 21.5 93.999 21.5c58.667 0 106.167 -17.167 142.5 -51.5z" />
    <glyph glyph-name="Omacron" unicode="&#x14c;" horiz-adv-x="841" 
d="M570 850v-54h-298v54h298zM604.5 663c54.333 -30.667 97.166 -73.334 128.499 -128.001s47 -116.334 47 -185.001s-15.667 -130.334 -47 -185.001s-74.166 -97.334 -128.499 -128.001s-115.5 -46 -183.5 -46s-129.5 15.333 -184.5 46s-98 73.334 -129 128.001
s-46.5 116.334 -46.5 185.001s15.5 130.334 46.5 185.001s74 97.334 129 128.001s116.5 46 184.5 46s129.167 -15.333 183.5 -46zM276 602.5c-43.333 -24.333 -77.5 -58.333 -102.5 -102s-37.5 -93.834 -37.5 -150.501c0 -56 12.5 -106 37.5 -150
s59.167 -78.167 102.5 -102.5s91.666 -36.5 144.999 -36.5s101.5 12.167 144.5 36.5s77 58.5 102 102.5s37.5 94 37.5 150c0 56.667 -12.5 106.834 -37.5 150.501s-59 77.667 -102 102s-91.167 36.5 -144.5 36.5s-101.666 -12.167 -144.999 -36.5z" />
    <glyph glyph-name="omacron" unicode="&#x14d;" horiz-adv-x="597" 
d="M448 643v-55h-298v55h298zM424.5 449c37.667 -21.333 67.332 -50.666 88.999 -87.999s32.5 -79 32.5 -125s-10.833 -87.667 -32.5 -125s-51.5 -66.666 -89.5 -87.999s-80 -32 -126 -32s-87.833 10.667 -125.5 32s-67.167 50.666 -88.5 87.999s-32 79 -32 125
s10.667 87.667 32 125s50.833 66.666 88.5 87.999s79.5 32 125.5 32c46.667 0 88.834 -10.667 126.501 -32zM207.498 394.5c-27 -15.667 -48.167 -37.334 -63.5 -65.001s-23 -58.834 -23 -93.501s7.66699 -65.667 23 -93s36.5 -48.833 63.5 -64.5s57.167 -23.5 90.5 -23.5
s63.666 7.83301 90.999 23.5s48.666 37.167 63.999 64.5s23 58.333 23 93s-7.66699 65.834 -23 93.501s-36.666 49.334 -63.999 65.001s-57.666 23.5 -90.999 23.5s-63.5 -7.83301 -90.5 -23.5z" />
    <glyph glyph-name="Obreve" unicode="&#x14e;" horiz-adv-x="841" 
d="M350 831.5c19.333 -16.333 43.002 -24.5 71.002 -24.5c56.667 0 94 32.667 112 98l55 -16c-12.667 -44.667 -33.334 -79 -62.001 -103s-63.667 -36 -105 -36s-76.5 12 -105.5 36s-49.5 58.333 -61.5 103l53 16c9.33301 -32.667 23.666 -57.167 42.999 -73.5zM604.502 663
c54.333 -30.667 97.166 -73.334 128.499 -128.001s47 -116.334 47 -185.001s-15.667 -130.334 -47 -185.001s-74.166 -97.334 -128.499 -128.001s-115.5 -46 -183.5 -46s-129.5 15.333 -184.5 46s-98 73.334 -129 128.001s-46.5 116.334 -46.5 185.001
s15.5 130.334 46.5 185.001s74 97.334 129 128.001s116.5 46 184.5 46s129.167 -15.333 183.5 -46zM276.002 602.5c-43.333 -24.333 -77.5 -58.333 -102.5 -102s-37.5 -93.834 -37.5 -150.501c0 -56 12.5 -106 37.5 -150s59.167 -78.167 102.5 -102.5
s91.666 -36.5 144.999 -36.5s101.5 12.167 144.5 36.5s77 58.5 102 102.5s37.5 94 37.5 150c0 56.667 -12.5 106.834 -37.5 150.501s-59 77.667 -102 102s-91.167 36.5 -144.5 36.5s-101.666 -12.167 -144.999 -36.5z" />
    <glyph glyph-name="obreve" unicode="&#x14f;" horiz-adv-x="597" 
d="M298 600c57.333 0 95.333 32.333 114 97l53 -16c-12 -44.667 -32.333 -78.834 -61 -102.501s-64 -35.5 -106 -35.5c-41.333 0 -76.333 11.833 -105 35.5s-49 57.834 -61 102.501l54 16c18 -64.667 55.333 -97 112 -97zM424.5 449
c37.667 -21.333 67.332 -50.666 88.999 -87.999s32.5 -79 32.5 -125s-10.833 -87.667 -32.5 -125s-51.5 -66.666 -89.5 -87.999s-80 -32 -126 -32s-87.833 10.667 -125.5 32s-67.167 50.666 -88.5 87.999s-32 79 -32 125s10.667 87.667 32 125s50.833 66.666 88.5 87.999
s79.5 32 125.5 32c46.667 0 88.834 -10.667 126.501 -32zM207.498 394.5c-27 -15.667 -48.167 -37.334 -63.5 -65.001s-23 -58.834 -23 -93.501s7.66699 -65.667 23 -93s36.5 -48.833 63.5 -64.5s57.167 -23.5 90.5 -23.5s63.666 7.83301 90.999 23.5
s48.666 37.167 63.999 64.5s23 58.333 23 93s-7.66699 65.834 -23 93.501s-36.666 49.334 -63.999 65.001s-57.666 23.5 -90.999 23.5s-63.5 -7.83301 -90.5 -23.5z" />
    <glyph glyph-name="Ohungarumlaut" unicode="&#x150;" horiz-adv-x="841" 
d="M391 902h76l-113 -152h-68zM572 902h77l-122 -152h-67zM604.5 663c54.333 -30.667 97.166 -73.334 128.499 -128.001s47 -116.334 47 -185.001s-15.667 -130.334 -47 -185.001s-74.166 -97.334 -128.499 -128.001s-115.5 -46 -183.5 -46s-129.5 15.333 -184.5 46
s-98 73.334 -129 128.001s-46.5 116.334 -46.5 185.001s15.5 130.334 46.5 185.001s74 97.334 129 128.001s116.5 46 184.5 46s129.167 -15.333 183.5 -46zM276 602.5c-43.333 -24.333 -77.5 -58.333 -102.5 -102s-37.5 -93.834 -37.5 -150.501c0 -56 12.5 -106 37.5 -150
s59.167 -78.167 102.5 -102.5s91.666 -36.5 144.999 -36.5s101.5 12.167 144.5 36.5s77 58.5 102 102.5s37.5 94 37.5 150c0 56.667 -12.5 106.834 -37.5 150.501s-59 77.667 -102 102s-91.167 36.5 -144.5 36.5s-101.666 -12.167 -144.999 -36.5z" />
    <glyph glyph-name="ohungarumlaut" unicode="&#x151;" horiz-adv-x="597" 
d="M275 694h76l-112 -151h-69zM456 694h77l-122 -151h-67zM424.5 449c37.667 -21.333 67.332 -50.666 88.999 -87.999s32.5 -79 32.5 -125s-10.833 -87.667 -32.5 -125s-51.5 -66.666 -89.5 -87.999s-80 -32 -126 -32s-87.833 10.667 -125.5 32s-67.167 50.666 -88.5 87.999
s-32 79 -32 125s10.667 87.667 32 125s50.833 66.666 88.5 87.999s79.5 32 125.5 32c46.667 0 88.834 -10.667 126.501 -32zM207.498 394.5c-27 -15.667 -48.167 -37.334 -63.5 -65.001s-23 -58.834 -23 -93.501s7.66699 -65.667 23 -93s36.5 -48.833 63.5 -64.5
s57.167 -23.5 90.5 -23.5s63.666 7.83301 90.999 23.5s48.666 37.167 63.999 64.5s23 58.333 23 93s-7.66699 65.834 -23 93.501s-36.666 49.334 -63.999 65.001s-57.666 23.5 -90.999 23.5s-63.5 -7.83301 -90.5 -23.5z" />
    <glyph glyph-name="OE" unicode="&#x152;" horiz-adv-x="1127" 
d="M437 0c-76 0 -142.332 14.3311 -198.999 42.998s-100.334 69.334 -131.001 122.001s-46 114.334 -46 185.001c0 71.333 15.333 133.333 46 186s74.167 93.167 130.5 121.5s122.833 42.5 199.5 42.5h606v-67h-413v-247h400v-67h-400v-251h416v-68h-609zM214.501 143.998
c52.333 -50.667 126.833 -75.998 223.5 -75.998h120v564h-120c-96.667 0 -171.167 -25.333 -223.5 -76s-78.5 -119.334 -78.5 -206.001s26.167 -155.334 78.5 -206.001z" />
    <glyph glyph-name="oe" unicode="&#x153;" horiz-adv-x="985" 
d="M824.5 450c33.667 -20.667 60.165 -49.3301 79.498 -85.9971s29.333 -78.334 30 -125.001c0 -8 -0.666992 -16.667 -2 -26h-387c4.66699 -51.333 23.167 -91.333 55.5 -120s71.833 -43 118.5 -43c58 0 109.333 21.333 154 64l37 -45c-28 -28 -58.167 -48 -90.5 -60
s-67.166 -18 -104.499 -18c-46.667 0 -88.167 11 -124.5 33s-63.833 52.333 -82.5 91c-20.667 -38 -49.5 -68.167 -86.5 -90.5s-78.167 -33.5 -123.5 -33.5c-46 0 -87.833 10.667 -125.5 32s-67.167 50.666 -88.5 87.999s-32 79 -32 125s10.667 87.667 32 125
s50.833 66.666 88.5 87.999s79.5 32 125.5 32s87.5 -11.167 124.5 -33.5s65.5 -52.833 85.5 -91.5c19.333 38.667 46.833 69.167 82.5 91.5s75.834 33.5 120.501 33.5c42 0 79.833 -10.333 113.5 -31zM598.998 379.004c-30 -28.667 -47.667 -66 -53 -112h319
c-4.66699 46 -21.167 83.333 -49.5 112s-63.5 43 -105.5 43c-44 0 -81 -14.333 -111 -43zM207.498 394.504c-27 -15.667 -48.167 -37.334 -63.5 -65.001s-23 -58.834 -23 -93.501s7.66699 -65.667 23 -93s36.5 -48.833 63.5 -64.5s57.167 -23.5 90.5 -23.5
s63.5 7.83301 90.5 23.5s48.333 37.167 64 64.5s23.5 58.333 23.5 93s-7.83301 65.834 -23.5 93.501s-37 49.334 -64 65.001s-57.167 23.5 -90.5 23.5s-63.5 -7.83301 -90.5 -23.5z" />
    <glyph glyph-name="Racute" unicode="&#x154;" horiz-adv-x="672" 
d="M370 902h84l-126 -152h-67zM552.5 648.5c42.333 -34.333 63.5 -82.833 63.5 -145.5c0 -60 -21.167 -107.333 -63.5 -142s-100.166 -52.667 -173.499 -54h-24l258 -307h-89l-253 306h-97v-306h-73v700h272c77.333 0 137.166 -17.167 179.499 -51.5zM174 371
l197 -0.000976562c55.333 0 97.5 11.333 126.5 34s43.5 55.334 43.5 98.001c0 42 -14.667 74.167 -44 96.5s-71.333 33.5 -126 33.5h-197v-262z" />
    <glyph glyph-name="racute" unicode="&#x155;" horiz-adv-x="409" 
d="M279 694h84l-126 -151h-67zM383 465l-15 -67c-22.667 12.667 -50.334 19 -83.001 19c-38 0 -69.167 -13.833 -93.5 -41.5s-36.5 -64.167 -36.5 -109.5v-266h-67v473h66v-76c16 26.667 36.333 47.5 61 62.5s52.334 22.5 83.001 22.5c32 0 60.333 -5.66699 85 -17z" />
    <glyph glyph-name="Rcommaaccent" unicode="&#x156;" horiz-adv-x="672" 
d="M552.5 648.5c42.333 -34.333 63.501 -82.833 63.501 -145.5c0 -60 -21 -107.333 -63 -142s-99.667 -52.667 -173 -54h-25l258 -307h-89l-253 306h-97v-306h-73v700h272c77.333 0 137.166 -17.167 179.499 -51.5zM174.001 371l197 -0.000976562
c55.333 0 97.5 11.333 126.5 34s43.5 55.334 43.5 98.001c0 42 -14.667 74.167 -44 96.5s-71.333 33.5 -126 33.5h-197v-262zM342.001 -218.001h-59l22 174h73z" />
    <glyph glyph-name="rcommaaccent" unicode="&#x157;" horiz-adv-x="409" 
d="M383 465l-15 -67c-22.667 12.667 -50.334 19 -83.001 19c-38 0 -69.167 -13.833 -93.5 -41.5s-36.5 -64.167 -36.5 -109.5v-266h-67v473h66v-76c16 26.667 36.333 47.5 61 62.5s52.334 22.5 83.001 22.5c32 0 60.333 -5.66699 85 -17zM130 -218h-58l22 174h72z" />
    <glyph glyph-name="Rcaron" unicode="&#x158;" horiz-adv-x="672" 
d="M331 796l94 98h71l-122 -143h-87l-122 143h71zM552.5 648.5c42.333 -34.333 63.501 -82.834 63.501 -145.501c0 -59.333 -21.167 -106.666 -63.5 -141.999s-99.833 -53.333 -172.5 -54h-25l258 -307h-89l-253 306h-97v-306h-73v700h272
c77.333 0 137.166 -17.167 179.499 -51.5zM174.001 370.999l197 -0.000976562c55.333 0 97.5 11.333 126.5 34s43.5 55.334 43.5 98.001c0 42 -14.667 74.167 -44 96.5s-71.333 33.5 -126 33.5h-197v-262z" />
    <glyph glyph-name="rcaron" unicode="&#x159;" horiz-adv-x="409" 
d="M233 589l95 98h71l-122 -143h-87l-122 143h71zM383 465l-15 -67c-22.667 12.667 -50.334 19 -83.001 19c-38 0 -69.167 -13.833 -93.5 -41.5s-36.5 -64.167 -36.5 -109.5v-266h-67v473h66v-76c16 26.667 36.333 47.5 61 62.5s52.334 22.5 83.001 22.5
c32 0 60.333 -5.66699 85 -17z" />
    <glyph glyph-name="Sacute" unicode="&#x15a;" horiz-adv-x="673" 
d="M392 902h84l-126 -152h-66zM343 640c-54.667 0 -99.333 -11.834 -134 -35.501s-52 -55.834 -52 -96.501c0 -33.333 13.667 -59.666 41 -78.999s69.333 -32.333 126 -39l72 -9c144 -17.333 216 -77.666 216 -180.999c0 -44.667 -12.333 -82.667 -37 -114s-58 -55 -100 -71
s-88.667 -24 -140 -24s-101.5 8.33301 -150.5 25s-90.167 38 -123.5 64l38 58c28 -21.333 63 -39.666 105 -54.999s85.333 -23 130 -23c59.333 0 107.833 11.5 145.5 34.5s56.5 55.833 56.5 98.5c0 35.333 -14.333 62.5 -43 81.5s-72 31.833 -130 38.5l-75 9
c-65.333 7.33301 -116 26.166 -152 56.499s-54 72.166 -54 125.499c0 42.667 11.5 79.334 34.5 110.001s54.5 54.167 94.5 70.5s84.333 24.5 133 24.5c92 0 176 -25.667 252 -77l-37 -59c-63.333 44.667 -135.333 67 -216 67z" />
    <glyph glyph-name="sacute" unicode="&#x15b;" horiz-adv-x="490" 
d="M300 694h84l-127 -151h-66zM335.5 408.5c-29 9 -58.5029 13.501 -88.5029 13.501c-35.333 0 -63.666 -7 -84.999 -21s-32 -33.333 -32 -58c0 -20 8.5 -35.667 25.5 -47s42.833 -19.333 77.5 -24l57 -7c50.667 -5.33301 89.334 -18.833 116.001 -40.5
s40 -50.834 40 -87.501c0 -45.333 -18.667 -81 -56 -107s-87 -39 -149 -39c-36 0 -71.167 5 -105.5 15s-64.833 25.333 -91.5 46l30 50c22 -16 46.333 -28.667 73 -38s58.334 -14 95.001 -14c42 0 75 7 99 21s36 34.333 36 61c0 40.667 -34.667 65 -104 73l-58 7
c-52 6 -90.667 20 -116 42s-38 50.667 -38 86c0 44 16.833 78.5 50.5 103.5s78.834 37.5 135.501 37.5c36 0 70.167 -4.66699 102.5 -14s60.166 -22 83.499 -38l-26 -52c-18.667 12 -42.5 22.5 -71.5 31.5z" />
    <glyph glyph-name="Scircumflex" unicode="&#x15c;" horiz-adv-x="673" 
d="M353 851l-94 -99h-71l122 144h86l122 -144h-70zM343 640c-54.667 0 -99.333 -11.834 -134 -35.501s-52 -55.834 -52 -96.501c0 -33.333 13.667 -59.666 41 -78.999s69.333 -32.333 126 -39l72 -9c144 -17.333 216 -77.666 216 -180.999
c0 -44.667 -12.333 -82.667 -37 -114s-58 -55 -100 -71s-88.667 -24 -140 -24s-101.5 8.33301 -150.5 25s-90.167 38 -123.5 64l38 58c28 -21.333 63 -39.666 105 -54.999s85.333 -23 130 -23c59.333 0 107.833 11.5 145.5 34.5s56.5 55.833 56.5 98.5
c0 35.333 -14.333 62.5 -43 81.5s-72 31.833 -130 38.5l-75 9c-65.333 7.33301 -116 26.166 -152 56.499s-54 72.166 -54 125.499c0 42.667 11.5 79.334 34.5 110.001s54.5 54.167 94.5 70.5s84.333 24.5 133 24.5c92 0 176 -25.667 252 -77l-37 -59
c-63.333 44.667 -135.333 67 -216 67z" />
    <glyph glyph-name="scircumflex" unicode="&#x15d;" horiz-adv-x="490" 
d="M254 644l-94 -99h-72l122 143h87l122 -143h-71zM335.5 408.5c-29 9 -58.5029 13.501 -88.5029 13.501c-35.333 0 -63.666 -7 -84.999 -21s-32 -33.333 -32 -58c0 -20 8.5 -35.667 25.5 -47s42.833 -19.333 77.5 -24l57 -7c50.667 -5.33301 89.334 -18.833 116.001 -40.5
s40 -50.834 40 -87.501c0 -45.333 -18.667 -81 -56 -107s-87 -39 -149 -39c-36 0 -71.167 5 -105.5 15s-64.833 25.333 -91.5 46l30 50c22 -16 46.333 -28.667 73 -38s58.334 -14 95.001 -14c42 0 75 7 99 21s36 34.333 36 61c0 40.667 -34.667 65 -104 73l-58 7
c-52 6 -90.667 20 -116 42s-38 50.667 -38 86c0 44 16.833 78.5 50.5 103.5s78.834 37.5 135.501 37.5c36 0 70.167 -4.66699 102.5 -14s60.166 -22 83.499 -38l-26 -52c-18.667 12 -42.5 22.5 -71.5 31.5z" />
    <glyph glyph-name="Scedilla" unicode="&#x15e;" horiz-adv-x="673" 
d="M343 640c-54.667 0 -99.333 -11.8359 -134 -35.5029s-52 -55.834 -52 -96.501c0 -33.333 13.667 -59.666 41 -78.999s69.333 -32.333 126 -39l72 -9c144 -17.333 216 -77.666 216 -180.999c0 -59.333 -21.167 -106.666 -63.5 -141.999s-97.833 -56.666 -166.5 -63.999
l-49 -156h-72l51 155c-47.333 2 -93.5 11 -138.5 27s-82.5 36 -112.5 60l38 58c28 -21.333 63 -39.666 105 -54.999s85.333 -23 130 -23c59.333 0 107.833 11.5 145.5 34.5s56.5 55.833 56.5 98.5c0 35.333 -14.333 62.5 -43 81.5s-72 31.833 -130 38.5l-75 9
c-65.333 7.33301 -116 26.166 -152 56.499s-54 72.166 -54 125.499c0 42.667 11.5 79.334 34.5 110.001s54.5 54.167 94.5 70.5s84.333 24.5 133 24.5c92 0 176 -25.667 252 -77l-37 -59c-63.333 44.667 -135.333 67 -216 67z" />
    <glyph glyph-name="scedilla" unicode="&#x15f;" horiz-adv-x="490" 
d="M335.5 408.5c-29 9 -58.5 13.502 -88.5 13.502c-35.333 0 -63.666 -7 -84.999 -21s-32 -33.333 -32 -58c0 -20 8.5 -35.667 25.5 -47s42.833 -19.333 77.5 -24l57 -7c50.667 -5.33301 89.334 -18.833 116.001 -40.5s40 -50.834 40 -87.501
c0 -38.667 -13.833 -70.334 -41.5 -95.001s-65.834 -40.334 -114.501 -47.001l-49 -157h-70l51 155c-32.667 1.33301 -64.334 6.83301 -95.001 16.5s-58.334 23.834 -83.001 42.501l30 50c22 -16 46.333 -28.667 73 -38s58.334 -14 95.001 -14c42 0 75 7 99 21
s36 34.333 36 61c0 40.667 -34.667 65 -104 73l-58 7c-52 6 -90.667 20 -116 42s-38 50.667 -38 86c0 44 16.833 78.5 50.5 103.5s78.834 37.5 135.501 37.5c36 0 70.167 -4.66699 102.5 -14s60.166 -22 83.499 -38l-26 -52c-18.667 12 -42.5 22.5 -71.5 31.5z" />
    <glyph glyph-name="Scaron" unicode="&#x160;" horiz-adv-x="673" 
d="M353 796l95 98h70l-122 -143h-86l-122 143h71zM343 640c-54.667 0 -99.333 -11.834 -134 -35.501s-52 -55.834 -52 -96.501c0 -33.333 13.667 -59.666 41 -78.999s69.333 -32.333 126 -39l72 -9c144 -17.333 216 -77.666 216 -180.999
c0 -44.667 -12.333 -82.667 -37 -114s-58 -55 -100 -71s-88.667 -24 -140 -24s-101.5 8.33301 -150.5 25s-90.167 38 -123.5 64l38 58c28 -21.333 63 -39.666 105 -54.999s85.333 -23 130 -23c59.333 0 107.833 11.5 145.5 34.5s56.5 55.833 56.5 98.5
c0 35.333 -14.333 62.5 -43 81.5s-72 31.833 -130 38.5l-75 9c-65.333 7.33301 -116 26.166 -152 56.499s-54 72.166 -54 125.499c0 42.667 11.5 79.334 34.5 110.001s54.5 54.167 94.5 70.5s84.333 24.5 133 24.5c92 0 176 -25.667 252 -77l-37 -59
c-63.333 44.667 -135.333 67 -216 67z" />
    <glyph glyph-name="scaron" unicode="&#x161;" horiz-adv-x="490" 
d="M254 589l94 98h71l-122 -143h-87l-122 143h72zM335.5 408.5c-29 9 -58.5029 13.501 -88.5029 13.501c-35.333 0 -63.666 -7 -84.999 -21s-32 -33.333 -32 -58c0 -20 8.5 -35.667 25.5 -47s42.833 -19.333 77.5 -24l57 -7c50.667 -5.33301 89.334 -18.833 116.001 -40.5
s40 -50.834 40 -87.501c0 -45.333 -18.667 -81 -56 -107s-87 -39 -149 -39c-36 0 -71.167 5 -105.5 15s-64.833 25.333 -91.5 46l30 50c22 -16 46.333 -28.667 73 -38s58.334 -14 95.001 -14c42 0 75 7 99 21s36 34.333 36 61c0 40.667 -34.667 65 -104 73l-58 7
c-52 6 -90.667 20 -116 42s-38 50.667 -38 86c0 44 16.833 78.5 50.5 103.5s78.834 37.5 135.501 37.5c36 0 70.167 -4.66699 102.5 -14s60.166 -22 83.499 -38l-26 -52c-18.667 12 -42.5 22.5 -71.5 31.5z" />
    <glyph glyph-name="Tcaron" unicode="&#x164;" horiz-adv-x="608" 
d="M304 796l95 98h70l-122 -143h-87l-121 143h71zM340 632v-632h-73v632h-247v68h567v-68h-247z" />
    <glyph glyph-name="tcaron" unicode="&#x165;" horiz-adv-x="454" 
d="M273 723h68l-18 -197h-55zM200 412v-245.999c0 -36.667 9 -64.334 27 -83.001s42.333 -28 73 -28c19.333 0 37.833 3.16699 55.5 9.5s33.5 14.833 47.5 25.5l30 -50c-18 -14.667 -39 -26.5 -63 -35.5s-49.667 -13.5 -77 -13.5c-51.333 0 -90.833 14.5 -118.5 43.5
s-41.5 72.167 -41.5 129.5v248h-106v61h106v152h67v-152h211v-61h-211z" />
    <glyph glyph-name="Tbar" unicode="&#x166;" horiz-adv-x="608" 
d="M340 319v-319h-73v319h-163v68h163v245h-247v68h567v-68h-247v-245h164v-68h-164z" />
    <glyph glyph-name="tbar" unicode="&#x167;" horiz-adv-x="454" 
d="M200 412v-120.999h157v-58h-157v-67c0 -36.667 9 -64.334 27 -83.001s42.333 -28 73 -28c19.333 0 37.833 3.16699 55.5 9.5s33.5 14.833 47.5 25.5l30 -50c-18 -14.667 -39 -26.5 -63 -35.5s-49.667 -13.5 -77 -13.5c-51.333 0 -90.833 14.5 -118.5 43.5
s-41.5 72.167 -41.5 129.5v69h-102v58h102v121h-106v61h106v152h67v-152h211v-61h-211z" />
    <glyph glyph-name="Utilde" unicode="&#x168;" horiz-adv-x="754" 
d="M250.5 862.5c17 9 36.834 13.499 59.501 13.499c16 0 29.667 -2 41 -6s24.666 -10 39.999 -18c10 -6 18.833 -10.5 26.5 -13.5s16.167 -4.5 25.5 -4.5c13.333 0 25.333 3.16699 36 9.5s21.334 15.833 32.001 28.5l39 -39c-14.667 -19.333 -30.5 -33.5 -47.5 -42.5
s-36.833 -13.5 -59.5 -13.5c-16 0 -29.333 2 -40 6s-24 10 -40 18c-12 6.66699 -21.5 11.334 -28.5 14.001s-15.167 4 -24.5 4c-12.667 0 -24.334 -3 -35.001 -9s-21.667 -15.667 -33 -29l-39 38c14.667 20 30.5 34.5 47.5 43.5zM625.501 118.999
c-25 -42.667 -59.166 -74.667 -102.499 -96s-92.333 -32 -147 -32s-103.5 10.667 -146.5 32s-76.833 53.333 -101.5 96s-37 94.334 -37 155.001v426h72v-422c0 -71.333 19.667 -125.333 59 -162s90.666 -55 153.999 -55c64.667 0 116.5 18.333 155.5 55
s58.5 90.667 58.5 162v422h73v-426c0 -60.667 -12.5 -112.334 -37.5 -155.001z" />
    <glyph glyph-name="utilde" unicode="&#x169;" horiz-adv-x="592" 
d="M174.5 655.5c17 9 36.834 13.5 59.501 13.5c16 0 29.667 -2 41 -6s24.666 -10 39.999 -18c10 -6 18.833 -10.5 26.5 -13.5s16.167 -4.5 25.5 -4.5c13.333 0 25.333 3.16699 36 9.5s21.334 15.833 32.001 28.5l40 -38c-15.333 -20 -31.5 -34.667 -48.5 -44
s-36.833 -14 -59.5 -14c-16 0 -29.667 2 -41 6s-24 10 -38 18c-10.667 6.66699 -20 11.5 -28 14.5s-16.667 4.5 -26 4.5c-12.667 0 -24.334 -3 -35.001 -9s-21.667 -15.667 -33 -29l-39 39c14.667 19.333 30.5 33.5 47.5 42.5zM481.501 84.5
c-19 -31 -44.6689 -54.333 -77.002 -70s-68.166 -23.5 -107.499 -23.5c-40 0 -76.167 7.83301 -108.5 23.5s-58 39 -77 70s-28.5 68.5 -28.5 112.5v276h67v-270c0 -47.333 13.333 -83.833 40 -109.5s62.334 -38.5 107.001 -38.5c44 0 79.333 12.833 106 38.5
s40 62.167 40 109.5v270h67v-276c0 -44 -9.5 -81.5 -28.5 -112.5z" />
    <glyph glyph-name="Umacron" unicode="&#x16a;" horiz-adv-x="754" 
d="M526 850v-54h-298v54h298zM625.5 119c-25 -42.667 -59.166 -74.667 -102.499 -96s-92.333 -32 -147 -32s-103.5 10.667 -146.5 32s-76.833 53.333 -101.5 96s-37 94.334 -37 155.001v426h72v-422c0 -71.333 19.667 -125.333 59 -162s90.666 -55 153.999 -55
c64.667 0 116.5 18.333 155.5 55s58.5 90.667 58.5 162v422h73v-426c0 -60.667 -12.5 -112.334 -37.5 -155.001z" />
    <glyph glyph-name="umacron" unicode="&#x16b;" horiz-adv-x="592" 
d="M445 643v-55h-297v55h297zM481.5 84.5c-19 -31 -44.6689 -54.333 -77.002 -70s-68.166 -23.5 -107.499 -23.5c-40 0 -76.167 7.83301 -108.5 23.5s-58 39 -77 70s-28.5 68.5 -28.5 112.5v276h67v-270c0 -47.333 13.333 -83.833 40 -109.5s62.334 -38.5 107.001 -38.5
c44 0 79.333 12.833 106 38.5s40 62.167 40 109.5v270h67v-276c0 -44 -9.5 -81.5 -28.5 -112.5z" />
    <glyph glyph-name="Ubreve" unicode="&#x16c;" horiz-adv-x="754" 
d="M376 807c57.333 0 95.333 32.667 114 98l54 -16c-12.667 -44.667 -33.5 -79 -62.5 -103s-64.167 -36 -105.5 -36s-76.333 12 -105 36s-49 58.333 -61 103l54 16c18 -65.333 55.333 -98 112 -98zM625.5 119c-25 -42.667 -59.166 -74.667 -102.499 -96
s-92.333 -32 -147 -32s-103.5 10.667 -146.5 32s-76.833 53.333 -101.5 96s-37 94.334 -37 155.001v426h72v-422c0 -71.333 19.667 -125.333 59 -162s90.666 -55 153.999 -55c64.667 0 116.5 18.333 155.5 55s58.5 90.667 58.5 162v422h73v-426
c0 -60.667 -12.5 -112.334 -37.5 -155.001z" />
    <glyph glyph-name="ubreve" unicode="&#x16d;" horiz-adv-x="592" 
d="M297 600c56.667 0 94.001 32.333 112.001 97l55 -16c-12.667 -44.667 -33.334 -78.834 -62.001 -102.501s-63.667 -35.5 -105 -35.5c-42 0 -77.333 11.833 -106 35.5s-49 57.834 -61 102.501l53 16c18.667 -64.667 56.667 -97 114 -97zM481.501 84.5
c-19 -31 -44.6689 -54.333 -77.002 -70s-68.166 -23.5 -107.499 -23.5c-40 0 -76.167 7.83301 -108.5 23.5s-58 39 -77 70s-28.5 68.5 -28.5 112.5v276h67v-270c0 -47.333 13.333 -83.833 40 -109.5s62.334 -38.5 107.001 -38.5c44 0 79.333 12.833 106 38.5
s40 62.167 40 109.5v270h67v-276c0 -44 -9.5 -81.5 -28.5 -112.5z" />
    <glyph glyph-name="Uring" unicode="&#x16e;" horiz-adv-x="754" 
d="M298.5 773c-21.667 21.333 -32.5 47.333 -32.5 78c0 30 10.833 55.833 32.5 77.5s47.5 32.5 77.5 32.5c30.667 0 57 -10.833 79 -32.5s33 -47.5 33 -77.5c0 -30.667 -11 -56.667 -33 -78s-48.333 -32 -79 -32c-30 0 -55.833 10.667 -77.5 32zM423.5 803
c13 13.333 19.5 29.333 19.5 48s-6.5 34.5 -19.5 47.5s-28.833 19.5 -47.5 19.5c-18 0 -33.5 -6.5 -46.5 -19.5s-19.5 -28.833 -19.5 -47.5s6.5 -34.667 19.5 -48s28.5 -20 46.5 -20c18.667 0 34.5 6.66699 47.5 20zM625.5 119c-25 -42.667 -59.166 -74.667 -102.499 -96
s-92.333 -32 -147 -32s-103.5 10.667 -146.5 32s-76.833 53.333 -101.5 96s-37 94.334 -37 155.001v426h72v-422c0 -71.333 19.667 -125.333 59 -162s90.666 -55 153.999 -55c64.667 0 116.5 18.333 155.5 55s58.5 90.667 58.5 162v422h73v-426
c0 -60.667 -12.5 -112.334 -37.5 -155.001z" />
    <glyph glyph-name="uring" unicode="&#x16f;" horiz-adv-x="592" 
d="M218 566c-22 21.333 -33 47.333 -33 78c0 30 11 55.667 33 77s48.333 32 79 32c30 0 55.833 -10.667 77.5 -32s32.5 -47 32.5 -77c0 -30.667 -10.833 -56.667 -32.5 -78s-47.5 -32 -77.5 -32c-30.667 0 -57 10.667 -79 32zM343.5 596c13 13.333 19.5 29.333 19.5 48
s-6.5 34.5 -19.5 47.5s-28.5 19.5 -46.5 19.5c-18.667 0 -34.5 -6.5 -47.5 -19.5s-19.5 -28.833 -19.5 -47.5s6.5 -34.667 19.5 -48s28.833 -20 47.5 -20c18 0 33.5 6.66699 46.5 20zM481.5 84.5c-19 -31 -44.6689 -54.333 -77.002 -70s-68.166 -23.5 -107.499 -23.5
c-40 0 -76.167 7.83301 -108.5 23.5s-58 39 -77 70s-28.5 68.5 -28.5 112.5v276h67v-270c0 -47.333 13.333 -83.833 40 -109.5s62.334 -38.5 107.001 -38.5c44 0 79.333 12.833 106 38.5s40 62.167 40 109.5v270h67v-276c0 -44 -9.5 -81.5 -28.5 -112.5z" />
    <glyph glyph-name="Uhungarumlaut" unicode="&#x170;" horiz-adv-x="754" 
d="M347 902h75l-112 -152h-68zM527 902h78l-121 -152h-68zM625.5 119c-25 -42.667 -59.166 -74.667 -102.499 -96s-92.333 -32 -147 -32s-103.5 10.667 -146.5 32s-76.833 53.333 -101.5 96s-37 94.334 -37 155.001v426h72v-422c0 -71.333 19.667 -125.333 59 -162
s90.666 -55 153.999 -55c64.667 0 116.5 18.333 155.5 55s58.5 90.667 58.5 162v422h73v-426c0 -60.667 -12.5 -112.334 -37.5 -155.001z" />
    <glyph glyph-name="uhungarumlaut" unicode="&#x171;" horiz-adv-x="592" 
d="M273 694h75l-112 -151h-68zM453 694h78l-122 -151h-67zM481.5 84.5c-19 -31 -44.6689 -54.333 -77.002 -70s-68.166 -23.5 -107.499 -23.5c-40 0 -76.167 7.83301 -108.5 23.5s-58 39 -77 70s-28.5 68.5 -28.5 112.5v276h67v-270c0 -47.333 13.333 -83.833 40 -109.5
s62.334 -38.5 107.001 -38.5c44 0 79.333 12.833 106 38.5s40 62.167 40 109.5v270h67v-276c0 -44 -9.5 -81.5 -28.5 -112.5z" />
    <glyph glyph-name="Uogonek" unicode="&#x172;" horiz-adv-x="754" 
d="M541 -195c-20 -8 -40.998 -11.9971 -62.998 -11.9971c-36.667 0 -66.667 9.33301 -90 28s-35 42.667 -35 72c0 20.667 5.16699 39.167 15.5 55.5s25.833 31.5 46.5 45.5c-17.333 -1.33301 -30.333 -2 -39 -2c-56.667 0 -106.5 11.167 -149.5 33.5
s-76.333 54.666 -100 96.999s-35.5 92.833 -35.5 151.5v426h72v-422c0 -71.333 19.667 -125.333 59 -162s90.666 -55 153.999 -55c64.667 0 116.5 18.333 155.5 55s58.5 90.667 58.5 162v422h73v-426c0 -60.667 -12.167 -111.834 -36.5 -153.501
s-58.5 -73.834 -102.5 -96.501c-36 -20 -62.833 -39.167 -80.5 -57.5s-26.5 -38.5 -26.5 -60.5c0 -16.667 6.16699 -30.167 18.5 -40.5s28.166 -15.5 47.499 -15.5c27.333 0 52 10 74 30l36 -41c-14.667 -14.667 -32 -26 -52 -34z" />
    <glyph glyph-name="uogonek" unicode="&#x173;" horiz-adv-x="592" 
d="M438 -195c-20 -8 -41 -12 -63 -12c-36.667 0 -66.667 9.33301 -90 28s-35 42.667 -35 72c0 40 19.667 73 59 99c-43.333 -2.66699 -82 4 -116 20s-60.833 39.833 -80.5 71.5s-29.5 69.5 -29.5 113.5v276h67v-270c0 -47.333 13.333 -83.833 40 -109.5
s62.334 -38.5 107.001 -38.5c44 0 79.333 12.833 106 38.5s40 62.167 40 109.5v270h67v-276c0 -40.667 -8 -75.5 -24 -104.5s-38.333 -51.833 -67 -68.5c-36 -21.333 -62.5 -40.833 -79.5 -58.5s-25.5 -37.5 -25.5 -59.5c0 -16.667 6.16699 -30.167 18.5 -40.5
s28.166 -15.5 47.499 -15.5c27.333 0 52 10 74 30l36 -41c-14.667 -14.667 -32 -26 -52 -34z" />
    <glyph glyph-name="Wcircumflex" unicode="&#x174;" horiz-adv-x="1102" 
d="M551 851l-94 -99h-71l122 144h87l122 -144h-71zM752 0l-201 604l-201 -604h-88l-232 700h76l201 -618l205 618h80l204 -618l202 618h74l-232 -700h-88z" />
    <glyph glyph-name="wcircumflex" unicode="&#x175;" horiz-adv-x="863" 
d="M432 644l-94 -99h-72l122 143h87l122 -143h-70zM769 473h70l-181 -473h-79l-148 399l-147 -399h-79l-181 473h72l151 -402l148 402h74l149 -403z" />
    <glyph glyph-name="Ycircumflex" unicode="&#x176;" horiz-adv-x="639" 
d="M321 851l-95 -99h-71l122 144h87l122 -144h-71zM356 0h-72v298l-278 402h86l229 -336l228 336h84l-277 -403v-297z" />
    <glyph glyph-name="ycircumflex" unicode="&#x177;" horiz-adv-x="521" 
d="M264 644l-95 -99h-71l122 143h87l122 -143h-71zM52 -202l179 307l-220 368h76l182 -301l170 301h75l-388 -675h-74z" />
    <glyph glyph-name="Ydieresis" unicode="&#x178;" horiz-adv-x="639" 
d="M250 857c9.33301 -9.33301 14 -20.666 14 -33.999s-4.5 -24.333 -13.5 -33s-20.167 -13 -33.5 -13s-24.333 4.33301 -33 13s-13 19.667 -13 33s4.5 24.666 13.5 33.999s19.833 14 32.5 14s23.667 -4.66699 33 -14zM457 857c9.33301 -9.33301 14 -20.666 14 -33.999
s-4.66699 -24.333 -14 -33s-20.666 -13 -33.999 -13s-24.5 4.33301 -33.5 13s-13.5 19.667 -13.5 33s4.66699 24.666 14 33.999s20.333 14 33 14c13.333 0 24.666 -4.66699 33.999 -14zM356 0h-72v298l-278 402h86l229 -336l228 336h84l-277 -403v-297z" />
    <glyph glyph-name="Zacute" unicode="&#x179;" horiz-adv-x="661" 
d="M372 902h84l-127 -152h-65zM157 68h443v-68h-539v57l441 575h-435v68h532v-56z" />
    <glyph glyph-name="zacute" unicode="&#x17a;" horiz-adv-x="531" 
d="M314 694h84l-126 -151h-66zM153 61h317v-61h-408v49l316 363h-306v61h394v-50z" />
    <glyph glyph-name="Zdotaccent" unicode="&#x17b;" horiz-adv-x="661" 
d="M361 859.5c9.33301 -9.66699 14 -21.167 14 -34.5c0 -14 -4.66699 -25.667 -14 -35s-21 -14 -35 -14c-13.333 0 -24.666 4.66699 -33.999 14s-14 21 -14 35c0 13.333 4.66699 24.833 14 34.5s20.666 14.5 33.999 14.5c14 0 25.667 -4.83301 35 -14.5zM157 68h443v-68
h-539v57l441 575h-435v68h532v-56z" />
    <glyph glyph-name="zdotaccent" unicode="&#x17c;" horiz-adv-x="531" 
d="M302.5 674c9 -9.33301 13.5 -20.666 13.5 -33.999c0 -12.667 -4.5 -23.667 -13.5 -33s-20.167 -14 -33.5 -14s-24.5 4.5 -33.5 13.5s-13.5 20.167 -13.5 33.5s4.5 24.666 13.5 33.999s20.167 14 33.5 14s24.5 -4.66699 33.5 -14zM153 61h317v-61h-408v49l316 363h-306v61
h394v-50z" />
    <glyph glyph-name="Zcaron" unicode="&#x17d;" horiz-adv-x="661" 
d="M332 796l95 98h71l-122 -143h-87l-121 143h70zM157 68h443v-68h-539v57l441 575h-435v68h532v-56z" />
    <glyph glyph-name="zcaron" unicode="&#x17e;" horiz-adv-x="531" 
d="M269 589l94 98h71l-122 -143h-87l-122 143h71zM153 61h317v-61h-408v49l316 363h-306v61h394v-50z" />
    <glyph glyph-name="longs" unicode="&#x17f;" horiz-adv-x="326" 
d="M372 692l-26.001 -55c-13.333 8 -28.833 14.667 -46.5 20s-35.167 8 -52.5 8c-64 0 -96 -38 -96 -114v-551h-67v551c0 54.667 12.833 98 38.5 130s65.167 48 118.5 48c48.667 0 92.334 -12.333 131.001 -37z" />
    <glyph glyph-name="uni018F" unicode="&#x18f;" horiz-adv-x="810" 
d="M575 662.5c54 -31 96.498 -73.666 127.498 -127.999s46.5 -115.833 46.5 -184.5s-15.167 -130.334 -45.5 -185.001s-71.833 -97.334 -124.5 -128.001s-111 -46 -175 -46c-65.333 0 -124.166 15 -176.499 45s-93.166 72 -122.499 126s-44 115.333 -44 184l1 37h611
c-4.66699 50 -19.667 94.333 -45 133s-58.333 68.834 -99 90.501s-85 32.5 -133 32.5c-92 0 -169.333 -36.667 -232 -110l-51 50c36 41.333 77.833 73.333 125.5 96s100.167 34 157.5 34c65.333 0 125 -15.5 179 -46.5zM532.498 93.001c39 21.333 71 51.334 96 90.001
s39.833 83 44.5 133h-534c2 -49.333 14.833 -93.333 38.5 -132s55.167 -68.834 94.5 -90.501s83.333 -32.5 132 -32.5c46.667 0 89.5 10.667 128.5 32z" />
    <glyph glyph-name="florin" unicode="&#x192;" horiz-adv-x="700" 
d="M382 333l-17.998 -179.001c-4.66699 -51.333 -18.834 -91.333 -42.501 -120s-57.5 -43 -101.5 -43c-42 0 -80.667 11.667 -116 35l25 53c11.333 -8 24.666 -14.333 39.999 -19s30.666 -7 45.999 -7c48.667 0 76.667 34 84 102l17 178h-134v60h140l16 154
c5.33301 50.667 19.666 90.334 42.999 119.001s57 43 101 43c40 0 78.333 -11.333 115 -34l-24 -54c-11.333 8 -24.666 14.333 -39.999 19s-30.666 7 -45.999 7c-49.333 0 -77.333 -33.667 -84 -101l-15 -153h152v-60h-158z" />
    <glyph glyph-name="uni01B5" unicode="&#x1b5;" horiz-adv-x="661" 
d="M347 317l-190 -249h443v-68h-539v57l202 262h-135v66h185l189 247h-435v68h532v-56l-201 -260h135v-67h-186z" />
    <glyph glyph-name="uni01B6" unicode="&#x1b6;" horiz-adv-x="531" 
d="M285 215l-132 -154h317v-61h-408v49l146 168h-101v50h145l126 145h-306v61h394v-50l-137 -158h100v-50h-144z" />
    <glyph glyph-name="uni01CD" unicode="&#x1cd;" horiz-adv-x="708" 
d="M354 796l95 98h70l-122 -143h-86l-122 143h71zM612 0l-81 199h-355l-82 -199h-75l291 700h88l291 -700h-77zM502 267l-149 363l-150 -363h299z" />
    <glyph glyph-name="uni01CE" unicode="&#x1ce;" horiz-adv-x="621" 
d="M304 589l94 98h72l-122 -143h-87l-122 143h70zM467 0l0.000976562 86.002c-19.333 -29.333 -44.333 -52.5 -75 -69.5s-65.667 -25.5 -105 -25.5c-43.333 0 -83 10.667 -119 32s-64.333 50.666 -85 87.999s-31 79 -31 125s10.333 87.667 31 125s49 66.666 85 87.999
s75.667 32 119 32c40 0 75.167 -8.33301 105.5 -25s55.166 -39.667 74.499 -69v86h67v-473h-67zM205.001 394.002c-26.667 -16 -47.332 -37.8359 -61.999 -65.5029s-22 -58.5 -22 -92.5c0 -33.333 7.5 -63.833 22.5 -91.5s35.667 -49.5 62 -65.5s56.166 -24 89.499 -24
c34 0 64.167 7.83301 90.5 23.5s47 37.334 62 65.001s22.5 58.5 22.5 92.5c0 34.667 -7.5 65.834 -22.5 93.501s-35.667 49.334 -62 65.001s-56.5 23.5 -90.5 23.5c-33.333 0 -63.333 -8 -90 -24z" />
    <glyph glyph-name="uni01CF" unicode="&#x1cf;" horiz-adv-x="275" 
d="M137 796l95 98h71l-122 -143h-87l-123 143h72zM101 0v700h73v-700h-73z" />
    <glyph glyph-name="uni01D0" unicode="&#x1d0;" horiz-adv-x="243" 
d="M122 589l94 98h71l-122 -143h-87l-122 143h72zM88 0v473h67v-473h-67z" />
    <glyph glyph-name="uni01D1" unicode="&#x1d1;" horiz-adv-x="841" 
d="M421 796l94 98h71l-122 -143h-87l-122 143h71zM604.5 663c54.333 -30.667 97.166 -73.334 128.499 -128.001s47 -116.334 47 -185.001s-15.667 -130.334 -47 -185.001s-74.166 -97.334 -128.499 -128.001s-115.5 -46 -183.5 -46s-129.5 15.333 -184.5 46
s-98 73.334 -129 128.001s-46.5 116.334 -46.5 185.001s15.5 130.334 46.5 185.001s74 97.334 129 128.001s116.5 46 184.5 46s129.167 -15.333 183.5 -46zM276 602.5c-43.333 -24.333 -77.5 -58.333 -102.5 -102s-37.5 -93.834 -37.5 -150.501c0 -56 12.5 -106 37.5 -150
s59.167 -78.167 102.5 -102.5s91.666 -36.5 144.999 -36.5s101.5 12.167 144.5 36.5s77 58.5 102 102.5s37.5 94 37.5 150c0 56.667 -12.5 106.834 -37.5 150.501s-59 77.667 -102 102s-91.167 36.5 -144.5 36.5s-101.666 -12.167 -144.999 -36.5z" />
    <glyph glyph-name="uni01D2" unicode="&#x1d2;" horiz-adv-x="597" 
d="M298 589l95 98h71l-122 -143h-87l-121 143h70zM424.5 449c37.667 -21.333 67.332 -50.666 88.999 -87.999s32.5 -79 32.5 -125s-10.833 -87.667 -32.5 -125s-51.5 -66.666 -89.5 -87.999s-80 -32 -126 -32s-87.833 10.667 -125.5 32s-67.167 50.666 -88.5 87.999
s-32 79 -32 125s10.667 87.667 32 125s50.833 66.666 88.5 87.999s79.5 32 125.5 32c46.667 0 88.834 -10.667 126.501 -32zM207.498 394.5c-27 -15.667 -48.167 -37.334 -63.5 -65.001s-23 -58.834 -23 -93.501s7.66699 -65.667 23 -93s36.5 -48.833 63.5 -64.5
s57.167 -23.5 90.5 -23.5s63.666 7.83301 90.999 23.5s48.666 37.167 63.999 64.5s23 58.333 23 93s-7.66699 65.834 -23 93.501s-36.666 49.334 -63.999 65.001s-57.666 23.5 -90.999 23.5s-63.5 -7.83301 -90.5 -23.5z" />
    <glyph glyph-name="uni01D3" unicode="&#x1d3;" horiz-adv-x="754" 
d="M376 796l95 98h71l-122 -143h-86l-122 143h70zM625.5 119c-25 -42.667 -59.166 -74.667 -102.499 -96s-92.333 -32 -147 -32s-103.5 10.667 -146.5 32s-76.833 53.333 -101.5 96s-37 94.334 -37 155.001v426h72v-422c0 -71.333 19.667 -125.333 59 -162
s90.666 -55 153.999 -55c64.667 0 116.5 18.333 155.5 55s58.5 90.667 58.5 162v422h73v-426c0 -60.667 -12.5 -112.334 -37.5 -155.001z" />
    <glyph glyph-name="uni01D4" unicode="&#x1d4;" horiz-adv-x="592" 
d="M297 589l94 98h70l-121 -143h-87l-122 143h71zM481.5 84.5c-19 -31 -44.6689 -54.333 -77.002 -70s-68.166 -23.5 -107.499 -23.5c-40 0 -76.167 7.83301 -108.5 23.5s-58 39 -77 70s-28.5 68.5 -28.5 112.5v276h67v-270c0 -47.333 13.333 -83.833 40 -109.5
s62.334 -38.5 107.001 -38.5c44 0 79.333 12.833 106 38.5s40 62.167 40 109.5v270h67v-276c0 -44 -9.5 -81.5 -28.5 -112.5z" />
    <glyph glyph-name="uni01D5" unicode="&#x1d5;" horiz-adv-x="754" 
d="M526 1017v-54h-298v54h298zM307 857c9.33301 -9.33301 14 -20.666 14 -33.999s-4.5 -24.333 -13.5 -33s-20.167 -13 -33.5 -13s-24.5 4.33301 -33.5 13s-13.5 19.667 -13.5 33s4.5 24.666 13.5 33.999s20.167 14 33.5 14c12.667 0 23.667 -4.66699 33 -14zM513 857
c9.33301 -9.33301 14 -20.666 14 -33.999s-4.66699 -24.333 -14 -33s-20.666 -13 -33.999 -13s-24.333 4.33301 -33 13s-13 19.667 -13 33s4.5 24.666 13.5 33.999s19.833 14 32.5 14c13.333 0 24.666 -4.66699 33.999 -14zM625.5 119
c-25 -42.667 -59.166 -74.667 -102.499 -96s-92.333 -32 -147 -32s-103.5 10.667 -146.5 32s-76.833 53.333 -101.5 96s-37 94.334 -37 155.001v426h72v-422c0 -71.333 19.667 -125.333 59 -162s90.666 -55 153.999 -55c64.667 0 116.5 18.333 155.5 55
s58.5 90.667 58.5 162v422h73v-426c0 -60.667 -12.5 -112.334 -37.5 -155.001z" />
    <glyph glyph-name="uni01D6" unicode="&#x1d6;" horiz-adv-x="592" 
d="M445 808v-54h-297v54h297zM226.5 649.5c9 -9 13.5 -20.167 13.5 -33.5c0 -12.667 -4.5 -23.667 -13.5 -33s-20.167 -14 -33.5 -14s-24.333 4.5 -33 13.5s-13 20.167 -13 33.5s4.33301 24.5 13 33.5s19.667 13.5 33 13.5s24.5 -4.5 33.5 -13.5zM432.5 649.5
c9 -9 13.5 -20.167 13.5 -33.5s-4.5 -24.5 -13.5 -33.5s-20.167 -13.5 -33.5 -13.5c-12.667 0 -23.667 4.66699 -33 14s-14 20.333 -14 33c0 13.333 4.66699 24.5 14 33.5s20.333 13.5 33 13.5c13.333 0 24.5 -4.5 33.5 -13.5zM481.5 84.5
c-19 -31 -44.6689 -54.333 -77.002 -70s-68.166 -23.5 -107.499 -23.5c-40 0 -76.167 7.83301 -108.5 23.5s-58 39 -77 70s-28.5 68.5 -28.5 112.5v276h67v-270c0 -47.333 13.333 -83.833 40 -109.5s62.334 -38.5 107.001 -38.5c44 0 79.333 12.833 106 38.5
s40 62.167 40 109.5v270h67v-276c0 -44 -9.5 -81.5 -28.5 -112.5z" />
    <glyph glyph-name="uni01D7" unicode="&#x1d7;" horiz-adv-x="754" 
d="M416 1104h84l-127 -151h-65zM307 857c9.33301 -9.33301 14 -20.666 14 -33.999s-4.5 -24.333 -13.5 -33s-20.167 -13 -33.5 -13s-24.5 4.33301 -33.5 13s-13.5 19.667 -13.5 33s4.5 24.666 13.5 33.999s20.167 14 33.5 14c12.667 0 23.667 -4.66699 33 -14zM513 857
c9.33301 -9.33301 14 -20.666 14 -33.999s-4.66699 -24.333 -14 -33s-20.666 -13 -33.999 -13s-24.333 4.33301 -33 13s-13 19.667 -13 33s4.5 24.666 13.5 33.999s19.833 14 32.5 14c13.333 0 24.666 -4.66699 33.999 -14zM625.5 119
c-25 -42.667 -59.166 -74.667 -102.499 -96s-92.333 -32 -147 -32s-103.5 10.667 -146.5 32s-76.833 53.333 -101.5 96s-37 94.334 -37 155.001v426h72v-422c0 -71.333 19.667 -125.333 59 -162s90.666 -55 153.999 -55c64.667 0 116.5 18.333 155.5 55
s58.5 90.667 58.5 162v422h73v-426c0 -60.667 -12.5 -112.334 -37.5 -155.001z" />
    <glyph glyph-name="uni01D8" unicode="&#x1d8;" horiz-adv-x="592" 
d="M335 894h84l-126 -151h-66zM226.5 649.5c9 -9 13.5 -20.167 13.5 -33.5c0 -12.667 -4.5 -23.667 -13.5 -33s-20.167 -14 -33.5 -14s-24.333 4.5 -33 13.5s-13 20.167 -13 33.5s4.33301 24.5 13 33.5s19.667 13.5 33 13.5s24.5 -4.5 33.5 -13.5zM432.5 649.5
c9 -9 13.5 -20.167 13.5 -33.5s-4.5 -24.5 -13.5 -33.5s-20.167 -13.5 -33.5 -13.5c-12.667 0 -23.667 4.66699 -33 14s-14 20.333 -14 33c0 13.333 4.66699 24.5 14 33.5s20.333 13.5 33 13.5c13.333 0 24.5 -4.5 33.5 -13.5zM481.5 84.5
c-19 -31 -44.6689 -54.333 -77.002 -70s-68.166 -23.5 -107.499 -23.5c-40 0 -76.167 7.83301 -108.5 23.5s-58 39 -77 70s-28.5 68.5 -28.5 112.5v276h67v-270c0 -47.333 13.333 -83.833 40 -109.5s62.334 -38.5 107.001 -38.5c44 0 79.333 12.833 106 38.5
s40 62.167 40 109.5v270h67v-276c0 -44 -9.5 -81.5 -28.5 -112.5z" />
    <glyph glyph-name="uni01D9" unicode="&#x1d9;" horiz-adv-x="754" 
d="M376 998l95 98h71l-122 -142h-86l-122 142h70zM307 857c9.33301 -9.33301 14 -20.666 14 -33.999s-4.5 -24.333 -13.5 -33s-20.167 -13 -33.5 -13s-24.5 4.33301 -33.5 13s-13.5 19.667 -13.5 33s4.5 24.666 13.5 33.999s20.167 14 33.5 14
c12.667 0 23.667 -4.66699 33 -14zM513 857c9.33301 -9.33301 14 -20.666 14 -33.999s-4.66699 -24.333 -14 -33s-20.666 -13 -33.999 -13s-24.333 4.33301 -33 13s-13 19.667 -13 33s4.5 24.666 13.5 33.999s19.833 14 32.5 14c13.333 0 24.666 -4.66699 33.999 -14z
M625.5 119c-25 -42.667 -59.166 -74.667 -102.499 -96s-92.333 -32 -147 -32s-103.5 10.667 -146.5 32s-76.833 53.333 -101.5 96s-37 94.334 -37 155.001v426h72v-422c0 -71.333 19.667 -125.333 59 -162s90.666 -55 153.999 -55c64.667 0 116.5 18.333 155.5 55
s58.5 90.667 58.5 162v422h73v-426c0 -60.667 -12.5 -112.334 -37.5 -155.001z" />
    <glyph glyph-name="uni01DA" unicode="&#x1da;" horiz-adv-x="592" 
d="M296 788l95 99h70l-122 -143h-86l-122 143h71zM226.5 649.5c9 -9 13.5 -20.167 13.5 -33.5c0 -12.667 -4.5 -23.667 -13.5 -33s-20.167 -14 -33.5 -14s-24.333 4.5 -33 13.5s-13 20.167 -13 33.5s4.33301 24.5 13 33.5s19.667 13.5 33 13.5s24.5 -4.5 33.5 -13.5z
M432.5 649.5c9 -9 13.5 -20.167 13.5 -33.5s-4.5 -24.5 -13.5 -33.5s-20.167 -13.5 -33.5 -13.5c-12.667 0 -23.667 4.66699 -33 14s-14 20.333 -14 33c0 13.333 4.66699 24.5 14 33.5s20.333 13.5 33 13.5c13.333 0 24.5 -4.5 33.5 -13.5zM481.5 84.5
c-19 -31 -44.6689 -54.333 -77.002 -70s-68.166 -23.5 -107.499 -23.5c-40 0 -76.167 7.83301 -108.5 23.5s-58 39 -77 70s-28.5 68.5 -28.5 112.5v276h67v-270c0 -47.333 13.333 -83.833 40 -109.5s62.334 -38.5 107.001 -38.5c44 0 79.333 12.833 106 38.5
s40 62.167 40 109.5v270h67v-276c0 -44 -9.5 -81.5 -28.5 -112.5z" />
    <glyph glyph-name="uni01DB" unicode="&#x1db;" horiz-adv-x="754" 
d="M333 1104l109 -151h-67l-126 151h84zM307 857c9.33301 -9.33301 14 -20.666 14 -33.999s-4.5 -24.333 -13.5 -33s-20.167 -13 -33.5 -13s-24.5 4.33301 -33.5 13s-13.5 19.667 -13.5 33s4.5 24.666 13.5 33.999s20.167 14 33.5 14c12.667 0 23.667 -4.66699 33 -14z
M513 857c9.33301 -9.33301 14 -20.666 14 -33.999s-4.66699 -24.333 -14 -33s-20.666 -13 -33.999 -13s-24.333 4.33301 -33 13s-13 19.667 -13 33s4.5 24.666 13.5 33.999s19.833 14 32.5 14c13.333 0 24.666 -4.66699 33.999 -14zM625.5 119
c-25 -42.667 -59.166 -74.667 -102.499 -96s-92.333 -32 -147 -32s-103.5 10.667 -146.5 32s-76.833 53.333 -101.5 96s-37 94.334 -37 155.001v426h72v-422c0 -71.333 19.667 -125.333 59 -162s90.666 -55 153.999 -55c64.667 0 116.5 18.333 155.5 55
s58.5 90.667 58.5 162v422h73v-426c0 -60.667 -12.5 -112.334 -37.5 -155.001z" />
    <glyph glyph-name="uni01DC" unicode="&#x1dc;" horiz-adv-x="592" 
d="M252 894l109 -151h-66l-127 151h84zM226.5 649.5c9 -9 13.5 -20.167 13.5 -33.5c0 -12.667 -4.5 -23.667 -13.5 -33s-20.167 -14 -33.5 -14s-24.333 4.5 -33 13.5s-13 20.167 -13 33.5s4.33301 24.5 13 33.5s19.667 13.5 33 13.5s24.5 -4.5 33.5 -13.5zM432.5 649.5
c9 -9 13.5 -20.167 13.5 -33.5s-4.5 -24.5 -13.5 -33.5s-20.167 -13.5 -33.5 -13.5c-12.667 0 -23.667 4.66699 -33 14s-14 20.333 -14 33c0 13.333 4.66699 24.5 14 33.5s20.333 13.5 33 13.5c13.333 0 24.5 -4.5 33.5 -13.5zM481.5 84.5
c-19 -31 -44.6689 -54.333 -77.002 -70s-68.166 -23.5 -107.499 -23.5c-40 0 -76.167 7.83301 -108.5 23.5s-58 39 -77 70s-28.5 68.5 -28.5 112.5v276h67v-270c0 -47.333 13.333 -83.833 40 -109.5s62.334 -38.5 107.001 -38.5c44 0 79.333 12.833 106 38.5
s40 62.167 40 109.5v270h67v-276c0 -44 -9.5 -81.5 -28.5 -112.5z" />
    <glyph glyph-name="uni01E2" unicode="&#x1e2;" horiz-adv-x="1136" 
d="M908 850v-54h-297v54h297zM567 0v188h-323l-142 -188h-87l530 700h506v-67h-412v-247h399v-67h-399v-251h416v-68h-488zM567 616l-272 -360h272v360z" />
    <glyph glyph-name="uni01E3" unicode="&#x1e3;" horiz-adv-x="905" 
d="M598 643v-55h-298v55h298zM744.5 450c33.667 -20.667 60.1631 -49.3311 79.4961 -85.998s29 -78.334 29 -125.001c0 -12.667 -0.333008 -21.334 -1 -26.001h-387c4.66699 -51.333 23.167 -91.333 55.5 -120s71.833 -43 118.5 -43c58 0 109.333 21.333 154 64l36 -45
c-51.333 -52 -116 -78 -194 -78c-42 0 -79.833 8.66699 -113.5 26s-61.167 41.333 -82.5 72c-23.333 -29.333 -52.333 -53 -87 -71s-74 -27 -118 -27c-56 0 -100.333 12.833 -133 38.5s-49 59.5 -49 101.5s16.833 75.333 50.5 100s82.167 37 145.5 37h148
c0 52 -11.667 90.5 -35 115.5s-59.666 37.5 -108.999 37.5c-51.333 0 -98.666 -16.667 -141.999 -50l-30 51c50.667 39.333 111 59 181 59c95.333 0 155.333 -36.333 180 -109c18.667 34 44.834 60.667 78.501 80s70.834 29 111.501 29c42 0 79.833 -10.333 113.5 -31z
M518.996 378.503c-29.333 -28.333 -46.999 -65.5 -52.999 -111.5h319c-4.66699 46 -21.334 83.167 -50.001 111.5s-63.667 42.5 -105 42.5c-44.667 0 -81.667 -14.167 -111 -42.5zM338.997 73.5029c30.667 15.667 55.667 36.833 75 63.5c-9.33301 21.333 -15 47 -17 77h-141
c-46 0 -79.667 -7.33301 -101 -22s-32 -34.667 -32 -60c0 -24 10.833 -43.667 32.5 -59s51.5 -23 89.5 -23c32 0 63.333 7.83301 94 23.5z" />
    <glyph glyph-name="Gcaron" unicode="&#x1e6;" horiz-adv-x="816" 
d="M411 796l94 98h70l-121 -143h-87l-122 143h71zM572.5 678c47 -20.667 86.5 -49.6602 118.5 -86.9932l-53 -51c-26.667 31.333 -58.5 55.666 -95.5 72.999s-77.5 26 -121.5 26c-53.333 0 -101.666 -12.167 -144.999 -36.5s-77.5 -58.333 -102.5 -102
s-37.5 -93.834 -37.5 -150.501s12.5 -106.834 37.5 -150.501s59 -77.667 102 -102s90.5 -36.5 142.5 -36.5c76 0 136.833 21.833 182.5 65.5s71.167 103.5 76.5 179.5h-228v66h306c0.666992 -4.66699 1 -11.334 1 -20.001c0 -68.667 -14 -130.334 -42 -185.001
s-67.5 -97.667 -118.5 -129s-110.167 -47 -177.5 -47c-63.333 0 -122.333 14.667 -177 44s-98.334 71.166 -131.001 125.499s-49 117.5 -49 189.5c0 69.333 15.667 131.166 47 185.499s74.333 96.833 129 127.5s116 46 184 46c54 0 104.5 -10.333 151.5 -31z" />
    <glyph glyph-name="gcaron" unicode="&#x1e7;" horiz-adv-x="617" 
d="M299 589l95 98h71l-122 -143h-86l-122 143h70zM388.5 456c30.333 -16.667 55.165 -40.0039 74.498 -70.0039v87h67v-440c0 -50.667 -10.833 -94.167 -32.5 -130.5s-51.167 -63.666 -88.5 -81.999s-80 -27.5 -128 -27.5c-39.333 0 -76.666 6 -111.999 18
s-64.666 28.333 -87.999 49l31 50c48.667 -36.667 104.667 -55 168 -55c53.333 0 97 15 131 45s51 73.667 51 131v62c-18.667 -30 -43.167 -53.333 -73.5 -70s-65.5 -25 -105.5 -25c-43.333 0 -82.5 10.333 -117.5 31s-62.667 49.334 -83 86.001s-30.5 78.334 -30.5 125.001
s10.167 88.334 30.5 125.001s48 65.167 83 85.5s74.167 30.5 117.5 30.5c40 0 75.167 -8.33301 105.5 -25zM203.999 394.496c-26 -15.667 -46.333 -37.167 -61 -64.5s-22 -57.333 -22 -90c0 -33.333 7.33301 -63.666 22 -90.999s35 -48.833 61 -64.5s55.667 -23.5 89 -23.5
s63.166 7.83301 89.499 23.5s47 37.167 62 64.5s22.5 57.666 22.5 90.999s-7.5 63.5 -22.5 90.5s-35.667 48.333 -62 64s-56.166 23.5 -89.499 23.5s-63 -7.83301 -89 -23.5z" />
    <glyph glyph-name="Aringacute" unicode="&#x1fa;" horiz-adv-x="708" 
d="M392 1062h84l-126 -151h-66zM300 677c-18 9.33301 -32.1699 22.5 -42.5029 39.5s-15.5 35.833 -15.5 56.5c0 29.333 10.833 54.833 32.5 76.5s47.834 32.5 78.501 32.5s56.834 -10.833 78.501 -32.5s32.5 -47.167 32.5 -76.5c0 -20 -5.16699 -38.333 -15.5 -55
s-24.166 -30 -41.499 -40l282 -678h-77l-81 199h-355l-82 -199h-75zM400.497 725c13 13.333 19.5 29.333 19.5 48s-6.5 34.5 -19.5 47.5s-28.833 19.5 -47.5 19.5c-18 0 -33.667 -6.5 -47 -19.5s-20 -28.833 -20 -47.5s6.66699 -34.667 20 -48s29 -20 47 -20
c18.667 0 34.5 6.66699 47.5 20zM501.997 267l-149 363l-150 -363h299z" />
    <glyph glyph-name="aringacute" unicode="&#x1fb;" horiz-adv-x="621" 
d="M334 918h84l-127 -151h-66zM216 551c-21.333 21.333 -32 47.333 -32 78c0 30 10.833 55.667 32.5 77s47.5 32 77.5 32c30.667 0 56.834 -10.833 78.501 -32.5s32.5 -47.167 32.5 -76.5c0 -30.667 -10.833 -56.667 -32.5 -78s-47.834 -32 -78.501 -32
s-56.667 10.667 -78 32zM341.5 581c13 13.333 19.5 29.333 19.5 48s-6.5 34.5 -19.5 47.5s-28.833 19.5 -47.5 19.5s-34.5 -6.5 -47.5 -19.5s-19.5 -28.833 -19.5 -47.5s6.5 -34.667 19.5 -48s28.833 -20 47.5 -20s34.5 6.66699 47.5 20zM467 0l0.000976562 86.002
c-19.333 -29.333 -44.333 -52.5 -75 -69.5s-65.667 -25.5 -105 -25.5c-43.333 0 -83 10.667 -119 32s-64.333 50.666 -85 87.999s-31 79 -31 125s10.333 87.667 31 125s49 66.666 85 87.999s75.667 32 119 32c40 0 75.167 -8.33301 105.5 -25s55.166 -39.667 74.499 -69v86
h67v-473h-67zM205.001 394.002c-26.667 -16 -47.332 -37.8359 -61.999 -65.5029s-22 -58.5 -22 -92.5c0 -33.333 7.5 -63.833 22.5 -91.5s35.667 -49.5 62 -65.5s56.166 -24 89.499 -24c34 0 64.167 7.83301 90.5 23.5s47 37.334 62 65.001s22.5 58.5 22.5 92.5
c0 34.667 -7.5 65.834 -22.5 93.501s-35.667 49.334 -62 65.001s-56.5 23.5 -90.5 23.5c-33.333 0 -63.333 -8 -90 -24z" />
    <glyph glyph-name="AEacute" unicode="&#x1fc;" horiz-adv-x="1136" 
d="M799 902h84l-126 -152h-67zM567 0v188h-323l-142 -188h-87l530 700h506v-67h-412v-247h399v-67h-399v-251h416v-68h-488zM567 616l-272 -360h272v360z" />
    <glyph glyph-name="aeacute" unicode="&#x1fd;" horiz-adv-x="905" 
d="M494 694h84l-126 -151h-67zM744.5 450c33.667 -20.667 60.1631 -49.3311 79.4961 -85.998s29 -78.334 29 -125.001c0 -12.667 -0.333008 -21.334 -1 -26.001h-387c4.66699 -51.333 23.167 -91.333 55.5 -120s71.833 -43 118.5 -43c58 0 109.333 21.333 154 64l36 -45
c-51.333 -52 -116 -78 -194 -78c-42 0 -79.833 8.66699 -113.5 26s-61.167 41.333 -82.5 72c-23.333 -29.333 -52.333 -53 -87 -71s-74 -27 -118 -27c-56 0 -100.333 12.833 -133 38.5s-49 59.5 -49 101.5s16.833 75.333 50.5 100s82.167 37 145.5 37h148
c0 52 -11.667 90.5 -35 115.5s-59.666 37.5 -108.999 37.5c-51.333 0 -98.666 -16.667 -141.999 -50l-30 51c50.667 39.333 111 59 181 59c95.333 0 155.333 -36.333 180 -109c18.667 34 44.834 60.667 78.501 80s70.834 29 111.501 29c42 0 79.833 -10.333 113.5 -31z
M518.996 378.503c-29.333 -28.333 -46.999 -65.5 -52.999 -111.5h319c-4.66699 46 -21.334 83.167 -50.001 111.5s-63.667 42.5 -105 42.5c-44.667 0 -81.667 -14.167 -111 -42.5zM338.997 73.5029c30.667 15.667 55.667 36.833 75 63.5c-9.33301 21.333 -15 47 -17 77h-141
c-46 0 -79.667 -7.33301 -101 -22s-32 -34.667 -32 -60c0 -24 10.833 -43.667 32.5 -59s51.5 -23 89.5 -23c32 0 63.333 7.83301 94 23.5z" />
    <glyph glyph-name="Oslashacute" unicode="&#x1fe;" horiz-adv-x="841" 
d="M460 902h84l-126 -152h-67zM547.5 688.5c39.667 -13.667 74.832 -33.5 105.499 -59.5l80 80l46 -47l-78 -79c25.333 -30.667 44.833 -65.834 58.5 -105.501s20.5 -82.167 20.5 -127.5c0 -68.667 -15.667 -130.334 -47 -185.001s-74.166 -97.334 -128.499 -128.001
s-115.5 -46 -183.5 -46c-45.333 0 -87.833 6.83301 -127.5 20.5s-74.834 33.5 -105.501 59.5l-78 -79l-48 46l78 79c-25.333 31.333 -44.833 66.833 -58.5 106.5s-20.5 81.834 -20.5 126.501c0 68.667 15.5 130.334 46.5 185.001s74 97.334 129 128.001s116.5 46 184.5 46
c44.667 0 86.834 -6.83301 126.501 -20.5zM275.998 602.5c-43.333 -24.333 -77.5 -58.332 -102.5 -101.999s-37.5 -93.834 -37.5 -150.501c0 -70 19.333 -130 58 -180l407 407c-24 20 -51.333 35.333 -82 46s-63.334 16 -98.001 16
c-53.333 0 -101.666 -12.167 -144.999 -36.5zM646.998 530.001l-408.001 -407c50.667 -41.333 111.334 -62 182.001 -62c53.333 0 101.5 12.167 144.5 36.5s77 58.5 102 102.5s37.5 94 37.5 150c0 70 -19.333 130 -58 180z" />
    <glyph glyph-name="oslashacute" unicode="&#x1ff;" horiz-adv-x="597" 
d="M344 694h84l-127 -151h-66zM381.5 467.5c26.333 -9 49.834 -21.5 70.501 -37.5l57 57l41 -40l-57 -57c16.667 -20.667 29.667 -44.167 39 -70.5s14 -54.166 14 -83.499c0 -46 -10.833 -87.667 -32.5 -125s-51.5 -66.666 -89.5 -87.999s-80 -32 -126 -32
c-58 0 -109.333 17 -154 51l-56 -57l-40 40l56 57c-16.667 20.667 -29.5 44.167 -38.5 70.5s-13.5 54.166 -13.5 83.499c0 46 10.667 87.667 32 125s50.833 66.666 88.5 87.999s79.5 32 125.5 32c29.333 0 57.166 -4.5 83.499 -13.5zM207.501 394.5
c-27 -15.667 -48.333 -37.332 -64 -64.999s-23.5 -58.834 -23.5 -93.501c0 -40 10.667 -75.333 32 -106l254 253c-30.667 23.333 -66.667 35 -108 35c-33.333 0 -63.5 -7.83301 -90.5 -23.5zM444.001 343.002l-253 -253c30.667 -23.333 66.334 -35 107.001 -35
c33.333 0 63.666 7.83301 90.999 23.5s48.833 37.167 64.5 64.5s23.5 58.333 23.5 93c0 40 -11 75.667 -33 107z" />
    <glyph glyph-name="Scommaaccent" unicode="&#x218;" horiz-adv-x="673" 
d="M343 640c-54.667 0 -99.333 -11.834 -134 -35.501s-52 -55.834 -52 -96.501c0 -33.333 13.667 -59.666 41 -78.999s69.333 -32.333 126 -39l72 -9c144 -17.333 216 -77.666 216 -180.999c0 -44.667 -12.333 -82.667 -37 -114s-58 -55 -100 -71s-88.667 -24 -140 -24
s-101.5 8.33301 -150.5 25s-90.167 38 -123.5 64l38 58c28 -21.333 63 -39.666 105 -54.999s85.333 -23 130 -23c59.333 0 107.833 11.5 145.5 34.5s56.5 55.833 56.5 98.5c0 35.333 -14.333 62.5 -43 81.5s-72 31.833 -130 38.5l-75 9
c-65.333 7.33301 -116 26.166 -152 56.499s-54 72.166 -54 125.499c0 42.667 11.5 79.334 34.5 110.001s54.5 54.167 94.5 70.5s84.333 24.5 133 24.5c92 0 176 -25.667 252 -77l-37 -59c-63.333 44.667 -135.333 67 -216 67zM361.001 -218.001h-58l22 174h72z" />
    <glyph glyph-name="scommaaccent" unicode="&#x219;" horiz-adv-x="490" 
d="M335.5 408.5c-29 9 -58.5029 13.501 -88.5029 13.501c-35.333 0 -63.666 -7 -84.999 -21s-32 -33.333 -32 -58c0 -20 8.5 -35.667 25.5 -47s42.833 -19.333 77.5 -24l57 -7c50.667 -5.33301 89.334 -18.833 116.001 -40.5s40 -50.834 40 -87.501
c0 -45.333 -18.667 -81 -56 -107s-87 -39 -149 -39c-36 0 -71.167 5 -105.5 15s-64.833 25.333 -91.5 46l30 50c22 -16 46.333 -28.667 73 -38s58.334 -14 95.001 -14c42 0 75 7 99 21s36 34.333 36 61c0 40.667 -34.667 65 -104 73l-58 7c-52 6 -90.667 20 -116 42
s-38 50.667 -38 86c0 44 16.833 78.5 50.5 103.5s78.834 37.5 135.501 37.5c36 0 70.167 -4.66699 102.5 -14s60.166 -22 83.499 -38l-26 -52c-18.667 12 -42.5 22.5 -71.5 31.5zM257.997 -217.999h-59l22 174h73z" />
    <glyph glyph-name="uni021A" unicode="&#x21a;" horiz-adv-x="608" 
d="M340 632v-632h-2l-51 -162h-72l54 162h-2v632h-247v68h567v-68h-247z" />
    <glyph glyph-name="uni0232" unicode="&#x232;" horiz-adv-x="639" 
d="M469 850v-54h-297v54h297zM356 0h-72v298l-278 402h86l229 -336l228 336h84l-277 -403v-297z" />
    <glyph glyph-name="uni0233" unicode="&#x233;" horiz-adv-x="521" 
d="M412 643v-55h-297v55h297zM52 -202l179 307l-220 368h76l182 -301l170 301h75l-388 -675h-74z" />
    <glyph glyph-name="uni0237" unicode="&#x237;" horiz-adv-x="244" 
d="M127.5 -174.5c-19.667 -21.667 -46.833 -32.5 -81.5 -32.5c-12 0 -24.167 1.5 -36.5 4.5s-22.5 6.83301 -30.5 11.5l14 58c16 -7.33301 31.333 -11 46 -11c34 0 51 21.333 51 64v553h67v-556c0 -39.333 -9.83301 -69.833 -29.5 -91.5z" />
    <glyph glyph-name="uni0259" unicode="&#x259;" horiz-adv-x="560" 
d="M160.5 22c-33.667 20.667 -60.166 49.5 -79.499 86.5s-29 78.833 -29 125.5c0 12.667 0.333008 21.334 1 26.001h387c-4.66699 51.333 -23 91.333 -55 120s-71.667 43 -119 43c-58.667 0 -110.667 -22 -156 -66l-34 47c50.667 51.333 115.334 77 194.001 77
c46 0 87.167 -10.333 123.5 -31s64.666 -49.5 84.999 -86.5s30.5 -79.167 30.5 -126.5c0 -46.667 -10.167 -88.834 -30.5 -126.501s-48.333 -67 -84 -88s-75.834 -31.5 -120.501 -31.5c-42 0 -79.833 10.333 -113.5 31zM386.501 94c29.667 28.667 47.165 66 52.498 112h-319
c4.66699 -46 21.334 -83.333 50.001 -112s63.667 -43 105 -43c44.667 0 81.834 14.333 111.501 43z" />
    <glyph glyph-name="uni02BB" unicode="&#x2bb;" horiz-adv-x="247" 
d="M122 720h58l-31 -249h-78z" />
    <glyph glyph-name="uni02BC" unicode="&#x2bc;" horiz-adv-x="247" 
d="M125 471h-57l31 249h78z" />
    <glyph glyph-name="uni02BE" unicode="&#x2be;" horiz-adv-x="268" 
d="M147.5 474.5c21 21.667 31.5 47.8301 31.5 78.4971c0 31.333 -10.5 57.833 -31.5 79.5s-46.5 32.5 -76.5 32.5v60c31.333 0 60.166 -7.66699 86.499 -23s47.333 -36.166 63 -62.499s23.5 -55.166 23.5 -86.499s-7.83301 -60.166 -23.5 -86.499s-36.667 -47.333 -63 -63
s-55.166 -23.5 -86.499 -23.5v62c30 0 55.5 10.833 76.5 32.5z" />
    <glyph glyph-name="uni02BF" unicode="&#x2bf;" horiz-adv-x="268" 
d="M120.5 632c-21 -22 -31.5 -48.3301 -31.5 -78.9971s10.5 -57 31.5 -79s46.167 -33 75.5 -33v-60c-30.667 0 -59.167 7.66699 -85.5 23s-47.333 36.166 -63 62.499s-23.5 55.166 -23.5 86.499s7.83301 60.166 23.5 86.499s36.667 47.333 63 63s54.833 23.5 85.5 23.5v-61
c-29.333 0 -54.5 -11 -75.5 -33z" />
    <glyph glyph-name="circumflex" unicode="&#x2c6;" horiz-adv-x="464" 
d="M232 644l-94 -98h-71l122 142h87l122 -142h-71z" />
    <glyph glyph-name="caron" unicode="&#x2c7;" horiz-adv-x="464" 
d="M232 589l94 98h72l-122 -143h-87l-122 143h71z" />
    <glyph glyph-name="breve" unicode="&#x2d8;" horiz-adv-x="464" 
d="M161 624.5c19.333 -16.333 43 -24.5 71 -24.5s51.667 8.16699 71 24.5s33.333 40.5 42 72.5l54 -16c-12 -44.667 -32.5 -78.834 -61.5 -102.501s-64.167 -35.5 -105.5 -35.5s-76.5 11.833 -105.5 35.5s-49.167 57.834 -60.5 102.501l53 16
c8.66699 -32 22.667 -56.167 42 -72.5z" />
    <glyph glyph-name="dotaccent" unicode="&#x2d9;" horiz-adv-x="269" 
d="M168.5 674c9 -9.33301 13.5 -20.666 13.5 -33.999c0 -12.667 -4.5 -23.667 -13.5 -33s-20.167 -14 -33.5 -14s-24.5 4.5 -33.5 13.5s-13.5 20.167 -13.5 33.5s4.5 24.666 13.5 33.999s20.167 14 33.5 14s24.5 -4.66699 33.5 -14z" />
    <glyph glyph-name="ring" unicode="&#x2da;" horiz-adv-x="459" 
d="M151.5 566c-21.667 21.333 -32.5 47.333 -32.5 78c0 30 10.833 55.667 32.5 77s47.5 32 77.5 32c30.667 0 57 -10.667 79 -32s33 -47 33 -77c0 -30.667 -11 -56.667 -33 -78s-48.333 -32 -79 -32c-30 0 -55.833 10.667 -77.5 32zM276.5 596
c13 13.333 19.5 29.333 19.5 48s-6.5 34.5 -19.5 47.5s-28.833 19.5 -47.5 19.5c-18 0 -33.5 -6.5 -46.5 -19.5s-19.5 -28.833 -19.5 -47.5s6.5 -34.667 19.5 -48s28.5 -20 46.5 -20c18.667 0 34.5 6.66699 47.5 20z" />
    <glyph glyph-name="ogonek" unicode="&#x2db;" horiz-adv-x="540" 
d="M398 -195c-20 -8 -40.999 -11.998 -62.999 -11.998c-36.667 0 -66.334 9.66699 -89.001 29s-34 45 -34 77s12.333 59.167 37 81.5s60.667 44.166 108 65.499l33 -35c-40 -18 -69.167 -34.833 -87.5 -50.5s-27.5 -33.834 -27.5 -54.501c0 -16.667 6 -30.167 18 -40.5
s27.667 -15.5 47 -15.5c27.333 0 52 10 74 30l36 -41c-14.667 -14.667 -32 -26 -52 -34z" />
    <glyph glyph-name="tilde" unicode="&#x2dc;" horiz-adv-x="464" 
d="M106.5 655c17 9.33301 36.834 13.999 59.501 13.999c16 0 29.667 -2 41 -6s24.666 -10 39.999 -18c10 -6 18.833 -10.5 26.5 -13.5s16.167 -4.5 25.5 -4.5c12.667 0 24.334 3 35.001 9s21.667 15.667 33 29l40 -38c-15.333 -20 -31.5 -34.667 -48.5 -44
s-36.833 -14 -59.5 -14c-16.667 0 -30.5 2.16699 -41.5 6.5s-23.833 10.5 -38.5 18.5c-12 6.66699 -21.5 11.334 -28.5 14.001s-15.167 4 -24.5 4c-13.333 0 -25.333 -3.16699 -36 -9.5s-21.334 -15.833 -32.001 -28.5l-39 39c14.667 18.667 30.5 32.667 47.5 42z" />
    <glyph glyph-name="hungarumlaut" unicode="&#x2dd;" horiz-adv-x="464" 
d="M149 694h84l-126 -151h-66zM339 694h84l-126 -151h-67z" />
    <glyph glyph-name="gravecomb" unicode="&#x300;" horiz-adv-x="0" 
d="M-350 694l108 -151h-66l-126 151h84z" />
    <glyph glyph-name="acutecomb" unicode="&#x301;" horiz-adv-x="0" 
d="M-254 694h84l-127 -151h-65z" />
    <glyph glyph-name="uni0302" unicode="&#x302;" horiz-adv-x="0" 
d="M-299 644l-95 -99h-71l122 143h87l121 -143h-70z" />
    <glyph glyph-name="tildecomb" unicode="&#x303;" horiz-adv-x="0" 
d="M-421.5 655.5c17 9 36.834 13.5 59.501 13.5c16 0 29.667 -2 41 -6s24.666 -10 39.999 -18c10 -6 18.833 -10.5 26.5 -13.5s16.167 -4.5 25.5 -4.5c13.333 0 25.333 3.16699 36 9.5s21.334 15.833 32.001 28.5l40 -38c-15.333 -20 -31.5 -34.667 -48.5 -44
s-36.833 -14 -59.5 -14c-16 0 -29.667 2 -41 6s-24 10 -38 18c-10.667 6.66699 -20 11.5 -28 14.5s-16.667 4.5 -26 4.5c-12.667 0 -24.334 -3 -35.001 -9s-21.667 -15.667 -33 -29l-39 39c14.667 19.333 30.5 33.5 47.5 42.5z" />
    <glyph glyph-name="uni0304" unicode="&#x304;" horiz-adv-x="0" 
d="M-151 643v-55h-297v55h297z" />
    <glyph glyph-name="uni0306" unicode="&#x306;" horiz-adv-x="0" 
d="M-299 600c56.667 0 94.001 32.333 112.001 97l55 -16c-12.667 -44.667 -33.334 -78.834 -62.001 -102.501s-63.667 -35.5 -105 -35.5c-42 0 -77.333 11.833 -106 35.5s-49 57.834 -61 102.501l53 16c18.667 -64.667 56.667 -97 114 -97z" />
    <glyph glyph-name="uni0307" unicode="&#x307;" horiz-adv-x="0" 
d="M-265.5 674c9 -9.33301 13.5 -20.666 13.5 -33.999c0 -12.667 -4.66699 -23.667 -14 -33s-20.333 -14 -33 -14c-13.333 0 -24.5 4.5 -33.5 13.5s-13.5 20.167 -13.5 33.5s4.5 24.666 13.5 33.999s20.167 14 33.5 14s24.5 -4.66699 33.5 -14z" />
    <glyph glyph-name="uni0308" unicode="&#x308;" horiz-adv-x="0" 
d="M-370 649.5c9.33301 -9 14 -20.167 14 -33.5c0 -12.667 -4.66699 -23.667 -14 -33s-20.333 -14 -33 -14c-13.333 0 -24.333 4.5 -33 13.5s-13 20.167 -13 33.5s4.33301 24.5 13 33.5s19.667 13.5 33 13.5c12.667 0 23.667 -4.5 33 -13.5zM-163.5 649.5
c9 -9 13.5 -20.167 13.5 -33.5s-4.5 -24.5 -13.5 -33.5s-20.167 -13.5 -33.5 -13.5s-24.5 4.66699 -33.5 14s-13.5 20.333 -13.5 33c0 13.333 4.5 24.5 13.5 33.5s20.167 13.5 33.5 13.5s24.5 -4.5 33.5 -13.5z" />
    <glyph glyph-name="uni030A" unicode="&#x30a;" horiz-adv-x="0" 
d="M-378 566c-22 21.333 -33 47.333 -33 78c0 30 11 55.667 33 77s48.333 32 79 32c30 0 55.833 -10.667 77.5 -32s32.5 -47 32.5 -77c0 -30.667 -10.833 -56.667 -32.5 -78s-47.5 -32 -77.5 -32c-30.667 0 -57 10.667 -79 32zM-252.5 596c13 13.333 19.5 29.333 19.5 48
s-6.5 34.5 -19.5 47.5s-28.5 19.5 -46.5 19.5c-18.667 0 -34.5 -6.5 -47.5 -19.5s-19.5 -28.833 -19.5 -47.5s6.5 -34.667 19.5 -48s28.833 -20 47.5 -20c18 0 33.5 6.66699 46.5 20z" />
    <glyph glyph-name="uni030B" unicode="&#x30b;" horiz-adv-x="0" 
d="M-323 694h75l-112 -151h-68zM-143 694h78l-122 -151h-67z" />
    <glyph glyph-name="uni030C" unicode="&#x30c;" horiz-adv-x="0" 
d="M-299 589l94 98h70l-121 -143h-87l-122 143h71z" />
    <glyph glyph-name="uni0312" unicode="&#x312;" horiz-adv-x="0" 
d="M-304 716h58l-22 -173h-72z" />
    <glyph glyph-name="dotbelowcomb" unicode="&#x323;" horiz-adv-x="0" 
d="M-265.5 -98.5c9 -9 13.5 -20.167 13.5 -33.5s-4.66699 -24.5 -14 -33.5s-20.333 -13.5 -33 -13.5c-13.333 0 -24.333 4.5 -33 13.5s-13 20.167 -13 33.5s4.33301 24.5 13 33.5s19.667 13.5 33 13.5s24.5 -4.5 33.5 -13.5z" />
    <glyph glyph-name="uni0326" unicode="&#x326;" horiz-adv-x="0" 
d="M-291 -218h-58l21 174h73z" />
    <glyph glyph-name="uni0327" unicode="&#x327;" horiz-adv-x="0" 
d="M-359 -162l54 165h66l-52 -165h-68z" />
    <glyph glyph-name="uni0328" unicode="&#x328;" horiz-adv-x="0" 
d="M-293 -207c-37.333 0 -67.667 9.33398 -91 28.001s-35 42.667 -35 72c0 34 13.5 62.333 40.5 85s67.5 44.334 121.5 65.001l10 -19c-37.333 -20.667 -64.5 -39.834 -81.5 -57.501s-25.5 -37.834 -25.5 -60.501c0 -16.667 5.83301 -30.167 17.5 -40.5
s27.5 -15.5 47.5 -15.5c28 0 52.667 10 74 30l36 -41c-32 -30.667 -70 -46 -114 -46z" />
    <glyph glyph-name="uni032E" unicode="&#x32e;" horiz-adv-x="0" 
d="M-299 -151c56.667 0 94.334 32.667 113.001 98l54 -16c-12.667 -45.333 -33.334 -79.666 -62.001 -102.999s-63.667 -35 -105 -35c-42 0 -77.333 11.667 -106 35s-49 57.666 -61 102.999l54 16c18 -65.333 55.667 -98 113 -98z" />
    <glyph glyph-name="uni0331" unicode="&#x331;" horiz-adv-x="0" 
d="M-150 -104v-54h-298v54h298z" />
    <glyph glyph-name="uni0335" unicode="&#x335;" horiz-adv-x="0" 
d="M-478 234v59h357v-59h-357z" />
    <glyph glyph-name="uni0336" unicode="&#x336;" horiz-adv-x="0" 
d="M-674 234v59h750v-59h-750z" />
    <glyph glyph-name="uni0394" unicode="&#x394;" horiz-adv-x="708" 
d="M667 0h-626v57l269 644h88l269 -644v-57zM586 68l-232 560l-232 -560h464z" />
    <glyph glyph-name="uni03A9" unicode="&#x3a9;" horiz-adv-x="858" 
d="M110.5 184c-27.667 48.667 -41.501 103.668 -41.501 165.001c0 69.333 15.667 131.333 47 186s74.333 97.334 129 128.001s116 46 184 46s129.333 -15.333 184 -46s97.667 -73.334 129 -128.001s47 -116.667 47 -186c0 -61.333 -13.667 -116.333 -41 -165
s-65 -87.334 -113 -116.001h182v-68h-298v59c58.667 18 105.667 52.5 141 103.5s53 111.5 53 181.5c0 58 -12.333 109.333 -37 154s-58.667 79.334 -102 104.001s-91.666 37 -144.999 37s-101.5 -12.333 -144.5 -37s-77 -59.334 -102 -104.001s-37.5 -96 -37.5 -154
c0 -70 17.833 -130.333 53.5 -181s82.5 -85.334 140.5 -104.001v-59h-298v68h183c-48 28.667 -85.833 67.334 -113.5 116.001z" />
    <glyph glyph-name="uni03BC" unicode="&#x3bc;" horiz-adv-x="598" 
d="M83 473h66.999v-270c0 -46 12.667 -82 38 -108s60.333 -39 105 -39c42.667 0 78.334 13.833 107.001 41.5s43 63.5 43 107.5v268h67v-473h-66v79c-18 -29.333 -41.5 -51.333 -70.5 -66s-60.167 -22 -93.5 -22c-54 0 -97.667 16 -131 48v-239h-66v673z" />
    <glyph glyph-name="pi" unicode="&#x3c0;" horiz-adv-x="598" 
d="M449 0v412h-294v-412h-67v473h428v-473h-67z" />
    <glyph glyph-name="uni10D0" unicode="&#x10d0;" horiz-adv-x="539" 
d="M158 14.5c-33.333 15.667 -60.168 38.6641 -80.501 68.9971s-30.5 66.5 -30.5 108.5c0 24 4.33301 46.667 13 68l62 -13c-6 -18.667 -9 -36.667 -9 -54c0 -45.333 14.833 -80 44.5 -104s66.167 -36 109.5 -36c44.667 0 81.334 12 110.001 36s43 58.333 43 103
c0 31.333 -7.83301 56.5 -23.5 75.5s-38.834 39.833 -69.501 62.5c-20.667 15.333 -37.167 28.833 -49.5 40.5s-22.833 26 -31.5 43s-13 36.833 -13 59.5h68c0 -19.333 5.83301 -35.666 17.5 -48.999s30.5 -30 56.5 -50c24 -18 43.5 -34.167 58.5 -48.5
s27.833 -32.666 38.5 -54.999s16 -48.833 16 -79.5c0 -39.333 -10 -74.166 -30 -104.499s-46.833 -53.833 -80.5 -70.5s-70.5 -25 -110.5 -25c-39.333 0 -75.666 7.83301 -108.999 23.5z" />
    <glyph glyph-name="uni10D1" unicode="&#x10d1;" horiz-adv-x="597" 
d="M172.5 23c-37.667 21.333 -67.167 50.667 -88.5 88s-32 79 -32 125c0 44 9.66699 83.833 29 119.5s46 64.5 80 86.5s72.667 34.667 116 38v59c0 20 -3.5 35.5 -10.5 46.5s-17.5 22.833 -31.5 35.5c-16 14 -28 27.667 -36 41s-12 32.666 -12 57.999h69
c0 -15.333 3 -27.333 9 -36s15.667 -18.667 29 -30c17.333 -15.333 30.333 -30.5 39 -45.5s13 -36.833 13 -65.5v-67c38.667 -6.66699 73.167 -21.167 103.5 -43.5s54 -50.5 71 -84.5s25.5 -71.333 25.5 -112c0 -46 -10.833 -87.667 -32.5 -125s-51.5 -66.666 -89.5 -87.999
s-80 -32 -126 -32s-87.833 10.667 -125.5 32zM389 78.501c27.333 15.667 48.666 37.167 63.999 64.5s23 58.333 23 93s-7.66699 65.834 -23 93.501s-36.666 49.334 -63.999 65.001s-57.666 23.5 -90.999 23.5s-63.5 -7.83301 -90.5 -23.5s-48.167 -37.334 -63.5 -65.001
s-23 -58.834 -23 -93.501s7.66699 -65.667 23 -93s36.5 -48.833 63.5 -64.5s57.167 -23.5 90.5 -23.5s63.666 7.83301 90.999 23.5z" />
    <glyph glyph-name="uni10D2" unicode="&#x10d2;" 
d="M505 157c27.333 -38 41.002 -81.334 41.002 -130.001c0 -44 -10.833 -83.833 -32.5 -119.5s-51.5 -63.667 -89.5 -84s-80 -30.5 -126 -30.5s-87.833 10.167 -125.5 30.5s-67.167 48.5 -88.5 84.5s-32 76 -32 120c0 44.667 10.333 84 31 118s49.167 60.833 85.5 80.5
s77.166 31.167 122.499 34.5c46 2.66699 78.167 10.667 96.5 24s27.5 32.333 27.5 57c0 22.667 -10.333 41.667 -31 57s-48.667 23 -84 23c-36 0 -64.833 -9.33301 -86.5 -28s-32.5 -42.667 -32.5 -72h-67c0 31.333 8 59 24 83s38.167 42.667 66.5 56s60.166 20 95.499 20
s66.833 -6.16699 94.5 -18.5s49.167 -29 64.5 -50s23 -43.833 23 -68.5c0 -27.333 -7.66699 -50.166 -23 -68.499s-37 -31.5 -65 -39.5c46.667 -14.667 83.667 -41 111 -79zM389.002 -121.001c27.333 14.667 48.666 35 63.999 61s23 55.333 23 88s-7.66699 62.167 -23 88.5
s-36.666 46.833 -63.999 61.5s-57.666 22 -90.999 22s-63.5 -7.33301 -90.5 -22s-48.167 -35.167 -63.5 -61.5s-23 -55.833 -23 -88.5s7.66699 -62 23 -88s36.5 -46.333 63.5 -61s57.167 -22 90.5 -22s63.666 7.33301 90.999 22z" />
    <glyph glyph-name="uni10D3" unicode="&#x10d3;" horiz-adv-x="867" 
d="M232.5 -140.5c-65.667 39.667 -112.166 89.9951 -139.499 150.995s-41 125.833 -41 194.5c0 90 18 158.5 54 205.5s84.333 70.5 145 70.5c39.333 0 73.666 -10.167 102.999 -30.5s50.333 -51.166 63 -92.499c13.333 40.667 36.833 71.334 70.5 92.001s72.167 31 115.5 31
c38 0 73.167 -9.66699 105.5 -29s58.333 -46.666 78 -81.999s29.5 -76.666 29.5 -123.999c0 -48 -9.83301 -89.833 -29.5 -125.5s-46.167 -63 -79.5 -82s-69.666 -28.5 -108.999 -28.5s-75.666 9.5 -108.999 28.5s-60 46 -80 81s-30 75.833 -30 122.5v22
c0 50.667 -10.833 89 -32.5 115s-51.834 39 -90.501 39c-90 0 -135 -71 -135 -213c0 -99.333 29.667 -181.166 89 -245.499s155.666 -96.5 288.999 -96.5h178v-63h-185c-107.333 0 -193.833 19.833 -259.5 59.5zM672.501 91.9951c23 13.333 41.333 33.166 55 59.499
s20.5 57.5 20.5 93.5s-6.83301 67.167 -20.5 93.5s-32 46.166 -55 59.499s-47.833 20 -74.5 20s-51.667 -6.66699 -75 -20s-42 -33.166 -56 -59.499s-21 -57.5 -21 -93.5s7 -67.167 21 -93.5s32.667 -46.166 56 -59.499s48.333 -20 75 -20s51.5 6.66699 74.5 20z" />
    <glyph glyph-name="uni10D4" unicode="&#x10d4;" horiz-adv-x="579" 
d="M162.5 -180.5c-35.667 17.667 -63.8311 42.3311 -84.498 73.998s-31 67.834 -31 108.501c0 30.667 5.66699 60 17 88l62 -14c-7.33301 -21.333 -11 -45.333 -11 -72c0 -28 7.16699 -53.167 21.5 -75.5s34.166 -39.833 59.499 -52.5s53.333 -19 84 -19
c46.667 0 84.834 15.5 114.501 46.5s44.5 73.833 44.5 128.5v223c0 50 -14.833 89.667 -44.5 119s-67.5 44 -113.5 44c-42.667 0 -78.834 -11.5 -108.501 -34.5s-44.5 -54.833 -44.5 -95.5c0 -15.333 2.66699 -32.666 8 -51.999l-63 -12c-8 22 -12 43.333 -12 64
c0 38.667 10.167 72.667 30.5 102s47.333 51.833 81 67.5s69.834 23.5 108.501 23.5c41.333 0 79.166 -9 113.499 -27s61.666 -44 81.999 -78s30.5 -74 30.5 -120v-225c0 -49.333 -10.167 -91.833 -30.5 -127.5s-47.666 -63 -81.999 -82s-72.5 -28.5 -114.5 -28.5
c-42.667 0 -81.834 8.83301 -117.501 26.5z" />
    <glyph glyph-name="uni10D5" unicode="&#x10d5;" horiz-adv-x="575" 
d="M159.5 -181.5c-36.333 17 -64.1641 40.502 -83.4971 70.502s-29 63.667 -29 101c0 28 5 54.333 15 79l62 -13c-6.66699 -19.333 -10 -38.333 -10 -57c0 -44 14.833 -78.833 44.5 -104.5s72.167 -38.5 127.5 -38.5c50 0 90.667 12.333 122 37s47 57.334 47 98.001
s-13.5 72.667 -40.5 96s-63.167 35 -108.5 35h-47v63h45c46 0 79.5 8.66699 100.5 26s31.5 43.333 31.5 78c0 39.333 -14.5 70.666 -43.5 93.999s-66.5 35 -112.5 35c-46.667 0 -84 -11.167 -112 -33.5s-42 -51.166 -42 -86.499c0 -15.333 2.33301 -30 7 -44l-64 -11
c-5.33301 19.333 -8 37.333 -8 54c0 33.333 9.5 64.166 28.5 92.499s45.167 50.666 78.5 66.999s70.666 24.5 111.999 24.5c40.667 0 78.167 -7.83301 112.5 -23.5s61.666 -37.834 81.999 -66.501s30.5 -61.667 30.5 -99c0 -32 -9.5 -60.5 -28.5 -85.5
s-46.167 -42.833 -81.5 -53.5c37.333 -8 68.166 -27.5 92.499 -58.5s36.5 -67.167 36.5 -108.5c0 -36 -10.5 -68.667 -31.5 -98s-49.667 -52.5 -86 -69.5s-76.5 -25.5 -120.5 -25.5c-48 0 -90.167 8.5 -126.5 25.5z" />
    <glyph glyph-name="uni10D6" unicode="&#x10d6;" horiz-adv-x="621" 
d="M208 23c-36.667 21.333 -65.332 50.332 -85.999 86.999s-31 77.667 -31 123c0 33.333 6.66699 64.833 20 94.5s32.333 54.167 57 73.5c-44 6.66699 -78.5 24.667 -103.5 54s-37.5 64.333 -37.5 105c0 31.333 7.33301 60 22 86s35.5 46.333 62.5 61s58.167 22 93.5 22
s66.666 -7.33301 93.999 -22s48.5 -34.5 63.5 -59.5s22.5 -52.167 22.5 -81.5c0 -40 -13.333 -73 -40 -99c43.333 -1.33301 82 -12.666 116 -33.999s60.667 -49.5 80 -84.5s29 -73.5 29 -115.5c0 -45.333 -10.5 -86.333 -31.5 -123s-49.667 -65.667 -86 -87
s-76.833 -32 -121.5 -32c-45.333 0 -86.333 10.667 -123 32zM288.002 479.499c20.667 20.333 31 46.833 31 79.5c0 32 -10.333 58.333 -31 79s-48.334 31 -83.001 31c-33.333 0 -60.333 -10.333 -81 -31s-31 -47 -31 -79c0 -31.333 10.333 -57.5 31 -78.5
s47.667 -31.5 81 -31.5c34.667 0 62.334 10.167 83.001 30.5zM418.002 77.999c26 15.333 46.333 36.666 61 63.999s22 57.666 22 90.999c0 34 -7.33301 64.5 -22 91.5s-35 48.167 -61 63.5s-55 23 -87 23c-32.667 0 -62 -7.66699 -88 -23s-46.333 -36.5 -61 -63.5
s-22 -57.5 -22 -91.5c0 -33.333 7.33301 -63.666 22 -90.999s35 -48.666 61 -63.999s55.333 -23 88 -23c32 0 61 7.66699 87 23z" />
    <glyph glyph-name="uni10D7" unicode="&#x10d7;" horiz-adv-x="883" 
d="M164.5 21c-34.333 20 -61.668 48.501 -82.001 85.501s-30.5 80.167 -30.5 129.5s10.167 92.666 30.5 129.999s47.333 65.833 81 85.5s69.834 29.5 108.501 29.5c46 0 86.333 -10.667 121 -32s59.334 -53 74.001 -95c12.667 42.667 33.834 74.5 63.501 95.5
s63.834 31.5 102.501 31.5s73 -10.333 103 -31s53.5 -49.5 70.5 -86.5s25.5 -79.5 25.5 -127.5c0 -80.667 -21.333 -159.334 -64 -236.001h-69c20 37.333 35.667 75 47 113s17 78.667 17 122c0 56.667 -11.833 101.334 -35.5 134.001s-56.834 49 -99.501 49
c-38.667 0 -68.834 -13.667 -90.501 -41s-32.5 -67.333 -32.5 -120v-21c0 -49.333 -10.333 -92.5 -31 -129.5s-48.334 -65.5 -83.001 -85.5s-72.334 -30 -113.001 -30c-41.333 0 -79.166 10 -113.499 30zM355.998 76.001c24 14 43.333 34.667 58 62s22 60 22 98
s-7.33301 70.833 -22 98.5s-34 48.5 -58 62.5s-50 21 -78 21s-54 -7 -78 -21s-43.333 -34.833 -58 -62.5s-22 -60.5 -22 -98.5s7.33301 -70.667 22 -98s34 -48 58 -62s50 -21 78 -21s54 7 78 21z" />
    <glyph glyph-name="uni10D8" unicode="&#x10d8;" horiz-adv-x="576" 
d="M52 236c0 48 9.83203 90.499 29.499 127.499s47.334 65.833 83.001 86.5s76.834 31 123.501 31s88 -10.333 124 -31s64 -49.5 84 -86.5s30 -79.5 30 -127.5c0 -82 -21.667 -160.667 -65 -236h-69c42.667 78 64 156.333 64 235c0 55.333 -15.333 99.666 -46 132.999
s-71.334 50 -122.001 50s-91.167 -16.667 -121.5 -50s-45.5 -77.666 -45.5 -132.999c0 -43.333 5.66699 -84 17 -122s27 -75.667 47 -113h-69c-42.667 76.667 -64 155.334 -64 236.001z" />
    <glyph glyph-name="uni10D9" unicode="&#x10d9;" horiz-adv-x="541" 
d="M136.5 -181c-35 17.333 -62 41.1709 -81 71.5039s-28.5 64.166 -28.5 101.499c0 28.667 5.33301 55 16 79l62 -14c-6.66699 -19.333 -10 -38.333 -10 -57c0 -43.333 14.167 -78 42.5 -104s68.166 -39 119.499 -39c50.667 0 91.5 12.167 122.5 36.5s46.5 57.5 46.5 99.5
c0 44 -13.333 78.167 -40 102.5s-63.334 36.5 -110.001 36.5h-46v63h45c42.667 0 75.334 8.83301 98.001 26.5s34 43.5 34 77.5s-12 61.833 -36 83.5s-56.667 33.5 -98 35.5v63c38 -1.33301 72.333 -9.83301 103 -25.5s54.834 -36.834 72.501 -63.501s26.5 -56.667 26.5 -90
c0 -31.333 -9.83301 -59.5 -29.5 -84.5s-47.167 -42.5 -82.5 -52.5c38 -8.66699 69.5 -28.334 94.5 -59.001s37.5 -70 37.5 -118c0 -36.667 -10.5 -69.834 -31.5 -99.501s-49.667 -53 -86 -70s-76.5 -25.5 -120.5 -25.5c-45.333 0 -85.5 8.66699 -120.5 26z" />
    <glyph glyph-name="uni10DA" unicode="&#x10da;" horiz-adv-x="1091" 
d="M240 -138.5c-68.667 41 -117.165 92.668 -145.498 155.001s-42.5 129.166 -42.5 200.499c0 56 8 103.833 24 143.5s38.167 69.667 66.5 90s60.833 30.5 97.5 30.5c35.333 0 67 -10 95 -30s47.667 -49.667 59 -89c10.667 38.667 30.167 68.167 58.5 88.5
s59.5 30.5 93.5 30.5c34.667 0 66 -10.167 94 -30.5s47.333 -49.833 58 -88.5c10.667 39.333 30.167 69 58.5 89s60.166 30 95.499 30s67.333 -10.333 96 -31s51.167 -49.5 67.5 -86.5s24.5 -79.5 24.5 -127.5c0 -70.667 -16 -136.667 -48 -198l-59 20
c25.333 56 38 115 38 177c0 56 -11.333 100.5 -34 133.5s-53.334 49.5 -92.001 49.5c-34 0 -61.5 -14 -82.5 -42s-31.5 -68.333 -31.5 -121v-138h-68v139c0 52.667 -10.5 92.834 -31.5 120.501s-49.5 41.5 -85.5 41.5c-36.667 0 -65.5 -13.833 -86.5 -41.5
s-31.5 -67.834 -31.5 -120.501v-139h-68v138c0 52.667 -10.333 93 -31 121s-48.334 42 -83.001 42c-40 0 -70.833 -16.5 -92.5 -49.5s-32.5 -83.167 -32.5 -150.5c0 -103.333 31.333 -188.333 94 -255s165.334 -100 308.001 -100h294v-63h-303
c-114 0 -205.333 20.5 -274 61.5z" />
    <glyph glyph-name="uni10DB" unicode="&#x10db;" horiz-adv-x="606" 
d="M170 23c-36.667 21.333 -65.502 50.4971 -86.502 87.4971s-31.5 78.833 -31.5 125.5c0 46 10.333 87.5 31 124.5s49 66.167 85 87.5s75.667 32 119 32c40 0 75 -8.16699 105 -24.5s54.667 -39.166 74 -68.499v118c0 50.667 -15.333 90.167 -46 118.5s-71 42.5 -121 42.5
c-45.333 0 -83.333 -11.833 -114 -35.5s-46 -55.167 -46 -94.5h-68c0 39.333 10.333 73.5 31 102.5s48.334 51.333 83.001 67s72.667 23.5 114 23.5c44.667 0 84.834 -9 120.501 -27s63.667 -43.667 84 -77s30.5 -72.666 30.5 -117.999v-271
c0 -47.333 -10.333 -89.666 -31 -126.999s-49.167 -66.333 -85.5 -87s-77.166 -31 -122.499 -31c-46.667 0 -88.334 10.667 -125.001 32zM385.498 77.9971c26.333 16 46.835 37.832 61.502 65.499s22 58.5 22 92.5s-7.33301 64.833 -22 92.5s-35.167 49.334 -61.5 65.001
s-56.5 23.5 -90.5 23.5c-33.333 0 -63.333 -8 -90 -24s-47.334 -37.833 -62.001 -65.5s-22 -58.167 -22 -91.5s7.5 -63.833 22.5 -91.5s35.667 -49.667 62 -66s56.166 -24.5 89.499 -24.5c34 0 64.167 8 90.5 24z" />
    </font>
</defs>
</svg>
