<?xml version="1.0" standalone="no"?>
<!DOCTYPE svg PUBLIC "-//W3C//DTD SVG 1.1//EN" "http://www.w3.org/Graphics/SVG/1.1/DTD/svg11.dtd" >
<svg>
<metadata>
Created by FontForge 20090914 at Fri Jul 20 16:37:39 2018
 By www-data
2013 published by FontShop International GmbH
</metadata>
<defs>
<font id="MarkGEO-SemiBold" horiz-adv-x="600" >
  <font-face 
    font-family="Mark GEO SemiBold"
    font-weight="600"
    font-stretch="normal"
    units-per-em="1000"
    panose-1="2 11 8 4 2 1 1 1 1 2"
    ascent="790"
    descent="-210"
    x-height="480.999"
    cap-height="700"
    bbox="-679 -233 1555 1111"
    underline-thickness="63"
    underline-position="-130"
    unicode-range="U+000D-U+FEFF"
  />
<missing-glyph horiz-adv-x="593" 
d="M519 700v-700h-444v700h444zM428 610h-262v-519h262v519z" />
    <glyph glyph-name="fi" unicode="fi" horiz-adv-x="687" 
d="M230 383v-383h-110v383h-97v98h97v66c0 56.667 14.333 101.667 43 135s70.667 50 126 50c53.333 0 101 -14 143 -42l-43 -86c-30 16.667 -59.667 25 -89 25c-46.667 0 -70 -27.667 -70 -83v-65h165v-98h-165zM608.5 693c13.667 -14 20.5 -31 20.5 -51
s-6.83301 -36.833 -20.5 -50.5s-30.5 -20.5 -50.5 -20.5s-36.833 6.83301 -50.5 20.5s-20.5 30.5 -20.5 50.5s6.83301 37 20.5 51s30.5 21 50.5 21s36.833 -7 50.5 -21zM503 0v481h110v-481h-110z" />
    <glyph glyph-name="fl" unicode="fl" horiz-adv-x="687" 
d="M230 383v-383h-110v383h-97v98h97v66c0 56.667 14.333 101.667 43 135s70.667 50 126 50c53.333 0 101 -14 143 -42l-43 -86c-30 16.667 -59.667 25 -89 25c-46.667 0 -70 -27.667 -70 -83v-65h165v-98h-165zM503 0v720h110v-720h-110z" />
    <glyph glyph-name="f_f" unicode="ff" horiz-adv-x="845" 
d="M230 383v-383h-110v383h-97v98h97v66c0 56.667 14.333 101.667 43 135s70.667 50 126 50c53.333 0 101 -14 143 -42l-43 -86c-30 16.667 -59.667 25 -89 25c-46.667 0 -70 -27.667 -70 -83v-65h165v-98h-165zM646 383v-383h-110v383h-97v98h97v66
c0 56.667 14.333 101.667 43 135s70.667 50 126 50c53.333 0 101 -14 143 -42l-44 -86c-28.667 16.667 -58 25 -88 25c-46.667 0 -70 -27.667 -70 -83v-65h165v-98h-165z" />
    <glyph glyph-name="f_f_i" unicode="ffi" horiz-adv-x="1103" 
d="M230 383v-383h-110v383h-97v98h97v66c0 56.667 14.333 101.667 43 135s70.667 50 126 50c53.333 0 101 -14 143 -42l-43 -86c-30 16.667 -59.667 25 -89 25c-46.667 0 -70 -27.667 -70 -83v-65h165v-98h-165zM646 383v-383h-110v383h-97v98h97v66
c0 56.667 14.333 101.667 43 135s70.667 50 126 50c53.333 0 101 -14 143 -42l-44 -86c-28.667 16.667 -58 25 -88 25c-46.667 0 -70 -27.667 -70 -83v-65h165v-98h-165zM1024.5 693c13.667 -14 20.5 -31 20.5 -51s-6.83301 -36.833 -20.5 -50.5s-30.5 -20.5 -50.5 -20.5
c-20.667 0 -37.667 6.83301 -51 20.5s-20 30.5 -20 50.5s6.83301 37 20.5 51s30.5 21 50.5 21s36.833 -7 50.5 -21zM919 0v481h110v-481h-110z" />
    <glyph glyph-name="f_f_l" unicode="ffl" horiz-adv-x="1103" 
d="M230 383v-383h-110v383h-97v98h97v66c0 56.667 14.333 101.667 43 135s70.667 50 126 50c53.333 0 101 -14 143 -42l-43 -86c-30 16.667 -59.667 25 -89 25c-46.667 0 -70 -27.667 -70 -83v-65h165v-98h-165zM646 383v-383h-110v383h-97v98h97v66
c0 56.667 14.333 101.667 43 135s70.667 50 126 50c53.333 0 101 -14 143 -42l-44 -86c-28.667 16.667 -58 25 -88 25c-46.667 0 -70 -27.667 -70 -83v-65h165v-98h-165zM919 0v720h110v-720h-110z" />
    <glyph glyph-name=".notdef" horiz-adv-x="593" 
d="M519 700v-700h-444v700h444zM428 610h-262v-519h262v519z" />
    <glyph glyph-name="nonmarkingreturn" unicode="&#xd;" horiz-adv-x="253" 
 />
    <glyph glyph-name="space" unicode=" " horiz-adv-x="253" 
 />
    <glyph glyph-name="exclam" unicode="!" horiz-adv-x="273" 
d="M86 234l-15 466h131l-15 -466h-101zM193.5 128.5c16.333 -16.333 24.5 -35.5 24.5 -57.5s-8.16699 -41.167 -24.5 -57.5s-35.5 -24.5 -57.5 -24.5c-21.333 0 -40.166 8.16699 -56.499 24.5s-24.5 35.5 -24.5 57.5s8.16699 41.167 24.5 57.5s35.166 24.5 56.499 24.5
c22 0 41.167 -8.16699 57.5 -24.5z" />
    <glyph glyph-name="quotedbl" unicode="&#x22;" horiz-adv-x="546" 
d="M231 438h-109v282h109v-282zM424 438h-109v282h109v-282z" />
    <glyph glyph-name="numbersign" unicode="#" horiz-adv-x="733" 
d="M269 700h101l-36 -171h141l37 171h101l-37 -171h105l-20 -95h-105l-35 -164h105l-20 -95h-106l-36 -175h-101l36 175h-140l-38 -175h-101l38 175h-106l21 95h105l35 164h-106l20 95h106zM420 270l35 164h-141l-35 -164h141z" />
    <glyph glyph-name="dollar" unicode="$" horiz-adv-x="700" 
d="M312 8c-45.333 3.33301 -89.334 12.332 -132.001 26.999s-78.667 33.334 -108 56.001l58 90c22 -16.667 49 -31.5 81 -44.5s65.333 -21.5 100 -25.5v191l-10 2c-64.667 9.33301 -115.167 29 -151.5 59s-54.5 71.333 -54.5 124c0 56.667 19.833 103 59.5 139
s91.834 57.667 156.501 65v94h94v-93c77.333 -6 148.333 -30 213 -72l-54 -90c-48 31.333 -101 50.666 -159 57.999v-190l22 -3c60.667 -10 108.834 -29.667 144.501 -59s53.5 -68.666 53.5 -117.999c0 -60 -20.333 -107.667 -61 -143s-93.334 -57 -158.001 -65v-99h-94v97z
M310.999 585.999c-31.333 -5.33301 -56 -16 -74 -32s-27 -36 -27 -60c0 -20.667 8.33301 -37.5 25 -50.5s42 -22.833 76 -29.5v172zM481.499 144.999c19 15.333 28.833 35.335 29.5 60.002c0 41.333 -35.333 68.666 -106 81.999v-173c32 5.33301 57.5 15.666 76.5 30.999z
" />
    <glyph glyph-name="percent" unicode="%" horiz-adv-x="980" 
d="M328.5 687.5c29 -16.333 51.833 -38.833 68.5 -67.5s25 -60.334 25 -95.001c0 -35.333 -8.33301 -67.333 -25 -96s-39.5 -51 -68.5 -67s-61.5 -24 -97.5 -24c-35.333 0 -67.5 8 -96.5 24s-51.833 38.333 -68.5 67s-25 60.667 -25 96c0 34.667 8.33301 66.334 25 95.001
s39.5 51.167 68.5 67.5s61.167 24.5 96.5 24.5c36 0 68.5 -8.16699 97.5 -24.5zM204 0l461 700h110l-461 -700h-110zM162.5 594.5c-18.333 -18.333 -27.5 -41.5 -27.5 -69.5c0 -28.667 9.16699 -52.334 27.5 -71.001s41.166 -28 68.499 -28c28 0 51.167 9.33301 69.5 28
s27.5 42.334 27.5 71.001c0 28 -9.33301 51.167 -28 69.5s-41.667 27.5 -69 27.5s-50.166 -9.16699 -68.499 -27.5zM846.5 338.5c29 -16.333 51.832 -38.6689 68.499 -67.002s25 -60.166 25 -95.499s-8.33301 -67.333 -25 -96s-39.5 -51.167 -68.5 -67.5
s-61.5 -24.5 -97.5 -24.5s-68.5 8.16699 -97.5 24.5s-51.667 38.833 -68 67.5s-24.5 60.667 -24.5 96c0 34.667 8.33301 66.334 25 95.001s39.334 51.167 68.001 67.5s61 24.5 97 24.5s68.5 -8.16699 97.5 -24.5zM680.999 246.497c-18 -18.333 -27 -41.833 -27 -70.5
s9 -52.167 27 -70.5s40.667 -27.5 68 -27.5c28 0 51 9.16699 69 27.5s27 41.833 27 70.5s-9 52.167 -27 70.5s-41 27.5 -69 27.5c-27.333 0 -50 -9.16699 -68 -27.5z" />
    <glyph glyph-name="ampersand" unicode="&#x26;" horiz-adv-x="724" 
d="M470 85c-61.333 -64.667 -131.332 -97.001 -209.999 -97.001c-66 0 -117.833 16.5 -155.5 49.5s-56.5 77.5 -56.5 133.5c0 38.667 11.5 73.667 34.5 105s54.167 62 93.5 92c-33.333 34 -57.166 63.667 -71.499 89s-21.5 54 -21.5 86s8.16699 60.833 24.5 86.5
s39.333 45.834 69 60.501s63.5 22 101.5 22c37.333 0 70.666 -7 99.999 -21s52.166 -33.667 68.499 -59s24.5 -54 24.5 -86c0 -35.333 -11.667 -67 -35 -95s-56.333 -57.333 -99 -88l128 -124l104 149l84 -57l-114 -163l171 -168h-152zM211.001 492.499
c9.33301 -14.333 27.668 -34.835 55.001 -61.502c30 21.333 52.833 40.5 68.5 57.5s23.5 34.833 23.5 53.5c0 21.333 -7.16699 38.333 -21.5 51s-33.833 19 -58.5 19s-44.334 -6.66699 -59.001 -20s-22 -31.666 -22 -54.999c0 -15.333 4.66699 -30.166 14 -44.499z
M338.003 105.497c20.667 11 40.667 27.5 60 49.5l-150 144c-26.667 -21.333 -47.167 -41.5 -61.5 -60.5s-21.5 -39.167 -21.5 -60.5c0 -26.667 9.5 -48.167 28.5 -64.5s44.167 -24.5 75.5 -24.5c25.333 0 48.333 5.5 69 16.5z" />
    <glyph glyph-name="quotesingle" unicode="'" horiz-adv-x="353" 
d="M231 438h-109v282h109v-282z" />
    <glyph glyph-name="parenleft" unicode="(" horiz-adv-x="416" 
d="M231 488.5c-36 -61 -54 -129.169 -54 -204.502s18 -143.5 54 -204.5s86 -105.833 150 -134.5l-35 -98c-56 21.333 -105.5 53.333 -148.5 96s-76.5 93.334 -100.5 152.001s-36 121.667 -36 189s12 130.333 36 189s57.5 109.334 100.5 152.001s92.5 74.667 148.5 96l35 -98
c-64 -28.667 -114 -73.5 -150 -134.5z" />
    <glyph glyph-name="parenright" unicode=")" horiz-adv-x="416" 
d="M186 80.5c36 61 54 129.166 54 204.499c0 76 -18 144.333 -54 205s-86.333 105.334 -151 134.001l36 98c56 -21.333 105.5 -53.5 148.5 -96.5s76.333 -93.667 100 -152s35.5 -121.166 35.5 -188.499s-11.833 -130.333 -35.5 -189s-57 -109.334 -100 -152.001
s-92.5 -74.667 -148.5 -96l-36 97c64.667 29.333 115 74.5 151 135.5z" />
    <glyph glyph-name="asterisk" unicode="*" horiz-adv-x="463" 
d="M190 720h84l-1 -128l120 41l27 -80l-122 -39l76 -102l-68 -50l-74 105l-74 -105l-68 50l76 102l-122 39l26 80l121 -41z" />
    <glyph glyph-name="plus" unicode="+" 
d="M252 219h-177v94h177v179h96v-179h177v-94h-177v-178h-96v178z" />
    <glyph glyph-name="comma" unicode="," horiz-adv-x="260" 
d="M143 -136h-92l33 282h123z" />
    <glyph glyph-name="hyphen" unicode="-" horiz-adv-x="410" 
d="M61 217v96h288v-96h-288z" />
    <glyph glyph-name="period" unicode="." horiz-adv-x="272" 
d="M194.5 130.5c16.333 -16.333 24.5 -35.833 24.5 -58.5c0 -22 -8.33301 -41.5 -25 -58.5s-36 -25.5 -58 -25.5s-41.333 8.5 -58 25.5s-25 36.5 -25 58.5c0 22.667 8.33301 42.167 25 58.5s36 24.5 58 24.5c22.667 0 42.167 -8.16699 58.5 -24.5z" />
    <glyph glyph-name="slash" unicode="/" horiz-adv-x="511" 
d="M-14 -100l425 870h117l-425 -870h-117z" />
    <glyph glyph-name="zero" unicode="0" horiz-adv-x="707" 
d="M504.5 668c45 -29.333 80.666 -71.333 106.999 -126s39.5 -118.667 39.5 -192c0 -72.667 -13.167 -136.5 -39.5 -191.5s-62.166 -97.167 -107.499 -126.5s-95.333 -44 -150 -44c-55.333 0 -105.5 14.667 -150.5 44s-80.667 71.333 -107 126s-39.5 118.667 -39.5 192
s13.167 137.333 39.5 192s62 96.667 107 126s95.167 44 150.5 44s105.5 -14.667 150.5 -44zM262.999 572.5c-27.333 -19.667 -49 -48.502 -65 -86.502s-24 -83.333 -24 -136s8 -98 24 -136s37.667 -66.833 65 -86.5s57.666 -29.5 90.999 -29.5s63.666 9.83301 90.999 29.5
s48.833 48.334 64.5 86.001s23.5 83.167 23.5 136.5s-7.83301 98.833 -23.5 136.5s-37.167 66.334 -64.5 86.001s-57.666 29.5 -90.999 29.5s-63.666 -9.83301 -90.999 -29.5z" />
    <glyph glyph-name="one" unicode="1" horiz-adv-x="416" 
d="M213 0v550l-184 -76v114l297 122v-710h-113z" />
    <glyph glyph-name="two" unicode="2" horiz-adv-x="558" 
d="M267 712c47.333 0 88.5 -9.50195 123.5 -28.502s61.833 -45.167 80.5 -78.5s28 -71.666 28 -114.999c0 -39.333 -8.5 -75 -25.5 -107s-41.5 -64.333 -73.5 -97l-172 -179h291v-107h-455v89l254 262c20.667 22 36.5 43.667 47.5 65s16.5 44 16.5 68
c0 34.667 -11.167 63.167 -33.5 85.5s-51.833 33.5 -88.5 33.5c-32.667 0 -60.5 -7.16699 -83.5 -21.5s-44.833 -34.166 -65.5 -59.499l-74 70c59.333 80 136 120 230 120z" />
    <glyph glyph-name="three" unicode="3" horiz-adv-x="565" 
d="M386 687c36.667 -16.667 65.166 -39.832 85.499 -69.499s30.5 -63.834 30.5 -102.501c0 -38 -9.5 -70.833 -28.5 -98.5s-45.5 -48.834 -79.5 -63.501c38 -14.667 68.167 -35.834 90.5 -63.501s33.5 -60.834 33.5 -99.501c0 -43.333 -11.667 -80.166 -35 -110.499
s-54.166 -53.166 -92.499 -68.499s-79.833 -23 -124.5 -23c-50 0 -95.333 8.5 -136 25.5s-74.334 41.167 -101.001 72.5l68 75c20.667 -21.333 45.5 -38 74.5 -50s59.167 -18 90.5 -18c40 0 73 9 99 27s39 44 39 78c0 32.667 -14.167 58.334 -42.5 77.001
s-64.166 28 -107.499 28h-85v101h86c39.333 0 71.5 8.83301 96.5 26.5s37.5 43.167 37.5 76.5c0 30.667 -12.333 55.167 -37 73.5s-56 27.5 -94 27.5c-31.333 0 -59.5 -7 -84.5 -21s-45.833 -31.667 -62.5 -53l-73 71c24 32.667 55 58.667 93 78s82.333 29 133 29
c47.333 0 89.333 -8.33301 126 -25z" />
    <glyph glyph-name="four" unicode="4" horiz-adv-x="582" 
d="M560 241v-106h-107v-135h-113v135h-317v83l250 482h126l-241 -459h182v191h113v-191h107z" />
    <glyph glyph-name="five" unicode="5" horiz-adv-x="581" 
d="M201 595l-5.00098 -165.001h89c52.667 0 97.334 -9.16699 134.001 -27.5s64.334 -43.333 83.001 -75s28 -67.167 28 -106.5c0 -48 -11 -89.5 -33 -124.5s-51.833 -61.833 -89.5 -80.5s-79.834 -28 -126.501 -28c-50.667 0 -96.5 9.16699 -137.5 27.5
s-76.5 44.5 -106.5 78.5l66 79c20 -23.333 46 -42.166 78 -56.499s65 -21.5 99 -21.5c42 0 74.667 11 98 33s35 50 35 84s-12.667 61.5 -38 82.5s-66 31.5 -122 31.5h-161l9 374h393v-105h-293z" />
    <glyph glyph-name="six" unicode="6" horiz-adv-x="586" 
d="M308 454c46 0 87.499 -9.99805 124.499 -29.998s65.833 -47.667 86.5 -83s31 -74.333 31 -117c0 -44.667 -11.333 -84.834 -34 -120.501s-53.5 -63.834 -92.5 -84.501s-82.833 -31 -131.5 -31s-92.667 10.167 -132 30.5s-70.166 48.333 -92.499 84
s-33.5 75.5 -33.5 119.5c0 29.333 5.16699 58 15.5 86s25.5 57.333 45.5 88l199 304h137l-174 -252c16 4 33 6 51 6zM191.499 317.502c-26.333 -24.333 -39.5 -55.833 -39.5 -94.5s13.167 -70.167 39.5 -94.5s59.833 -36.5 100.5 -36.5c40 0 73.333 12.333 100 37
s40 56 40 94s-13.333 69.333 -40 94s-60 37 -100 37c-40.667 0 -74.167 -12.167 -100.5 -36.5z" />
    <glyph glyph-name="seven" unicode="7" horiz-adv-x="549" 
d="M222 0h-133l297 594h-352v106h488v-88z" />
    <glyph glyph-name="eight" unicode="8" horiz-adv-x="633" 
d="M444 688.5c38 -15.667 68.168 -38.5 90.501 -68.5s33.5 -65 33.5 -105c0 -39.333 -10 -72.333 -30 -99s-46.667 -47.334 -80 -62.001c38.667 -14.667 69.5 -35.667 92.5 -63s34.5 -61.333 34.5 -102c0 -41.333 -12 -77.166 -36 -107.499s-56.333 -53.5 -97 -69.5
s-85.667 -24 -135 -24c-50 0 -95.333 8 -136 24s-73 39.167 -97 69.5s-36 66.166 -36 107.499c0 40.667 11.5 74.667 34.5 102s53.833 48.333 92.5 63c-34 14.667 -60.833 35.334 -80.5 62.001s-29.5 59.667 -29.5 99c0 40 11.167 75 33.5 105s52.666 52.833 90.999 68.5
s80.833 23.5 127.5 23.5s89 -7.83301 127 -23.5zM223.001 581.5c-24.667 -18.333 -37 -43.5 -37 -75.5c0 -33.333 12.333 -59.333 37 -78s56 -28 94 -28c37.333 0 68.5 9.33301 93.5 28s37.5 44.667 37.5 78c0 32 -12.5 57.167 -37.5 75.5s-56.167 27.5 -93.5 27.5
c-38 0 -69.333 -9.16699 -94 -27.5zM212.001 278c-28 -19.333 -42 -46 -42 -80c0 -33.333 14 -59.5 42 -78.5s63 -28.5 105 -28.5c41.333 0 76 9.5 104 28.5s42 45.167 42 78.5c0 34 -14 60.667 -42 80s-62.667 29 -104 29c-42 0 -77 -9.66699 -105 -29z" />
    <glyph glyph-name="nine" unicode="9" horiz-adv-x="586" 
d="M278 246c-46 0 -87.5 10.165 -124.5 30.498s-65.833 48 -86.5 83s-31 74.167 -31 117.5c0 44 11.333 83.833 34 119.5s53.667 63.834 93 84.501s83 31 131 31s91.667 -10.167 131 -30.5s70.333 -48.166 93 -83.499s34 -75 34 -119c0 -29.333 -5 -57.833 -15 -85.5
s-25 -57.167 -45 -88.5l-199 -305h-137l172 253c-14 -4.66699 -30.667 -7 -50 -7zM394.5 382.998c26.333 24.667 39.834 56 40.501 94c0 38 -13.333 69.333 -40 94s-60.334 37 -101.001 37c-40 0 -73.333 -12.333 -100 -37s-40 -56 -40 -94s13.333 -69.333 40 -94
s60 -37 100 -37c40.667 0 74.167 12.333 100.5 37z" />
    <glyph glyph-name="colon" unicode=":" horiz-adv-x="272" 
d="M194.5 467.5c16.333 -16.333 24.5 -35.833 24.5 -58.5c0 -22 -8.16699 -41.333 -24.5 -58s-35.833 -25 -58.5 -25c-22 0 -41.333 8.33301 -58 25s-25 36 -25 58c0 22.667 8.33301 42.167 25 58.5s36 24.5 58 24.5c22.667 0 42.167 -8.16699 58.5 -24.5zM194.5 130.5
c16.333 -16.333 24.5 -35.5 24.5 -57.5c0 -22.667 -8.16699 -42.334 -24.5 -59.001s-35.833 -25 -58.5 -25c-22 0 -41.333 8.33301 -58 25s-25 36.334 -25 59.001c0 22 8.33301 41.167 25 57.5s36 24.5 58 24.5c22.667 0 42.167 -8.16699 58.5 -24.5z" />
    <glyph glyph-name="semicolon" unicode=";" horiz-adv-x="260" 
d="M195.5 467.5c16.333 -16.333 24.5 -35.833 24.5 -58.5c0 -22 -8.16699 -41.333 -24.5 -58s-35.833 -25 -58.5 -25c-22 0 -41.333 8.33301 -58 25s-25 36 -25 58c0 22.667 8.33301 42.167 25 58.5s36 24.5 58 24.5c22.667 0 42.167 -8.16699 58.5 -24.5zM143 -136h-92
l33 282h123z" />
    <glyph glyph-name="less" unicode="&#x3c;" 
d="M99 215v102l403 189v-110l-298 -130l298 -130v-110z" />
    <glyph glyph-name="equal" unicode="=" 
d="M75 320v93h450v-93h-450zM75 118v94h450v-94h-450z" />
    <glyph glyph-name="greater" unicode="&#x3e;" 
d="M502 317v-102l-403 -189v110l298 129l-298 131v110z" />
    <glyph glyph-name="question" unicode="?" horiz-adv-x="440" 
d="M93 399l41 0.000976562c52 0 91.833 9 119.5 27s41.5 43.667 41.5 77c0 31.333 -13.833 55.5 -41.5 72.5s-66.5 25.5 -116.5 25.5c-21.333 0 -45.333 -1.33301 -72 -4l-9 111c26 4 56.667 6 92 6c83.333 0 148.833 -18.333 196.5 -55s71.5 -86.334 71.5 -149.001
c0 -56.667 -18.833 -103 -56.5 -139s-91.5 -58.667 -161.5 -68l-4 -70h-101v166zM200.5 129.001c16.333 -16 24.5 -34.999 24.5 -56.999c0 -22.667 -8.16699 -42.334 -24.5 -59.001s-35.166 -25 -56.499 -25c-22 0 -41.167 8.33301 -57.5 25s-24.5 36 -24.5 58
c0 22.667 8.16699 42 24.5 58s35.5 24 57.5 24c21.333 0 40.166 -8 56.499 -24z" />
    <glyph glyph-name="at" unicode="@" horiz-adv-x="974" 
d="M687.5 150c8.33301 -14 21.501 -20.999 39.501 -20.999c24 0 43.5 11.833 58.5 35.5s22.5 58.834 22.5 105.501c0 58.667 -13.833 111 -41.5 157s-65.667 82 -114 108s-103.166 39 -164.499 39s-116.333 -13.833 -165 -41.5s-86.834 -66 -114.501 -115
s-41.5 -104.833 -41.5 -167.5c0 -63.333 13.667 -119.666 41 -168.999s65.166 -87.833 113.499 -115.5s102.833 -41.5 163.5 -41.5c75.333 0 141.666 20.333 198.999 61l50 -68c-71.333 -52 -154.333 -78 -249 -78c-79.333 0 -150.333 17.833 -213 53.5
s-111.667 84.834 -147 147.501s-53 132.667 -53 210c0 76.667 17.833 146.167 53.5 208.5s85.167 111.166 148.5 146.499s134.666 53 213.999 53s150.5 -16.833 213.5 -50.5s112.333 -80.167 148 -139.5s53.5 -125.333 53.5 -198c0 -43.333 -7.33301 -81.833 -22 -115.5
s-35.834 -60.167 -63.501 -79.5s-59.834 -29 -96.501 -29c-31.333 0 -57.166 6.33301 -77.499 19s-35.166 30 -44.499 52c-31.333 -44 -75.666 -66 -132.999 -66c-35.333 0 -67.166 8.66699 -95.499 26s-50.5 41.166 -66.5 71.499s-24 64.166 -24 101.499
s8 71.166 24 101.499s38 54.333 66 72s59 26.5 93 26.5c52 0 93 -19.667 123 -59v49h89v-223c0 -30.667 4.16699 -53 12.5 -67zM403.501 332.001c-19.667 -21.333 -29.5 -48.6641 -29.5 -81.9971c0 -32.667 9.83301 -59.834 29.5 -81.501s45.5 -32.5 77.5 -32.5
c31.333 0 57 10.667 77 32s30 48.666 30 81.999s-10 60.666 -30 81.999s-45.667 32 -77 32c-32 0 -57.833 -10.667 -77.5 -32z" />
    <glyph glyph-name="A" unicode="A" horiz-adv-x="727" 
d="M589 0l-68 175h-318l-68 -175h-121l278 700h143l279 -700h-125zM479 284l-117 301l-118 -301h235z" />
    <glyph glyph-name="B" unicode="B" horiz-adv-x="694" 
d="M560.5 653.5c45.667 -31 68.5 -78.833 68.5 -143.5c0 -36.667 -9.83301 -68.334 -29.5 -95.001s-45.5 -45.334 -77.5 -56.001c36 -11.333 65.167 -31.166 87.5 -59.499s33.5 -62.166 33.5 -101.499c0 -66 -22.333 -115.5 -67 -148.5s-108.667 -49.5 -192 -49.5h-297v700
h282c82 0 145.833 -15.5 191.5 -46.5zM204 406h161c45.333 0 80.333 6.83301 105 20.5s37 38.5 37 74.5c0 35.333 -12.5 60 -37.5 74s-59.833 21 -104.5 21h-161v-190zM204 104h174.002c47.333 0 83.166 7.5 107.499 22.5s36.5 40.833 36.5 77.5c0 36 -12.333 61.333 -37 76
s-60.334 22 -107.001 22h-174v-198z" />
    <glyph glyph-name="C" unicode="C" horiz-adv-x="758" 
d="M590 671c52.667 -27.333 92.999 -64.998 120.999 -112.998l-100 -62c-21.333 32.667 -48.833 58 -82.5 76s-71.167 27 -112.5 27c-46 0 -87.5 -10.5 -124.5 -31.5s-66 -50.333 -87 -88s-31.5 -80.834 -31.5 -129.501c0 -49.333 10.667 -92.833 32 -130.5
s50.5 -66.834 87.5 -87.501s78.167 -31 123.5 -31c40.667 0 78 9 112 27s62 43.333 84 76l95 -69c-31.333 -46 -72.166 -82 -122.499 -108s-106.5 -39 -168.5 -39c-70 0 -132.667 15.5 -188 46.5s-98.666 74 -129.999 129s-47 117.167 -47 186.5s15.667 131.5 47 186.5
s74.666 98 129.999 129s118 46.5 188 46.5c63.333 0 121.333 -13.667 174 -41z" />
    <glyph glyph-name="D" unicode="D" horiz-adv-x="785" 
d="M559.5 657c55.667 -28.667 98.667 -69.5 129 -122.5s45.5 -114.5 45.5 -184.5s-15.167 -131.5 -45.5 -184.5s-73.333 -93.833 -129 -122.5s-120.167 -43 -193.5 -43h-279v700h279c73.333 0 137.833 -14.333 193.5 -43zM204 110l161 -0.000976562
c79.333 0 140.166 21.833 182.499 65.5s63.5 101.834 63.5 174.501c0 73.333 -21.167 131.833 -63.5 175.5s-103.166 65.5 -182.499 65.5h-161v-481z" />
    <glyph glyph-name="E" unicode="E" horiz-adv-x="667" 
d="M87 0v700h507v-108h-390v-185h374v-108h-374v-191h394v-108h-511z" />
    <glyph glyph-name="F" unicode="F" horiz-adv-x="642" 
d="M204 295v-295h-117v700h503v-108h-386v-189h364v-108h-364z" />
    <glyph glyph-name="G" unicode="G" horiz-adv-x="805" 
d="M568 683c46 -19.333 84.665 -46.6689 115.998 -82.002l-84 -83c-22.667 26 -49.667 46.167 -81 60.5s-66 21.5 -104 21.5c-46 0 -87.333 -10.5 -124 -31.5s-65.5 -50.5 -86.5 -88.5s-31.5 -81.333 -31.5 -130c0 -50 10.5 -94 31.5 -132s49.667 -67.333 86 -88
s76.833 -31 121.5 -31c63.333 0 113.833 16 151.5 48s60.167 77.333 67.5 136h-195v100h317c1.33301 -7.33301 2 -18.333 2 -33c0 -69.333 -14.5 -131.5 -43.5 -186.5s-69.333 -98 -121 -129s-110.5 -46.5 -176.5 -46.5c-64.667 0 -124.667 14.833 -180 44.5
s-99.666 71.834 -132.999 126.501s-50 118.334 -50 191.001c0 69.333 15.833 131.5 47.5 186.5s75.334 98 131.001 129s118.5 46.5 188.5 46.5c54 0 104 -9.66699 150 -29z" />
    <glyph glyph-name="H" unicode="H" horiz-adv-x="777" 
d="M573 408v292h118v-700h-118v298h-369v-298h-117v700h117v-292h369z" />
    <glyph glyph-name="I" unicode="I" horiz-adv-x="291" 
d="M87 0v700h117v-700h-117z" />
    <glyph glyph-name="J" unicode="J" horiz-adv-x="568" 
d="M453.5 110c-21 -40 -50.167 -70.333 -87.5 -91s-80.333 -31 -129 -31c-92 0 -165.333 32.333 -220 97l70 84c38 -45.333 86.333 -68 145 -68c43.333 0 77 13.833 101 41.5s36 68.5 36 122.5v435h116v-446c0 -56 -10.5 -104 -31.5 -144z" />
    <glyph glyph-name="K" unicode="K" horiz-adv-x="704" 
d="M204 298v-298h-117v700h117v-293h74l253 293h148l-307 -342l329 -358h-153l-271 298h-73z" />
    <glyph glyph-name="L" unicode="L" horiz-adv-x="604" 
d="M87 0v700h117v-590h383v-110h-500z" />
    <glyph glyph-name="M" unicode="M" horiz-adv-x="931" 
d="M728 0v558l-200 -486h-124l-200 482v-554h-117v700h172l207 -493l206 493h172v-700h-116z" />
    <glyph glyph-name="N" unicode="N" horiz-adv-x="785" 
d="M589 0l-384 504l-1 -504h-117v700h109l385 -504v504h118v-700h-110z" />
    <glyph glyph-name="O" unicode="O" horiz-adv-x="832" 
d="M604 665c55.333 -31.333 98.666 -74.5 129.999 -129.5s47 -116.833 47 -185.5s-15.667 -130.5 -47 -185.5s-74.666 -98.167 -129.999 -129.5s-118 -47 -188 -47s-132.667 15.667 -188 47s-98.666 74.5 -129.999 129.5s-47 116.833 -47 185.5s15.667 130.5 47 185.5
s74.666 98.167 129.999 129.5s118 47 188 47s132.667 -15.667 188 -47zM291.5 567.5c-37 -21 -66 -50.333 -87 -88s-31.5 -80.834 -31.5 -129.501s10.5 -91.834 31.5 -129.501s50 -67 87 -88s78.5 -31.5 124.5 -31.5s87.5 10.5 124.5 31.5s66 50.333 87 88
s31.5 80.834 31.5 129.501s-10.5 91.834 -31.5 129.501s-50 67 -87 88s-78.5 31.5 -124.5 31.5s-87.5 -10.5 -124.5 -31.5z" />
    <glyph glyph-name="P" unicode="P" horiz-adv-x="662" 
d="M204 0h-117v700h278c80.667 0 143 -19.333 187 -58s66 -92 66 -160s-22 -121.333 -66 -160s-106 -58 -186 -58h-162v-264zM204 372h159c44 0 77.5 9.16699 100.5 27.5s34.5 45.833 34.5 82.5s-11.5 64.167 -34.5 82.5s-56.5 27.5 -100.5 27.5h-159v-220z" />
    <glyph glyph-name="Q" unicode="Q" horiz-adv-x="836" 
d="M604 665c55.333 -31.333 98.667 -74.501 130 -129.501s47 -116.833 47 -185.5c0 -85.333 -24.333 -158.666 -73 -219.999l99 -130h-138l-42 53c-62.667 -43.333 -133 -65 -211 -65c-70 0 -132.667 15.667 -188 47s-98.666 74.5 -129.999 129.5s-47 116.833 -47 185.5
s15.667 130.5 47 185.5s74.666 98.167 129.999 129.5s118 47 188 47s132.667 -15.667 188 -47zM291.501 567.499c-37 -21 -66 -50.3311 -87 -87.998s-31.5 -80.834 -31.5 -129.501s10.5 -91.834 31.5 -129.501s50 -67 87 -88s78.5 -31.5 124.5 -31.5
c54 0 101.333 14.667 142 44l-140 183h140l73 -96c18.667 35.333 28 74.666 28 117.999c0 48.667 -10.5 91.834 -31.5 129.501s-50 67 -87 88s-78.5 31.5 -124.5 31.5s-87.5 -10.5 -124.5 -31.5z" />
    <glyph glyph-name="R" unicode="R" horiz-adv-x="677" 
d="M562 645.5c43.333 -36.333 65.001 -87.5 65.001 -153.5c0 -58 -19.333 -105.167 -58 -141.5s-91.667 -56.5 -159 -60.5h-13l229 -290h-142l-220 288h-60v-288h-117v700h288c81.333 0 143.666 -18.167 186.999 -54.5zM204.001 390l168 0.000976562
c44 0 77.333 8.66699 100 26s34 42.666 34 75.999s-11.5 58.333 -34.5 75s-56.167 25 -99.5 25h-168v-202z" />
    <glyph glyph-name="S" unicode="S" horiz-adv-x="676" 
d="M352 602c-44.667 0 -81.167 -9 -109.5 -27s-42.5 -42.333 -42.5 -73c0 -26.667 12.833 -47.167 38.5 -61.5s63.834 -24.833 114.501 -31.5l50 -7c146.667 -22.667 220 -86.334 220 -191.001c0 -48 -12.833 -88.833 -38.5 -122.5s-59.834 -58.834 -102.501 -75.501
s-90 -25 -142 -25c-52.667 0 -104.834 8.16699 -156.501 24.5s-95.5 38.5 -131.5 66.5l61 95c28 -22 62 -40.333 102 -55s81.667 -22 125 -22c46.667 0 84.834 9 114.501 27s44.5 42.667 44.5 74c0 26.667 -12.667 47.167 -38 61.5s-65 25.5 -119 33.5l-54 8
c-140.667 19.333 -211 84 -211 194c0 45.333 12.167 84.333 36.5 117s57.333 57.334 99 74.001s87.5 25 137.5 25c49.333 0 95 -6.16699 137 -18.5s84 -31.166 126 -56.499l-57 -96c-62 41.333 -130 62 -204 62z" />
    <glyph glyph-name="T" unicode="T" horiz-adv-x="607" 
d="M362 591v-591h-118v591h-227v109h572v-109h-227z" />
    <glyph glyph-name="U" unicode="U" horiz-adv-x="749" 
d="M633 119c-25.333 -43.333 -60.333 -76 -105 -98s-96 -33 -154 -33s-109.333 11 -154 33s-79.5 54.667 -104.5 98s-37.5 96.333 -37.5 159v422h118v-416c0 -60.667 16 -106.334 48 -137.001s75.333 -46 130 -46c55.333 0 99 15.333 131 46s48 76.334 48 137.001v416h118
v-422c0 -62.667 -12.667 -115.667 -38 -159z" />
    <glyph glyph-name="V" unicode="V" horiz-adv-x="710" 
d="M284 0l-270 700h124l218 -581l219 581h122l-271 -700h-142z" />
    <glyph glyph-name="W" unicode="W" horiz-adv-x="1094" 
d="M714 0l-167 535l-167 -535h-142l-217 700h122l168 -564l172 564h130l172 -564l168 564h120l-217 -700h-142z" />
    <glyph glyph-name="X" unicode="X" horiz-adv-x="681" 
d="M660 0h-138l-183 268l-182 -268h-136l248 357l-240 343h139l173 -256l175 256h135l-240 -343z" />
    <glyph glyph-name="Y" unicode="Y" horiz-adv-x="667" 
d="M393 0h-116v284l-273 416h138l194 -310l193 310h134l-270 -417v-283z" />
    <glyph glyph-name="Z" unicode="Z" horiz-adv-x="650" 
d="M208 109h390v-109h-546v92l389 500h-386v108h543v-91z" />
    <glyph glyph-name="bracketleft" unicode="[" horiz-adv-x="379" 
d="M87 -132v832h257v-99h-146v-634h146v-99h-257z" />
    <glyph glyph-name="backslash" unicode="\" horiz-adv-x="511" 
d="M100 770l424 -870h-116l-425 870h117z" />
    <glyph glyph-name="bracketright" unicode="]" horiz-adv-x="379" 
d="M293 700v-832h-258v99h146v634h-146v99h258z" />
    <glyph glyph-name="asciicircum" unicode="^" 
d="M248 700h104l178 -379h-113l-118 270l-118 -270h-111z" />
    <glyph glyph-name="underscore" unicode="_" horiz-adv-x="469" 
d="M-3 -149v90h475v-90h-475z" />
    <glyph glyph-name="grave" unicode="`" horiz-adv-x="486" 
d="M126 706h132l103 -156h-105z" />
    <glyph glyph-name="a" unicode="a" horiz-adv-x="616" 
d="M434 0v65c-37.333 -51.333 -89.333 -77 -156 -77c-44 0 -83.833 11 -119.5 33s-63.834 52.333 -84.501 91s-31 81.667 -31 129c0 46.667 10.333 89.167 31 127.5s48.834 68.5 84.501 90.5s75.5 33 119.5 33c67.333 0 119.333 -25.333 156 -76v65h108v-481h-108zM194 347
c-26 -28.667 -38.999 -63.999 -38.999 -105.999s13.167 -77.5 39.5 -106.5s60.166 -43.5 101.499 -43.5c42 0 76.167 14.167 102.5 42.5s39.5 64.166 39.5 107.499c0 42.667 -13.167 78.167 -39.5 106.5s-60.5 42.5 -102.5 42.5s-76 -14.333 -102 -43z" />
    <glyph glyph-name="b" unicode="b" horiz-adv-x="617" 
d="M458.5 459c35.667 -22 63.832 -52.167 84.499 -90.5s31 -80.833 31 -127.5c0 -47.333 -10.333 -90.333 -31 -129s-48.834 -69 -84.501 -91s-75.5 -33 -119.5 -33c-65.333 0 -117.666 25.333 -156.999 76v-64h-107v720h109v-301c36.667 48.667 88.334 73 155.001 73
c44 0 83.833 -11 119.5 -33zM217.998 347.5c-26.667 -28.333 -40 -63.835 -40 -106.502c0 -43.333 13.333 -79.166 40 -107.499s60.667 -42.5 102 -42.5c42 0 76.167 14.333 102.5 43s39.5 64.334 39.5 107.001s-13.167 78.167 -39.5 106.5s-60.5 42.5 -102.5 42.5
c-41.333 0 -75.333 -14.167 -102 -42.5z" />
    <glyph glyph-name="c" unicode="c" horiz-adv-x="516" 
d="M402.5 469.5c32.333 -15 59.501 -36.1641 81.501 -63.4971l-77 -67c-16.667 17.333 -34.167 30.166 -52.5 38.499s-38.833 12.5 -61.5 12.5c-25.333 0 -48.5 -6.33301 -69.5 -19s-37.667 -30.334 -50 -53.001s-18.5 -48.334 -18.5 -77.001c0 -44 13.167 -80 39.5 -108
s59.166 -42 98.499 -42c44 0 82.333 17.333 115 52l76 -68c-22 -28 -49.167 -49.5 -81.5 -64.5s-67.833 -22.5 -106.5 -22.5c-49.333 0 -93.166 11 -131.499 33s-68.166 52.167 -89.499 90.5s-32 81.5 -32 129.5s10.667 91 32 129s51.166 67.833 89.499 89.5
s82.166 32.5 131.499 32.5c38.667 0 74.167 -7.5 106.5 -22.5z" />
    <glyph glyph-name="d" unicode="d" horiz-adv-x="616" 
d="M433 419v301h109v-720h-108v65c-37.333 -51.333 -89.333 -77 -156 -77c-44 0 -83.833 11 -119.5 33s-63.834 52.333 -84.501 91s-31 81.667 -31 129c0 46.667 10.333 89.167 31 127.5s48.834 68.5 84.501 90.5s75.5 33 119.5 33c66 0 117.667 -24.333 155 -73zM194 347
c-26 -28.667 -38.999 -63.999 -38.999 -105.999s13.167 -77.5 39.5 -106.5s60.166 -43.5 101.499 -43.5c42 0 76.167 14.167 102.5 42.5s39.5 64.166 39.5 107.499c0 42.667 -13.167 78.167 -39.5 106.5s-60.5 42.5 -102.5 42.5s-76 -14.333 -102 -43z" />
    <glyph glyph-name="e" unicode="e" horiz-adv-x="558" 
d="M404.5 460.5c35 -21 62.3311 -50.498 81.998 -88.498s29.5 -81.333 29.5 -130c0 -13.333 -0.666992 -26 -2 -38h-358c6 -39.333 21.667 -69.333 47 -90s56.666 -31 93.999 -31c24 0 47.333 4.5 70 13.5s43.334 21.833 62.001 38.5l64 -71
c-53.333 -50.667 -121 -76 -203 -76c-48 0 -90.667 10.5 -128 31.5s-66.5 50.5 -87.5 88.5s-31.5 81.667 -31.5 131s10.333 93.166 31 131.499s49.334 68.166 86.001 89.499s78.334 32 125.001 32c44.667 0 84.5 -10.5 119.5 -31.5zM197.998 366.002
c-22 -20.667 -35.665 -49 -40.998 -85h248c-4.66699 36 -17.834 64.333 -39.501 85s-48.834 31 -81.501 31c-35.333 0 -64 -10.333 -86 -31z" />
    <glyph glyph-name="f" unicode="f" horiz-adv-x="429" 
d="M230 383v-383h-110v383h-97v98h97v66c0 56.667 14.333 101.667 43 135s70.667 50 126 50c53.333 0 101 -14 143 -42l-43 -86c-30 16.667 -59.667 25 -89 25c-46.667 0 -70 -27.667 -70 -83v-65h165v-98h-165z" />
    <glyph glyph-name="g" unicode="g" horiz-adv-x="611" 
d="M362.5 472c27 -13.333 49.1689 -31.998 66.502 -55.998v65h108v-443c0 -77.333 -23.5 -137.833 -70.5 -181.5s-109.5 -65.5 -187.5 -65.5c-39.333 0 -77.5 5.33301 -114.5 16s-68.167 26 -93.5 46l42 87c48.667 -34 102.667 -51 162 -51
c45.333 0 82.166 12.5 110.499 37.5s42.5 60.833 42.5 107.5v43c-18 -24 -40.333 -42.667 -67 -56s-57.334 -20 -92.001 -20c-40.667 0 -78.334 10.5 -113.001 31.5s-62.167 50.167 -82.5 87.5s-30.5 79.666 -30.5 126.999s10.167 89.666 30.5 126.999
s47.833 66.333 82.5 87s72.334 31 113.001 31c35.333 0 66.5 -6.66699 93.5 -20zM194.002 349.502c-25.333 -27.667 -38 -61.832 -38 -102.499s12.667 -75 38 -103s58.666 -42 99.999 -42c40.667 0 74 13.833 100 41.5s39 62.167 39 103.5s-13 75.666 -39 102.999
s-59.333 41 -100 41c-41.333 0 -74.666 -13.833 -99.999 -41.5z" />
    <glyph glyph-name="h" unicode="h" horiz-adv-x="593" 
d="M248.5 474.5c25.667 11.667 53.5 17.5 83.5 17.5c37.333 0 70.333 -7.83301 99 -23.5s51.167 -37.834 67.5 -66.501s24.5 -61.667 24.5 -99v-303h-110v268c0 38.667 -9.66699 68.5 -29 89.5s-46.333 31.5 -81 31.5c-34 0 -62.333 -10.833 -85 -32.5s-34 -51.5 -34 -89.5
v-267h-109v721h109v-301c17.333 24.667 38.833 42.834 64.5 54.501z" />
    <glyph glyph-name="i" unicode="i" horiz-adv-x="260" 
d="M180 693c14 -14 21 -31 21 -51s-7 -36.833 -21 -50.5s-31 -20.5 -51 -20.5s-36.833 6.83301 -50.5 20.5s-20.5 30.5 -20.5 50.5s6.83301 37 20.5 51s30.5 21 50.5 21s37 -7 51 -21zM75 0v481h109v-481h-109z" />
    <glyph glyph-name="j" unicode="j" horiz-adv-x="261" 
d="M181.5 693c13.667 -14 20.5 -31 20.5 -51s-6.83301 -36.833 -20.5 -50.5s-30.5 -20.5 -50.5 -20.5s-36.833 6.83301 -50.5 20.5s-20.5 30.5 -20.5 50.5s6.83301 37 20.5 51s30.5 21 50.5 21s36.833 -7 50.5 -21zM149 -170c-24.667 -26.667 -58 -40 -100 -40
c-12 0 -24.667 1.33301 -38 4s-24.333 6 -33 10l17 96c14 -4.66699 27 -7 39 -7c28.667 0 43 18 43 54v534h109v-539c0 -48 -12.333 -85.333 -37 -112z" />
    <glyph glyph-name="k" unicode="k" horiz-adv-x="540" 
d="M239 301l155 180h135l-201 -226l202 -255h-135l-157 203h-54v-203h-109v720h109v-419h55z" />
    <glyph glyph-name="l" unicode="l" horiz-adv-x="260" 
d="M75 0v720h109v-720h-109z" />
    <glyph glyph-name="m" unicode="m" horiz-adv-x="931" 
d="M807.5 440c35.667 -34.667 53.501 -80.334 53.501 -137.001v-303h-109v268c0 38.667 -9.66699 68.5 -29 89.5s-46.666 31.5 -81.999 31.5c-34 0 -62.167 -10.833 -84.5 -32.5s-33.5 -51.5 -33.5 -89.5v-267h-110v268c0 38.667 -9.66699 68.5 -29 89.5
s-46.333 31.5 -81 31.5c-34 0 -62.333 -10.833 -85 -32.5s-34 -51.5 -34 -89.5v-267h-109v481h107v-64c16.667 26 38.167 45 64.5 57s54.833 18 85.5 18c37.333 0 70.5 -8 99.5 -24s51.167 -38 66.5 -66c17.333 30.667 41.166 53.334 71.499 68.001s63.166 22 98.499 22
c57.333 0 103.833 -17.333 139.5 -52z" />
    <glyph glyph-name="n" unicode="n" horiz-adv-x="593" 
d="M431 468.5c28.667 -15.667 51.167 -37.833 67.5 -66.5s24.5 -61.667 24.5 -99v-303h-110v268c0 38.667 -9.66699 68.5 -29 89.5s-46.333 31.5 -81 31.5c-34 0 -62.333 -10.833 -85 -32.5s-34 -51.5 -34 -89.5v-267h-109v481h107v-64c16.667 26 38.167 45 64.5 57
s54.833 18 85.5 18c37.333 0 70.333 -7.83301 99 -23.5z" />
    <glyph glyph-name="o" unicode="o" 
d="M431 459.5c39.333 -21.667 70.166 -51.667 92.499 -90s33.5 -81.166 33.5 -128.499s-11.167 -90.333 -33.5 -129s-53.166 -69 -92.499 -91s-83.333 -33 -132 -33c-48 0 -91.5 11 -130.5 33s-69.667 52.333 -92 91s-33.5 81.667 -33.5 129s11.167 90.166 33.5 128.499
s53 68.333 92 90s82.5 32.5 130.5 32.5c48.667 0 92.667 -10.833 132 -32.5zM196 348c-27.333 -28 -41 -63.667 -41 -107c0 -44 13.667 -80 41 -108s61.666 -42 102.999 -42c42 0 76.833 14 104.5 42s41.5 64 41.5 108c0 43.333 -13.833 79 -41.5 107s-62.5 42 -104.5 42
c-41.333 0 -75.666 -14 -102.999 -42z" />
    <glyph glyph-name="p" unicode="p" horiz-adv-x="617" 
d="M458.5 459c35.667 -22 63.834 -52.167 84.501 -90.5s31 -80.833 31 -127.5c0 -47.333 -10.333 -90.333 -31 -129s-48.834 -69 -84.501 -91s-75.5 -33 -119.5 -33c-66 0 -117.667 24.667 -155 74v-262h-109v681h107v-64c38 50 90.333 75 157 75c44 0 83.833 -11 119.5 -33
zM218 347.5c-26.667 -28.333 -40 -63.835 -40 -106.502c0 -43.333 13.333 -79.166 40 -107.499s60.667 -42.5 102 -42.5c42 0 76.167 14.333 102.5 43s39.5 64.334 39.5 107.001s-13.167 78.167 -39.5 106.5s-60.5 42.5 -102.5 42.5c-41.333 0 -75.333 -14.167 -102 -42.5z
" />
    <glyph glyph-name="q" unicode="q" horiz-adv-x="616" 
d="M434 416v65h108v-681h-109v262c-38 -49.333 -89.667 -74 -155 -74c-44 0 -83.833 11 -119.5 33s-63.834 52.333 -84.501 91s-31 81.667 -31 129c0 46.667 10.333 89.167 31 127.5s48.834 68.5 84.501 90.5s75.5 33 119.5 33c67.333 0 119.333 -25.333 156 -76zM194 347
c-26 -28.667 -38.999 -63.999 -38.999 -105.999s13.167 -77.5 39.5 -106.5s60.166 -43.5 101.499 -43.5c42 0 76.167 14.167 102.5 42.5s39.5 64.166 39.5 107.499c0 42.667 -13.167 78.167 -39.5 106.5s-60.5 42.5 -102.5 42.5s-76 -14.333 -102 -43z" />
    <glyph glyph-name="r" unicode="r" horiz-adv-x="416" 
d="M394 480l-17.998 -108.999c-22.667 11.333 -49.334 17 -80.001 17c-33.333 0 -60.333 -10.833 -81 -32.5s-31 -51.834 -31 -90.501v-265h-109v481h106v-61c31.333 48.667 78 73 140 73c27.333 0 51.666 -4.33301 72.999 -13z" />
    <glyph glyph-name="s" unicode="s" horiz-adv-x="501" 
d="M340.5 388c-28.333 8 -56.165 12.002 -83.498 12.002c-28 0 -49.833 -5 -65.5 -15s-23.5 -23.667 -23.5 -41c0 -14.667 7.33301 -25.834 22 -33.501s36.334 -13.5 65.001 -17.5l48 -7c107.333 -14.667 161 -61 161 -139c0 -48.667 -19.333 -87.334 -58 -116.001
s-91.667 -43 -159 -43c-37.333 0 -74.333 4.66699 -111 14s-69.334 24.333 -98.001 45l44 83c22.667 -15.333 47.167 -27.333 73.5 -36s57.166 -13 92.499 -13c34 0 60 5 78 15s27 24.333 27 43c0 14.667 -7.16699 26.167 -21.5 34.5s-36.833 14.5 -67.5 18.5l-45 7
c-108.667 14 -163 60.667 -163 140c0 48 17.667 85.5 53 112.5s83.666 40.5 144.999 40.5c71.333 0 137 -16 197 -48l-38 -85c-20 11.333 -44.167 21 -72.5 29z" />
    <glyph glyph-name="t" unicode="t" horiz-adv-x="463" 
d="M230 383l-0.000976562 -200c0 -31.333 7.33301 -54.5 22 -69.5s34.334 -22.5 59.001 -22.5c16 0 32.333 3 49 9s32 14 46 24l42 -85c-47.333 -34 -98.333 -51 -153 -51c-57.333 0 -100.833 16 -130.5 48s-44.5 78.333 -44.5 139v208h-97v98h97v147h110v-147h187v-98h-187
z" />
    <glyph glyph-name="u" unicode="u" horiz-adv-x="589" 
d="M488.5 84.5c-20.333 -32.333 -47.333 -56.5 -81 -72.5s-71.167 -24 -112.5 -24s-79 8 -113 24s-61 40.167 -81 72.5s-30 72.166 -30 119.499v277h109v-268c0 -40.667 10.5 -71.167 31.5 -91.5s48.833 -30.5 83.5 -30.5s62.5 10.167 83.5 30.5s31.5 50.833 31.5 91.5v268
h109v-277c0 -47.333 -10.167 -87.166 -30.5 -119.499z" />
    <glyph glyph-name="v" unicode="v" horiz-adv-x="540" 
d="M208 0l-197 481h119l142 -366l141 366h116l-195 -481h-126z" />
    <glyph glyph-name="w" unicode="w" horiz-adv-x="865" 
d="M734 481h114l-169 -481h-126l-121 352l-120 -352h-125l-170 481h117l119 -360l122 360h116l123 -361z" />
    <glyph glyph-name="x" unicode="x" horiz-adv-x="536" 
d="M521 0h-130l-125 167l-124 -167h-127l183 245l-178 236h131l120 -162l119 162h128l-179 -236z" />
    <glyph glyph-name="y" unicode="y" horiz-adv-x="550" 
d="M48 -202l173 306l-213 377h124l150 -266l142 266h121l-377 -683h-120z" />
    <glyph glyph-name="z" unicode="z" horiz-adv-x="524" 
d="M203 98h268v-98h-418v79l268 304h-259v98h405v-81z" />
    <glyph glyph-name="braceleft" unicode="{" horiz-adv-x="435" 
d="M295 576c-17.333 -17.333 -25.666 -42.333 -24.999 -75l3 -55c4 -83.333 -30.667 -137 -104 -161c73.333 -25.333 108 -79 104 -161l-3 -55c-0.666992 -32.667 7.66602 -57.834 24.999 -75.501s41.333 -26.5 72 -26.5h33v-98h-40c-67.333 0 -118.333 18.333 -153 55
s-50.334 87.667 -47.001 153l2 56c1.33301 33.333 -7.66699 58.833 -27 76.5s-47 26.5 -83 26.5v97c36 0 63.667 8.83301 83 26.5s28.333 43.167 27 76.5l-2 57c-3.33301 64.667 12.334 115.334 47.001 152.001s85.667 55 153 55h40v-98h-33
c-30.667 0 -54.667 -8.66699 -72 -26z" />
    <glyph glyph-name="bar" unicode="|" horiz-adv-x="353" 
d="M122 -133v833h109v-833h-109z" />
    <glyph glyph-name="braceright" unicode="}" horiz-adv-x="435" 
d="M140 -6.5c17.333 17.667 25.666 42.834 24.999 75.501l-3 55c-4 82 30.667 135.667 104 161c-73.333 24 -108 77.667 -104 161l3 55c0.666992 32.667 -7.66602 57.667 -24.999 75s-41.333 26 -72 26h-33v98h40c67.333 0 118.333 -18.333 153 -55
s50.334 -87.334 47.001 -152.001l-2 -57c-1.33301 -33.333 7.83398 -58.833 27.501 -76.5s47.167 -26.5 82.5 -26.5v-96c-35.333 0 -62.833 -9 -82.5 -27s-28.834 -43.667 -27.501 -77l2 -56c3.33301 -65.333 -12.334 -116.333 -47.001 -153s-85.667 -55 -153 -55h-40v98h33
c30.667 0 54.667 8.83301 72 26.5z" />
    <glyph glyph-name="asciitilde" unicode="~" 
d="M392 198c-22 0 -41.166 2.16699 -57.499 6.5s-34.166 10.5 -53.499 18.5c-15.333 6.66699 -28.833 11.667 -40.5 15s-24.167 5 -37.5 5c-14.667 0 -28.334 -3.5 -41.001 -10.5s-27 -18.167 -43 -33.5l-54 67c38 44.667 85.333 67 142 67c22 0 41.333 -2.16699 58 -6.5
s35 -10.5 55 -18.5c16 -6.66699 29.667 -11.5 41 -14.5s23.666 -4.5 36.999 -4.5c14 0 27.5 3.5 40.5 10.5s27.167 17.833 42.5 32.5l54 -67c-37.333 -44.667 -85 -67 -143 -67z" />
    <glyph glyph-name="uni00A0" unicode="&#xa0;" horiz-adv-x="253" 
 />
    <glyph glyph-name="exclamdown" unicode="&#xa1;" horiz-adv-x="273" 
d="M79.5 353c-16.333 16 -24.5 35 -24.5 57s8.16699 41.167 24.5 57.5s35.166 24.5 56.499 24.5c22 0 41.167 -8.16699 57.5 -24.5s24.5 -35.5 24.5 -57.5s-8.16699 -41 -24.5 -57s-35.5 -24 -57.5 -24c-21.333 0 -40.166 8 -56.499 24zM187 247l15 -466h-131l15 466h101z
" />
    <glyph glyph-name="cent" unicode="&#xa2;" horiz-adv-x="700" 
d="M421 598c65.333 -8 117.666 -35.334 156.999 -82.001l-73 -65c-26 25.333 -54 40.666 -84 45.999v-293c31.333 6 60 21.333 86 46l71 -65c-39.333 -47.333 -91.666 -75 -156.999 -83v-102h-94v104c-62 12 -111.333 40.333 -148 85s-55 98.334 -55 161.001
s18.333 116.334 55 161.001s86 73 148 85v104h94v-102zM258 261.499c17.333 -25 40.333 -42.5 69 -52.5v283c-28.667 -10 -51.667 -27.667 -69 -53s-26 -55 -26 -89s8.66699 -63.5 26 -88.5z" />
    <glyph glyph-name="sterling" unicode="&#xa3;" horiz-adv-x="700" 
d="M84 0l0.00195312 107h84v197h-84v93h84v47c0 57.333 11.167 106.166 33.5 146.499s52.666 70.666 90.999 90.999s81.166 30.5 128.499 30.5c38 0 73.333 -6.66699 106 -20s61 -32.666 85 -57.999l-77 -79c-28.667 32 -66.667 48 -114 48
c-42 0 -75.833 -13.667 -101.5 -41s-38.5 -68.666 -38.5 -123.999v-41h250v-93h-250v-197h329v-107h-526z" />
    <glyph glyph-name="currency" unicode="&#xa4;" horiz-adv-x="700" 
d="M220 542c38.667 27.333 82.333 41.001 131 41.001c46.667 0 90 -13.667 130 -41l75 76l62 -63l-75 -74c26.667 -40.667 40 -84.334 40 -131.001s-13.333 -90.334 -40 -131.001l75 -74l-62 -62l-75 75c-38.667 -27.333 -82 -41 -130 -41s-92 13.667 -132 41l-73 -75
l-63 62l75 74c-26.667 38.667 -40 82.334 -40 131.001s13.333 92 40 130l-75 75l62 63zM423.999 224.501c22 13 39.333 30.5 52 52.5s19 46.333 19 73s-6.33301 51 -19 73s-30 39.5 -52 52.5s-46.333 19.5 -73 19.5s-51 -6.5 -73 -19.5s-39.5 -30.5 -52.5 -52.5
s-19.5 -46.333 -19.5 -73s6.5 -51 19.5 -73s30.5 -39.5 52.5 -52.5s46.333 -19.5 73 -19.5s51 6.5 73 19.5z" />
    <glyph glyph-name="yen" unicode="&#xa5;" horiz-adv-x="700" 
d="M410 145v-145h-113v145h-189v79h189v80h-189v79h150l-219 317h133l181 -271l179 271h130l-216 -317h152v-79h-188v-80h188v-79h-188z" />
    <glyph glyph-name="brokenbar" unicode="&#xa6;" horiz-adv-x="353" 
d="M122 353v347h109v-347h-109zM122 -133v348h109v-348h-109z" />
    <glyph glyph-name="section" unicode="&#xa7;" horiz-adv-x="653" 
d="M439.5 596c-31 10 -63.4971 15.002 -97.4971 15.002c-40 0 -72.833 -7.16699 -98.5 -21.5s-38.5 -33.833 -38.5 -58.5c0 -22.667 12 -39.834 36 -51.501s59.667 -20.5 107 -26.5l43 -5c60.667 -8.66699 109.167 -26.167 145.5 -52.5s54.5 -62.5 54.5 -108.5
c0 -55.333 -25 -99 -75 -131c42 -28 63 -66.667 63 -116c0 -42.667 -11.667 -78.667 -35 -108s-54.5 -51.166 -93.5 -65.499s-81.833 -21.5 -128.5 -21.5c-49.333 0 -97 6.83301 -143 20.5s-85 32.5 -117 56.5l56 89c26 -18.667 56.667 -34.334 92 -47.001s73 -19 113 -19
c41.333 0 75.166 7 101.499 21s39.833 34.333 40.5 61c0 22 -11.833 38.667 -35.5 50s-59.5 20.333 -107.5 27l-47 6c-60 8 -107.5 25.5 -142.5 52.5s-52.5 64.5 -52.5 112.5c0 26 6.33301 49.667 19 71s30.667 39.666 54 54.999c-40.667 28 -61 68.333 -61 121
c0 38 10.667 71.333 32 100s50.666 50.834 87.999 66.501s79.666 23.5 126.999 23.5c44 0 85 -5.33301 123 -16s75.667 -27.334 113 -50.001l-50 -90c-26 16.667 -54.5 30 -85.5 40zM253.003 362.002c-18.667 -7.33301 -32.998 -17.5 -42.998 -30.5s-15 -28.167 -15 -45.5
c0 -22.667 11.667 -39.667 35 -51s58.666 -20.333 105.999 -27l44 -5c8.66699 -1.33301 21.667 -4 39 -8c38 16 57 41.667 57 77c0 22 -12 39 -36 51s-59.333 21 -106 27l-49 5c-14.667 2.66699 -25.334 5 -32.001 7z" />
    <glyph glyph-name="dieresis" unicode="&#xa8;" horiz-adv-x="513" 
d="M200.5 675c13.667 -14 20.5 -31 20.5 -51s-6.83301 -36.833 -20.5 -50.5s-30.5 -20.5 -50.5 -20.5c-20.667 0 -37.667 6.83301 -51 20.5s-20 30.5 -20 50.5s6.83301 37 20.5 51s30.5 21 50.5 21s36.833 -7 50.5 -21zM412.5 675c13.667 -14 20.5 -31 20.5 -51
s-6.83301 -36.833 -20.5 -50.5s-30.5 -20.5 -50.5 -20.5s-36.833 6.83301 -50.5 20.5s-20.5 30.5 -20.5 50.5s6.83301 37 20.5 51s30.5 21 50.5 21s36.833 -7 50.5 -21z" />
    <glyph glyph-name="copyright" unicode="&#xa9;" horiz-adv-x="938" 
d="M673.5 702.5c62.333 -36.333 111.833 -85.168 148.5 -146.501s55 -128.333 55 -201s-18.333 -140 -55 -202s-86.167 -111.167 -148.5 -147.5s-130.5 -54.5 -204.5 -54.5s-142.167 18.167 -204.5 54.5s-111.833 85.5 -148.5 147.5s-55 129.333 -55 202
s18.333 139.834 55 201.501s86.167 110.5 148.5 146.5s130.5 54 204.5 54s142.167 -18.167 204.5 -54.5zM313 622.498c-47.333 -27.667 -85 -65.167 -113 -112.5s-42 -99 -42 -155s14 -107.833 42 -155.5s65.667 -85.334 113 -113.001s99.333 -41.5 156 -41.5
s108.667 13.833 156 41.5s85 65.334 113 113.001s42 99.5 42 155.5s-14 107.667 -42 155s-65.667 84.833 -113 112.5s-99.333 41.5 -156 41.5s-108.667 -13.833 -156 -41.5zM533.5 462.498c-17 9.66699 -36.167 14.498 -57.5 14.498c-32 0 -58.833 -11.5 -80.5 -34.5
s-32.5 -52.167 -32.5 -87.5c0 -38 11 -67.833 33 -89.5s49 -32.5 81 -32.5c20.667 0 39.667 4.66699 57 14s32 23 44 41l74 -54c-18.667 -28 -43 -49.833 -73 -65.5s-64 -23.5 -102 -23.5c-40 0 -76 9 -108 27s-57 42.833 -75 74.5s-27 67.834 -27 108.501
s9 76.834 27 108.501s43 56.5 75 74.5s68 27 108 27c38 0 73 -8.66699 105 -26s56.333 -41 73 -71l-79 -46c-11.333 17.333 -25.5 30.833 -42.5 40.5z" />
    <glyph glyph-name="ordfeminine" unicode="&#xaa;" horiz-adv-x="395" 
d="M302.5 608c27.667 -24.667 41.5 -61.333 41.5 -110v-201h-80v39c-30 -31.333 -66.667 -47 -110 -47c-36.667 0 -65.834 9.83301 -87.501 29.5s-32.5 45.5 -32.5 77.5s12.5 57.167 37.5 75.5s59.833 27.5 104.5 27.5h84c-2 49.333 -29 74 -81 74
c-32 0 -64 -11.333 -96 -34l-32 63c37.333 28.667 83 43 137 43c48.667 0 86.834 -12.333 114.501 -37zM222.5 367.001c15 8 28.166 18.334 39.499 31.001v46h-73c-23.333 0 -40.666 -4 -51.999 -12s-17 -18.667 -17 -32c0 -12.667 4.83301 -23.334 14.5 -32.001
s23.167 -13 40.5 -13c16.667 0 32.5 4 47.5 12z" />
    <glyph glyph-name="guillemotleft" unicode="&#xab;" horiz-adv-x="531" 
d="M148 74l-97 191l97 192h111l-96 -192l96 -191h-111zM362 74l-96 191l96 192h112l-97 -192l97 -191h-112z" />
    <glyph glyph-name="logicalnot" unicode="&#xac;" 
d="M510 61l-81 46l-107 112l-247 14l122 80l328 -60z" />
    <glyph glyph-name="uni00AD" unicode="&#xad;" horiz-adv-x="410" 
d="M61 217v96h288v-96h-288z" />
    <glyph glyph-name="registered" unicode="&#xae;" horiz-adv-x="486" 
d="M355 691c34 -19.333 61 -45.666 81 -78.999s30 -69.666 30 -108.999s-10 -75.5 -30 -108.5s-47 -59.167 -81 -78.5s-71 -29 -111 -29c-41.333 0 -79 9.66699 -113 29s-60.833 45.5 -80.5 78.5s-29.5 69.167 -29.5 108.5s9.83301 75.666 29.5 108.999
s46.5 59.666 80.5 78.999s71.667 29 113 29c40 0 77 -9.66699 111 -29zM323 364.5c24 14.333 43.167 33.833 57.5 58.5s21.5 51.334 21.5 80.001s-7 55.167 -21 79.5s-33.167 43.666 -57.5 57.999s-50.833 21.5 -79.5 21.5c-29.333 0 -56.333 -7.16699 -81 -21.5
s-44 -33.666 -58 -57.999s-21 -50.833 -21 -79.5s7 -55.334 21 -80.001s33.333 -44.167 58 -58.5s51.667 -21.5 81 -21.5c28.667 0 55 7.16699 79 21.5zM315.5 584.5c14.333 -11.667 21.502 -27.5 21.502 -47.5c0 -15.333 -5.33301 -28.5 -16 -39.5
s-25.334 -18.167 -44.001 -21.5l62 -72h-60l-57 71h-10v-71h-51v198h95c25.333 0 45.166 -5.83301 59.499 -17.5zM212.002 516h43c20.667 0 31 7 31 21c0 6.66699 -2.83301 12 -8.5 16s-13.167 6 -22.5 6h-43v-43z" />
    <glyph glyph-name="macron" unicode="&#xaf;" horiz-adv-x="506" 
d="M413 668v-88h-320v88h320z" />
    <glyph glyph-name="degree" unicode="&#xb0;" horiz-adv-x="416" 
d="M114 365.5c-28.667 16.333 -51.334 38.666 -68.001 66.999s-25 59.5 -25 93.5c0 33.333 8.33301 64.333 25 93s39.334 51.334 68.001 68.001s60 25 94 25s65.333 -8.33301 94 -25s51.5 -39.334 68.5 -68.001s25.5 -59.667 25.5 -93c0 -34 -8.33301 -65.167 -25 -93.5
s-39.5 -50.666 -68.5 -66.999s-60.5 -24.5 -94.5 -24.5s-65.333 8.16699 -94 24.5zM276.5 455.5c19 19 28.5 42.5 28.5 70.5c0 26.667 -9.5 49.667 -28.5 69s-41.833 29 -68.5 29s-49.5 -9.66699 -68.5 -29s-28.5 -42.333 -28.5 -69c0 -28 9.5 -51.5 28.5 -70.5
s41.833 -28.5 68.5 -28.5s49.5 9.5 68.5 28.5z" />
    <glyph glyph-name="plusminus" unicode="&#xb1;" 
d="M252 295h-177v95h177v166h96v-166h177v-95h-177v-139h-96v139zM75 10v95h450v-95h-450z" />
    <glyph glyph-name="uni00B2" unicode="&#xb2;" horiz-adv-x="353" 
d="M173 706c42.667 0 76.5 -11.6641 101.5 -34.9971s37.5 -54.333 37.5 -93c0 -23.333 -5 -44.333 -15 -63s-25.667 -38.334 -47 -59.001l-83 -81h156v-78h-276v66l145 140c22 21.333 33 43.666 33 66.999c0 16.667 -5.5 30.167 -16.5 40.5s-25.833 15.5 -44.5 15.5
c-17.333 0 -32.333 -3.83301 -45 -11.5s-25.667 -18.834 -39 -33.501l-51 55c34.667 46.667 82.667 70 144 70z" />
    <glyph glyph-name="uni00B3" unicode="&#xb3;" horiz-adv-x="355" 
d="M268 674.5c27.333 -21 41 -48.499 41 -82.499c0 -21.333 -5.33301 -39.833 -16 -55.5s-26 -27.834 -46 -36.501c22 -8 39.333 -20 52 -36s19 -34.667 19 -56c0 -38 -15 -67 -45 -87s-66.333 -30 -109 -30c-30 0 -57.167 5 -81.5 15s-44.5 24 -60.5 42l47 54
c26 -24.667 56 -37 90 -37c21.333 0 38.5 4.33301 51.5 13s19.5 21 19.5 37c0 15.333 -7.33301 27.5 -22 36.5s-33 13.5 -55 13.5h-48v71h49c20 0 36.333 4.33301 49 13s19 20.667 19 36c0 14.667 -5.83301 26.167 -17.5 34.5s-27.167 12.5 -46.5 12.5
c-34.667 0 -63.667 -13 -87 -39l-48 53c35.333 40 81.333 60 138 60c44 0 79.667 -10.5 107 -31.5z" />
    <glyph glyph-name="acute" unicode="&#xb4;" horiz-adv-x="486" 
d="M229 706h132l-130 -156h-105z" />
    <glyph glyph-name="uni00B5" unicode="&#xb5;" horiz-adv-x="593" 
d="M71 481h109v-268c0 -38.667 9.66699 -68.5 29 -89.5s46.666 -31.5 81.999 -31.5c34 0 62.167 10.833 84.5 32.5s33.5 51.5 33.5 89.5v267h110v-481h-107v64c-17.333 -26 -39 -45.167 -65 -57.5s-54.333 -18.5 -85 -18.5c-31.333 0 -59.666 7.33301 -84.999 22v-210h-106
v681z" />
    <glyph glyph-name="paragraph" unicode="&#xb6;" horiz-adv-x="620" 
d="M277 320c-69.333 0.666992 -122.668 17.999 -160.001 51.999s-56 80.333 -56 139s18.833 104.834 56.5 138.501s90.834 50.5 159.501 50.5h85v-700h-85v320zM412.998 699.999h85v-700h-85v700z" />
    <glyph glyph-name="periodcentered" unicode="&#xb7;" horiz-adv-x="346" 
d="M231.5 324c16.333 -16 24.5 -35.333 24.5 -58s-8.16699 -42.334 -24.5 -59.001s-35.5 -25 -57.5 -25c-22.667 0 -42.167 8.33301 -58.5 25s-24.5 36.334 -24.5 59.001s8.16699 42 24.5 58s35.833 24 58.5 24c22 0 41.167 -8 57.5 -24z" />
    <glyph glyph-name="cedilla" unicode="&#xb8;" horiz-adv-x="451" 
d="M146 -161l55 165h104l-52 -165h-107z" />
    <glyph glyph-name="uni00B9" unicode="&#xb9;" horiz-adv-x="275" 
d="M121 297v294l-99 -38v82l183 71v-409h-84z" />
    <glyph glyph-name="ordmasculine" unicode="&#xba;" horiz-adv-x="432" 
d="M309.5 622c27.667 -15.333 49.334 -36.666 65.001 -63.999s23.5 -57.666 23.5 -90.999s-7.83301 -63.666 -23.5 -90.999s-37.334 -48.666 -65.001 -63.999s-58.834 -23 -93.501 -23s-65.834 7.66699 -93.501 23s-49.334 36.666 -65.001 63.999s-23.5 57.666 -23.5 90.999
s7.83301 63.666 23.5 90.999s37.334 48.666 65.001 63.999s58.834 23 93.501 23s65.834 -7.66699 93.501 -23zM146.5 539.5c-18.333 -19 -27.5 -43.167 -27.5 -72.5s9.16699 -53.333 27.5 -72s41.5 -28 69.5 -28s51.333 9.33301 70 28s28 42.667 28 72
s-9.33301 53.5 -28 72.5s-42 28.5 -70 28.5s-51.167 -9.5 -69.5 -28.5z" />
    <glyph glyph-name="guillemotright" unicode="&#xbb;" horiz-adv-x="531" 
d="M169 457l96 -191l-96 -191h-112l97 191l-97 191h112zM383 457l97 -191l-97 -191h-111l96 191l-96 191h111z" />
    <glyph glyph-name="onequarter" unicode="&#xbc;" horiz-adv-x="837" 
d="M121 591l-99 -38v82l183 71v-409h-84v294zM572 700h103l-442 -700h-102zM680 72h-184v59l137 272h92l-130 -255h85v61l24 48h60v-109h56v-76h-56v-72h-84v72z" />
    <glyph glyph-name="onehalf" unicode="&#xbd;" horiz-adv-x="871" 
d="M121 297v294l-99 -38v82l183 71v-409h-84zM131 0l441 700h103l-442 -700h-102zM691 409c42.667 0 76.5 -11.666 101.5 -34.999s37.5 -54.333 37.5 -93c0 -23.333 -5 -44.333 -15 -63s-26 -38.334 -48 -59.001l-83 -81h157v-78h-276v66l145 140c22 22 33 44.333 33 67
c0 16.667 -5.66699 30.167 -17 40.5s-26 15.5 -44 15.5c-17.333 0 -32.5 -4 -45.5 -12s-26.167 -19 -39.5 -33l-51 55c36.667 46.667 85 70 145 70z" />
    <glyph glyph-name="threequarters" unicode="&#xbe;" horiz-adv-x="904" 
d="M268 674.5c27.333 -21 41 -48.499 41 -82.499c0 -21.333 -5.33301 -39.833 -16 -55.5s-26 -27.834 -46 -36.501c22 -8 39.333 -20 52 -36s19 -34.667 19 -56c0 -38 -15 -67 -45 -87s-66.333 -30 -109 -30c-30 0 -57.167 5 -81.5 15s-44.5 24 -60.5 42l47 54
c26 -24.667 56 -37 90 -37c21.333 0 38.5 4.33301 51.5 13s19.5 21 19.5 37c0 15.333 -7.33301 27.5 -22 36.5s-33 13.5 -55 13.5h-48v71h49c20 0 36.333 4.33301 49 13s19 20.667 19 36c0 14.667 -5.83301 26.167 -17.5 34.5s-27.167 12.5 -46.5 12.5
c-34.667 0 -63.667 -13 -87 -39l-48 53c35.333 40 81.333 60 138 60c44 0 79.667 -10.5 107 -31.5zM198 0.000976562l442 700h102l-441 -700h-103zM887 148.001v-76h-56v-72h-84v72h-184v59l137 272h92l-130 -255h85v61l26 48h58v-109h56z" />
    <glyph glyph-name="questiondown" unicode="&#xbf;" horiz-adv-x="440" 
d="M239.5 352.5c-16.333 16.333 -24.5 35.5 -24.5 57.5s8.16699 41.167 24.5 57.5s35.166 24.5 56.499 24.5c22 0 41.167 -8.16699 57.5 -24.5s24.5 -35.5 24.5 -57.5s-8.16699 -41.167 -24.5 -57.5s-35.5 -24.5 -57.5 -24.5c-21.333 0 -40.166 8.16699 -56.499 24.5z
M347 82h-41c-52 0 -92 -8.83301 -120 -26.5s-42 -43.5 -42 -77.5c0 -30.667 14 -54.667 42 -72s67 -26 117 -26c21.333 0 45.333 1.33301 72 4l9 -111c-26 -4 -56.667 -6 -92 -6c-83.333 0 -148.833 18.167 -196.5 54.5s-71.5 85.833 -71.5 148.5
c0 58 18.833 104.833 56.5 140.5s91.5 58.167 161.5 67.5l4 70h101v-166z" />
    <glyph glyph-name="Agrave" unicode="&#xc0;" horiz-adv-x="727" 
d="M338 912l104 -156h-106l-130 156h132zM589 0l-68 175h-318l-68 -175h-121l278 700h143l279 -700h-125zM479 284l-117 301l-118 -301h235z" />
    <glyph glyph-name="Aacute" unicode="&#xc1;" horiz-adv-x="727" 
d="M382 912h132l-130 -156h-104zM589 0l-68 175h-318l-68 -175h-121l278 700h143l279 -700h-125zM479 284l-117 301l-118 -301h235z" />
    <glyph glyph-name="Acircumflex" unicode="&#xc2;" horiz-adv-x="727" 
d="M363 838l-72 -85h-107l113 154h133l114 -154h-108zM589 0l-68 175h-318l-68 -175h-121l278 700h143l279 -700h-125zM479 284l-117 301l-118 -301h235z" />
    <glyph glyph-name="Atilde" unicode="&#xc3;" horiz-adv-x="727" 
d="M229.5 881c19.667 10 42.5039 15 68.5039 15c17.333 0 32.166 -2 44.499 -6s26.833 -9.66699 43.5 -17c17.333 -9.33301 31.666 -14 42.999 -14c10.667 0 21 2.66699 31 8s21 14 33 26l60 -62c-17.333 -22 -36 -38 -56 -48s-42.667 -15 -68 -15c-17.333 0 -32 2 -44 6
s-26.333 9.66699 -43 17c-18.667 10 -33.334 15 -44.001 15s-20.834 -2.83301 -30.501 -8.5s-20.834 -14.5 -33.501 -26.5l-59 62c16.667 22 34.834 38 54.501 48zM589.004 0l-68 175h-318l-68 -175h-121l278 700h143l279 -700h-125zM479.004 284l-117 301l-118 -301h235z
" />
    <glyph glyph-name="Adieresis" unicode="&#xc4;" horiz-adv-x="727" 
d="M308 881c14 -14 21 -31 21 -51s-7 -36.833 -21 -50.5s-31 -20.5 -51 -20.5s-36.833 6.66699 -50.5 20s-20.5 30.333 -20.5 51c0 20 6.83301 37 20.5 51s30.5 21 50.5 21s37 -7 51 -21zM520.5 881c13.667 -14 20.5 -31 20.5 -51c0 -20.667 -6.83301 -37.667 -20.5 -51
s-30.5 -20 -50.5 -20s-36.833 6.66699 -50.5 20s-20.5 30.333 -20.5 51c0 20 6.83301 37 20.5 51s30.5 21 50.5 21s36.833 -7 50.5 -21zM589 0l-68 175h-318l-68 -175h-121l278 700h143l279 -700h-125zM479 284l-117 301l-118 -301h235z" />
    <glyph glyph-name="Aring" unicode="&#xc5;" horiz-adv-x="727" 
d="M275.5 778c-24.333 24 -36.5 53 -36.5 87c0 22 5.66699 42.5 17 61.5s26.5 34 45.5 45s39.5 16.5 61.5 16.5c22.667 0 43.5 -5.5 62.5 -16.5s34.167 -26 45.5 -45s17 -39.5 17 -61.5c0 -34 -12.167 -63 -36.5 -87s-53.833 -36 -88.5 -36c-34 0 -63.167 12 -87.5 36z
M404 823c11.333 11.333 17 25.333 17 42c0 16 -5.66699 29.667 -17 41s-25 17 -41 17c-15.333 0 -28.666 -5.66699 -39.999 -17s-17 -25 -17 -41s5.66699 -29.833 17 -41.5s24.666 -17.5 39.999 -17.5c16 0 29.667 5.66699 41 17zM589 0l-68 175h-318l-68 -175h-121l278 700
h143l279 -700h-125zM479 284l-117 301l-118 -301h235z" />
    <glyph glyph-name="AE" unicode="&#xc6;" horiz-adv-x="1147" 
d="M566 0v161h-298l-117 -161h-140l514 700h548v-108h-390v-185h374v-108h-374v-191h394v-108h-511zM566 570l-220 -301h220v301z" />
    <glyph glyph-name="Ccedilla" unicode="&#xc7;" horiz-adv-x="758" 
d="M590 671c52.667 -27.333 93.001 -64.999 121.001 -112.999l-100 -62c-21.333 32.667 -48.833 58 -82.5 76s-71.167 27 -112.5 27c-46 0 -87.5 -10.5 -124.5 -31.5s-66 -50.333 -87 -88s-31.5 -80.834 -31.5 -129.501c0 -49.333 10.667 -92.833 32 -130.5
s50.5 -66.834 87.5 -87.501s78.167 -31 123.5 -31c40.667 0 78 9 112 27s62 43.333 84 76l95 -69c-26 -38.667 -59.667 -70.5 -101 -95.5s-87 -40.833 -137 -47.5l-48 -153h-113l52 153c-60 8 -113.5 28.167 -160.5 60.5s-83.5 74.333 -109.5 126s-39 108.834 -39 171.501
c0 69.333 15.667 131.5 47 186.5s74.666 98 129.999 129s118 46.5 188 46.5c63.333 0 121.333 -13.667 174 -41z" />
    <glyph glyph-name="Egrave" unicode="&#xc8;" horiz-adv-x="667" 
d="M313 912l104 -156h-105l-131 156h132zM87 0v700h507v-108h-390v-185h374v-108h-374v-191h394v-108h-511z" />
    <glyph glyph-name="Eacute" unicode="&#xc9;" horiz-adv-x="667" 
d="M358 912h132l-130 -156h-105zM87 0v700h507v-108h-390v-185h374v-108h-374v-191h394v-108h-511z" />
    <glyph glyph-name="Ecircumflex" unicode="&#xca;" horiz-adv-x="667" 
d="M339 838l-72 -85h-108l113 154h134l113 -154h-107zM87 0v700h507v-108h-390v-185h374v-108h-374v-191h394v-108h-511z" />
    <glyph glyph-name="Edieresis" unicode="&#xcb;" horiz-adv-x="667" 
d="M283 881c14 -14 21 -31 21 -51s-7 -36.833 -21 -50.5s-31 -20.5 -51 -20.5s-36.667 6.66699 -50 20s-20 30.333 -20 51c0 20 6.66699 37 20 51s30 21 50 21s37 -7 51 -21zM496 881c14 -14 21 -31 21 -51s-7 -36.833 -21 -50.5s-31 -20.5 -51 -20.5
s-36.833 6.66699 -50.5 20s-20.5 30.333 -20.5 51c0 20 6.83301 37 20.5 51s30.5 21 50.5 21s37 -7 51 -21zM87 0v700h507v-108h-390v-185h374v-108h-374v-191h394v-108h-511z" />
    <glyph glyph-name="Igrave" unicode="&#xcc;" horiz-adv-x="291" 
d="M121 912l102 -156h-104l-131 156h133zM87 0v700h117v-700h-117z" />
    <glyph glyph-name="Iacute" unicode="&#xcd;" horiz-adv-x="291" 
d="M165 912h132l-130 -156h-106zM87 0v700h117v-700h-117z" />
    <glyph glyph-name="Icircumflex" unicode="&#xce;" horiz-adv-x="291" 
d="M146 838l-72 -85h-109l114 154h134l113 -154h-108zM87 0v700h117v-700h-117z" />
    <glyph glyph-name="Idieresis" unicode="&#xcf;" horiz-adv-x="291" 
d="M90.5 881c13.667 -14 20.5 -31 20.5 -51c0 -20.667 -6.83301 -37.667 -20.5 -51s-30.834 -20 -51.501 -20c-20 0 -36.833 6.66699 -50.5 20s-20.5 30.333 -20.5 51c0 20 6.83301 37 20.5 51s30.5 21 50.5 21c20.667 0 37.834 -7 51.501 -21zM302 881
c14 -14 21 -31 21 -51s-7 -36.833 -21 -50.5s-31 -20.5 -51 -20.5s-36.667 6.66699 -50 20s-20 30.333 -20 51c0 20 6.66699 37 20 51s30 21 50 21s37 -7 51 -21zM87 0v700h117v-700h-117z" />
    <glyph glyph-name="Eth" unicode="&#xd0;" horiz-adv-x="847" 
d="M621.5 657c55.667 -28.667 98.667 -69.5 129 -122.5s45.5 -114.5 45.5 -184.5s-15.167 -131.5 -45.5 -184.5s-73.333 -93.833 -129 -122.5s-120.167 -43 -193.5 -43h-278v300h-98v106h98v294h278c73.333 0 137.833 -14.333 193.5 -43zM266 300v-190.001h162
c79.333 0 140.166 21.833 182.499 65.5s63.5 101.834 63.5 174.501c0 73.333 -21.167 131.833 -63.5 175.5s-103.166 65.5 -182.499 65.5h-162v-185h185v-106h-185z" />
    <glyph glyph-name="Ntilde" unicode="&#xd1;" horiz-adv-x="785" 
d="M260.5 881c19.667 10 42.5029 15.001 68.5029 15.001c17.333 0 32.166 -2 44.499 -6s26.833 -9.66699 43.5 -17c17.333 -9.33301 31.666 -14 42.999 -14c10.667 0 21 2.66699 31 8s21 14 33 26l59 -62c-16.667 -22 -35 -38 -55 -48s-42.667 -15 -68 -15
c-18 0 -33.5 2.16699 -46.5 6.5s-26.5 10.166 -40.5 17.499c-2 1.33301 -7.66699 4 -17 8s-18.333 6 -27 6c-10.667 0 -20.834 -2.83301 -30.501 -8.5s-20.834 -14.5 -33.501 -26.5l-59 62c16.667 22 34.834 38 54.501 48zM589.003 0.000976562l-384 504l-1 -504h-117v700
h109l385 -504v504h118v-700h-110z" />
    <glyph glyph-name="Ograve" unicode="&#xd2;" horiz-adv-x="832" 
d="M391 912l103 -156h-105l-130 156h132zM604 665c55.333 -31.333 98.666 -74.5 129.999 -129.5s47 -116.833 47 -185.5s-15.667 -130.5 -47 -185.5s-74.666 -98.167 -129.999 -129.5s-118 -47 -188 -47s-132.667 15.667 -188 47s-98.666 74.5 -129.999 129.5
s-47 116.833 -47 185.5s15.667 130.5 47 185.5s74.666 98.167 129.999 129.5s118 47 188 47s132.667 -15.667 188 -47zM291.5 567.5c-37 -21 -66 -50.333 -87 -88s-31.5 -80.834 -31.5 -129.501s10.5 -91.834 31.5 -129.501s50 -67 87 -88s78.5 -31.5 124.5 -31.5
s87.5 10.5 124.5 31.5s66 50.333 87 88s31.5 80.834 31.5 129.501s-10.5 91.834 -31.5 129.501s-50 67 -87 88s-78.5 31.5 -124.5 31.5s-87.5 -10.5 -124.5 -31.5z" />
    <glyph glyph-name="Oacute" unicode="&#xd3;" horiz-adv-x="832" 
d="M435 912h132l-130 -156h-105zM604 665c55.333 -31.333 98.666 -74.5 129.999 -129.5s47 -116.833 47 -185.5s-15.667 -130.5 -47 -185.5s-74.666 -98.167 -129.999 -129.5s-118 -47 -188 -47s-132.667 15.667 -188 47s-98.666 74.5 -129.999 129.5s-47 116.833 -47 185.5
s15.667 130.5 47 185.5s74.666 98.167 129.999 129.5s118 47 188 47s132.667 -15.667 188 -47zM291.5 567.5c-37 -21 -66 -50.333 -87 -88s-31.5 -80.834 -31.5 -129.501s10.5 -91.834 31.5 -129.501s50 -67 87 -88s78.5 -31.5 124.5 -31.5s87.5 10.5 124.5 31.5
s66 50.333 87 88s31.5 80.834 31.5 129.501s-10.5 91.834 -31.5 129.501s-50 67 -87 88s-78.5 31.5 -124.5 31.5s-87.5 -10.5 -124.5 -31.5z" />
    <glyph glyph-name="Ocircumflex" unicode="&#xd4;" horiz-adv-x="832" 
d="M416 838l-72 -85h-108l113 154h134l114 -154h-109zM604 665c55.333 -31.333 98.666 -74.5 129.999 -129.5s47 -116.833 47 -185.5s-15.667 -130.5 -47 -185.5s-74.666 -98.167 -129.999 -129.5s-118 -47 -188 -47s-132.667 15.667 -188 47s-98.666 74.5 -129.999 129.5
s-47 116.833 -47 185.5s15.667 130.5 47 185.5s74.666 98.167 129.999 129.5s118 47 188 47s132.667 -15.667 188 -47zM291.5 567.5c-37 -21 -66 -50.333 -87 -88s-31.5 -80.834 -31.5 -129.501s10.5 -91.834 31.5 -129.501s50 -67 87 -88s78.5 -31.5 124.5 -31.5
s87.5 10.5 124.5 31.5s66 50.333 87 88s31.5 80.834 31.5 129.501s-10.5 91.834 -31.5 129.501s-50 67 -87 88s-78.5 31.5 -124.5 31.5s-87.5 -10.5 -124.5 -31.5z" />
    <glyph glyph-name="Otilde" unicode="&#xd5;" horiz-adv-x="832" 
d="M282.5 881c19.667 10 42.498 15.001 68.498 15.001c18 0 33.667 -2 47 -6s26.666 -9.66699 39.999 -17c2 -1.33301 7.66699 -4 17 -8s18.333 -6 27 -6c10.667 0 20.834 2.66699 30.501 8s20.834 14 33.501 26l59 -62c-16.667 -22 -35 -38 -55 -48s-42.667 -15 -68 -15
c-18 0 -33.5 2.16699 -46.5 6.5s-26.5 10.166 -40.5 17.499c-2 1.33301 -7.66699 4 -17 8s-18.333 6 -27 6c-10.667 0 -21 -2.83301 -31 -8.5s-21 -14.5 -33 -26.5l-59 62c16.667 22 34.834 38 54.501 48zM603.998 665.001c55.333 -31.333 98.666 -74.5 129.999 -129.5
s47 -116.833 47 -185.5s-15.667 -130.5 -47 -185.5s-74.666 -98.167 -129.999 -129.5s-118 -47 -188 -47s-132.667 15.667 -188 47s-98.666 74.5 -129.999 129.5s-47 116.833 -47 185.5s15.667 130.5 47 185.5s74.666 98.167 129.999 129.5s118 47 188 47
s132.667 -15.667 188 -47zM291.498 567.501c-37 -21 -66 -50.333 -87 -88s-31.5 -80.834 -31.5 -129.501s10.5 -91.834 31.5 -129.501s50 -67 87 -88s78.5 -31.5 124.5 -31.5s87.5 10.5 124.5 31.5s66 50.333 87 88s31.5 80.834 31.5 129.501s-10.5 91.834 -31.5 129.501
s-50 67 -87 88s-78.5 31.5 -124.5 31.5s-87.5 -10.5 -124.5 -31.5z" />
    <glyph glyph-name="Odieresis" unicode="&#xd6;" horiz-adv-x="832" 
d="M360.5 881c13.667 -14 20.5 -31 20.5 -51c0 -20.667 -6.83301 -37.667 -20.5 -51s-30.5 -20 -50.5 -20s-36.833 6.66699 -50.5 20s-20.5 30.333 -20.5 51c0 20 6.83301 37 20.5 51s30.5 21 50.5 21s36.833 -7 50.5 -21zM573 881c14 -14 21 -31 21 -51
s-7 -36.833 -21 -50.5s-31 -20.5 -51 -20.5s-36.833 6.66699 -50.5 20s-20.5 30.333 -20.5 51c0 20 6.83301 37 20.5 51s30.5 21 50.5 21s37 -7 51 -21zM604 665c55.333 -31.333 98.666 -74.5 129.999 -129.5s47 -116.833 47 -185.5s-15.667 -130.5 -47 -185.5
s-74.666 -98.167 -129.999 -129.5s-118 -47 -188 -47s-132.667 15.667 -188 47s-98.666 74.5 -129.999 129.5s-47 116.833 -47 185.5s15.667 130.5 47 185.5s74.666 98.167 129.999 129.5s118 47 188 47s132.667 -15.667 188 -47zM291.5 567.5c-37 -21 -66 -50.333 -87 -88
s-31.5 -80.834 -31.5 -129.501s10.5 -91.834 31.5 -129.501s50 -67 87 -88s78.5 -31.5 124.5 -31.5s87.5 10.5 124.5 31.5s66 50.333 87 88s31.5 80.834 31.5 129.501s-10.5 91.834 -31.5 129.501s-50 67 -87 88s-78.5 31.5 -124.5 31.5s-87.5 -10.5 -124.5 -31.5z" />
    <glyph glyph-name="multiply" unicode="&#xd7;" 
d="M232 264l-143 143l70 69l142 -142l142 141l67 -67l-142 -142l143 -142l-69 -69l-143 142l-141 -141l-68 68z" />
    <glyph glyph-name="Oslash" unicode="&#xd8;" horiz-adv-x="832" 
d="M638 642l69 70.001l71 -72l-67 -68c46.667 -62 70 -136 70 -222c0 -68.667 -15.667 -130.5 -47 -185.5s-74.666 -98.167 -129.999 -129.5s-118 -47 -188 -47c-42 0 -81.667 6 -119 18s-71.333 29 -102 51l-67 -68l-72 71l66 67c-47.333 63.333 -71 137.666 -71 222.999
c0 68.667 15.667 130.5 47 185.5s74.666 98.167 129.999 129.5s118 47 188 47c86 0 160 -23.333 222 -70zM291.5 567.501c-37 -21 -66 -50.333 -87 -88s-31.5 -80.834 -31.5 -129.501c0 -51.333 12.333 -96.666 37 -135.999l344 344c-40 27.333 -86 41 -138 41
c-46 0 -87.5 -10.5 -124.5 -31.5zM623 485.001l-344.001 -344.001c38.667 -26.667 84.334 -40 137.001 -40c46 0 87.5 10.5 124.5 31.5s66 50.333 87 88s31.5 80.834 31.5 129.501c0 50.667 -12 95.667 -36 135z" />
    <glyph glyph-name="Ugrave" unicode="&#xd9;" horiz-adv-x="749" 
d="M349 912l104 -156h-106l-130 156h132zM633 119c-25.333 -43.333 -60.333 -76 -105 -98s-96 -33 -154 -33s-109.333 11 -154 33s-79.5 54.667 -104.5 98s-37.5 96.333 -37.5 159v422h118v-416c0 -60.667 16 -106.334 48 -137.001s75.333 -46 130 -46
c55.333 0 99 15.333 131 46s48 76.334 48 137.001v416h118v-422c0 -62.667 -12.667 -115.667 -38 -159z" />
    <glyph glyph-name="Uacute" unicode="&#xda;" horiz-adv-x="749" 
d="M393 912h132l-130 -156h-104zM633 119c-25.333 -43.333 -60.333 -76 -105 -98s-96 -33 -154 -33s-109.333 11 -154 33s-79.5 54.667 -104.5 98s-37.5 96.333 -37.5 159v422h118v-416c0 -60.667 16 -106.334 48 -137.001s75.333 -46 130 -46c55.333 0 99 15.333 131 46
s48 76.334 48 137.001v416h118v-422c0 -62.667 -12.667 -115.667 -38 -159z" />
    <glyph glyph-name="Ucircumflex" unicode="&#xdb;" horiz-adv-x="749" 
d="M374 838l-72 -85h-107l113 154h133l114 -154h-108zM633 119c-25.333 -43.333 -60.333 -76 -105 -98s-96 -33 -154 -33s-109.333 11 -154 33s-79.5 54.667 -104.5 98s-37.5 96.333 -37.5 159v422h118v-416c0 -60.667 16 -106.334 48 -137.001s75.333 -46 130 -46
c55.333 0 99 15.333 131 46s48 76.334 48 137.001v416h118v-422c0 -62.667 -12.667 -115.667 -38 -159z" />
    <glyph glyph-name="Udieresis" unicode="&#xdc;" horiz-adv-x="749" 
d="M319 881c14 -14 21 -31 21 -51s-7 -36.833 -21 -50.5s-31 -20.5 -51 -20.5s-36.833 6.66699 -50.5 20s-20.5 30.333 -20.5 51c0 20 6.83301 37 20.5 51s30.5 21 50.5 21s37 -7 51 -21zM531.5 881c13.667 -14 20.5 -31 20.5 -51c0 -20.667 -6.83301 -37.667 -20.5 -51
s-30.834 -20 -51.501 -20c-20 0 -36.667 6.66699 -50 20s-20 30.333 -20 51c0 20 6.66699 37 20 51s30 21 50 21c20.667 0 37.834 -7 51.501 -21zM633 119c-25.333 -43.333 -60.333 -76 -105 -98s-96 -33 -154 -33s-109.333 11 -154 33s-79.5 54.667 -104.5 98
s-37.5 96.333 -37.5 159v422h118v-416c0 -60.667 16 -106.334 48 -137.001s75.333 -46 130 -46c55.333 0 99 15.333 131 46s48 76.334 48 137.001v416h118v-422c0 -62.667 -12.667 -115.667 -38 -159z" />
    <glyph glyph-name="Yacute" unicode="&#xdd;" horiz-adv-x="667" 
d="M355 912h132l-130 -156h-106zM393 0h-116v284l-273 416h138l194 -310l193 310h134l-270 -417v-283z" />
    <glyph glyph-name="Thorn" unicode="&#xde;" horiz-adv-x="662" 
d="M365 576c80.667 0 143 -19.5 187 -58.5s66 -92.5 66 -160.5c0 -67.333 -22 -120.333 -66 -159s-106 -58 -186 -58h-162v-140h-117v700h117v-124h161zM204 248h159c44 0 77.5 9.16699 100.5 27.5s34.5 45.5 34.5 81.5c0 73.333 -45 110 -135 110h-159v-219z" />
    <glyph glyph-name="germandbls" unicode="&#xdf;" horiz-adv-x="614" 
d="M96.5 618.5c17 34.333 43.667 61.8311 80 82.498s81.833 31 136.5 31c46 0 87.167 -8.66699 123.5 -26s64.5 -41.166 84.5 -71.499s30 -64.5 30 -102.5c0 -41.333 -10.167 -76.666 -30.5 -105.999s-46.5 -49.666 -78.5 -60.999c36.667 -10 67.5 -30.5 92.5 -61.5
s37.5 -66.5 37.5 -106.5c0 -42 -9.5 -78.833 -28.5 -110.5s-45.333 -56 -79 -73s-71.5 -25.5 -113.5 -25.5c-43.333 0 -80 6 -110 18l17 94c24 -9.33301 49.333 -14 76 -14c39.333 0 70.166 10 92.499 30s33.5 48.333 33.5 85c0 38 -13.167 66.167 -39.5 84.5
s-62.833 27.5 -109.5 27.5h-24v95h11c42.667 0 77 8.5 103 25.5s39 45.167 39 84.5c0 36 -12.167 63.667 -36.5 83s-55.166 29 -92.499 29c-40.667 0 -72.667 -11.833 -96 -35.5s-35 -55.167 -35 -94.5v-500h-109v505c0 41.333 8.5 79.166 25.5 113.499z" />
    <glyph glyph-name="agrave" unicode="&#xe0;" horiz-adv-x="616" 
d="M280 706l103 -156h-105l-130 156h132zM434 0v65c-37.333 -51.333 -89.333 -77 -156 -77c-44 0 -83.833 11 -119.5 33s-63.834 52.333 -84.501 91s-31 81.667 -31 129c0 46.667 10.333 89.167 31 127.5s48.834 68.5 84.501 90.5s75.5 33 119.5 33
c67.333 0 119.333 -25.333 156 -76v65h108v-481h-108zM194 347c-26 -28.667 -38.999 -63.999 -38.999 -105.999s13.167 -77.5 39.5 -106.5s60.166 -43.5 101.499 -43.5c42 0 76.167 14.167 102.5 42.5s39.5 64.166 39.5 107.499c0 42.667 -13.167 78.167 -39.5 106.5
s-60.5 42.5 -102.5 42.5s-76 -14.333 -102 -43z" />
    <glyph glyph-name="aacute" unicode="&#xe1;" horiz-adv-x="616" 
d="M331 706h132l-130 -156h-105zM434 0v65c-37.333 -51.333 -89.333 -77 -156 -77c-44 0 -83.833 11 -119.5 33s-63.834 52.333 -84.501 91s-31 81.667 -31 129c0 46.667 10.333 89.167 31 127.5s48.834 68.5 84.501 90.5s75.5 33 119.5 33
c67.333 0 119.333 -25.333 156 -76v65h108v-481h-108zM194 347c-26 -28.667 -38.999 -63.999 -38.999 -105.999s13.167 -77.5 39.5 -106.5s60.166 -43.5 101.499 -43.5c42 0 76.167 14.167 102.5 42.5s39.5 64.166 39.5 107.499c0 42.667 -13.167 78.167 -39.5 106.5
s-60.5 42.5 -102.5 42.5s-76 -14.333 -102 -43z" />
    <glyph glyph-name="acircumflex" unicode="&#xe2;" horiz-adv-x="616" 
d="M307 632l-72 -84h-108l113 153h135l113 -153h-109zM434 0v65c-37.333 -51.333 -89.333 -77 -156 -77c-44 0 -83.833 11 -119.5 33s-63.834 52.333 -84.501 91s-31 81.667 -31 129c0 46.667 10.333 89.167 31 127.5s48.834 68.5 84.501 90.5s75.5 33 119.5 33
c67.333 0 119.333 -25.333 156 -76v65h108v-481h-108zM194 347c-26 -28.667 -38.999 -63.999 -38.999 -105.999s13.167 -77.5 39.5 -106.5s60.166 -43.5 101.499 -43.5c42 0 76.167 14.167 102.5 42.5s39.5 64.166 39.5 107.499c0 42.667 -13.167 78.167 -39.5 106.5
s-60.5 42.5 -102.5 42.5s-76 -14.333 -102 -43z" />
    <glyph glyph-name="atilde" unicode="&#xe3;" horiz-adv-x="616" 
d="M175 675c20 10 42.667 15.001 68 15.001c18 0 33.667 -2 47 -6s26.666 -9.66699 39.999 -17c2 -1.33301 7.66699 -4 17 -8s18.333 -6 27 -6c10.667 0 20.834 2.83301 30.501 8.5s20.834 14.5 33.501 26.5l59 -62c-16.667 -22.667 -34.834 -39 -54.501 -49
s-42.5 -15 -68.5 -15c-18 0 -33.5 2.16699 -46.5 6.5s-26.5 10.166 -40.5 17.499c-2 1.33301 -7.66699 4 -17 8s-18.333 6 -27 6c-11.333 0 -22 -2.83301 -32 -8.5s-20.667 -14.5 -32 -26.5l-59 63c16.667 21.333 35 37 55 47zM434 0.000976562v65
c-37.333 -51.333 -89.333 -77 -156 -77c-44 0 -83.833 11 -119.5 33s-63.834 52.333 -84.501 91s-31 81.667 -31 129c0 46.667 10.333 89.167 31 127.5s48.834 68.5 84.501 90.5s75.5 33 119.5 33c67.333 0 119.333 -25.333 156 -76v65h108v-481h-108zM194 347.001
c-26 -28.667 -38.999 -63.999 -38.999 -105.999s13.167 -77.5 39.5 -106.5s60.166 -43.5 101.499 -43.5c42 0 76.167 14.167 102.5 42.5s39.5 64.166 39.5 107.499c0 42.667 -13.167 78.167 -39.5 106.5s-60.5 42.5 -102.5 42.5s-76 -14.333 -102 -43z" />
    <glyph glyph-name="adieresis" unicode="&#xe4;" horiz-adv-x="616" 
d="M251 675c14 -14 21 -31 21 -51s-7 -36.833 -21 -50.5s-31 -20.5 -51 -20.5s-36.833 6.83301 -50.5 20.5s-20.5 30.5 -20.5 50.5s6.83301 37 20.5 51s30.5 21 50.5 21s37 -7 51 -21zM463 675c14 -14 21 -31 21 -51s-7 -36.833 -21 -50.5s-31 -20.5 -51 -20.5
s-36.833 6.83301 -50.5 20.5s-20.5 30.5 -20.5 50.5s6.83301 37 20.5 51s30.5 21 50.5 21s37 -7 51 -21zM434 0v65c-37.333 -51.333 -89.333 -77 -156 -77c-44 0 -83.833 11 -119.5 33s-63.834 52.333 -84.501 91s-31 81.667 -31 129c0 46.667 10.333 89.167 31 127.5
s48.834 68.5 84.501 90.5s75.5 33 119.5 33c67.333 0 119.333 -25.333 156 -76v65h108v-481h-108zM194 347c-26 -28.667 -38.999 -63.999 -38.999 -105.999s13.167 -77.5 39.5 -106.5s60.166 -43.5 101.499 -43.5c42 0 76.167 14.167 102.5 42.5s39.5 64.166 39.5 107.499
c0 42.667 -13.167 78.167 -39.5 106.5s-60.5 42.5 -102.5 42.5s-76 -14.333 -102 -43z" />
    <glyph glyph-name="aring" unicode="&#xe5;" horiz-adv-x="616" 
d="M245.5 553.5c-19 11 -34.167 25.833 -45.5 44.5s-17 39 -17 61c0 34 12.167 63 36.5 87s53.5 36 87.5 36c34.667 0 64.167 -12 88.5 -36s36.5 -53 36.5 -87c0 -22 -5.66699 -42.333 -17 -61s-26.5 -33.5 -45.5 -44.5s-39.833 -16.5 -62.5 -16.5
c-22 0 -42.5 5.5 -61.5 16.5zM348 618c11.333 11.333 17 25 17 41c0 16.667 -5.66699 30.667 -17 42s-25 17 -41 17c-15.333 0 -28.666 -5.66699 -39.999 -17s-17 -25.333 -17 -42c0 -16 5.66699 -29.667 17 -41s24.666 -17 39.999 -17c16 0 29.667 5.66699 41 17zM434 0v65
c-37.333 -51.333 -89.333 -77 -156 -77c-44 0 -83.833 11 -119.5 33s-63.834 52.333 -84.501 91s-31 81.667 -31 129c0 46.667 10.333 89.167 31 127.5s48.834 68.5 84.501 90.5s75.5 33 119.5 33c67.333 0 119.333 -25.333 156 -76v65h108v-481h-108zM194 347
c-26 -28.667 -38.999 -63.999 -38.999 -105.999s13.167 -77.5 39.5 -106.5s60.166 -43.5 101.499 -43.5c42 0 76.167 14.167 102.5 42.5s39.5 64.166 39.5 107.499c0 42.667 -13.167 78.167 -39.5 106.5s-60.5 42.5 -102.5 42.5s-76 -14.333 -102 -43z" />
    <glyph glyph-name="ae" unicode="&#xe6;" horiz-adv-x="884" 
d="M731.5 460.5c34.333 -21 61.332 -50.5039 80.999 -88.5039s29.5 -81.333 29.5 -130c0 -16 -1 -28.667 -3 -38h-357c6 -39.333 21.667 -69.333 47 -90s56.333 -31 93 -31c24 0 47.667 4.66699 71 14s44.333 22 63 38l62 -71c-53.333 -50.667 -121 -76 -203 -76
c-39.333 0 -75.5 7.16699 -108.5 21.5s-60.5 34.833 -82.5 61.5c-51.333 -55.333 -115.666 -83 -192.999 -83c-58.667 0 -104.667 13.833 -138 41.5s-50 63.834 -50 108.501s17.667 79.834 53 105.501s84.333 38.5 147 38.5h126c-3.33301 76 -43.333 114 -120 114
c-25.333 0 -49.666 -4.5 -72.999 -13.5s-44.333 -20.167 -63 -33.5l-42 85c25.333 18.667 54.666 33 87.999 43s68.333 15 105 15c41.333 0 76.5 -7.16699 105.5 -21.5s50.833 -35.166 65.5 -62.499c19.333 26.667 44.5 47.334 75.5 62.001s65.167 22 102.5 22
c44.667 0 84.167 -10.5 118.5 -31.5zM523.499 365.996c-22.333 -20.667 -36.167 -49.334 -41.5 -86.001h250c-5.33301 36.667 -19 65.334 -41 86.001s-49.333 31 -82 31c-34.667 0 -63.167 -10.333 -85.5 -31zM322.498 95.9961c24.333 11.333 44.835 27.001 61.502 47.001
c-6.66699 18 -11 38.667 -13 62h-112c-34.667 0 -60.334 -5.83301 -77.001 -17.5s-25 -26.834 -25 -45.501c0 -18 7.83301 -33 23.5 -45s38.167 -18 67.5 -18c25.333 0 50.166 5.66699 74.499 17z" />
    <glyph glyph-name="ccedilla" unicode="&#xe7;" horiz-adv-x="516" 
d="M402.5 469.5c32.333 -15 59.5029 -36.165 81.5029 -63.498l-77 -67c-16.667 17.333 -34.167 30.166 -52.5 38.499s-38.833 12.5 -61.5 12.5c-25.333 0 -48.5 -6.33301 -69.5 -19s-37.667 -30.334 -50 -53.001s-18.5 -48.334 -18.5 -77.001c0 -44 13.167 -80 39.5 -108
s59.166 -42 98.499 -42c44 0 82.333 17.333 115 52l76 -68c-17.333 -22 -38.333 -40 -63 -54s-51.667 -23.333 -81 -28l-48 -154h-107l52 156c-58.667 12 -105.667 40.333 -141 85s-53 98.334 -53 161.001c0 48 10.667 91 32 129s51.166 67.833 89.499 89.5
s82.166 32.5 131.499 32.5c38.667 0 74.167 -7.5 106.5 -22.5z" />
    <glyph glyph-name="egrave" unicode="&#xe8;" horiz-adv-x="558" 
d="M256 706l103 -156h-105l-130 156h132zM404.5 460.5c35 -21 62.3311 -50.498 81.998 -88.498s29.5 -81.333 29.5 -130c0 -13.333 -0.666992 -26 -2 -38h-358c6 -39.333 21.667 -69.333 47 -90s56.666 -31 93.999 -31c24 0 47.333 4.5 70 13.5s43.334 21.833 62.001 38.5
l64 -71c-53.333 -50.667 -121 -76 -203 -76c-48 0 -90.667 10.5 -128 31.5s-66.5 50.5 -87.5 88.5s-31.5 81.667 -31.5 131s10.333 93.166 31 131.499s49.334 68.166 86.001 89.499s78.334 32 125.001 32c44.667 0 84.5 -10.5 119.5 -31.5zM197.998 366.002
c-22 -20.667 -35.665 -49 -40.998 -85h248c-4.66699 36 -17.834 64.333 -39.501 85s-48.834 31 -81.501 31c-35.333 0 -64 -10.333 -86 -31z" />
    <glyph glyph-name="eacute" unicode="&#xe9;" horiz-adv-x="558" 
d="M308 706h132l-131 -156h-105zM404.5 460.5c35 -21 62.3311 -50.498 81.998 -88.498s29.5 -81.333 29.5 -130c0 -13.333 -0.666992 -26 -2 -38h-358c6 -39.333 21.667 -69.333 47 -90s56.666 -31 93.999 -31c24 0 47.333 4.5 70 13.5s43.334 21.833 62.001 38.5l64 -71
c-53.333 -50.667 -121 -76 -203 -76c-48 0 -90.667 10.5 -128 31.5s-66.5 50.5 -87.5 88.5s-31.5 81.667 -31.5 131s10.333 93.166 31 131.499s49.334 68.166 86.001 89.499s78.334 32 125.001 32c44.667 0 84.5 -10.5 119.5 -31.5zM197.998 366.002
c-22 -20.667 -35.665 -49 -40.998 -85h248c-4.66699 36 -17.834 64.333 -39.501 85s-48.834 31 -81.501 31c-35.333 0 -64 -10.333 -86 -31z" />
    <glyph glyph-name="ecircumflex" unicode="&#xea;" horiz-adv-x="558" 
d="M283 632l-72 -84h-108l114 153h133l113 -153h-107zM404.5 460.5c35 -21 62.3311 -50.498 81.998 -88.498s29.5 -81.333 29.5 -130c0 -13.333 -0.666992 -26 -2 -38h-358c6 -39.333 21.667 -69.333 47 -90s56.666 -31 93.999 -31c24 0 47.333 4.5 70 13.5
s43.334 21.833 62.001 38.5l64 -71c-53.333 -50.667 -121 -76 -203 -76c-48 0 -90.667 10.5 -128 31.5s-66.5 50.5 -87.5 88.5s-31.5 81.667 -31.5 131s10.333 93.166 31 131.499s49.334 68.166 86.001 89.499s78.334 32 125.001 32c44.667 0 84.5 -10.5 119.5 -31.5z
M197.998 366.002c-22 -20.667 -35.665 -49 -40.998 -85h248c-4.66699 36 -17.834 64.333 -39.501 85s-48.834 31 -81.501 31c-35.333 0 -64 -10.333 -86 -31z" />
    <glyph glyph-name="edieresis" unicode="&#xeb;" horiz-adv-x="558" 
d="M227 675c14 -14 21 -31 21 -51s-7 -36.833 -21 -50.5s-31 -20.5 -51 -20.5s-36.833 6.83301 -50.5 20.5s-20.5 30.5 -20.5 50.5s6.83301 37 20.5 51s30.5 21 50.5 21s37 -7 51 -21zM439.5 675c13.667 -14 20.5 -31 20.5 -51s-6.83301 -36.833 -20.5 -50.5
s-30.5 -20.5 -50.5 -20.5s-36.833 6.83301 -50.5 20.5s-20.5 30.5 -20.5 50.5s6.83301 37 20.5 51s30.5 21 50.5 21s36.833 -7 50.5 -21zM404.5 460.5c35 -21 62.3311 -50.498 81.998 -88.498s29.5 -81.333 29.5 -130c0 -13.333 -0.666992 -26 -2 -38h-358
c6 -39.333 21.667 -69.333 47 -90s56.666 -31 93.999 -31c24 0 47.333 4.5 70 13.5s43.334 21.833 62.001 38.5l64 -71c-53.333 -50.667 -121 -76 -203 -76c-48 0 -90.667 10.5 -128 31.5s-66.5 50.5 -87.5 88.5s-31.5 81.667 -31.5 131s10.333 93.166 31 131.499
s49.334 68.166 86.001 89.499s78.334 32 125.001 32c44.667 0 84.5 -10.5 119.5 -31.5zM197.998 366.002c-22 -20.667 -35.665 -49 -40.998 -85h248c-4.66699 36 -17.834 64.333 -39.501 85s-48.834 31 -81.501 31c-35.333 0 -64 -10.333 -86 -31z" />
    <glyph glyph-name="igrave" unicode="&#xec;" horiz-adv-x="260" 
d="M102 706l104 -156h-106l-130 156h132zM75 0v481h109v-481h-109z" />
    <glyph glyph-name="iacute" unicode="&#xed;" horiz-adv-x="260" 
d="M154 706h132l-130 -156h-105zM75 0v481h109v-481h-109z" />
    <glyph glyph-name="icircumflex" unicode="&#xee;" horiz-adv-x="260" 
d="M130 632l-72 -84h-109l114 153h134l113 -153h-108zM75 0v481h109v-481h-109z" />
    <glyph glyph-name="idieresis" unicode="&#xef;" horiz-adv-x="260" 
d="M73.5 675c13.667 -14 20.5 -31 20.5 -51s-6.83301 -36.833 -20.5 -50.5s-30.5 -20.5 -50.5 -20.5c-20.667 0 -37.834 6.83301 -51.501 20.5s-20.5 30.5 -20.5 50.5s6.83301 37 20.5 51s30.834 21 51.501 21c20 0 36.833 -7 50.5 -21zM286 675c14 -14 21 -31 21 -51
s-7 -36.833 -21 -50.5s-31 -20.5 -51 -20.5s-36.833 6.83301 -50.5 20.5s-20.5 30.5 -20.5 50.5s6.83301 37 20.5 51s30.5 21 50.5 21s37 -7 51 -21zM75 0v481h109v-481h-109z" />
    <glyph glyph-name="eth" unicode="&#xf0;" horiz-adv-x="596" 
d="M383 611c55.333 -49.333 97.666 -106.333 126.999 -171s44 -130.334 44 -197.001c0 -48 -11 -91.333 -33 -130s-52.5 -69.167 -91.5 -91.5s-82.5 -33.5 -130.5 -33.5s-91.5 10.667 -130.5 32s-69.667 50.5 -92 87.5s-33.5 78.167 -33.5 123.5s10.333 86.333 31 123
s48.667 65.5 84 86.5s74.666 31.5 117.999 31.5c26.667 0 51.834 -4.5 75.501 -13.5s44.167 -22.167 61.5 -39.5c-25.333 50 -64.666 96.333 -117.999 139l-118 -71l-37 59l89 55c-23.333 14.667 -53.333 30.334 -90 47.001l56 79c49.333 -20.667 92.333 -44 129 -70l105 65
l38 -60zM196 334c-27.333 -26.667 -41 -61 -41 -103s13.667 -76.5 41 -103.5s61.666 -40.5 102.999 -40.5c42 0 76.833 13.5 104.5 40.5s41.5 61.5 41.5 103.5s-13.833 76.333 -41.5 103s-62.5 40 -104.5 40c-41.333 0 -75.666 -13.333 -102.999 -40z" />
    <glyph glyph-name="ntilde" unicode="&#xf1;" horiz-adv-x="593" 
d="M172 675c20 10 42.666 15 67.999 15c18 0 33.333 -2 46 -6s26.667 -9.66699 42 -17c17.333 -9.33301 31.333 -14 42 -14c11.333 0 22 2.83301 32 8.5s20.667 14.5 32 26.5l60 -62c-16.667 -22 -35 -38.167 -55 -48.5s-43 -15.5 -69 -15.5c-17.333 0 -32.166 2 -44.499 6
s-26.166 9.66699 -41.499 17c-18.667 10 -33.334 15 -44.001 15s-21 -2.83301 -31 -8.5s-21 -14.5 -33 -26.5l-59 63c16.667 21.333 35 37 55 47zM430.999 468.5c28.667 -15.667 51.167 -37.833 67.5 -66.5s24.5 -61.667 24.5 -99v-303h-110v268
c0 38.667 -9.66699 68.5 -29 89.5s-46.333 31.5 -81 31.5c-34 0 -62.333 -10.833 -85 -32.5s-34 -51.5 -34 -89.5v-267h-109v481h107v-64c16.667 26 38.167 45 64.5 57s54.833 18 85.5 18c37.333 0 70.333 -7.83301 99 -23.5z" />
    <glyph glyph-name="ograve" unicode="&#xf2;" 
d="M272 706l103 -156h-104l-131 156h132zM431 459.5c39.333 -21.667 70.166 -51.667 92.499 -90s33.5 -81.166 33.5 -128.499s-11.167 -90.333 -33.5 -129s-53.166 -69 -92.499 -91s-83.333 -33 -132 -33c-48 0 -91.5 11 -130.5 33s-69.667 52.333 -92 91
s-33.5 81.667 -33.5 129s11.167 90.166 33.5 128.499s53 68.333 92 90s82.5 32.5 130.5 32.5c48.667 0 92.667 -10.833 132 -32.5zM196 348c-27.333 -28 -41 -63.667 -41 -107c0 -44 13.667 -80 41 -108s61.666 -42 102.999 -42c42 0 76.833 14 104.5 42s41.5 64 41.5 108
c0 43.333 -13.833 79 -41.5 107s-62.5 42 -104.5 42c-41.333 0 -75.666 -14 -102.999 -42z" />
    <glyph glyph-name="oacute" unicode="&#xf3;" 
d="M324 706h132l-130 -156h-106zM431 459.5c39.333 -21.667 70.166 -51.667 92.499 -90s33.5 -81.166 33.5 -128.499s-11.167 -90.333 -33.5 -129s-53.166 -69 -92.499 -91s-83.333 -33 -132 -33c-48 0 -91.5 11 -130.5 33s-69.667 52.333 -92 91s-33.5 81.667 -33.5 129
s11.167 90.166 33.5 128.499s53 68.333 92 90s82.5 32.5 130.5 32.5c48.667 0 92.667 -10.833 132 -32.5zM196 348c-27.333 -28 -41 -63.667 -41 -107c0 -44 13.667 -80 41 -108s61.666 -42 102.999 -42c42 0 76.833 14 104.5 42s41.5 64 41.5 108
c0 43.333 -13.833 79 -41.5 107s-62.5 42 -104.5 42c-41.333 0 -75.666 -14 -102.999 -42z" />
    <glyph glyph-name="ocircumflex" unicode="&#xf4;" 
d="M299 632l-72 -84h-107l113 153h134l113 -153h-108zM431 459.5c39.333 -21.667 70.166 -51.667 92.499 -90s33.5 -81.166 33.5 -128.499s-11.167 -90.333 -33.5 -129s-53.166 -69 -92.499 -91s-83.333 -33 -132 -33c-48 0 -91.5 11 -130.5 33s-69.667 52.333 -92 91
s-33.5 81.667 -33.5 129s11.167 90.166 33.5 128.499s53 68.333 92 90s82.5 32.5 130.5 32.5c48.667 0 92.667 -10.833 132 -32.5zM196 348c-27.333 -28 -41 -63.667 -41 -107c0 -44 13.667 -80 41 -108s61.666 -42 102.999 -42c42 0 76.833 14 104.5 42s41.5 64 41.5 108
c0 43.333 -13.833 79 -41.5 107s-62.5 42 -104.5 42c-41.333 0 -75.666 -14 -102.999 -42z" />
    <glyph glyph-name="otilde" unicode="&#xf5;" 
d="M167 675c20 10 42.6699 15 68.0029 15c17.333 0 32.166 -2 44.499 -6s26.833 -9.66699 43.5 -17c17.333 -9.33301 31.666 -14 42.999 -14c10.667 0 21 2.83301 31 8.5s21 14.5 33 26.5l60 -62c-17.333 -22.667 -36 -39 -56 -49s-42.667 -15 -68 -15
c-17.333 0 -32 2 -44 6s-26.333 9.66699 -43 17c-18.667 10 -33.334 15 -44.001 15s-21 -2.83301 -31 -8.5s-21 -14.5 -33 -26.5l-59 63c16.667 21.333 35 37 55 47zM431.003 459.5c39.333 -21.667 70.166 -51.667 92.499 -90s33.5 -81.166 33.5 -128.499
s-11.167 -90.333 -33.5 -129s-53.166 -69 -92.499 -91s-83.333 -33 -132 -33c-48 0 -91.5 11 -130.5 33s-69.667 52.333 -92 91s-33.5 81.667 -33.5 129s11.167 90.166 33.5 128.499s53 68.333 92 90s82.5 32.5 130.5 32.5c48.667 0 92.667 -10.833 132 -32.5zM196.003 348
c-27.333 -28 -41 -63.667 -41 -107c0 -44 13.667 -80 41 -108s61.666 -42 102.999 -42c42 0 76.833 14 104.5 42s41.5 64 41.5 108c0 43.333 -13.833 79 -41.5 107s-62.5 42 -104.5 42c-41.333 0 -75.666 -14 -102.999 -42z" />
    <glyph glyph-name="odieresis" unicode="&#xf6;" 
d="M243.5 675c13.667 -14 20.5 -31 20.5 -51s-6.83301 -36.833 -20.5 -50.5s-30.834 -20.5 -51.501 -20.5c-20 0 -36.833 6.83301 -50.5 20.5s-20.5 30.5 -20.5 50.5s6.83301 37 20.5 51s30.5 21 50.5 21c20.667 0 37.834 -7 51.501 -21zM456 675c14 -14 21 -31 21 -51
s-7 -36.833 -21 -50.5s-31 -20.5 -51 -20.5s-36.833 6.83301 -50.5 20.5s-20.5 30.5 -20.5 50.5s6.83301 37 20.5 51s30.5 21 50.5 21s37 -7 51 -21zM431 459.5c39.333 -21.667 70.166 -51.667 92.499 -90s33.5 -81.166 33.5 -128.499s-11.167 -90.333 -33.5 -129
s-53.166 -69 -92.499 -91s-83.333 -33 -132 -33c-48 0 -91.5 11 -130.5 33s-69.667 52.333 -92 91s-33.5 81.667 -33.5 129s11.167 90.166 33.5 128.499s53 68.333 92 90s82.5 32.5 130.5 32.5c48.667 0 92.667 -10.833 132 -32.5zM196 348
c-27.333 -28 -41 -63.667 -41 -107c0 -44 13.667 -80 41 -108s61.666 -42 102.999 -42c42 0 76.833 14 104.5 42s41.5 64 41.5 108c0 43.333 -13.833 79 -41.5 107s-62.5 42 -104.5 42c-41.333 0 -75.666 -14 -102.999 -42z" />
    <glyph glyph-name="divide" unicode="&#xf7;" 
d="M349.5 488.5c13.667 -13.667 20.5 -29.834 20.5 -48.501s-6.83301 -35 -20.5 -49s-29.834 -21 -48.501 -21s-35 7 -49 21s-21 30.333 -21 49s7 34.834 21 48.501s30.333 20.5 49 20.5s34.834 -6.83301 48.501 -20.5zM75 222v94h450v-94h-450zM349.5 148
c13.667 -14 20.5 -30.333 20.5 -49s-6.83301 -35 -20.5 -49s-29.834 -21 -48.501 -21s-35 7 -49 21s-21 30.333 -21 49c0 19.333 7 35.833 21 49.5s30.333 20.5 49 20.5s34.834 -7 48.501 -21z" />
    <glyph glyph-name="oslash" unicode="&#xf8;" 
d="M446 449l52.998 53.001l64 -62l-52 -52c30.667 -43.333 46 -92.333 46 -147c0 -47.333 -11.167 -90.333 -33.5 -129s-53.166 -69 -92.499 -91s-83 -33 -131 -33c-54 0 -102.667 14.333 -146 43l-53 -53l-63 63l51 52c-30.667 42 -46 91.333 -46 148
c0 47.333 11.167 90.166 33.5 128.499s53 68.333 92 90s82.833 32.5 131.5 32.5c56.667 0 105.334 -14.333 146.001 -43zM194.998 349.501c-28 -28.333 -42.001 -64.5 -42.001 -108.5c0 -26.667 5.66699 -50.667 17 -72l203 203c-21.333 13.333 -45.666 20 -72.999 20
c-42 0 -77 -14.167 -105 -42.5zM429.997 312.001l-202.999 -203.001c21.333 -13.333 45.666 -20 72.999 -20c28 0 53.167 6.5 75.5 19.5s40 31 53 54s19.5 49.167 19.5 78.5c0 24.667 -6 48.334 -18 71.001z" />
    <glyph glyph-name="ugrave" unicode="&#xf9;" horiz-adv-x="589" 
d="M268 706l103 -156h-105l-130 156h132zM488.5 84.5c-20.333 -32.333 -47.333 -56.5 -81 -72.5s-71.167 -24 -112.5 -24s-79 8 -113 24s-61 40.167 -81 72.5s-30 72.166 -30 119.499v277h109v-268c0 -40.667 10.5 -71.167 31.5 -91.5s48.833 -30.5 83.5 -30.5
s62.5 10.167 83.5 30.5s31.5 50.833 31.5 91.5v268h109v-277c0 -47.333 -10.167 -87.166 -30.5 -119.499z" />
    <glyph glyph-name="uacute" unicode="&#xfa;" horiz-adv-x="589" 
d="M319 706h132l-130 -156h-105zM488.5 84.5c-20.333 -32.333 -47.333 -56.5 -81 -72.5s-71.167 -24 -112.5 -24s-79 8 -113 24s-61 40.167 -81 72.5s-30 72.166 -30 119.499v277h109v-268c0 -40.667 10.5 -71.167 31.5 -91.5s48.833 -30.5 83.5 -30.5
s62.5 10.167 83.5 30.5s31.5 50.833 31.5 91.5v268h109v-277c0 -47.333 -10.167 -87.166 -30.5 -119.499z" />
    <glyph glyph-name="ucircumflex" unicode="&#xfb;" horiz-adv-x="589" 
d="M295 632l-72 -84h-108l113 153h134l113 -153h-107zM488.5 84.5c-20.333 -32.333 -47.333 -56.5 -81 -72.5s-71.167 -24 -112.5 -24s-79 8 -113 24s-61 40.167 -81 72.5s-30 72.166 -30 119.499v277h109v-268c0 -40.667 10.5 -71.167 31.5 -91.5s48.833 -30.5 83.5 -30.5
s62.5 10.167 83.5 30.5s31.5 50.833 31.5 91.5v268h109v-277c0 -47.333 -10.167 -87.166 -30.5 -119.499z" />
    <glyph glyph-name="udieresis" unicode="&#xfc;" horiz-adv-x="589" 
d="M238.5 675c13.667 -14 20.5 -31 20.5 -51s-6.83301 -36.833 -20.5 -50.5s-30.5 -20.5 -50.5 -20.5c-20.667 0 -37.667 6.83301 -51 20.5s-20 30.5 -20 50.5s6.83301 37 20.5 51s30.5 21 50.5 21s36.833 -7 50.5 -21zM451.5 675c13.667 -14 20.5 -31 20.5 -51
s-6.83301 -36.833 -20.5 -50.5s-30.834 -20.5 -51.501 -20.5c-20 0 -36.833 6.83301 -50.5 20.5s-20.5 30.5 -20.5 50.5s6.83301 37 20.5 51s30.5 21 50.5 21c20.667 0 37.834 -7 51.501 -21zM488.5 84.5c-20.333 -32.333 -47.333 -56.5 -81 -72.5s-71.167 -24 -112.5 -24
s-79 8 -113 24s-61 40.167 -81 72.5s-30 72.166 -30 119.499v277h109v-268c0 -40.667 10.5 -71.167 31.5 -91.5s48.833 -30.5 83.5 -30.5s62.5 10.167 83.5 30.5s31.5 50.833 31.5 91.5v268h109v-277c0 -47.333 -10.167 -87.166 -30.5 -119.499z" />
    <glyph glyph-name="yacute" unicode="&#xfd;" horiz-adv-x="550" 
d="M302 706h132l-130 -156h-104zM48 -202l173 306l-213 377h124l150 -266l142 266h121l-377 -683h-120z" />
    <glyph glyph-name="thorn" unicode="&#xfe;" horiz-adv-x="617" 
d="M458.5 459c35.667 -22 63.835 -52.167 84.502 -90.5s31 -80.833 31 -127.5c0 -47.333 -10.333 -90.333 -31 -129s-48.834 -69 -84.501 -91s-75.5 -33 -119.5 -33c-64.667 0 -116.334 24.333 -155.001 73v-261h-109v920h109v-300c38 48 89.667 72 155 72
c44 0 83.833 -11 119.5 -33zM218.001 347.5c-26.667 -28.333 -40 -63.835 -40 -106.502c0 -43.333 13.333 -79.166 40 -107.499s60.667 -42.5 102 -42.5c42 0 76.167 14.333 102.5 43s39.5 64.334 39.5 107.001c0 42 -13.167 77.333 -39.5 106s-60.5 43 -102.5 43
c-41.333 0 -75.333 -14.167 -102 -42.5z" />
    <glyph glyph-name="ydieresis" unicode="&#xff;" horiz-adv-x="550" 
d="M222 675c14 -14 21 -31 21 -51s-7 -36.833 -21 -50.5s-31 -20.5 -51 -20.5s-36.667 6.83301 -50 20.5s-20 30.5 -20 50.5s6.66699 37 20 51s30 21 50 21s37 -7 51 -21zM434.5 675c13.667 -14 20.5 -31 20.5 -51s-6.83301 -36.833 -20.5 -50.5
s-30.834 -20.5 -51.501 -20.5c-20 0 -36.833 6.83301 -50.5 20.5s-20.5 30.5 -20.5 50.5s6.83301 37 20.5 51s30.5 21 50.5 21c20.667 0 37.834 -7 51.501 -21zM48 -202l173 306l-213 377h124l150 -266l142 266h121l-377 -683h-120z" />
    <glyph glyph-name="Amacron" unicode="&#x100;" horiz-adv-x="727" 
d="M523 873v-87h-319v87h319zM589 0l-68 175h-318l-68 -175h-121l278 700h143l279 -700h-125zM479 284l-117 301l-118 -301h235z" />
    <glyph glyph-name="amacron" unicode="&#x101;" horiz-adv-x="616" 
d="M467 668v-88h-320v88h320zM434 0v65c-37.333 -51.333 -89.333 -77 -156 -77c-44 0 -83.833 11 -119.5 33s-63.834 52.333 -84.501 91s-31 81.667 -31 129c0 46.667 10.333 89.167 31 127.5s48.834 68.5 84.501 90.5s75.5 33 119.5 33c67.333 0 119.333 -25.333 156 -76
v65h108v-481h-108zM194 347c-26 -28.667 -38.999 -63.999 -38.999 -105.999s13.167 -77.5 39.5 -106.5s60.166 -43.5 101.499 -43.5c42 0 76.167 14.167 102.5 42.5s39.5 64.166 39.5 107.499c0 42.667 -13.167 78.167 -39.5 106.5s-60.5 42.5 -102.5 42.5
s-76 -14.333 -102 -43z" />
    <glyph glyph-name="Abreve" unicode="&#x102;" horiz-adv-x="727" 
d="M363 837c49.333 0 82.333 29 99 87l85 -24c-13.333 -49.333 -35.833 -87 -67.5 -113s-70.5 -39 -116.5 -39c-45.333 0 -83.833 13.167 -115.5 39.5s-54.167 63.833 -67.5 112.5l84 24c18 -58 51 -87 99 -87zM589 0l-68 175h-318l-68 -175h-121l278 700h143l279 -700h-125
zM479 284l-117 301l-118 -301h235z" />
    <glyph glyph-name="abreve" unicode="&#x103;" horiz-adv-x="616" 
d="M307 631c48 0 81 29 99 87l84 -24c-12.667 -48.667 -35 -86.167 -67 -112.5s-70.667 -39.5 -116 -39.5s-84 13.167 -116 39.5s-54.333 63.833 -67 112.5l84 24c18 -58 51 -87 99 -87zM434 0v65c-37.333 -51.333 -89.333 -77 -156 -77c-44 0 -83.833 11 -119.5 33
s-63.834 52.333 -84.501 91s-31 81.667 -31 129c0 46.667 10.333 89.167 31 127.5s48.834 68.5 84.501 90.5s75.5 33 119.5 33c67.333 0 119.333 -25.333 156 -76v65h108v-481h-108zM194 347c-26 -28.667 -38.999 -63.999 -38.999 -105.999s13.167 -77.5 39.5 -106.5
s60.166 -43.5 101.499 -43.5c42 0 76.167 14.167 102.5 42.5s39.5 64.166 39.5 107.499c0 42.667 -13.167 78.167 -39.5 106.5s-60.5 42.5 -102.5 42.5s-76 -14.333 -102 -43z" />
    <glyph glyph-name="Aogonek" unicode="&#x104;" horiz-adv-x="727" 
d="M603 -209c-34 0 -62.168 8.66895 -84.501 26.002s-33.5 40.333 -33.5 69c0 24 8.66699 45.667 26 65s42.333 37.666 75 54.999l-65 169h-318l-68 -175h-121l278 700h143l279 -700h-40c-61.333 -28.667 -92 -58 -92 -88c0 -10.667 3.16699 -18.834 9.5 -24.501
s14.833 -8.5 25.5 -8.5c14.667 0 29 7 43 21l55 -65c-31.333 -29.333 -68.666 -44 -111.999 -44zM478.999 284.002l-117 301l-118 -301h235z" />
    <glyph glyph-name="aogonek" unicode="&#x105;" horiz-adv-x="616" 
d="M459 -209c-34 0 -62 8.66699 -84 26s-33 40.333 -33 69c0 23.333 7.83301 44.333 23.5 63s38.5 36.334 68.5 53.001v63c-37.333 -51.333 -89.333 -77 -156 -77c-44 0 -83.833 11 -119.5 33s-63.834 52.333 -84.501 91s-31 81.667 -31 129
c0 46.667 10.333 89.167 31 127.5s48.834 68.5 84.501 90.5s75.5 33 119.5 33c67.333 0 119.333 -25.333 156 -76v65h108v-481c-37.333 -15.333 -64 -29.5 -80 -42.5s-24 -28.167 -24 -45.5c0 -10.667 3.16699 -18.834 9.5 -24.501s14.833 -8.5 25.5 -8.5
c15.333 0 30 7 44 21l54 -65c-30.667 -29.333 -68 -44 -112 -44zM194 347c-26 -28.667 -38.999 -63.999 -38.999 -105.999s13.167 -77.5 39.5 -106.5s60.166 -43.5 101.499 -43.5c42 0 76.167 14.167 102.5 42.5s39.5 64.166 39.5 107.499
c0 42.667 -13.167 78.167 -39.5 106.5s-60.5 42.5 -102.5 42.5s-76 -14.333 -102 -43z" />
    <glyph glyph-name="Cacute" unicode="&#x106;" horiz-adv-x="758" 
d="M432 912h132l-130 -156h-105zM590 671c52.667 -27.333 92.999 -64.998 120.999 -112.998l-100 -62c-21.333 32.667 -48.833 58 -82.5 76s-71.167 27 -112.5 27c-46 0 -87.5 -10.5 -124.5 -31.5s-66 -50.333 -87 -88s-31.5 -80.834 -31.5 -129.501
c0 -49.333 10.667 -92.833 32 -130.5s50.5 -66.834 87.5 -87.501s78.167 -31 123.5 -31c40.667 0 78 9 112 27s62 43.333 84 76l95 -69c-31.333 -46 -72.166 -82 -122.499 -108s-106.5 -39 -168.5 -39c-70 0 -132.667 15.5 -188 46.5s-98.666 74 -129.999 129
s-47 117.167 -47 186.5s15.667 131.5 47 186.5s74.666 98 129.999 129s118 46.5 188 46.5c63.333 0 121.333 -13.667 174 -41z" />
    <glyph glyph-name="cacute" unicode="&#x107;" horiz-adv-x="516" 
d="M316 706h132l-130 -156h-106zM402.5 469.5c32.333 -15 59.501 -36.1641 81.501 -63.4971l-77 -67c-16.667 17.333 -34.167 30.166 -52.5 38.499s-38.833 12.5 -61.5 12.5c-25.333 0 -48.5 -6.33301 -69.5 -19s-37.667 -30.334 -50 -53.001s-18.5 -48.334 -18.5 -77.001
c0 -44 13.167 -80 39.5 -108s59.166 -42 98.499 -42c44 0 82.333 17.333 115 52l76 -68c-22 -28 -49.167 -49.5 -81.5 -64.5s-67.833 -22.5 -106.5 -22.5c-49.333 0 -93.166 11 -131.499 33s-68.166 52.167 -89.499 90.5s-32 81.5 -32 129.5s10.667 91 32 129
s51.166 67.833 89.499 89.5s82.166 32.5 131.499 32.5c38.667 0 74.167 -7.5 106.5 -22.5z" />
    <glyph glyph-name="Ccircumflex" unicode="&#x108;" horiz-adv-x="758" 
d="M413 838l-73 -85h-107l113 154h134l113 -154h-108zM590 671c52.667 -27.333 92.999 -64.998 120.999 -112.998l-100 -62c-21.333 32.667 -48.833 58 -82.5 76s-71.167 27 -112.5 27c-46 0 -87.5 -10.5 -124.5 -31.5s-66 -50.333 -87 -88s-31.5 -80.834 -31.5 -129.501
c0 -49.333 10.667 -92.833 32 -130.5s50.5 -66.834 87.5 -87.501s78.167 -31 123.5 -31c40.667 0 78 9 112 27s62 43.333 84 76l95 -69c-31.333 -46 -72.166 -82 -122.499 -108s-106.5 -39 -168.5 -39c-70 0 -132.667 15.5 -188 46.5s-98.666 74 -129.999 129
s-47 117.167 -47 186.5s15.667 131.5 47 186.5s74.666 98 129.999 129s118 46.5 188 46.5c63.333 0 121.333 -13.667 174 -41z" />
    <glyph glyph-name="ccircumflex" unicode="&#x109;" horiz-adv-x="516" 
d="M291 632l-72 -84h-108l114 153h133l114 -153h-108zM402.5 469.5c32.333 -15 59.501 -36.1641 81.501 -63.4971l-77 -67c-16.667 17.333 -34.167 30.166 -52.5 38.499s-38.833 12.5 -61.5 12.5c-25.333 0 -48.5 -6.33301 -69.5 -19s-37.667 -30.334 -50 -53.001
s-18.5 -48.334 -18.5 -77.001c0 -44 13.167 -80 39.5 -108s59.166 -42 98.499 -42c44 0 82.333 17.333 115 52l76 -68c-22 -28 -49.167 -49.5 -81.5 -64.5s-67.833 -22.5 -106.5 -22.5c-49.333 0 -93.166 11 -131.499 33s-68.166 52.167 -89.499 90.5s-32 81.5 -32 129.5
s10.667 91 32 129s51.166 67.833 89.499 89.5s82.166 32.5 131.499 32.5c38.667 0 74.167 -7.5 106.5 -22.5z" />
    <glyph glyph-name="Cdotaccent" unicode="&#x10a;" horiz-adv-x="758" 
d="M455.5 886c14.333 -14.667 21.5 -32.667 21.5 -54c0 -20.667 -7 -38.167 -21 -52.5s-31.667 -21.5 -53 -21.5c-20.667 0 -38.167 7.16699 -52.5 21.5s-21.5 31.833 -21.5 52.5c0 21.333 7.16699 39.333 21.5 54s31.833 22 52.5 22s38.167 -7.33301 52.5 -22zM590 671
c52.667 -27.333 92.999 -64.998 120.999 -112.998l-100 -62c-21.333 32.667 -48.833 58 -82.5 76s-71.167 27 -112.5 27c-46 0 -87.5 -10.5 -124.5 -31.5s-66 -50.333 -87 -88s-31.5 -80.834 -31.5 -129.501c0 -49.333 10.667 -92.833 32 -130.5s50.5 -66.834 87.5 -87.501
s78.167 -31 123.5 -31c40.667 0 78 9 112 27s62 43.333 84 76l95 -69c-31.333 -46 -72.166 -82 -122.499 -108s-106.5 -39 -168.5 -39c-70 0 -132.667 15.5 -188 46.5s-98.666 74 -129.999 129s-47 117.167 -47 186.5s15.667 131.5 47 186.5s74.666 98 129.999 129
s118 46.5 188 46.5c63.333 0 121.333 -13.667 174 -41z" />
    <glyph glyph-name="cdotaccent" unicode="&#x10b;" horiz-adv-x="516" 
d="M341.5 693c13.667 -14 20.5 -31 20.5 -51s-6.83301 -36.833 -20.5 -50.5s-30.5 -20.5 -50.5 -20.5s-36.833 6.83301 -50.5 20.5s-20.5 30.5 -20.5 50.5s6.83301 37 20.5 51s30.5 21 50.5 21s36.833 -7 50.5 -21zM402.5 469.5c32.333 -15 59.501 -36.1641 81.501 -63.4971
l-77 -67c-16.667 17.333 -34.167 30.166 -52.5 38.499s-38.833 12.5 -61.5 12.5c-25.333 0 -48.5 -6.33301 -69.5 -19s-37.667 -30.334 -50 -53.001s-18.5 -48.334 -18.5 -77.001c0 -44 13.167 -80 39.5 -108s59.166 -42 98.499 -42c44 0 82.333 17.333 115 52l76 -68
c-22 -28 -49.167 -49.5 -81.5 -64.5s-67.833 -22.5 -106.5 -22.5c-49.333 0 -93.166 11 -131.499 33s-68.166 52.167 -89.499 90.5s-32 81.5 -32 129.5s10.667 91 32 129s51.166 67.833 89.499 89.5s82.166 32.5 131.499 32.5c38.667 0 74.167 -7.5 106.5 -22.5z" />
    <glyph glyph-name="Ccaron" unicode="&#x10c;" horiz-adv-x="758" 
d="M413 822l72 84h108l-113 -153h-134l-113 153h107zM590 671c52.667 -27.333 92.999 -64.998 120.999 -112.998l-100 -62c-21.333 32.667 -48.833 58 -82.5 76s-71.167 27 -112.5 27c-46 0 -87.5 -10.5 -124.5 -31.5s-66 -50.333 -87 -88s-31.5 -80.834 -31.5 -129.501
c0 -49.333 10.667 -92.833 32 -130.5s50.5 -66.834 87.5 -87.501s78.167 -31 123.5 -31c40.667 0 78 9 112 27s62 43.333 84 76l95 -69c-31.333 -46 -72.166 -82 -122.499 -108s-106.5 -39 -168.5 -39c-70 0 -132.667 15.5 -188 46.5s-98.666 74 -129.999 129
s-47 117.167 -47 186.5s15.667 131.5 47 186.5s74.666 98 129.999 129s118 46.5 188 46.5c63.333 0 121.333 -13.667 174 -41z" />
    <glyph glyph-name="ccaron" unicode="&#x10d;" horiz-adv-x="516" 
d="M291 616l73 84h108l-114 -153h-133l-114 153h108zM402.5 469.5c32.333 -15 59.501 -36.1641 81.501 -63.4971l-77 -67c-16.667 17.333 -34.167 30.166 -52.5 38.499s-38.833 12.5 -61.5 12.5c-25.333 0 -48.5 -6.33301 -69.5 -19s-37.667 -30.334 -50 -53.001
s-18.5 -48.334 -18.5 -77.001c0 -44 13.167 -80 39.5 -108s59.166 -42 98.499 -42c44 0 82.333 17.333 115 52l76 -68c-22 -28 -49.167 -49.5 -81.5 -64.5s-67.833 -22.5 -106.5 -22.5c-49.333 0 -93.166 11 -131.499 33s-68.166 52.167 -89.499 90.5s-32 81.5 -32 129.5
s10.667 91 32 129s51.166 67.833 89.499 89.5s82.166 32.5 131.499 32.5c38.667 0 74.167 -7.5 106.5 -22.5z" />
    <glyph glyph-name="Dcaron" unicode="&#x10e;" horiz-adv-x="785" 
d="M364 822l73 84h107l-113 -153h-134l-113 153h108zM559.5 657c55.667 -28.667 98.667 -69.5 129 -122.5s45.5 -114.5 45.5 -184.5s-15.167 -131.5 -45.5 -184.5s-73.333 -93.833 -129 -122.5s-120.167 -43 -193.5 -43h-279v700h279c73.333 0 137.833 -14.333 193.5 -43z
M204 110l161 -0.000976562c79.333 0 140.166 21.833 182.499 65.5s63.5 101.834 63.5 174.501c0 73.333 -21.167 131.833 -63.5 175.5s-103.166 65.5 -182.499 65.5h-161v-481z" />
    <glyph glyph-name="dcaron" unicode="&#x10f;" horiz-adv-x="663" 
d="M433 419v301h109v-720h-108v65c-37.333 -51.333 -89.333 -77 -156 -77c-44 0 -83.833 11 -119.5 33s-63.834 52.333 -84.501 91s-31 81.667 -31 129c0 46.667 10.333 89.167 31 127.5s48.834 68.5 84.501 90.5s75.5 33 119.5 33c66 0 117.667 -24.333 155 -73zM596 720
h108l-22 -208h-88zM194 347c-26 -28.667 -38.999 -63.999 -38.999 -105.999s13.167 -77.5 39.5 -106.5s60.166 -43.5 101.499 -43.5c42 0 76.167 14.167 102.5 42.5s39.5 64.166 39.5 107.499c0 42.667 -13.167 78.167 -39.5 106.5s-60.5 42.5 -102.5 42.5
s-76 -14.333 -102 -43z" />
    <glyph glyph-name="Dcroat" unicode="&#x110;" horiz-adv-x="847" 
d="M621.5 657c55.667 -28.667 98.667 -69.5 129 -122.5s45.5 -114.5 45.5 -184.5s-15.167 -131.5 -45.5 -184.5s-73.333 -93.833 -129 -122.5s-120.167 -43 -193.5 -43h-278v300h-98v106h98v294h278c73.333 0 137.833 -14.333 193.5 -43zM266 300v-190.001h162
c79.333 0 140.166 21.833 182.499 65.5s63.5 101.834 63.5 174.501c0 73.333 -21.167 131.833 -63.5 175.5s-103.166 65.5 -182.499 65.5h-162v-185h185v-106h-185z" />
    <glyph glyph-name="dcroat" unicode="&#x111;" horiz-adv-x="610" 
d="M542 549v-549h-108v65c-37.333 -51.333 -89.333 -77 -156 -77c-44 0 -83.833 11 -119.5 33s-63.834 52.333 -84.501 91s-31 81.667 -31 129c0 46.667 10.333 89.167 31 127.5s48.834 68.5 84.501 90.5s75.5 33 119.5 33c66 0 117.667 -24.333 155 -73v130h-192v93h192v78
h109v-78h65v-93h-65zM194 347c-26 -28.667 -38.999 -63.999 -38.999 -105.999s13.167 -77.5 39.5 -106.5s60.166 -43.5 101.499 -43.5c42 0 76.167 14.167 102.5 42.5s39.5 64.166 39.5 107.499c0 42.667 -13.167 78.167 -39.5 106.5s-60.5 42.5 -102.5 42.5
s-76 -14.333 -102 -43z" />
    <glyph glyph-name="Emacron" unicode="&#x112;" horiz-adv-x="667" 
d="M498 873v-87h-319v87h319zM87 0v700h507v-108h-390v-185h374v-108h-374v-191h394v-108h-511z" />
    <glyph glyph-name="emacron" unicode="&#x113;" horiz-adv-x="558" 
d="M443 668v-88h-319v88h319zM404.5 460.5c35 -21 62.3311 -50.498 81.998 -88.498s29.5 -81.333 29.5 -130c0 -13.333 -0.666992 -26 -2 -38h-358c6 -39.333 21.667 -69.333 47 -90s56.666 -31 93.999 -31c24 0 47.333 4.5 70 13.5s43.334 21.833 62.001 38.5l64 -71
c-53.333 -50.667 -121 -76 -203 -76c-48 0 -90.667 10.5 -128 31.5s-66.5 50.5 -87.5 88.5s-31.5 81.667 -31.5 131s10.333 93.166 31 131.499s49.334 68.166 86.001 89.499s78.334 32 125.001 32c44.667 0 84.5 -10.5 119.5 -31.5zM197.998 366.002
c-22 -20.667 -35.665 -49 -40.998 -85h248c-4.66699 36 -17.834 64.333 -39.501 85s-48.834 31 -81.501 31c-35.333 0 -64 -10.333 -86 -31z" />
    <glyph glyph-name="Ebreve" unicode="&#x114;" horiz-adv-x="667" 
d="M339 837c48 0 81 29 99 87l85 -24c-13.333 -48.667 -36 -86.167 -68 -112.5s-70.667 -39.5 -116 -39.5s-84 13.167 -116 39.5s-54.333 63.833 -67 112.5l84 24c16.667 -58 49.667 -87 99 -87zM87 0v700h507v-108h-390v-185h374v-108h-374v-191h394v-108h-511z" />
    <glyph glyph-name="ebreve" unicode="&#x115;" horiz-adv-x="558" 
d="M283 631c49.333 0 82.333 29 99 87l85 -24c-13.333 -49.333 -35.833 -87 -67.5 -113s-70.5 -39 -116.5 -39c-45.333 0 -84 13.167 -116 39.5s-54.333 63.833 -67 112.5l84 24c18 -58 51 -87 99 -87zM404.5 460.5c35 -21 62.3311 -50.498 81.998 -88.498
s29.5 -81.333 29.5 -130c0 -13.333 -0.666992 -26 -2 -38h-358c6 -39.333 21.667 -69.333 47 -90s56.666 -31 93.999 -31c24 0 47.333 4.5 70 13.5s43.334 21.833 62.001 38.5l64 -71c-53.333 -50.667 -121 -76 -203 -76c-48 0 -90.667 10.5 -128 31.5
s-66.5 50.5 -87.5 88.5s-31.5 81.667 -31.5 131s10.333 93.166 31 131.499s49.334 68.166 86.001 89.499s78.334 32 125.001 32c44.667 0 84.5 -10.5 119.5 -31.5zM197.998 366.002c-22 -20.667 -35.665 -49 -40.998 -85h248c-4.66699 36 -17.834 64.333 -39.501 85
s-48.834 31 -81.501 31c-35.333 0 -64 -10.333 -86 -31z" />
    <glyph glyph-name="Edotaccent" unicode="&#x116;" horiz-adv-x="667" 
d="M382.5 886c14.333 -14.667 21.5 -32.667 21.5 -54c0 -20.667 -7.16699 -38.167 -21.5 -52.5s-31.833 -21.5 -52.5 -21.5c-21.333 0 -39.166 7 -53.499 21s-21.5 31.667 -21.5 53s7.16699 39.333 21.5 54s32.166 22 53.499 22c20.667 0 38.167 -7.33301 52.5 -22zM87 0
v700h507v-108h-390v-185h374v-108h-374v-191h394v-108h-511z" />
    <glyph glyph-name="edotaccent" unicode="&#x117;" horiz-adv-x="558" 
d="M333.5 693c13.667 -14 20.5 -31 20.5 -51s-6.83301 -36.833 -20.5 -50.5s-30.5 -20.5 -50.5 -20.5s-36.833 6.83301 -50.5 20.5s-20.5 30.5 -20.5 50.5s6.83301 37 20.5 51s30.5 21 50.5 21s36.833 -7 50.5 -21zM404.5 460.5c35 -21 62.3311 -50.498 81.998 -88.498
s29.5 -81.333 29.5 -130c0 -13.333 -0.666992 -26 -2 -38h-358c6 -39.333 21.667 -69.333 47 -90s56.666 -31 93.999 -31c24 0 47.333 4.5 70 13.5s43.334 21.833 62.001 38.5l64 -71c-53.333 -50.667 -121 -76 -203 -76c-48 0 -90.667 10.5 -128 31.5
s-66.5 50.5 -87.5 88.5s-31.5 81.667 -31.5 131s10.333 93.166 31 131.499s49.334 68.166 86.001 89.499s78.334 32 125.001 32c44.667 0 84.5 -10.5 119.5 -31.5zM197.998 366.002c-22 -20.667 -35.665 -49 -40.998 -85h248c-4.66699 36 -17.834 64.333 -39.501 85
s-48.834 31 -81.501 31c-35.333 0 -64 -10.333 -86 -31z" />
    <glyph glyph-name="Eogonek" unicode="&#x118;" horiz-adv-x="667" 
d="M508 0c-44.667 -24 -67 -50.332 -67 -78.999c0 -12.667 4.5 -22.834 13.5 -30.501s21.167 -11.5 36.5 -11.5c22.667 0 43 8.33301 61 25l57 -63c-35.333 -33.333 -78.333 -50 -129 -50c-41.333 0 -75 10 -101 30s-39 45.667 -39 77c0 41.333 21.667 75.333 65 102h-318
v700h507v-108h-390v-185h374v-108h-374v-191h394v-108h-90z" />
    <glyph glyph-name="eogonek" unicode="&#x119;" horiz-adv-x="558" 
d="M362 -209c-41.333 0 -75.0039 10.002 -101.004 30.002s-39 45.667 -39 77c0 36 16.667 66.667 50 92c-44 2 -83.5 13.833 -118.5 35.5s-62.167 51 -81.5 88s-29 78.833 -29 125.5c0 49.333 10.333 93.166 31 131.499s49.334 68.166 86.001 89.499s78.334 32 125.001 32
c44.667 0 84.5 -10.5 119.5 -31.5s62.333 -50.5 82 -88.5s29.5 -81.333 29.5 -130c0 -13.333 -0.666992 -26 -2 -38h-358c6 -39.333 21.667 -69.333 47 -90s56.666 -31 93.999 -31c24 0 47.333 4.5 70 13.5s43.334 21.833 62.001 38.5l64 -71
c-27.333 -25.333 -56.333 -43.666 -87 -54.999c-54.667 -26.667 -82 -56 -82 -88c0 -12.667 4.33301 -22.834 13 -30.501s20.667 -11.5 36 -11.5c22.667 0 43.334 8.33301 62.001 25l57 -63c-35.333 -33.333 -78.666 -50 -129.999 -50zM197.996 366.002
c-22 -20.667 -35.665 -49 -40.998 -85h248c-4.66699 36 -17.834 64.333 -39.501 85s-48.834 31 -81.501 31c-35.333 0 -64 -10.333 -86 -31z" />
    <glyph glyph-name="Ecaron" unicode="&#x11a;" horiz-adv-x="667" 
d="M339 822l73 84h107l-113 -153h-134l-113 153h108zM87 0v700h507v-108h-390v-185h374v-108h-374v-191h394v-108h-511z" />
    <glyph glyph-name="ecaron" unicode="&#x11b;" horiz-adv-x="558" 
d="M283 616l73 84h107l-113 -153h-133l-114 153h108zM404.5 460.5c35 -21 62.3311 -50.498 81.998 -88.498s29.5 -81.333 29.5 -130c0 -13.333 -0.666992 -26 -2 -38h-358c6 -39.333 21.667 -69.333 47 -90s56.666 -31 93.999 -31c24 0 47.333 4.5 70 13.5
s43.334 21.833 62.001 38.5l64 -71c-53.333 -50.667 -121 -76 -203 -76c-48 0 -90.667 10.5 -128 31.5s-66.5 50.5 -87.5 88.5s-31.5 81.667 -31.5 131s10.333 93.166 31 131.499s49.334 68.166 86.001 89.499s78.334 32 125.001 32c44.667 0 84.5 -10.5 119.5 -31.5z
M197.998 366.002c-22 -20.667 -35.665 -49 -40.998 -85h248c-4.66699 36 -17.834 64.333 -39.501 85s-48.834 31 -81.501 31c-35.333 0 -64 -10.333 -86 -31z" />
    <glyph glyph-name="Gcircumflex" unicode="&#x11c;" horiz-adv-x="805" 
d="M405 838l-72 -85h-108l113 154h134l113 -154h-107zM568 683c46 -19.333 84.665 -46.6689 115.998 -82.002l-84 -83c-22.667 26 -49.667 46.167 -81 60.5s-66 21.5 -104 21.5c-46 0 -87.333 -10.5 -124 -31.5s-65.5 -50.5 -86.5 -88.5s-31.5 -81.333 -31.5 -130
c0 -50 10.5 -94 31.5 -132s49.667 -67.333 86 -88s76.833 -31 121.5 -31c63.333 0 113.833 16 151.5 48s60.167 77.333 67.5 136h-195v100h317c1.33301 -7.33301 2 -18.333 2 -33c0 -69.333 -14.5 -131.5 -43.5 -186.5s-69.333 -98 -121 -129s-110.5 -46.5 -176.5 -46.5
c-64.667 0 -124.667 14.833 -180 44.5s-99.666 71.834 -132.999 126.501s-50 118.334 -50 191.001c0 69.333 15.833 131.5 47.5 186.5s75.334 98 131.001 129s118.5 46.5 188.5 46.5c54 0 104 -9.66699 150 -29z" />
    <glyph glyph-name="gcircumflex" unicode="&#x11d;" horiz-adv-x="611" 
d="M297 632l-72 -84h-107l113 153h133l114 -153h-108zM362.5 472c27 -13.333 49.1689 -31.998 66.502 -55.998v65h108v-443c0 -77.333 -23.5 -137.833 -70.5 -181.5s-109.5 -65.5 -187.5 -65.5c-39.333 0 -77.5 5.33301 -114.5 16s-68.167 26 -93.5 46l42 87
c48.667 -34 102.667 -51 162 -51c45.333 0 82.166 12.5 110.499 37.5s42.5 60.833 42.5 107.5v43c-18 -24 -40.333 -42.667 -67 -56s-57.334 -20 -92.001 -20c-40.667 0 -78.334 10.5 -113.001 31.5s-62.167 50.167 -82.5 87.5s-30.5 79.666 -30.5 126.999
s10.167 89.666 30.5 126.999s47.833 66.333 82.5 87s72.334 31 113.001 31c35.333 0 66.5 -6.66699 93.5 -20zM194.002 349.502c-25.333 -27.667 -38 -61.832 -38 -102.499s12.667 -75 38 -103s58.666 -42 99.999 -42c40.667 0 74 13.833 100 41.5s39 62.167 39 103.5
s-13 75.666 -39 102.999s-59.333 41 -100 41c-41.333 0 -74.666 -13.833 -99.999 -41.5z" />
    <glyph glyph-name="Gbreve" unicode="&#x11e;" horiz-adv-x="805" 
d="M405 837c48 0 81 29 99 87l85 -24c-13.333 -48.667 -36 -86.167 -68 -112.5s-70.667 -39.5 -116 -39.5s-84 13.167 -116 39.5s-54.333 63.833 -67 112.5l84 24c16.667 -58 49.667 -87 99 -87zM568 683c46 -19.333 84.665 -46.6689 115.998 -82.002l-84 -83
c-22.667 26 -49.667 46.167 -81 60.5s-66 21.5 -104 21.5c-46 0 -87.333 -10.5 -124 -31.5s-65.5 -50.5 -86.5 -88.5s-31.5 -81.333 -31.5 -130c0 -50 10.5 -94 31.5 -132s49.667 -67.333 86 -88s76.833 -31 121.5 -31c63.333 0 113.833 16 151.5 48s60.167 77.333 67.5 136
h-195v100h317c1.33301 -7.33301 2 -18.333 2 -33c0 -69.333 -14.5 -131.5 -43.5 -186.5s-69.333 -98 -121 -129s-110.5 -46.5 -176.5 -46.5c-64.667 0 -124.667 14.833 -180 44.5s-99.666 71.834 -132.999 126.501s-50 118.334 -50 191.001
c0 69.333 15.833 131.5 47.5 186.5s75.334 98 131.001 129s118.5 46.5 188.5 46.5c54 0 104 -9.66699 150 -29z" />
    <glyph glyph-name="gbreve" unicode="&#x11f;" horiz-adv-x="611" 
d="M297 631c49.333 0 82.333 29 99 87l85 -24c-13.333 -49.333 -35.833 -87 -67.5 -113s-70.5 -39 -116.5 -39c-45.333 0 -84 13.167 -116 39.5s-54.333 63.833 -67 112.5l84 24c18 -58 51 -87 99 -87zM362.5 472c27 -13.333 49.1689 -31.998 66.502 -55.998v65h108v-443
c0 -77.333 -23.5 -137.833 -70.5 -181.5s-109.5 -65.5 -187.5 -65.5c-39.333 0 -77.5 5.33301 -114.5 16s-68.167 26 -93.5 46l42 87c48.667 -34 102.667 -51 162 -51c45.333 0 82.166 12.5 110.499 37.5s42.5 60.833 42.5 107.5v43c-18 -24 -40.333 -42.667 -67 -56
s-57.334 -20 -92.001 -20c-40.667 0 -78.334 10.5 -113.001 31.5s-62.167 50.167 -82.5 87.5s-30.5 79.666 -30.5 126.999s10.167 89.666 30.5 126.999s47.833 66.333 82.5 87s72.334 31 113.001 31c35.333 0 66.5 -6.66699 93.5 -20zM194.002 349.502
c-25.333 -27.667 -38 -61.832 -38 -102.499s12.667 -75 38 -103s58.666 -42 99.999 -42c40.667 0 74 13.833 100 41.5s39 62.167 39 103.5s-13 75.666 -39 102.999s-59.333 41 -100 41c-41.333 0 -74.666 -13.833 -99.999 -41.5z" />
    <glyph glyph-name="Gdotaccent" unicode="&#x120;" horiz-adv-x="805" 
d="M448.5 886c14.333 -14.667 21.5 -32.667 21.5 -54c0 -20.667 -7.16699 -38.167 -21.5 -52.5s-31.833 -21.5 -52.5 -21.5c-21.333 0 -39.166 7 -53.499 21s-21.5 31.667 -21.5 53s7.16699 39.333 21.5 54s32.166 22 53.499 22c20.667 0 38.167 -7.33301 52.5 -22zM568 683
c46 -19.333 84.665 -46.6689 115.998 -82.002l-84 -83c-22.667 26 -49.667 46.167 -81 60.5s-66 21.5 -104 21.5c-46 0 -87.333 -10.5 -124 -31.5s-65.5 -50.5 -86.5 -88.5s-31.5 -81.333 -31.5 -130c0 -50 10.5 -94 31.5 -132s49.667 -67.333 86 -88s76.833 -31 121.5 -31
c63.333 0 113.833 16 151.5 48s60.167 77.333 67.5 136h-195v100h317c1.33301 -7.33301 2 -18.333 2 -33c0 -69.333 -14.5 -131.5 -43.5 -186.5s-69.333 -98 -121 -129s-110.5 -46.5 -176.5 -46.5c-64.667 0 -124.667 14.833 -180 44.5s-99.666 71.834 -132.999 126.501
s-50 118.334 -50 191.001c0 69.333 15.833 131.5 47.5 186.5s75.334 98 131.001 129s118.5 46.5 188.5 46.5c54 0 104 -9.66699 150 -29z" />
    <glyph glyph-name="gdotaccent" unicode="&#x121;" horiz-adv-x="611" 
d="M347.5 693c13.667 -14 20.5 -31 20.5 -51s-6.83301 -36.833 -20.5 -50.5s-30.5 -20.5 -50.5 -20.5s-36.833 6.83301 -50.5 20.5s-20.5 30.5 -20.5 50.5s6.83301 37 20.5 51s30.5 21 50.5 21s36.833 -7 50.5 -21zM362.5 472c27 -13.333 49.1689 -31.998 66.502 -55.998v65
h108v-443c0 -77.333 -23.5 -137.833 -70.5 -181.5s-109.5 -65.5 -187.5 -65.5c-39.333 0 -77.5 5.33301 -114.5 16s-68.167 26 -93.5 46l42 87c48.667 -34 102.667 -51 162 -51c45.333 0 82.166 12.5 110.499 37.5s42.5 60.833 42.5 107.5v43
c-18 -24 -40.333 -42.667 -67 -56s-57.334 -20 -92.001 -20c-40.667 0 -78.334 10.5 -113.001 31.5s-62.167 50.167 -82.5 87.5s-30.5 79.666 -30.5 126.999s10.167 89.666 30.5 126.999s47.833 66.333 82.5 87s72.334 31 113.001 31c35.333 0 66.5 -6.66699 93.5 -20z
M194.002 349.502c-25.333 -27.667 -38 -61.832 -38 -102.499s12.667 -75 38 -103s58.666 -42 99.999 -42c40.667 0 74 13.833 100 41.5s39 62.167 39 103.5s-13 75.666 -39 102.999s-59.333 41 -100 41c-41.333 0 -74.666 -13.833 -99.999 -41.5z" />
    <glyph glyph-name="Gcommaaccent" unicode="&#x122;" horiz-adv-x="805" 
d="M568 683c46 -19.333 84.665 -46.6689 115.998 -82.002l-84 -83c-22.667 26 -49.667 46.167 -81 60.5s-66 21.5 -104 21.5c-46 0 -87.333 -10.5 -124 -31.5s-65.5 -50.5 -86.5 -88.5s-31.5 -81.333 -31.5 -130c0 -50 10.5 -94 31.5 -132s49.667 -67.333 86 -88
s76.833 -31 121.5 -31c63.333 0 113.833 16 151.5 48s60.167 77.333 67.5 136h-195v100h317c1.33301 -7.33301 2 -18.333 2 -33c0 -69.333 -14.5 -131.5 -43.5 -186.5s-69.333 -98 -121 -129s-110.5 -46.5 -176.5 -46.5c-64.667 0 -124.667 14.833 -180 44.5
s-99.666 71.834 -132.999 126.501s-50 118.334 -50 191.001c0 69.333 15.833 131.5 47.5 186.5s75.334 98 131.001 129s118.5 46.5 188.5 46.5c54 0 104 -9.66699 150 -29zM425.998 -231.003h-92l22 188h112z" />
    <glyph glyph-name="gcommaaccent" unicode="&#x123;" horiz-adv-x="611" 
d="M281 738h92l-22 -188h-113zM362.5 472c27 -13.333 49.1689 -31.998 66.502 -55.998v65h108v-443c0 -77.333 -23.5 -137.833 -70.5 -181.5s-109.5 -65.5 -187.5 -65.5c-39.333 0 -77.5 5.33301 -114.5 16s-68.167 26 -93.5 46l42 87c48.667 -34 102.667 -51 162 -51
c45.333 0 82.166 12.5 110.499 37.5s42.5 60.833 42.5 107.5v43c-18 -24 -40.333 -42.667 -67 -56s-57.334 -20 -92.001 -20c-40.667 0 -78.334 10.5 -113.001 31.5s-62.167 50.167 -82.5 87.5s-30.5 79.666 -30.5 126.999s10.167 89.666 30.5 126.999
s47.833 66.333 82.5 87s72.334 31 113.001 31c35.333 0 66.5 -6.66699 93.5 -20zM194.002 349.502c-25.333 -27.667 -38 -61.832 -38 -102.499s12.667 -75 38 -103s58.666 -42 99.999 -42c40.667 0 74 13.833 100 41.5s39 62.167 39 103.5s-13 75.666 -39 102.999
s-59.333 41 -100 41c-41.333 0 -74.666 -13.833 -99.999 -41.5z" />
    <glyph glyph-name="Hcircumflex" unicode="&#x124;" horiz-adv-x="777" 
d="M389 838l-72 -85h-108l113 154h134l113 -154h-108zM573 408v292h118v-700h-118v298h-369v-298h-117v700h117v-292h369z" />
    <glyph glyph-name="hcircumflex" unicode="&#x125;" horiz-adv-x="593" 
d="M298 851l-73 -83h-108l113 152h135l113 -152h-108zM248.5 474.5c25.667 11.667 53.5 17.5 83.5 17.5c37.333 0 70.333 -7.83301 99 -23.5s51.167 -37.834 67.5 -66.501s24.5 -61.667 24.5 -99v-303h-110v268c0 38.667 -9.66699 68.5 -29 89.5s-46.333 31.5 -81 31.5
c-34 0 -62.333 -10.833 -85 -32.5s-34 -51.5 -34 -89.5v-267h-109v721h109v-301c17.333 24.667 38.833 42.834 64.5 54.501z" />
    <glyph glyph-name="Hbar" unicode="&#x126;" horiz-adv-x="809" 
d="M706 500v-500h-116v298h-370v-298h-117v500h-77v93h77v107h117v-107h370v107h116v-107h77v-93h-77zM590 500h-370v-92h370v92z" />
    <glyph glyph-name="hbar" unicode="&#x127;" horiz-adv-x="593" 
d="M184 549v-129c17.333 24.667 38.833 42.834 64.5 54.501s53.5 17.5 83.5 17.5c37.333 0 70.333 -7.83301 99 -23.5s51.167 -37.834 67.5 -66.501s24.5 -61.667 24.5 -99v-303h-110v268c0 38.667 -9.66699 68.5 -29 89.5s-46.333 31.5 -81 31.5
c-34 0 -62.333 -10.833 -85 -32.5s-34 -51.5 -34 -89.5v-267h-109v549h-76v93h76v79h109v-79h182v-93h-182z" />
    <glyph glyph-name="Itilde" unicode="&#x128;" horiz-adv-x="291" 
d="M11 881c20 10 43.0049 15 69.0049 15c18 0 32.833 -1.83301 44.5 -5.5s26.167 -9.5 43.5 -17.5c17.333 -9.33301 31.666 -14 42.999 -14s21.833 2.66699 31.5 8s20.5 14 32.5 26l59 -62c-16.667 -22 -34.834 -38 -54.501 -48s-42.5 -15 -68.5 -15c-17.333 0 -32 2 -44 6
s-26.333 9.66699 -43 17c-18.667 10 -33.334 15 -44.001 15s-20.834 -2.83301 -30.501 -8.5s-20.834 -14.5 -33.501 -26.5l-60 62c16.667 22 35 38 55 48zM87.0049 0v700h117v-700h-117z" />
    <glyph glyph-name="itilde" unicode="&#x129;" horiz-adv-x="260" 
d="M-3.5 675c20.333 10 43.1689 15 68.502 15c18 0 32.833 -1.83301 44.5 -5.5s26.167 -9.5 43.5 -17.5c17.333 -9.33301 31.666 -14 42.999 -14s21.833 2.83301 31.5 8.5s20.5 14.5 32.5 26.5l59 -62c-16 -22 -34 -38.167 -54 -48.5s-43 -15.5 -69 -15.5
c-17.333 0 -32 2 -44 6s-26.333 9.66699 -43 17c-18.667 10 -33.334 15 -44.001 15s-21 -2.83301 -31 -8.5s-21 -14.5 -33 -26.5l-60 63c16.667 21.333 35.167 37 55.5 47zM75.0029 0v481h109v-481h-109z" />
    <glyph glyph-name="Imacron" unicode="&#x12a;" horiz-adv-x="291" 
d="M306 873v-87h-321v87h321zM87 0v700h117v-700h-117z" />
    <glyph glyph-name="imacron" unicode="&#x12b;" horiz-adv-x="260" 
d="M290 668v-88h-321v88h321zM75 0v481h109v-481h-109z" />
    <glyph glyph-name="Ibreve" unicode="&#x12c;" horiz-adv-x="291" 
d="M146 837c48 0 81 29 99 87l84 -24c-12.667 -48.667 -35 -86.167 -67 -112.5s-70.667 -39.5 -116 -39.5c-46 0 -85 13.167 -117 39.5s-54.333 63.833 -67 112.5l85 24c16.667 -58 49.667 -87 99 -87zM87 0v700h117v-700h-117z" />
    <glyph glyph-name="ibreve" unicode="&#x12d;" horiz-adv-x="260" 
d="M130 631c48 0 81 29 99 87l84 -24c-12.667 -48.667 -35 -86.167 -67 -112.5s-70.667 -39.5 -116 -39.5c-46 0 -85 13.167 -117 39.5s-54.333 63.833 -67 112.5l85 24c16.667 -58 49.667 -87 99 -87zM75 0v481h109v-481h-109z" />
    <glyph glyph-name="Iogonek" unicode="&#x12e;" horiz-adv-x="291" 
d="M151 -209c-34 0 -62 8.50195 -84 25.502s-33 39.833 -33 68.5c0 22.667 6.33301 43.167 19 61.5s31 36.166 55 53.499h-21v700h117v-700c-27.333 -16 -46.5 -30.333 -57.5 -43s-16.5 -27.667 -16.5 -45c0 -10.667 3.16699 -18.834 9.5 -24.501s14.833 -8.5 25.5 -8.5
c14 0 28.667 7 44 21l54 -65c-30.667 -29.333 -68 -44 -112 -44z" />
    <glyph glyph-name="iogonek" unicode="&#x12f;" horiz-adv-x="260" 
d="M180 693c14 -14 21 -31 21 -51s-7 -36.833 -21 -50.5s-31 -20.5 -51 -20.5s-36.833 6.83301 -50.5 20.5s-20.5 30.5 -20.5 50.5s6.83301 37 20.5 51s30.5 21 50.5 21s37 -7 51 -21zM128.5 -43c-11 -12.667 -16.501 -27.666 -16.501 -44.999
c0 -10.667 3.16699 -18.834 9.5 -24.501s14.833 -8.5 25.5 -8.5c14 0 28.667 7 44 21l54 -65c-31.333 -29.333 -68.666 -44 -111.999 -44c-34 0 -62 8.5 -84 25.5s-33 39.833 -33 68.5c0 22 6.33301 42.333 19 61s31 36.667 55 54h-15v481h109v-481
c-26 -16 -44.5 -30.333 -55.5 -43z" />
    <glyph glyph-name="Idotaccent" unicode="&#x130;" horiz-adv-x="291" 
d="M189.5 886c14.333 -14.667 21.5 -32.667 21.5 -54c0 -20.667 -7.16699 -38.167 -21.5 -52.5s-32.166 -21.5 -53.499 -21.5c-20.667 0 -38.167 7.16699 -52.5 21.5s-21.5 31.833 -21.5 52.5c0 21.333 7.16699 39.333 21.5 54s31.833 22 52.5 22
c21.333 0 39.166 -7.33301 53.499 -22zM87 0v700h117v-700h-117z" />
    <glyph glyph-name="dotlessi" unicode="&#x131;" horiz-adv-x="260" 
d="M75 0v481h109v-481h-109z" />
    <glyph glyph-name="IJ" unicode="&#x132;" horiz-adv-x="858" 
d="M87 0v700h117v-700h-117zM744.5 110c-21 -40 -50.335 -70.333 -88.002 -91s-80.5 -31 -128.5 -31c-51.333 0 -95.166 9.33301 -131.499 28s-66.166 41.667 -89.499 69l70 84c39.333 -45.333 88 -68 146 -68c42.667 0 76 13.833 100 41.5s36 68.5 36 122.5v435h117v-446
c0 -56 -10.5 -104 -31.5 -144z" />
    <glyph glyph-name="ij" unicode="&#x133;" horiz-adv-x="520" 
d="M180 693c14 -14 21 -31 21 -51s-7 -36.833 -21 -50.5s-31 -20.5 -51 -20.5s-36.833 6.83301 -50.5 20.5s-20.5 30.5 -20.5 50.5s6.83301 37 20.5 51s30.5 21 50.5 21s37 -7 51 -21zM440.5 693c13.667 -14 20.5 -31 20.5 -51s-6.83301 -36.833 -20.5 -50.5
s-30.5 -20.5 -50.5 -20.5s-36.833 6.83301 -50.5 20.5s-20.5 30.5 -20.5 50.5s6.83301 37 20.5 51s30.5 21 50.5 21s36.833 -7 50.5 -21zM75 0v481h109v-481h-109zM408.5 -170c-25 -26.667 -58.5029 -40 -100.503 -40c-11.333 0 -23.666 1.33301 -36.999 4
s-24.666 6 -33.999 10l18 96c12.667 -4.66699 25.334 -7 38.001 -7c28.667 0 43 18 43 54v534h110v-539c0 -48 -12.5 -85.333 -37.5 -112z" />
    <glyph glyph-name="Jcircumflex" unicode="&#x134;" horiz-adv-x="568" 
d="M427 838l-72 -85h-108l113 154h134l114 -154h-108zM453.5 110c-21 -40 -50.167 -70.333 -87.5 -91s-80.333 -31 -129 -31c-92 0 -165.333 32.333 -220 97l70 84c38 -45.333 86.333 -68 145 -68c43.333 0 77 13.833 101 41.5s36 68.5 36 122.5v435h116v-446
c0 -56 -10.5 -104 -31.5 -144z" />
    <glyph glyph-name="jcircumflex" unicode="&#x135;" horiz-adv-x="261" 
d="M131 632l-72 -84h-109l114 153h134l113 -153h-107zM149 -170c-24.667 -26.667 -58 -40 -100 -40c-12 0 -24.667 1.33301 -38 4s-24.333 6 -33 10l17 96c14 -4.66699 27 -7 39 -7c28.667 0 43 18 43 54v534h109v-539c0 -48 -12.333 -85.333 -37 -112z" />
    <glyph glyph-name="Kcommaaccent" unicode="&#x136;" horiz-adv-x="704" 
d="M204 298v-298h-117v700h117v-293h74l253 293h148l-307 -342l329 -358h-153l-271 298h-73zM375 -231h-92l22 188h113z" />
    <glyph glyph-name="kcommaaccent" unicode="&#x137;" horiz-adv-x="540" 
d="M239 301l155 180h135l-201 -226l202 -255h-135l-157 203h-54v-203h-109v720h109v-419h55zM303 -231h-91l22 188h112z" />
    <glyph glyph-name="kgreenlandic" unicode="&#x138;" horiz-adv-x="540" 
d="M239 301l155 180h134l-199 -226l201 -255h-135l-157 203h-54v-203h-109v481h109v-180h55z" />
    <glyph glyph-name="Lacute" unicode="&#x139;" horiz-adv-x="604" 
d="M165 912h132l-130 -156h-106zM87 0v700h117v-590h383v-110h-500z" />
    <glyph glyph-name="lacute" unicode="&#x13a;" horiz-adv-x="260" 
d="M139 926h132l-130 -156h-105zM75 0v720h109v-720h-109z" />
    <glyph glyph-name="Lcommaaccent" unicode="&#x13b;" horiz-adv-x="604" 
d="M87 0v700h117v-590h383v-110h-500zM357 -231h-91l22 188h112z" />
    <glyph glyph-name="lcommaaccent" unicode="&#x13c;" horiz-adv-x="260" 
d="M75 0v720h109v-720h-109zM151 -231h-92l22 188h112z" />
    <glyph glyph-name="Lcaron" unicode="&#x13d;" horiz-adv-x="604" 
d="M87 0v700h117v-590h383v-110h-500zM304 700h108l-23 -208h-87z" />
    <glyph glyph-name="lcaron" unicode="&#x13e;" horiz-adv-x="301" 
d="M75 0v720h109v-720h-109zM234 720h108l-23 -208h-87z" />
    <glyph glyph-name="Ldot" unicode="&#x13f;" horiz-adv-x="604" 
d="M87 0v700h117v-590h383v-110h-500zM482.5 409c14.333 -14.667 21.5 -32.334 21.5 -53.001c0 -21.333 -7.16699 -39 -21.5 -53s-32.166 -21 -53.499 -21c-20.667 0 -38.167 7.16699 -52.5 21.5s-21.5 31.833 -21.5 52.5s7.16699 38.334 21.5 53.001s31.833 22 52.5 22
c21.333 0 39.166 -7.33301 53.499 -22z" />
    <glyph glyph-name="ldot" unicode="&#x140;" horiz-adv-x="345" 
d="M75 0v720h109v-720h-109zM356 414.5c13.333 -13.667 20 -30.167 20 -49.5s-6.66699 -35.666 -20 -48.999s-29.666 -20 -48.999 -20s-35.666 6.66699 -48.999 20s-20 29.666 -20 48.999s6.66699 35.833 20 49.5s29.666 20.5 48.999 20.5s35.666 -6.83301 48.999 -20.5z
" />
    <glyph glyph-name="Lslash" unicode="&#x141;" horiz-adv-x="663" 
d="M146 0v228l-94 -52v119l94 51v354h116v-288l238 133v-119l-238 -132v-184h383v-110h-499z" />
    <glyph glyph-name="lslash" unicode="&#x142;" horiz-adv-x="350" 
d="M327 527v-110l-97 -64v-353h-110v282l-97 -65v110l97 65v328h110v-258z" />
    <glyph glyph-name="Nacute" unicode="&#x143;" horiz-adv-x="785" 
d="M413 912h132l-130 -156h-104zM589 0l-384 504l-1 -504h-117v700h109l385 -504v504h118v-700h-110z" />
    <glyph glyph-name="nacute" unicode="&#x144;" horiz-adv-x="593" 
d="M329 706h132l-130 -156h-106zM431 468.5c28.667 -15.667 51.167 -37.833 67.5 -66.5s24.5 -61.667 24.5 -99v-303h-110v268c0 38.667 -9.66699 68.5 -29 89.5s-46.333 31.5 -81 31.5c-34 0 -62.333 -10.833 -85 -32.5s-34 -51.5 -34 -89.5v-267h-109v481h107v-64
c16.667 26 38.167 45 64.5 57s54.833 18 85.5 18c37.333 0 70.333 -7.83301 99 -23.5z" />
    <glyph glyph-name="Ncommaaccent" unicode="&#x145;" horiz-adv-x="785" 
d="M589 0l-384 504l-1 -504h-117v700h109l385 -504v504h118v-700h-110zM415 -231h-91l21 188h113z" />
    <glyph glyph-name="ncommaaccent" unicode="&#x146;" horiz-adv-x="593" 
d="M431 468.5c28.667 -15.667 51.167 -37.833 67.5 -66.5s24.5 -61.667 24.5 -99v-303h-110v268c0 38.667 -9.66699 68.5 -29 89.5s-46.333 31.5 -81 31.5c-34 0 -62.333 -10.833 -85 -32.5s-34 -51.5 -34 -89.5v-267h-109v481h107v-64c16.667 26 38.167 45 64.5 57
s54.833 18 85.5 18c37.333 0 70.333 -7.83301 99 -23.5zM320 -230.999h-92l21 188h113z" />
    <glyph glyph-name="Ncaron" unicode="&#x147;" horiz-adv-x="785" 
d="M394 822l73 84h108l-114 -153h-133l-113 153h107zM589 0l-384 504l-1 -504h-117v700h109l385 -504v504h118v-700h-110z" />
    <glyph glyph-name="ncaron" unicode="&#x148;" horiz-adv-x="593" 
d="M304 616l73 84h108l-114 -153h-133l-113 153h107zM431 468.5c28.667 -15.667 51.167 -37.833 67.5 -66.5s24.5 -61.667 24.5 -99v-303h-110v268c0 38.667 -9.66699 68.5 -29 89.5s-46.333 31.5 -81 31.5c-34 0 -62.333 -10.833 -85 -32.5s-34 -51.5 -34 -89.5v-267h-109
v481h107v-64c16.667 26 38.167 45 64.5 57s54.833 18 85.5 18c37.333 0 70.333 -7.83301 99 -23.5z" />
    <glyph glyph-name="napostrophe" unicode="&#x149;" horiz-adv-x="743" 
d="M143 438h-92l33 282h123zM580.5 468.5c29 -15.667 51.499 -37.833 67.499 -66.5s24 -61.667 24 -99v-303h-109v268c0 38.667 -9.66699 68.5 -29 89.5s-46.666 31.5 -81.999 31.5c-34 0 -62.167 -10.833 -84.5 -32.5s-33.5 -51.5 -33.5 -89.5v-267h-109v481h106v-64
c17.333 26 39 45 65 57s54.333 18 85 18c37.333 0 70.5 -7.83301 99.5 -23.5z" />
    <glyph glyph-name="Eng" unicode="&#x14a;" horiz-adv-x="785" 
d="M652 -156.5c-31.333 -35.667 -76.667 -53.499 -136 -53.499c-53.333 0 -101 11.667 -143 35l43 100c28.667 -16 57 -24 85 -24c27.333 0 47.5 8.16699 60.5 24.5s19.5 39.166 19.5 68.499v16l-376 494l-1 -504h-117v700h109l385 -504v504h118v-713
c0 -60 -15.667 -107.833 -47 -143.5z" />
    <glyph glyph-name="eng" unicode="&#x14b;" horiz-adv-x="593" 
d="M431 468.5c28.667 -15.667 51.167 -37.833 67.5 -66.5s24.5 -61.667 24.5 -99v-327c0 -48 -12.333 -85.167 -37 -111.5s-58.334 -39.5 -101.001 -39.5c-12 0 -24.167 1.16699 -36.5 3.5s-22.833 5.5 -31.5 9.5l15 97c12.667 -5.33301 25.334 -8 38.001 -8
c28.667 0 43 18.333 43 55v286c0 38.667 -9.66699 68.5 -29 89.5s-46.333 31.5 -81 31.5c-34 0 -62.333 -10.833 -85 -32.5s-34 -51.5 -34 -89.5v-267h-109v481h107v-64c16.667 26 38.167 45 64.5 57s54.833 18 85.5 18c37.333 0 70.333 -7.83301 99 -23.5z" />
    <glyph glyph-name="Omacron" unicode="&#x14c;" horiz-adv-x="832" 
d="M576 873v-87h-320v87h320zM604 665c55.333 -31.333 98.666 -74.5 129.999 -129.5s47 -116.833 47 -185.5s-15.667 -130.5 -47 -185.5s-74.666 -98.167 -129.999 -129.5s-118 -47 -188 -47s-132.667 15.667 -188 47s-98.666 74.5 -129.999 129.5s-47 116.833 -47 185.5
s15.667 130.5 47 185.5s74.666 98.167 129.999 129.5s118 47 188 47s132.667 -15.667 188 -47zM291.5 567.5c-37 -21 -66 -50.333 -87 -88s-31.5 -80.834 -31.5 -129.501s10.5 -91.834 31.5 -129.501s50 -67 87 -88s78.5 -31.5 124.5 -31.5s87.5 10.5 124.5 31.5
s66 50.333 87 88s31.5 80.834 31.5 129.501s-10.5 91.834 -31.5 129.501s-50 67 -87 88s-78.5 31.5 -124.5 31.5s-87.5 -10.5 -124.5 -31.5z" />
    <glyph glyph-name="omacron" unicode="&#x14d;" 
d="M459 668v-88h-319v88h319zM431 459.5c39.333 -21.667 70.166 -51.667 92.499 -90s33.5 -81.166 33.5 -128.499s-11.167 -90.333 -33.5 -129s-53.166 -69 -92.499 -91s-83.333 -33 -132 -33c-48 0 -91.5 11 -130.5 33s-69.667 52.333 -92 91s-33.5 81.667 -33.5 129
s11.167 90.166 33.5 128.499s53 68.333 92 90s82.5 32.5 130.5 32.5c48.667 0 92.667 -10.833 132 -32.5zM196 348c-27.333 -28 -41 -63.667 -41 -107c0 -44 13.667 -80 41 -108s61.666 -42 102.999 -42c42 0 76.833 14 104.5 42s41.5 64 41.5 108
c0 43.333 -13.833 79 -41.5 107s-62.5 42 -104.5 42c-41.333 0 -75.666 -14 -102.999 -42z" />
    <glyph glyph-name="Obreve" unicode="&#x14e;" horiz-adv-x="832" 
d="M416 837c48 0 81 29 99 87l84 -24c-12.667 -48.667 -35 -86.167 -67 -112.5s-70.667 -39.5 -116 -39.5s-84 13.167 -116 39.5s-54.333 63.833 -67 112.5l84 24c18 -58 51 -87 99 -87zM604 665c55.333 -31.333 98.666 -74.5 129.999 -129.5s47 -116.833 47 -185.5
s-15.667 -130.5 -47 -185.5s-74.666 -98.167 -129.999 -129.5s-118 -47 -188 -47s-132.667 15.667 -188 47s-98.666 74.5 -129.999 129.5s-47 116.833 -47 185.5s15.667 130.5 47 185.5s74.666 98.167 129.999 129.5s118 47 188 47s132.667 -15.667 188 -47zM291.5 567.5
c-37 -21 -66 -50.333 -87 -88s-31.5 -80.834 -31.5 -129.501s10.5 -91.834 31.5 -129.501s50 -67 87 -88s78.5 -31.5 124.5 -31.5s87.5 10.5 124.5 31.5s66 50.333 87 88s31.5 80.834 31.5 129.501s-10.5 91.834 -31.5 129.501s-50 67 -87 88s-78.5 31.5 -124.5 31.5
s-87.5 -10.5 -124.5 -31.5z" />
    <glyph glyph-name="obreve" unicode="&#x14f;" 
d="M299 631c48.667 0 82 29 100 87l84 -24c-13.333 -49.333 -35.833 -87 -67.5 -113s-70.5 -39 -116.5 -39c-45.333 0 -83.833 13.167 -115.5 39.5s-53.834 63.833 -66.501 112.5l84 24c16.667 -58 49.334 -87 98.001 -87zM431 459.5
c39.333 -21.667 70.166 -51.667 92.499 -90s33.5 -81.166 33.5 -128.499s-11.167 -90.333 -33.5 -129s-53.166 -69 -92.499 -91s-83.333 -33 -132 -33c-48 0 -91.5 11 -130.5 33s-69.667 52.333 -92 91s-33.5 81.667 -33.5 129s11.167 90.166 33.5 128.499s53 68.333 92 90
s82.5 32.5 130.5 32.5c48.667 0 92.667 -10.833 132 -32.5zM196 348c-27.333 -28 -41 -63.667 -41 -107c0 -44 13.667 -80 41 -108s61.666 -42 102.999 -42c42 0 76.833 14 104.5 42s41.5 64 41.5 108c0 43.333 -13.833 79 -41.5 107s-62.5 42 -104.5 42
c-41.333 0 -75.666 -14 -102.999 -42z" />
    <glyph glyph-name="Ohungarumlaut" unicode="&#x150;" horiz-adv-x="832" 
d="M360 912h118l-110 -156h-107zM554 912h120l-123 -156h-107zM604 665c55.333 -31.333 98.666 -74.5 129.999 -129.5s47 -116.833 47 -185.5s-15.667 -130.5 -47 -185.5s-74.666 -98.167 -129.999 -129.5s-118 -47 -188 -47s-132.667 15.667 -188 47
s-98.666 74.5 -129.999 129.5s-47 116.833 -47 185.5s15.667 130.5 47 185.5s74.666 98.167 129.999 129.5s118 47 188 47s132.667 -15.667 188 -47zM291.5 567.5c-37 -21 -66 -50.333 -87 -88s-31.5 -80.834 -31.5 -129.501s10.5 -91.834 31.5 -129.501s50 -67 87 -88
s78.5 -31.5 124.5 -31.5s87.5 10.5 124.5 31.5s66 50.333 87 88s31.5 80.834 31.5 129.501s-10.5 91.834 -31.5 129.501s-50 67 -87 88s-78.5 31.5 -124.5 31.5s-87.5 -10.5 -124.5 -31.5z" />
    <glyph glyph-name="ohungarumlaut" unicode="&#x151;" 
d="M249 706h118l-110 -156h-107zM443 706h120l-123 -156h-107zM431 459.5c39.333 -21.667 70.166 -51.667 92.499 -90s33.5 -81.166 33.5 -128.499s-11.167 -90.333 -33.5 -129s-53.166 -69 -92.499 -91s-83.333 -33 -132 -33c-48 0 -91.5 11 -130.5 33
s-69.667 52.333 -92 91s-33.5 81.667 -33.5 129s11.167 90.166 33.5 128.499s53 68.333 92 90s82.5 32.5 130.5 32.5c48.667 0 92.667 -10.833 132 -32.5zM196 348c-27.333 -28 -41 -63.667 -41 -107c0 -44 13.667 -80 41 -108s61.666 -42 102.999 -42
c42 0 76.833 14 104.5 42s41.5 64 41.5 108c0 43.333 -13.833 79 -41.5 107s-62.5 42 -104.5 42c-41.333 0 -75.666 -14 -102.999 -42z" />
    <glyph glyph-name="OE" unicode="&#x152;" horiz-adv-x="1116" 
d="M419 0c-73.333 0 -137.833 14.333 -193.5 43s-98.667 69.5 -129 122.5s-45.5 114.5 -45.5 184.5s15.167 131.5 45.5 184.5s73.333 93.833 129 122.5s120.167 43 193.5 43h623v-108h-390v-185h375v-108h-375v-191h394v-108h-627zM237 175
c42.667 -43.333 103.667 -65.001 183 -65.001h115v481h-115c-79.333 0 -140.333 -21.833 -183 -65.5s-64 -102.167 -64 -175.5s21.333 -131.666 64 -174.999z" />
    <glyph glyph-name="oe" unicode="&#x153;" horiz-adv-x="960" 
d="M805.5 460.5c35 -21 62.5 -50.499 82.5 -88.499s30 -81.333 30 -130c0 -16 -1 -28.667 -3 -38h-357c6 -39.333 21.667 -69.333 47 -90s56.333 -31 93 -31c24 0 47.667 4.66699 71 14s44.333 22 63 38l63 -71c-54.667 -50.667 -122.667 -76 -204 -76
c-42 0 -79.833 8.83301 -113.5 26.5s-60.5 42.167 -80.5 73.5c-22.667 -31.333 -51.167 -55.833 -85.5 -73.5s-71.833 -26.5 -112.5 -26.5c-48 0 -91.5 11 -130.5 33s-69.667 52.333 -92 91s-33.5 81.667 -33.5 129s11.167 90.166 33.5 128.499s53 68.333 92 90
s82.5 32.5 130.5 32.5c41.333 0 79 -8.66699 113 -26s62.333 -41.666 85 -72.999c20 31.333 46.5 55.666 79.5 72.999s69.5 26 109.5 26c44.667 0 84.5 -10.5 119.5 -31.5zM600 366.001c-22 -20.667 -35.999 -49 -41.999 -85h250c-6 36 -19.833 64.333 -41.5 85
s-48.834 31 -81.501 31c-34.667 0 -63 -10.333 -85 -31zM196.001 348.001c-27.333 -28 -41 -63.667 -41 -107c0 -44 13.667 -80 41 -108s61.666 -42 102.999 -42c42 0 76.833 14 104.5 42s41.5 64 41.5 108c0 43.333 -13.833 79 -41.5 107s-62.5 42 -104.5 42
c-41.333 0 -75.666 -14 -102.999 -42z" />
    <glyph glyph-name="Racute" unicode="&#x154;" horiz-adv-x="677" 
d="M349 912h132l-130 -156h-105zM562 645.5c43.333 -36.333 65.002 -87.5 65.002 -153.5c0 -58 -19.333 -105 -58 -141s-92.334 -56.333 -161.001 -61h-11l229 -290h-142l-220 288h-60v-288h-117v700h288c81.333 0 143.666 -18.167 186.999 -54.5zM204.002 390
l168 0.000976562c44 0 77.333 8.66699 100 26s34 42.666 34 75.999s-11.5 58.333 -34.5 75s-56.167 25 -99.5 25h-168v-202z" />
    <glyph glyph-name="racute" unicode="&#x155;" horiz-adv-x="416" 
d="M258 706h132l-130 -156h-105zM394 480l-17.998 -108.999c-22.667 11.333 -49.334 17 -80.001 17c-33.333 0 -60.333 -10.833 -81 -32.5s-31 -51.834 -31 -90.501v-265h-109v481h106v-61c31.333 48.667 78 73 140 73c27.333 0 51.666 -4.33301 72.999 -13z" />
    <glyph glyph-name="Rcommaaccent" unicode="&#x156;" horiz-adv-x="677" 
d="M562 645.5c43.333 -36.333 65.001 -87.501 65.001 -153.501c0 -57.333 -19.333 -104.166 -58 -140.499s-91.667 -56.833 -159 -61.5h-13l229 -290h-142l-220 288h-60v-288h-117v700h288c81.333 0 143.666 -18.167 186.999 -54.5zM204.001 389.999l168 0.000976562
c44 0 77.333 8.66699 100 26s34 42.666 34 75.999s-11.5 58.333 -34.5 75s-56.167 25 -99.5 25h-168v-202zM356.001 -231h-92l22 188h113z" />
    <glyph glyph-name="rcommaaccent" unicode="&#x157;" horiz-adv-x="416" 
d="M394 480l-17.998 -108.999c-22.667 11.333 -49.334 17 -80.001 17c-33.333 0 -60.333 -10.833 -81 -32.5s-31 -51.834 -31 -90.501v-265h-109v481h106v-61c31.333 48.667 78 73 140 73c27.333 0 51.666 -4.33301 72.999 -13zM151.002 -230.999h-92l22 188h112z" />
    <glyph glyph-name="Rcaron" unicode="&#x158;" horiz-adv-x="677" 
d="M330 822l73 84h108l-114 -153h-133l-114 153h108zM562 645.5c43.333 -36.333 65 -87.5 65 -153.5c0 -57.333 -19.167 -104 -57.5 -140s-91.166 -56.667 -158.499 -62h-14l229 -290h-142l-220 288h-60v-288h-117v700h288c81.333 0 143.666 -18.167 186.999 -54.5zM204 390
l168 0.000976562c44 0 77.333 8.66699 100 26s34 42.666 34 75.999s-11.5 58.333 -34.5 75s-56.167 25 -99.5 25h-168v-202z" />
    <glyph glyph-name="rcaron" unicode="&#x159;" horiz-adv-x="416" 
d="M234 616l73 84h108l-113 -153h-135l-113 153h108zM394 480l-17.998 -108.999c-22.667 11.333 -49.334 17 -80.001 17c-33.333 0 -60.333 -10.833 -81 -32.5s-31 -51.834 -31 -90.501v-265h-109v481h106v-61c31.333 48.667 78 73 140 73
c27.333 0 51.666 -4.33301 72.999 -13z" />
    <glyph glyph-name="Sacute" unicode="&#x15a;" horiz-adv-x="676" 
d="M378 912h132l-130 -156h-105zM352 602c-44.667 0 -81.167 -9 -109.5 -27s-42.5 -42.333 -42.5 -73c0 -26.667 12.833 -47.167 38.5 -61.5s63.834 -24.833 114.501 -31.5l50 -7c146.667 -22.667 220 -86.334 220 -191.001c0 -48 -12.833 -88.833 -38.5 -122.5
s-59.834 -58.834 -102.501 -75.501s-90 -25 -142 -25c-52.667 0 -104.834 8.16699 -156.501 24.5s-95.5 38.5 -131.5 66.5l61 95c28 -22 62 -40.333 102 -55s81.667 -22 125 -22c46.667 0 84.834 9 114.501 27s44.5 42.667 44.5 74c0 26.667 -12.667 47.167 -38 61.5
s-65 25.5 -119 33.5l-54 8c-140.667 19.333 -211 84 -211 194c0 45.333 12.167 84.333 36.5 117s57.333 57.334 99 74.001s87.5 25 137.5 25c49.333 0 95 -6.16699 137 -18.5s84 -31.166 126 -56.499l-57 -96c-62 41.333 -130 62 -204 62z" />
    <glyph glyph-name="sacute" unicode="&#x15b;" horiz-adv-x="501" 
d="M286 706h132l-130 -156h-105zM340.5 388c-28.333 8 -56.165 12.002 -83.498 12.002c-28 0 -49.833 -5 -65.5 -15s-23.5 -23.667 -23.5 -41c0 -14.667 7.33301 -25.834 22 -33.501s36.334 -13.5 65.001 -17.5l48 -7c107.333 -14.667 161 -61 161 -139
c0 -48.667 -19.333 -87.334 -58 -116.001s-91.667 -43 -159 -43c-37.333 0 -74.333 4.66699 -111 14s-69.334 24.333 -98.001 45l44 83c22.667 -15.333 47.167 -27.333 73.5 -36s57.166 -13 92.499 -13c34 0 60 5 78 15s27 24.333 27 43
c0 14.667 -7.16699 26.167 -21.5 34.5s-36.833 14.5 -67.5 18.5l-45 7c-108.667 14 -163 60.667 -163 140c0 48 17.667 85.5 53 112.5s83.666 40.5 144.999 40.5c71.333 0 137 -16 197 -48l-38 -85c-20 11.333 -44.167 21 -72.5 29z" />
    <glyph glyph-name="Scircumflex" unicode="&#x15c;" horiz-adv-x="676" 
d="M359 838l-72 -85h-108l113 154h134l113 -154h-108zM352 602c-44.667 0 -81.167 -9 -109.5 -27s-42.5 -42.333 -42.5 -73c0 -26.667 12.833 -47.167 38.5 -61.5s63.834 -24.833 114.501 -31.5l50 -7c146.667 -22.667 220 -86.334 220 -191.001
c0 -48 -12.833 -88.833 -38.5 -122.5s-59.834 -58.834 -102.501 -75.501s-90 -25 -142 -25c-52.667 0 -104.834 8.16699 -156.501 24.5s-95.5 38.5 -131.5 66.5l61 95c28 -22 62 -40.333 102 -55s81.667 -22 125 -22c46.667 0 84.834 9 114.501 27s44.5 42.667 44.5 74
c0 26.667 -12.667 47.167 -38 61.5s-65 25.5 -119 33.5l-54 8c-140.667 19.333 -211 84 -211 194c0 45.333 12.167 84.333 36.5 117s57.333 57.334 99 74.001s87.5 25 137.5 25c49.333 0 95 -6.16699 137 -18.5s84 -31.166 126 -56.499l-57 -96c-62 41.333 -130 62 -204 62z
" />
    <glyph glyph-name="scircumflex" unicode="&#x15d;" horiz-adv-x="501" 
d="M262 632l-72 -84h-109l114 153h134l113 -153h-108zM340.5 388c-28.333 8 -56.165 12.002 -83.498 12.002c-28 0 -49.833 -5 -65.5 -15s-23.5 -23.667 -23.5 -41c0 -14.667 7.33301 -25.834 22 -33.501s36.334 -13.5 65.001 -17.5l48 -7c107.333 -14.667 161 -61 161 -139
c0 -48.667 -19.333 -87.334 -58 -116.001s-91.667 -43 -159 -43c-37.333 0 -74.333 4.66699 -111 14s-69.334 24.333 -98.001 45l44 83c22.667 -15.333 47.167 -27.333 73.5 -36s57.166 -13 92.499 -13c34 0 60 5 78 15s27 24.333 27 43
c0 14.667 -7.16699 26.167 -21.5 34.5s-36.833 14.5 -67.5 18.5l-45 7c-108.667 14 -163 60.667 -163 140c0 48 17.667 85.5 53 112.5s83.666 40.5 144.999 40.5c71.333 0 137 -16 197 -48l-38 -85c-20 11.333 -44.167 21 -72.5 29z" />
    <glyph glyph-name="Scedilla" unicode="&#x15e;" horiz-adv-x="676" 
d="M352 602c-44.667 0 -81.1689 -9.00195 -109.502 -27.002s-42.5 -42.333 -42.5 -73c0 -26.667 12.833 -47.167 38.5 -61.5s63.834 -24.833 114.501 -31.5l50 -7c146.667 -22.667 220 -86.334 220 -191.001c0 -61.333 -20.333 -110.666 -61 -147.999
s-93.667 -60.666 -159 -69.999l-49 -154h-113l52 153c-46 3.33301 -90.167 12.666 -132.5 27.999s-78.5 35 -108.5 59l61 95c28 -22 62 -40.333 102 -55s81.667 -22 125 -22c46.667 0 84.834 9 114.501 27s44.5 42.667 44.5 74c0 26.667 -12.667 47.167 -38 61.5
s-65 25.5 -119 33.5l-54 8c-140.667 19.333 -211 84 -211 194c0 45.333 12.167 84.333 36.5 117s57.333 57.334 99 74.001s87.5 25 137.5 25c49.333 0 95 -6.16699 137 -18.5s84 -31.166 126 -56.499l-57 -96c-62 41.333 -130 62 -204 62z" />
    <glyph glyph-name="scedilla" unicode="&#x15f;" horiz-adv-x="501" 
d="M340.5 388c-28.333 8 -56.166 12.001 -83.499 12.001c-28 0 -49.833 -5 -65.5 -15s-23.5 -23.667 -23.5 -41c0 -14.667 7.33301 -25.834 22 -33.501s36.334 -13.5 65.001 -17.5l48 -7c107.333 -14.667 161 -61 161 -139c0 -40 -13.333 -73.333 -40 -100
s-63.667 -44.334 -111 -53.001l-49 -155h-108l51 152c-66.667 4.66699 -123 23.334 -169 56.001l44 83c22.667 -15.333 47.167 -27.333 73.5 -36s57.166 -13 92.499 -13c34 0 60 5 78 15s27 24.333 27 43c0 14.667 -7.16699 26.167 -21.5 34.5s-36.833 14.5 -67.5 18.5
l-45 7c-108.667 14 -163 60.667 -163 140c0 48 17.667 85.5 53 112.5s83.666 40.5 144.999 40.5c71.333 0 137 -16 197 -48l-38 -85c-20 11.333 -44.167 21 -72.5 29z" />
    <glyph glyph-name="Scaron" unicode="&#x160;" horiz-adv-x="676" 
d="M359 822l72 84h108l-113 -153h-134l-113 153h108zM352 602c-44.667 0 -81.167 -9 -109.5 -27s-42.5 -42.333 -42.5 -73c0 -26.667 12.833 -47.167 38.5 -61.5s63.834 -24.833 114.501 -31.5l50 -7c146.667 -22.667 220 -86.334 220 -191.001
c0 -48 -12.833 -88.833 -38.5 -122.5s-59.834 -58.834 -102.501 -75.501s-90 -25 -142 -25c-52.667 0 -104.834 8.16699 -156.501 24.5s-95.5 38.5 -131.5 66.5l61 95c28 -22 62 -40.333 102 -55s81.667 -22 125 -22c46.667 0 84.834 9 114.501 27s44.5 42.667 44.5 74
c0 26.667 -12.667 47.167 -38 61.5s-65 25.5 -119 33.5l-54 8c-140.667 19.333 -211 84 -211 194c0 45.333 12.167 84.333 36.5 117s57.333 57.334 99 74.001s87.5 25 137.5 25c49.333 0 95 -6.16699 137 -18.5s84 -31.166 126 -56.499l-57 -96c-62 41.333 -130 62 -204 62z
" />
    <glyph glyph-name="scaron" unicode="&#x161;" horiz-adv-x="501" 
d="M262 616l72 84h108l-113 -153h-134l-114 153h109zM340.5 388c-28.333 8 -56.165 12.002 -83.498 12.002c-28 0 -49.833 -5 -65.5 -15s-23.5 -23.667 -23.5 -41c0 -14.667 7.33301 -25.834 22 -33.501s36.334 -13.5 65.001 -17.5l48 -7c107.333 -14.667 161 -61 161 -139
c0 -48.667 -19.333 -87.334 -58 -116.001s-91.667 -43 -159 -43c-37.333 0 -74.333 4.66699 -111 14s-69.334 24.333 -98.001 45l44 83c22.667 -15.333 47.167 -27.333 73.5 -36s57.166 -13 92.499 -13c34 0 60 5 78 15s27 24.333 27 43
c0 14.667 -7.16699 26.167 -21.5 34.5s-36.833 14.5 -67.5 18.5l-45 7c-108.667 14 -163 60.667 -163 140c0 48 17.667 85.5 53 112.5s83.666 40.5 144.999 40.5c71.333 0 137 -16 197 -48l-38 -85c-20 11.333 -44.167 21 -72.5 29z" />
    <glyph glyph-name="Tcaron" unicode="&#x164;" horiz-adv-x="607" 
d="M305 822l73 84h108l-114 -153h-134l-113 153h108zM362 591v-591h-118v591h-227v109h572v-109h-227z" />
    <glyph glyph-name="tcaron" unicode="&#x165;" horiz-adv-x="463" 
d="M280 733h108l-23 -208h-87zM230 383l-0.000976562 -200c0 -31.333 7.33301 -54.5 22 -69.5s34.334 -22.5 59.001 -22.5c16 0 32.333 3 49 9s32 14 46 24l42 -85c-47.333 -34 -98.333 -51 -153 -51c-57.333 0 -100.833 16 -130.5 48s-44.5 78.333 -44.5 139v208h-97v98h97
v147h110v-147h187v-98h-187z" />
    <glyph glyph-name="Tbar" unicode="&#x166;" horiz-adv-x="607" 
d="M362 300v-300h-118v300h-140v106h140v185h-227v109h572v-109h-227v-185h141v-106h-141z" />
    <glyph glyph-name="tbar" unicode="&#x167;" horiz-adv-x="463" 
d="M230 383l-0.000976562 -82h136v-87h-136v-31c0 -31.333 7.33301 -54.5 22 -69.5s34.334 -22.5 59.001 -22.5c16 0 32.333 3 49 9s32 14 46 24l42 -85c-47.333 -34 -98.333 -51 -153 -51c-57.333 0 -100.833 16 -130.5 48s-44.5 78.333 -44.5 139v39h-92v87h92v82h-97v98
h97v147h110v-147h187v-98h-187z" />
    <glyph glyph-name="Utilde" unicode="&#x168;" horiz-adv-x="749" 
d="M240.5 881c19.667 10 42.5029 15.001 68.5029 15.001c17.333 0 32.166 -2 44.499 -6s26.833 -9.66699 43.5 -17c17.333 -9.33301 31.666 -14 42.999 -14c10.667 0 21 2.66699 31 8s21 14 33 26l59 -62c-16.667 -22 -35 -38 -55 -48s-42.667 -15 -68 -15
c-18 0 -33.5 2.16699 -46.5 6.5s-26.5 10.166 -40.5 17.499c-2 1.33301 -7.66699 4 -17 8s-18.333 6 -27 6c-10.667 0 -20.834 -2.83301 -30.501 -8.5s-20.834 -14.5 -33.501 -26.5l-59 62c16.667 22 34.834 38 54.501 48zM633.003 119.001
c-25.333 -43.333 -60.333 -76 -105 -98s-96 -33 -154 -33s-109.333 11 -154 33s-79.5 54.667 -104.5 98s-37.5 96.333 -37.5 159v422h118v-416c0 -60.667 16 -106.334 48 -137.001s75.333 -46 130 -46c55.333 0 99 15.333 131 46s48 76.334 48 137.001v416h118v-422
c0 -62.667 -12.667 -115.667 -38 -159z" />
    <glyph glyph-name="utilde" unicode="&#x169;" horiz-adv-x="589" 
d="M162 675c20 10 42.6699 15 68.0029 15c17.333 0 32.166 -2 44.499 -6s26.833 -9.66699 43.5 -17c17.333 -9.33301 31.666 -14 42.999 -14c20.667 0 42 11.667 64 35l60 -62c-17.333 -22.667 -36 -39 -56 -49s-42.667 -15 -68 -15c-16.667 0 -30.834 1.83301 -42.501 5.5
s-26.167 9.5 -43.5 17.5c-7.33301 4 -14.833 7.5 -22.5 10.5s-15.167 4.5 -22.5 4.5c-10.667 0 -21 -2.83301 -31 -8.5s-21 -14.5 -33 -26.5l-59 63c16.667 21.333 35 37 55 47zM488.503 84.5c-20.333 -32.333 -47.333 -56.5 -81 -72.5s-71.167 -24 -112.5 -24
s-79 8 -113 24s-61 40.167 -81 72.5s-30 72.166 -30 119.499v277h109v-268c0 -40.667 10.5 -71.167 31.5 -91.5s48.833 -30.5 83.5 -30.5s62.5 10.167 83.5 30.5s31.5 50.833 31.5 91.5v268h109v-277c0 -47.333 -10.167 -87.166 -30.5 -119.499z" />
    <glyph glyph-name="Umacron" unicode="&#x16a;" horiz-adv-x="749" 
d="M534 873v-87h-319v87h319zM633 119c-25.333 -43.333 -60.333 -76 -105 -98s-96 -33 -154 -33s-109.333 11 -154 33s-79.5 54.667 -104.5 98s-37.5 96.333 -37.5 159v422h118v-416c0 -60.667 16 -106.334 48 -137.001s75.333 -46 130 -46c55.333 0 99 15.333 131 46
s48 76.334 48 137.001v416h118v-422c0 -62.667 -12.667 -115.667 -38 -159z" />
    <glyph glyph-name="umacron" unicode="&#x16b;" horiz-adv-x="589" 
d="M454 668v-88h-319v88h319zM488.5 84.5c-20.333 -32.333 -47.333 -56.5 -81 -72.5s-71.167 -24 -112.5 -24s-79 8 -113 24s-61 40.167 -81 72.5s-30 72.166 -30 119.499v277h109v-268c0 -40.667 10.5 -71.167 31.5 -91.5s48.833 -30.5 83.5 -30.5s62.5 10.167 83.5 30.5
s31.5 50.833 31.5 91.5v268h109v-277c0 -47.333 -10.167 -87.166 -30.5 -119.499z" />
    <glyph glyph-name="Ubreve" unicode="&#x16c;" horiz-adv-x="749" 
d="M374 837c49.333 0 82.333 29 99 87l85 -24c-13.333 -49.333 -35.833 -87 -67.5 -113s-70.5 -39 -116.5 -39c-45.333 0 -84 13.167 -116 39.5s-54.333 63.833 -67 112.5l84 24c18 -58 51 -87 99 -87zM633 119c-25.333 -43.333 -60.333 -76 -105 -98s-96 -33 -154 -33
s-109.333 11 -154 33s-79.5 54.667 -104.5 98s-37.5 96.333 -37.5 159v422h118v-416c0 -60.667 16 -106.334 48 -137.001s75.333 -46 130 -46c55.333 0 99 15.333 131 46s48 76.334 48 137.001v416h118v-422c0 -62.667 -12.667 -115.667 -38 -159z" />
    <glyph glyph-name="ubreve" unicode="&#x16d;" horiz-adv-x="589" 
d="M295 631c48 0 81 29 99 87l85 -24c-13.333 -48.667 -36 -86.167 -68 -112.5s-70.667 -39.5 -116 -39.5s-84 13.167 -116 39.5s-54.333 63.833 -67 112.5l84 24c16.667 -58 49.667 -87 99 -87zM488.5 84.5c-20.333 -32.333 -47.333 -56.5 -81 -72.5
s-71.167 -24 -112.5 -24s-79 8 -113 24s-61 40.167 -81 72.5s-30 72.166 -30 119.499v277h109v-268c0 -40.667 10.5 -71.167 31.5 -91.5s48.833 -30.5 83.5 -30.5s62.5 10.167 83.5 30.5s31.5 50.833 31.5 91.5v268h109v-277c0 -47.333 -10.167 -87.166 -30.5 -119.499z" />
    <glyph glyph-name="Uring" unicode="&#x16e;" horiz-adv-x="749" 
d="M286.5 778c-24.333 24 -36.499 53 -36.499 87c0 22 5.66699 42.5 17 61.5s26.5 34 45.5 45s39.5 16.5 61.5 16.5s42.667 -5.5 62 -16.5s34.666 -26 45.999 -45s17 -39.5 17 -61.5s-5.66699 -42.5 -17 -61.5s-26.5 -34 -45.5 -45s-39.833 -16.5 -62.5 -16.5
c-34 0 -63.167 12 -87.5 36zM415.001 823c11.333 11.333 17 25.333 17 42c0 16 -5.66699 29.667 -17 41s-25 17 -41 17c-15.333 0 -28.666 -5.66699 -39.999 -17s-17 -25 -17 -41c0 -16.667 5.66699 -30.667 17 -42s24.666 -17 39.999 -17c16 0 29.667 5.66699 41 17z
M633.001 119c-25.333 -43.333 -60.333 -76 -105 -98s-96 -33 -154 -33s-109.333 11 -154 33s-79.5 54.667 -104.5 98s-37.5 96.333 -37.5 159v422h118v-416c0 -60.667 16 -106.334 48 -137.001s75.333 -46 130 -46c55.333 0 99 15.333 131 46s48 76.334 48 137.001v416h118
v-422c0 -62.667 -12.667 -115.667 -38 -159z" />
    <glyph glyph-name="uring" unicode="&#x16f;" horiz-adv-x="589" 
d="M233 553.5c-19.333 11 -34.667 25.833 -46 44.5s-17 39 -17 61s5.66699 42.5 17 61.5s26.5 34 45.5 45s39.833 16.5 62.5 16.5c34 0 63.167 -12 87.5 -36s36.5 -53 36.5 -87c0 -22 -5.66699 -42.333 -17 -61s-26.5 -33.5 -45.5 -44.5s-39.5 -16.5 -61.5 -16.5
s-42.667 5.5 -62 16.5zM335.499 618c11 11.333 16.499 25 16.499 41c0 16.667 -5.66699 30.667 -17 42s-24.666 17 -39.999 17s-28.833 -5.66699 -40.5 -17s-17.5 -25.333 -17.5 -42c0 -16 5.66699 -29.667 17 -41s25 -17 41 -17s29.5 5.66699 40.5 17zM488.498 84.5
c-20.333 -32.333 -47.333 -56.5 -81 -72.5s-71.167 -24 -112.5 -24s-79 8 -113 24s-61 40.167 -81 72.5s-30 72.166 -30 119.499v277h109v-268c0 -40.667 10.5 -71.167 31.5 -91.5s48.833 -30.5 83.5 -30.5s62.5 10.167 83.5 30.5s31.5 50.833 31.5 91.5v268h109v-277
c0 -47.333 -10.167 -87.166 -30.5 -119.499z" />
    <glyph glyph-name="Uhungarumlaut" unicode="&#x170;" horiz-adv-x="749" 
d="M319 912h117l-110 -156h-107zM512 912h120l-122 -156h-107zM633 119c-25.333 -43.333 -60.333 -76 -105 -98s-96 -33 -154 -33s-109.333 11 -154 33s-79.5 54.667 -104.5 98s-37.5 96.333 -37.5 159v422h118v-416c0 -60.667 16 -106.334 48 -137.001s75.333 -46 130 -46
c55.333 0 99 15.333 131 46s48 76.334 48 137.001v416h118v-422c0 -62.667 -12.667 -115.667 -38 -159z" />
    <glyph glyph-name="uhungarumlaut" unicode="&#x171;" horiz-adv-x="589" 
d="M244 706h118l-110 -156h-107zM438 706h120l-123 -156h-107zM488.5 84.5c-20.333 -32.333 -47.333 -56.5 -81 -72.5s-71.167 -24 -112.5 -24s-79 8 -113 24s-61 40.167 -81 72.5s-30 72.166 -30 119.499v277h109v-268c0 -40.667 10.5 -71.167 31.5 -91.5
s48.833 -30.5 83.5 -30.5s62.5 10.167 83.5 30.5s31.5 50.833 31.5 91.5v268h109v-277c0 -47.333 -10.167 -87.166 -30.5 -119.499z" />
    <glyph glyph-name="Uogonek" unicode="&#x172;" horiz-adv-x="749" 
d="M478 -209c-41.333 0 -75.001 10.001 -101.001 30.001s-39 45.667 -39 77c0 35.333 16.333 65.666 49 90.999c-61.333 -2 -115.166 8 -161.499 30s-82.5 55 -108.5 99s-39 97.333 -39 160v422h118v-416c0 -60.667 16 -106.334 48 -137.001s75.333 -46 130 -46
c55.333 0 99 15.333 131 46s48 76.334 48 137.001v416h118v-422c0 -63.333 -12.667 -116.5 -38 -159.5s-61 -75.833 -107 -98.5c-30.667 -16 -52.834 -32.167 -66.501 -48.5s-20.5 -33.166 -20.5 -50.499c0 -12.667 4.66699 -22.834 14 -30.501s21.333 -11.5 36 -11.5
c22.667 0 43 8.33301 61 25l58 -63c-35.333 -33.333 -78.666 -50 -129.999 -50z" />
    <glyph glyph-name="uogonek" unicode="&#x173;" horiz-adv-x="589" 
d="M374 -209c-41.333 0 -75.001 10.0029 -101.001 30.0029s-39 45.667 -39 77c0 36.667 16.333 67 49 91c-40 1.33301 -76 10.166 -108 26.499s-57.333 40.5 -76 72.5s-28 70.667 -28 116v277h109v-268c0 -40.667 10.5 -71.167 31.5 -91.5s48.833 -30.5 83.5 -30.5
s62.5 10.167 83.5 30.5s31.5 50.833 31.5 91.5v268h109v-277c0 -45.333 -9 -83.5 -27 -114.5s-43.333 -55.167 -76 -72.5c-28.667 -16 -49.334 -31.833 -62.001 -47.5s-19 -31.834 -19 -48.501c0 -12.667 4.66699 -22.834 14 -30.501s21.333 -11.5 36 -11.5
c22.667 0 43.334 8.33301 62.001 25l57 -63c-35.333 -33.333 -78.666 -50 -129.999 -50z" />
    <glyph glyph-name="Wcircumflex" unicode="&#x174;" horiz-adv-x="1094" 
d="M547 838l-72 -85h-108l114 154h133l114 -154h-108zM714 0l-167 535l-167 -535h-142l-217 700h122l168 -564l172 564h130l172 -564l168 564h120l-217 -700h-142z" />
    <glyph glyph-name="wcircumflex" unicode="&#x175;" horiz-adv-x="865" 
d="M433 632l-72 -84h-109l113 153h135l113 -153h-108zM734 481h114l-169 -481h-126l-121 352l-120 -352h-125l-170 481h117l119 -360l122 360h116l123 -361z" />
    <glyph glyph-name="Ycircumflex" unicode="&#x176;" horiz-adv-x="667" 
d="M336 838l-73 -85h-108l113 154h135l113 -154h-108zM393 0h-116v284l-273 416h138l194 -310l193 310h134l-270 -417v-283z" />
    <glyph glyph-name="ycircumflex" unicode="&#x177;" horiz-adv-x="550" 
d="M279 632l-73 -84h-108l113 153h135l113 -153h-108zM48 -202l173 306l-213 377h124l150 -266l142 266h121l-377 -683h-120z" />
    <glyph glyph-name="Ydieresis" unicode="&#x178;" horiz-adv-x="667" 
d="M280 881c14 -14 21 -31 21 -51s-7 -36.833 -21 -50.5s-31 -20.5 -51 -20.5s-36.833 6.66699 -50.5 20s-20.5 30.333 -20.5 51c0 20 6.83301 37 20.5 51s30.5 21 50.5 21s37 -7 51 -21zM492 881c14 -14 21 -31 21 -51s-7 -36.833 -21 -50.5s-31 -20.5 -51 -20.5
s-36.833 6.66699 -50.5 20s-20.5 30.333 -20.5 51c0 20 6.83301 37 20.5 51s30.5 21 50.5 21s37 -7 51 -21zM393 0h-116v284l-273 416h138l194 -310l193 310h134l-270 -417v-283z" />
    <glyph glyph-name="Zacute" unicode="&#x179;" horiz-adv-x="650" 
d="M345 912h132l-130 -156h-105zM208 109h390v-109h-546v92l389 500h-386v108h543v-91z" />
    <glyph glyph-name="zacute" unicode="&#x17a;" horiz-adv-x="524" 
d="M288 706h132l-130 -156h-105zM203 98h268v-98h-418v79l268 304h-259v98h405v-81z" />
    <glyph glyph-name="Zdotaccent" unicode="&#x17b;" horiz-adv-x="650" 
d="M369.5 886c14.333 -14.667 21.5 -32.667 21.5 -54s-7.16699 -39 -21.5 -53s-32.166 -21 -53.499 -21c-20.667 0 -38.167 7.16699 -52.5 21.5s-21.5 31.833 -21.5 52.5c0 21.333 7.16699 39.333 21.5 54s31.833 22 52.5 22c21.333 0 39.166 -7.33301 53.499 -22zM208 109
h390v-109h-546v92l389 500h-386v108h543v-91z" />
    <glyph glyph-name="zdotaccent" unicode="&#x17c;" horiz-adv-x="524" 
d="M314.5 693c13.667 -14 20.5 -31 20.5 -51s-6.83301 -36.833 -20.5 -50.5s-30.5 -20.5 -50.5 -20.5c-20.667 0 -37.667 6.83301 -51 20.5s-20 30.5 -20 50.5s6.83301 37 20.5 51s30.5 21 50.5 21s36.833 -7 50.5 -21zM203 98h268v-98h-418v79l268 304h-259v98h405v-81z
" />
    <glyph glyph-name="Zcaron" unicode="&#x17d;" horiz-adv-x="650" 
d="M326 822l72 84h109l-114 -153h-134l-113 153h108zM208 109h390v-109h-546v92l389 500h-386v108h543v-91z" />
    <glyph glyph-name="zcaron" unicode="&#x17e;" horiz-adv-x="524" 
d="M264 616l72 84h109l-114 -153h-134l-113 153h108zM203 98h268v-98h-418v79l268 304h-259v98h405v-81z" />
    <glyph glyph-name="longs" unicode="&#x17f;" horiz-adv-x="327" 
d="M383 690l-44 -86c-28.667 16.667 -58.334 25 -89.001 25c-46.667 0 -70 -27.667 -70 -83v-546h-109v547c0 56.667 14.333 101.667 43 135s70.334 50 125.001 50c54 0 102 -14 144 -42z" />
    <glyph glyph-name="uni018F" unicode="&#x18f;" horiz-adv-x="796" 
d="M569.5 665c54.333 -31.333 97.165 -74.499 128.498 -129.499s47 -116.833 47 -185.5s-15.167 -130.5 -45.5 -185.5s-72.166 -98.167 -125.499 -129.5s-112.666 -47 -177.999 -47s-124.166 14.833 -176.499 44.5s-93.5 71.5 -123.5 125.5s-45 115.667 -45 185
c0 11.333 0.666992 29.666 2 54.999h567c-6 39.333 -19.833 74.333 -41.5 105s-49 54.5 -82 71.5s-68.833 25.5 -107.5 25.5c-80.667 0 -148.667 -32.667 -204 -98l-83 81c77.333 86 172.333 129 285 129c67.333 0 128.166 -15.667 182.499 -47zM542.499 153.501
c41 36.333 66.833 84.5 77.5 144.5h-443c3.33301 -38.667 14.833 -73 34.5 -103s45.5 -53.5 77.5 -70.5s68 -25.5 108 -25.5c56 0 104.5 18.167 145.5 54.5z" />
    <glyph glyph-name="florin" unicode="&#x192;" horiz-adv-x="700" 
d="M401 316l-15.998 -152c-10.667 -117.333 -64 -176 -160 -176c-47.333 0 -91 12.667 -131 38l42 83c26 -14 52 -21 78 -21c21.333 0 36.833 6.66699 46.5 20s15.834 33.666 18.501 60.999l14 147h-120v94h130l13 128c6 56.667 21.667 99.834 47 129.501s63 44.5 113 44.5
c47.333 0 90.666 -12.333 129.999 -37l-41 -84c-24.667 14 -51 21 -79 21c-20.667 0 -35.834 -6.66699 -45.501 -20s-15.834 -33.333 -18.501 -60l-12 -122h133v-94h-142z" />
    <glyph glyph-name="uni01B5" unicode="&#x1b5;" horiz-adv-x="650" 
d="M354 298l-146 -189h390v-109h-546v92l166 209h-104v104h182l145 187h-386v108h543v-91l-164 -207h102v-104h-182z" />
    <glyph glyph-name="uni01B6" unicode="&#x1b6;" horiz-adv-x="524" 
d="M295 205l-92 -107h268v-98h-418v79l117 129h-79v76h143l87 99h-259v98h405v-81l-107 -120h75v-75h-140z" />
    <glyph glyph-name="uni01CD" unicode="&#x1cd;" horiz-adv-x="727" 
d="M363 822l73 84h108l-114 -153h-133l-113 153h107zM589 0l-68 175h-318l-68 -175h-121l278 700h143l279 -700h-125zM479 284l-117 301l-118 -301h235z" />
    <glyph glyph-name="uni01CE" unicode="&#x1ce;" horiz-adv-x="616" 
d="M307 616l72 84h109l-113 -153h-135l-113 153h108zM434 0v65c-37.333 -51.333 -89.333 -77 -156 -77c-44 0 -83.833 11 -119.5 33s-63.834 52.333 -84.501 91s-31 81.667 -31 129c0 46.667 10.333 89.167 31 127.5s48.834 68.5 84.501 90.5s75.5 33 119.5 33
c67.333 0 119.333 -25.333 156 -76v65h108v-481h-108zM194 347c-26 -28.667 -38.999 -63.999 -38.999 -105.999s13.167 -77.5 39.5 -106.5s60.166 -43.5 101.499 -43.5c42 0 76.167 14.167 102.5 42.5s39.5 64.166 39.5 107.499c0 42.667 -13.167 78.167 -39.5 106.5
s-60.5 42.5 -102.5 42.5s-76 -14.333 -102 -43z" />
    <glyph glyph-name="uni01CF" unicode="&#x1cf;" horiz-adv-x="291" 
d="M146 822l72 84h108l-113 -153h-134l-114 153h109zM87 0v700h117v-700h-117z" />
    <glyph glyph-name="uni01D0" unicode="&#x1d0;" horiz-adv-x="260" 
d="M130 616l72 84h108l-113 -153h-134l-114 153h109zM75 0v481h109v-481h-109z" />
    <glyph glyph-name="uni01D1" unicode="&#x1d1;" horiz-adv-x="832" 
d="M416 822l72 84h109l-114 -153h-134l-113 153h108zM604 665c55.333 -31.333 98.666 -74.5 129.999 -129.5s47 -116.833 47 -185.5s-15.667 -130.5 -47 -185.5s-74.666 -98.167 -129.999 -129.5s-118 -47 -188 -47s-132.667 15.667 -188 47s-98.666 74.5 -129.999 129.5
s-47 116.833 -47 185.5s15.667 130.5 47 185.5s74.666 98.167 129.999 129.5s118 47 188 47s132.667 -15.667 188 -47zM291.5 567.5c-37 -21 -66 -50.333 -87 -88s-31.5 -80.834 -31.5 -129.501s10.5 -91.834 31.5 -129.501s50 -67 87 -88s78.5 -31.5 124.5 -31.5
s87.5 10.5 124.5 31.5s66 50.333 87 88s31.5 80.834 31.5 129.501s-10.5 91.834 -31.5 129.501s-50 67 -87 88s-78.5 31.5 -124.5 31.5s-87.5 -10.5 -124.5 -31.5z" />
    <glyph glyph-name="uni01D2" unicode="&#x1d2;" 
d="M299 616l73 84h108l-113 -153h-134l-113 153h107zM431 459.5c39.333 -21.667 70.166 -51.667 92.499 -90s33.5 -81.166 33.5 -128.499s-11.167 -90.333 -33.5 -129s-53.166 -69 -92.499 -91s-83.333 -33 -132 -33c-48 0 -91.5 11 -130.5 33s-69.667 52.333 -92 91
s-33.5 81.667 -33.5 129s11.167 90.166 33.5 128.499s53 68.333 92 90s82.5 32.5 130.5 32.5c48.667 0 92.667 -10.833 132 -32.5zM196 348c-27.333 -28 -41 -63.667 -41 -107c0 -44 13.667 -80 41 -108s61.666 -42 102.999 -42c42 0 76.833 14 104.5 42s41.5 64 41.5 108
c0 43.333 -13.833 79 -41.5 107s-62.5 42 -104.5 42c-41.333 0 -75.666 -14 -102.999 -42z" />
    <glyph glyph-name="uni01D3" unicode="&#x1d3;" horiz-adv-x="749" 
d="M374 822l73 84h108l-114 -153h-133l-113 153h107zM633 119c-25.333 -43.333 -60.333 -76 -105 -98s-96 -33 -154 -33s-109.333 11 -154 33s-79.5 54.667 -104.5 98s-37.5 96.333 -37.5 159v422h118v-416c0 -60.667 16 -106.334 48 -137.001s75.333 -46 130 -46
c55.333 0 99 15.333 131 46s48 76.334 48 137.001v416h118v-422c0 -62.667 -12.667 -115.667 -38 -159z" />
    <glyph glyph-name="uni01D4" unicode="&#x1d4;" horiz-adv-x="589" 
d="M295 616l73 84h107l-113 -153h-134l-113 153h108zM488.5 84.5c-20.333 -32.333 -47.333 -56.5 -81 -72.5s-71.167 -24 -112.5 -24s-79 8 -113 24s-61 40.167 -81 72.5s-30 72.166 -30 119.499v277h109v-268c0 -40.667 10.5 -71.167 31.5 -91.5s48.833 -30.5 83.5 -30.5
s62.5 10.167 83.5 30.5s31.5 50.833 31.5 91.5v268h109v-277c0 -47.333 -10.167 -87.166 -30.5 -119.499z" />
    <glyph glyph-name="uni01D5" unicode="&#x1d5;" horiz-adv-x="749" 
d="M534 1046v-87h-319v87h319zM319 881c14 -14 21 -31 21 -51s-7 -36.833 -21 -50.5s-31 -20.5 -51 -20.5s-36.833 6.66699 -50.5 20s-20.5 30.333 -20.5 51c0 20 6.83301 37 20.5 51s30.5 21 50.5 21s37 -7 51 -21zM531.5 881c13.667 -14 20.5 -31 20.5 -51
c0 -20.667 -6.83301 -37.667 -20.5 -51s-30.834 -20 -51.501 -20c-20 0 -36.667 6.66699 -50 20s-20 30.333 -20 51c0 20 6.66699 37 20 51s30 21 50 21c20.667 0 37.834 -7 51.501 -21zM633 119c-25.333 -43.333 -60.333 -76 -105 -98s-96 -33 -154 -33
s-109.333 11 -154 33s-79.5 54.667 -104.5 98s-37.5 96.333 -37.5 159v422h118v-416c0 -60.667 16 -106.334 48 -137.001s75.333 -46 130 -46c55.333 0 99 15.333 131 46s48 76.334 48 137.001v416h118v-422c0 -62.667 -12.667 -115.667 -38 -159z" />
    <glyph glyph-name="uni01D6" unicode="&#x1d6;" horiz-adv-x="589" 
d="M454 844v-88h-319v88h319zM238.5 675c13.667 -14 20.5 -31 20.5 -51s-6.83301 -36.833 -20.5 -50.5s-30.5 -20.5 -50.5 -20.5c-20.667 0 -37.667 6.83301 -51 20.5s-20 30.5 -20 50.5s6.83301 37 20.5 51s30.5 21 50.5 21s36.833 -7 50.5 -21zM451.5 675
c13.667 -14 20.5 -31 20.5 -51s-6.83301 -36.833 -20.5 -50.5s-30.834 -20.5 -51.501 -20.5c-20 0 -36.833 6.83301 -50.5 20.5s-20.5 30.5 -20.5 50.5s6.83301 37 20.5 51s30.5 21 50.5 21c20.667 0 37.834 -7 51.501 -21zM488.5 84.5
c-20.333 -32.333 -47.333 -56.5 -81 -72.5s-71.167 -24 -112.5 -24s-79 8 -113 24s-61 40.167 -81 72.5s-30 72.166 -30 119.499v277h109v-268c0 -40.667 10.5 -71.167 31.5 -91.5s48.833 -30.5 83.5 -30.5s62.5 10.167 83.5 30.5s31.5 50.833 31.5 91.5v268h109v-277
c0 -47.333 -10.167 -87.166 -30.5 -119.499z" />
    <glyph glyph-name="uni01D7" unicode="&#x1d7;" horiz-adv-x="749" 
d="M393 1111h132l-130 -156h-104zM319 881c14 -14 21 -31 21 -51s-7 -36.833 -21 -50.5s-31 -20.5 -51 -20.5s-36.833 6.66699 -50.5 20s-20.5 30.333 -20.5 51c0 20 6.83301 37 20.5 51s30.5 21 50.5 21s37 -7 51 -21zM531.5 881c13.667 -14 20.5 -31 20.5 -51
c0 -20.667 -6.83301 -37.667 -20.5 -51s-30.834 -20 -51.501 -20c-20 0 -36.667 6.66699 -50 20s-20 30.333 -20 51c0 20 6.66699 37 20 51s30 21 50 21c20.667 0 37.834 -7 51.501 -21zM633 119c-25.333 -43.333 -60.333 -76 -105 -98s-96 -33 -154 -33
s-109.333 11 -154 33s-79.5 54.667 -104.5 98s-37.5 96.333 -37.5 159v422h118v-416c0 -60.667 16 -106.334 48 -137.001s75.333 -46 130 -46c55.333 0 99 15.333 131 46s48 76.334 48 137.001v416h118v-422c0 -62.667 -12.667 -115.667 -38 -159z" />
    <glyph glyph-name="uni01D8" unicode="&#x1d8;" horiz-adv-x="589" 
d="M313 907h132l-130 -155h-105zM238.5 675c13.667 -14 20.5 -31 20.5 -51s-6.83301 -36.833 -20.5 -50.5s-30.5 -20.5 -50.5 -20.5c-20.667 0 -37.667 6.83301 -51 20.5s-20 30.5 -20 50.5s6.83301 37 20.5 51s30.5 21 50.5 21s36.833 -7 50.5 -21zM451.5 675
c13.667 -14 20.5 -31 20.5 -51s-6.83301 -36.833 -20.5 -50.5s-30.834 -20.5 -51.501 -20.5c-20 0 -36.833 6.83301 -50.5 20.5s-20.5 30.5 -20.5 50.5s6.83301 37 20.5 51s30.5 21 50.5 21c20.667 0 37.834 -7 51.501 -21zM488.5 84.5
c-20.333 -32.333 -47.333 -56.5 -81 -72.5s-71.167 -24 -112.5 -24s-79 8 -113 24s-61 40.167 -81 72.5s-30 72.166 -30 119.499v277h109v-268c0 -40.667 10.5 -71.167 31.5 -91.5s48.833 -30.5 83.5 -30.5s62.5 10.167 83.5 30.5s31.5 50.833 31.5 91.5v268h109v-277
c0 -47.333 -10.167 -87.166 -30.5 -119.499z" />
    <glyph glyph-name="uni01D9" unicode="&#x1d9;" horiz-adv-x="749" 
d="M374 1021l73 84h108l-114 -153h-133l-113 153h107zM319 881c14 -14 21 -31 21 -51s-7 -36.833 -21 -50.5s-31 -20.5 -51 -20.5s-36.833 6.66699 -50.5 20s-20.5 30.333 -20.5 51c0 20 6.83301 37 20.5 51s30.5 21 50.5 21s37 -7 51 -21zM531.5 881
c13.667 -14 20.5 -31 20.5 -51c0 -20.667 -6.83301 -37.667 -20.5 -51s-30.834 -20 -51.501 -20c-20 0 -36.667 6.66699 -50 20s-20 30.333 -20 51c0 20 6.66699 37 20 51s30 21 50 21c20.667 0 37.834 -7 51.501 -21zM633 119c-25.333 -43.333 -60.333 -76 -105 -98
s-96 -33 -154 -33s-109.333 11 -154 33s-79.5 54.667 -104.5 98s-37.5 96.333 -37.5 159v422h118v-416c0 -60.667 16 -106.334 48 -137.001s75.333 -46 130 -46c55.333 0 99 15.333 131 46s48 76.334 48 137.001v416h118v-422c0 -62.667 -12.667 -115.667 -38 -159z" />
    <glyph glyph-name="uni01DA" unicode="&#x1da;" horiz-adv-x="589" 
d="M294 818l73 84h107l-113 -153h-133l-114 153h108zM238.5 675c13.667 -14 20.5 -31 20.5 -51s-6.83301 -36.833 -20.5 -50.5s-30.5 -20.5 -50.5 -20.5c-20.667 0 -37.667 6.83301 -51 20.5s-20 30.5 -20 50.5s6.83301 37 20.5 51s30.5 21 50.5 21s36.833 -7 50.5 -21z
M451.5 675c13.667 -14 20.5 -31 20.5 -51s-6.83301 -36.833 -20.5 -50.5s-30.834 -20.5 -51.501 -20.5c-20 0 -36.833 6.83301 -50.5 20.5s-20.5 30.5 -20.5 50.5s6.83301 37 20.5 51s30.5 21 50.5 21c20.667 0 37.834 -7 51.501 -21zM488.5 84.5
c-20.333 -32.333 -47.333 -56.5 -81 -72.5s-71.167 -24 -112.5 -24s-79 8 -113 24s-61 40.167 -81 72.5s-30 72.166 -30 119.499v277h109v-268c0 -40.667 10.5 -71.167 31.5 -91.5s48.833 -30.5 83.5 -30.5s62.5 10.167 83.5 30.5s31.5 50.833 31.5 91.5v268h109v-277
c0 -47.333 -10.167 -87.166 -30.5 -119.499z" />
    <glyph glyph-name="uni01DB" unicode="&#x1db;" horiz-adv-x="749" 
d="M349 1111l104 -156h-106l-130 156h132zM319 881c14 -14 21 -31 21 -51s-7 -36.833 -21 -50.5s-31 -20.5 -51 -20.5s-36.833 6.66699 -50.5 20s-20.5 30.333 -20.5 51c0 20 6.83301 37 20.5 51s30.5 21 50.5 21s37 -7 51 -21zM531.5 881c13.667 -14 20.5 -31 20.5 -51
c0 -20.667 -6.83301 -37.667 -20.5 -51s-30.834 -20 -51.501 -20c-20 0 -36.667 6.66699 -50 20s-20 30.333 -20 51c0 20 6.66699 37 20 51s30 21 50 21c20.667 0 37.834 -7 51.501 -21zM633 119c-25.333 -43.333 -60.333 -76 -105 -98s-96 -33 -154 -33
s-109.333 11 -154 33s-79.5 54.667 -104.5 98s-37.5 96.333 -37.5 159v422h118v-416c0 -60.667 16 -106.334 48 -137.001s75.333 -46 130 -46c55.333 0 99 15.333 131 46s48 76.334 48 137.001v416h118v-422c0 -62.667 -12.667 -115.667 -38 -159z" />
    <glyph glyph-name="uni01DC" unicode="&#x1dc;" horiz-adv-x="589" 
d="M269 907l103 -155h-105l-130 155h132zM238.5 675c13.667 -14 20.5 -31 20.5 -51s-6.83301 -36.833 -20.5 -50.5s-30.5 -20.5 -50.5 -20.5c-20.667 0 -37.667 6.83301 -51 20.5s-20 30.5 -20 50.5s6.83301 37 20.5 51s30.5 21 50.5 21s36.833 -7 50.5 -21zM451.5 675
c13.667 -14 20.5 -31 20.5 -51s-6.83301 -36.833 -20.5 -50.5s-30.834 -20.5 -51.501 -20.5c-20 0 -36.833 6.83301 -50.5 20.5s-20.5 30.5 -20.5 50.5s6.83301 37 20.5 51s30.5 21 50.5 21c20.667 0 37.834 -7 51.501 -21zM488.5 84.5
c-20.333 -32.333 -47.333 -56.5 -81 -72.5s-71.167 -24 -112.5 -24s-79 8 -113 24s-61 40.167 -81 72.5s-30 72.166 -30 119.499v277h109v-268c0 -40.667 10.5 -71.167 31.5 -91.5s48.833 -30.5 83.5 -30.5s62.5 10.167 83.5 30.5s31.5 50.833 31.5 91.5v268h109v-277
c0 -47.333 -10.167 -87.166 -30.5 -119.499z" />
    <glyph glyph-name="uni01E2" unicode="&#x1e2;" horiz-adv-x="1147" 
d="M926 873v-87h-320v87h320zM566 0v161h-298l-117 -161h-140l514 700h548v-108h-390v-185h374v-108h-374v-191h394v-108h-511zM566 570l-220 -301h220v301z" />
    <glyph glyph-name="uni01E3" unicode="&#x1e3;" horiz-adv-x="884" 
d="M602 668v-88h-320v88h320zM731.5 460.5c34.333 -21 61.332 -50.5039 80.999 -88.5039s29.5 -81.333 29.5 -130c0 -16 -1 -28.667 -3 -38h-357c6 -39.333 21.667 -69.333 47 -90s56.333 -31 93 -31c24 0 47.667 4.66699 71 14s44.333 22 63 38l62 -71
c-53.333 -50.667 -121 -76 -203 -76c-39.333 0 -75.5 7.16699 -108.5 21.5s-60.5 34.833 -82.5 61.5c-51.333 -55.333 -115.666 -83 -192.999 -83c-58.667 0 -104.667 13.833 -138 41.5s-50 63.834 -50 108.501s17.667 79.834 53 105.501s84.333 38.5 147 38.5h126
c-3.33301 76 -43.333 114 -120 114c-25.333 0 -49.666 -4.5 -72.999 -13.5s-44.333 -20.167 -63 -33.5l-42 85c25.333 18.667 54.666 33 87.999 43s68.333 15 105 15c41.333 0 76.5 -7.16699 105.5 -21.5s50.833 -35.166 65.5 -62.499
c19.333 26.667 44.5 47.334 75.5 62.001s65.167 22 102.5 22c44.667 0 84.167 -10.5 118.5 -31.5zM523.499 365.996c-22.333 -20.667 -36.167 -49.334 -41.5 -86.001h250c-5.33301 36.667 -19 65.334 -41 86.001s-49.333 31 -82 31c-34.667 0 -63.167 -10.333 -85.5 -31z
M322.498 95.9961c24.333 11.333 44.835 27.001 61.502 47.001c-6.66699 18 -11 38.667 -13 62h-112c-34.667 0 -60.334 -5.83301 -77.001 -17.5s-25 -26.834 -25 -45.501c0 -18 7.83301 -33 23.5 -45s38.167 -18 67.5 -18c25.333 0 50.166 5.66699 74.499 17z" />
    <glyph glyph-name="Gcaron" unicode="&#x1e6;" horiz-adv-x="805" 
d="M405 822l73 84h107l-113 -153h-134l-113 153h108zM568 683c46 -19.333 84.665 -46.6689 115.998 -82.002l-84 -83c-22.667 26 -49.667 46.167 -81 60.5s-66 21.5 -104 21.5c-46 0 -87.333 -10.5 -124 -31.5s-65.5 -50.5 -86.5 -88.5s-31.5 -81.333 -31.5 -130
c0 -50 10.5 -94 31.5 -132s49.667 -67.333 86 -88s76.833 -31 121.5 -31c63.333 0 113.833 16 151.5 48s60.167 77.333 67.5 136h-195v100h317c1.33301 -7.33301 2 -18.333 2 -33c0 -69.333 -14.5 -131.5 -43.5 -186.5s-69.333 -98 -121 -129s-110.5 -46.5 -176.5 -46.5
c-64.667 0 -124.667 14.833 -180 44.5s-99.666 71.834 -132.999 126.501s-50 118.334 -50 191.001c0 69.333 15.833 131.5 47.5 186.5s75.334 98 131.001 129s118.5 46.5 188.5 46.5c54 0 104 -9.66699 150 -29z" />
    <glyph glyph-name="gcaron" unicode="&#x1e7;" horiz-adv-x="611" 
d="M297 616l73 84h108l-114 -153h-133l-113 153h107zM362.5 472c27 -13.333 49.1689 -31.998 66.502 -55.998v65h108v-443c0 -77.333 -23.5 -137.833 -70.5 -181.5s-109.5 -65.5 -187.5 -65.5c-39.333 0 -77.5 5.33301 -114.5 16s-68.167 26 -93.5 46l42 87
c48.667 -34 102.667 -51 162 -51c45.333 0 82.166 12.5 110.499 37.5s42.5 60.833 42.5 107.5v43c-18 -24 -40.333 -42.667 -67 -56s-57.334 -20 -92.001 -20c-40.667 0 -78.334 10.5 -113.001 31.5s-62.167 50.167 -82.5 87.5s-30.5 79.666 -30.5 126.999
s10.167 89.666 30.5 126.999s47.833 66.333 82.5 87s72.334 31 113.001 31c35.333 0 66.5 -6.66699 93.5 -20zM194.002 349.502c-25.333 -27.667 -38 -61.832 -38 -102.499s12.667 -75 38 -103s58.666 -42 99.999 -42c40.667 0 74 13.833 100 41.5s39 62.167 39 103.5
s-13 75.666 -39 102.999s-59.333 41 -100 41c-41.333 0 -74.666 -13.833 -99.999 -41.5z" />
    <glyph glyph-name="Aringacute" unicode="&#x1fa;" horiz-adv-x="727" 
d="M381 1073h132l-130 -155h-105zM281 672c-14 11.333 -24.833 24.832 -32.5 40.499s-11.5 32.834 -11.5 51.501c0 21.333 5.66699 41.333 17 60s26.5 33.5 45.5 44.5s39.833 16.5 62.5 16.5c22 0 42.5 -5.5 61.5 -16.5s34.167 -25.833 45.5 -44.5s17 -38.667 17 -60
c0 -18 -3.66699 -34.667 -11 -50s-17.333 -28.333 -30 -39l269 -675h-125l-68 175h-318l-68 -175h-121zM402 721.499c11.333 11.667 17 25.834 17 42.501c0 16 -5.66699 29.667 -17 41s-24.666 17 -39.999 17s-28.833 -5.66699 -40.5 -17s-17.5 -25 -17.5 -41
c0 -16.667 5.66699 -30.834 17 -42.501s25 -17.5 41 -17.5c15.333 0 28.666 5.83301 39.999 17.5zM479 283.999l-117 301l-118 -301h235z" />
    <glyph glyph-name="aringacute" unicode="&#x1fb;" horiz-adv-x="616" 
d="M321 946h132l-130 -155h-105zM214.5 557c-24.333 24 -36.5 53 -36.5 87c0 21.333 5.66699 41.333 17 60s26.5 33.5 45.5 44.5s39.5 16.5 61.5 16.5s42.5 -5.5 61.5 -16.5s34.167 -25.833 45.5 -44.5s17 -38.667 17 -60c0 -34 -12.167 -63 -36.5 -87s-53.5 -36 -87.5 -36
s-63.167 12 -87.5 36zM343 601.5c11.333 11.667 17 25.834 17 42.501c0 16 -5.66699 29.667 -17 41s-25 17 -41 17c-15.333 0 -28.833 -5.66699 -40.5 -17s-17.5 -25 -17.5 -41c0 -16.667 5.66699 -30.834 17 -42.501s25 -17.5 41 -17.5s29.667 5.83301 41 17.5zM434 0v65
c-37.333 -51.333 -89.333 -77 -156 -77c-44 0 -83.833 11 -119.5 33s-63.834 52.333 -84.501 91s-31 81.667 -31 129c0 46.667 10.333 89.167 31 127.5s48.834 68.5 84.501 90.5s75.5 33 119.5 33c67.333 0 119.333 -25.333 156 -76v65h108v-481h-108zM194 347
c-26 -28.667 -38.999 -63.999 -38.999 -105.999s13.167 -77.5 39.5 -106.5s60.166 -43.5 101.499 -43.5c42 0 76.167 14.167 102.5 42.5s39.5 64.166 39.5 107.499c0 42.667 -13.167 78.167 -39.5 106.5s-60.5 42.5 -102.5 42.5s-76 -14.333 -102 -43z" />
    <glyph glyph-name="AEacute" unicode="&#x1fc;" horiz-adv-x="1147" 
d="M786 912h132l-130 -156h-106zM566 0v161h-298l-117 -161h-140l514 700h548v-108h-390v-185h374v-108h-374v-191h394v-108h-511zM566 570l-220 -301h220v301z" />
    <glyph glyph-name="aeacute" unicode="&#x1fd;" horiz-adv-x="884" 
d="M466 706h132l-130 -156h-105zM731.5 460.5c34.333 -21 61.332 -50.5039 80.999 -88.5039s29.5 -81.333 29.5 -130c0 -16 -1 -28.667 -3 -38h-357c6 -39.333 21.667 -69.333 47 -90s56.333 -31 93 -31c24 0 47.667 4.66699 71 14s44.333 22 63 38l62 -71
c-53.333 -50.667 -121 -76 -203 -76c-39.333 0 -75.5 7.16699 -108.5 21.5s-60.5 34.833 -82.5 61.5c-51.333 -55.333 -115.666 -83 -192.999 -83c-58.667 0 -104.667 13.833 -138 41.5s-50 63.834 -50 108.501s17.667 79.834 53 105.501s84.333 38.5 147 38.5h126
c-3.33301 76 -43.333 114 -120 114c-25.333 0 -49.666 -4.5 -72.999 -13.5s-44.333 -20.167 -63 -33.5l-42 85c25.333 18.667 54.666 33 87.999 43s68.333 15 105 15c41.333 0 76.5 -7.16699 105.5 -21.5s50.833 -35.166 65.5 -62.499
c19.333 26.667 44.5 47.334 75.5 62.001s65.167 22 102.5 22c44.667 0 84.167 -10.5 118.5 -31.5zM523.499 365.996c-22.333 -20.667 -36.167 -49.334 -41.5 -86.001h250c-5.33301 36.667 -19 65.334 -41 86.001s-49.333 31 -82 31c-34.667 0 -63.167 -10.333 -85.5 -31z
M322.498 95.9961c24.333 11.333 44.835 27.001 61.502 47.001c-6.66699 18 -11 38.667 -13 62h-112c-34.667 0 -60.334 -5.83301 -77.001 -17.5s-25 -26.834 -25 -45.501c0 -18 7.83301 -33 23.5 -45s38.167 -18 67.5 -18c25.333 0 50.166 5.66699 74.499 17z" />
    <glyph glyph-name="Oslashacute" unicode="&#x1fe;" horiz-adv-x="832" 
d="M437 912h132l-130 -156h-106zM638 642l69 70.001l71 -72l-67 -68c46.667 -62 70 -136 70 -222c0 -68.667 -15.667 -130.5 -47 -185.5s-74.666 -98.167 -129.999 -129.5s-118 -47 -188 -47c-42 0 -81.667 6 -119 18s-71.333 29 -102 51l-67 -68l-72 71l66 67
c-47.333 63.333 -71 137.666 -71 222.999c0 68.667 15.667 130.5 47 185.5s74.666 98.167 129.999 129.5s118 47 188 47c86 0 160 -23.333 222 -70zM291.5 567.501c-37 -21 -66 -50.333 -87 -88s-31.5 -80.834 -31.5 -129.501c0 -51.333 12.333 -96.666 37 -135.999l344 344
c-40 27.333 -86 41 -138 41c-46 0 -87.5 -10.5 -124.5 -31.5zM623 485.001l-344.001 -344.001c38.667 -26.667 84.334 -40 137.001 -40c46 0 87.5 10.5 124.5 31.5s66 50.333 87 88s31.5 80.834 31.5 129.501c0 50.667 -12 95.667 -36 135z" />
    <glyph glyph-name="oslashacute" unicode="&#x1ff;" 
d="M324 706h132l-130 -156h-106zM446 449l52.998 53.001l64 -62l-52 -52c30.667 -43.333 46 -92.333 46 -147c0 -47.333 -11.167 -90.333 -33.5 -129s-53.166 -69 -92.499 -91s-83 -33 -131 -33c-54 0 -102.667 14.333 -146 43l-53 -53l-63 63l51 52
c-30.667 42 -46 91.333 -46 148c0 47.333 11.167 90.166 33.5 128.499s53 68.333 92 90s82.833 32.5 131.5 32.5c56.667 0 105.334 -14.333 146.001 -43zM194.998 349.501c-28 -28.333 -42.001 -64.5 -42.001 -108.5c0 -26.667 5.66699 -50.667 17 -72l203 203
c-21.333 13.333 -45.666 20 -72.999 20c-42 0 -77 -14.167 -105 -42.5zM429.997 312.001l-202.999 -203.001c21.333 -13.333 45.666 -20 72.999 -20c28 0 53.167 6.5 75.5 19.5s40 31 53 54s19.5 49.167 19.5 78.5c0 24.667 -6 48.334 -18 71.001z" />
    <glyph glyph-name="Scommaaccent" unicode="&#x218;" horiz-adv-x="676" 
d="M352 602c-44.667 0 -81.167 -9 -109.5 -27s-42.5 -42.333 -42.5 -73c0 -26.667 12.833 -47.167 38.5 -61.5s63.834 -24.833 114.501 -31.5l50 -7c146.667 -22.667 220 -86.334 220 -191.001c0 -48 -12.833 -88.833 -38.5 -122.5s-59.834 -58.834 -102.501 -75.501
s-90 -25 -142 -25c-52.667 0 -104.834 8.16699 -156.501 24.5s-95.5 38.5 -131.5 66.5l61 95c28 -22 62 -40.333 102 -55s81.667 -22 125 -22c46.667 0 84.834 9 114.501 27s44.5 42.667 44.5 74c0 26.667 -12.667 47.167 -38 61.5s-65 25.5 -119 33.5l-54 8
c-140.667 19.333 -211 84 -211 194c0 45.333 12.167 84.333 36.5 117s57.333 57.334 99 74.001s87.5 25 137.5 25c49.333 0 95 -6.16699 137 -18.5s84 -31.166 126 -56.499l-57 -96c-62 41.333 -130 62 -204 62zM373 -231h-91l21 188h113z" />
    <glyph glyph-name="scommaaccent" unicode="&#x219;" horiz-adv-x="501" 
d="M340.5 388c-28.333 8 -56.165 12.002 -83.498 12.002c-28 0 -49.833 -5 -65.5 -15s-23.5 -23.667 -23.5 -41c0 -14.667 7.33301 -25.834 22 -33.501s36.334 -13.5 65.001 -17.5l48 -7c107.333 -14.667 161 -61 161 -139c0 -48.667 -19.333 -87.334 -58 -116.001
s-91.667 -43 -159 -43c-37.333 0 -74.333 4.66699 -111 14s-69.334 24.333 -98.001 45l44 83c22.667 -15.333 47.167 -27.333 73.5 -36s57.166 -13 92.499 -13c34 0 60 5 78 15s27 24.333 27 43c0 14.667 -7.16699 26.167 -21.5 34.5s-36.833 14.5 -67.5 18.5l-45 7
c-108.667 14 -163 60.667 -163 140c0 48 17.667 85.5 53 112.5s83.666 40.5 144.999 40.5c71.333 0 137 -16 197 -48l-38 -85c-20 11.333 -44.167 21 -72.5 29zM277.001 -230.998h-91l22 188h112z" />
    <glyph glyph-name="uni021A" unicode="&#x21a;" horiz-adv-x="607" 
d="M362 591v-591h-4l-50 -161h-114l55 161h-5v591h-227v109h572v-109h-227z" />
    <glyph glyph-name="uni0232" unicode="&#x232;" horiz-adv-x="667" 
d="M495 873v-87h-320v87h320zM393 0h-116v284l-273 416h138l194 -310l193 310h134l-270 -417v-283z" />
    <glyph glyph-name="uni0233" unicode="&#x233;" horiz-adv-x="550" 
d="M438 668v-88h-320v88h320zM48 -202l173 306l-213 377h124l150 -266l142 266h121l-377 -683h-120z" />
    <glyph glyph-name="uni0237" unicode="&#x237;" horiz-adv-x="261" 
d="M149 -170c-24.667 -26.667 -58 -40 -100 -40c-12 0 -24.667 1.33301 -38 4s-24.333 6 -33 10l17 96c14 -4.66699 27 -7 39 -7c28.667 0 43 18 43 54v534h109v-539c0 -48 -12.333 -85.333 -37 -112z" />
    <glyph glyph-name="uni0259" unicode="&#x259;" horiz-adv-x="558" 
d="M154.5 20c-35 21.333 -62.3301 51 -81.9971 89s-29.5 81.333 -29.5 130c0 19.333 0.666992 32 2 38h358c-6 39.333 -21.833 69.333 -47.5 90s-56.834 31 -93.501 31c-24 0 -47.667 -4.66699 -71 -14s-44.333 -22 -63 -38l-62 71c52.667 50 120 75 202 75
c48 0 90.833 -10.5 128.5 -31.5s67 -50.333 88 -88s31.5 -81.167 31.5 -130.5s-10.333 -93.333 -31 -132s-49.334 -68.667 -86.001 -90s-78.334 -32 -125.001 -32c-44.667 0 -84.5 10.667 -119.5 32zM360.503 115c22.333 20.667 36.166 49 41.499 85h-249
c5.33301 -36 18.833 -64.333 40.5 -85s48.834 -31 81.501 -31c34.667 0 63.167 10.333 85.5 31z" />
    <glyph glyph-name="uni02BB" unicode="&#x2bb;" horiz-adv-x="260" 
d="M117 720h93l-32 -282h-124z" />
    <glyph glyph-name="uni02BC" unicode="&#x2bc;" horiz-adv-x="260" 
d="M143 438h-92l33 282h123z" />
    <glyph glyph-name="uni02BE" unicode="&#x2be;" horiz-adv-x="271" 
d="M125 472c18 18.667 27 40.667 27 66c0 26.667 -8.83301 49.334 -26.5 68.001s-39.167 28 -64.5 28v93c34 0 65.5 -8.5 94.5 -25.5s52 -39.833 69 -68.5s25.5 -60.334 25.5 -95.001c0 -34 -8.5 -65.5 -25.5 -94.5s-40 -52 -69 -69s-60.5 -25.5 -94.5 -25.5v95
c24.667 0 46 9.33301 64 28z" />
    <glyph glyph-name="uni02BF" unicode="&#x2bf;" horiz-adv-x="271" 
d="M145.5 604.5c-17.667 -18.333 -26.5 -40.5 -26.5 -66.5c0 -26.667 8.83301 -49.334 26.5 -68.001s38.834 -28 63.501 -28v-93c-34 0 -65.5 8.5 -94.5 25.5s-51.833 39.833 -68.5 68.5s-25 60.334 -25 95.001c0 34 8.5 65.5 25.5 94.5s39.833 52 68.5 69s60 25.5 94 25.5
v-95c-24.667 0 -45.834 -9.16699 -63.501 -27.5z" />
    <glyph glyph-name="circumflex" unicode="&#x2c6;" horiz-adv-x="511" 
d="M256 632l-72 -84h-108l114 153h133l114 -153h-108z" />
    <glyph glyph-name="caron" unicode="&#x2c7;" horiz-adv-x="511" 
d="M256 616l72 84h109l-114 -153h-134l-113 153h108z" />
    <glyph glyph-name="breve" unicode="&#x2d8;" horiz-adv-x="511" 
d="M256 631c48.667 0 81.333 29 98 87l85 -24c-12.667 -48.667 -35 -86.167 -67 -112.5s-70.667 -39.5 -116 -39.5s-84 13.167 -116 39.5s-54.333 63.833 -67 112.5l84 24c16.667 -58 49.667 -87 99 -87z" />
    <glyph glyph-name="dotaccent" unicode="&#x2d9;" horiz-adv-x="292" 
d="M196.5 693c13.667 -14 20.5 -31 20.5 -51s-6.83301 -36.833 -20.5 -50.5s-30.5 -20.5 -50.5 -20.5s-36.833 6.83301 -50.5 20.5s-20.5 30.5 -20.5 50.5s6.83301 37 20.5 51s30.5 21 50.5 21s36.833 -7 50.5 -21z" />
    <glyph glyph-name="ring" unicode="&#x2da;" horiz-adv-x="486" 
d="M156 573c-24 24 -36 52.667 -36 86c0 34 12 63 36 87s53 36 87 36c34.667 0 64.167 -12 88.5 -36s36.5 -53 36.5 -87c0 -22 -5.66699 -42.333 -17 -61s-26.5 -33.5 -45.5 -44.5s-39.833 -16.5 -62.5 -16.5c-34 0 -63 12 -87 36zM284 617.5c11.333 11 17 24.833 17 41.5
s-5.66699 30.667 -17 42s-25 17 -41 17c-15.333 0 -28.666 -5.66699 -39.999 -17s-17 -25.333 -17 -42c0 -16 5.66699 -29.667 17 -41s24.666 -17 39.999 -17c16 0 29.667 5.5 41 16.5z" />
    <glyph glyph-name="ogonek" unicode="&#x2db;" horiz-adv-x="549" 
d="M336 -209c-40.667 0 -73.668 10.499 -99.001 31.499s-38 48.833 -38 83.5c0 33.333 12.167 61.5 36.5 84.5s59.833 43.833 106.5 62.5l61 -45c-38 -15.333 -65.167 -29.666 -81.5 -42.999s-24.5 -28.333 -24.5 -45c0 -12 4.5 -21.833 13.5 -29.5s20.833 -11.5 35.5 -11.5
c22.667 0 43.334 8.33301 62.001 25l57 -63c-34.667 -33.333 -77.667 -50 -129 -50z" />
    <glyph glyph-name="tilde" unicode="&#x2dc;" horiz-adv-x="511" 
d="M123 675c20 10 42.667 15.001 68 15.001c18 0 33.667 -2 47 -6s26.666 -9.66699 39.999 -17c2 -1.33301 7.66699 -4 17 -8s18.333 -6 27 -6c10.667 0 20.834 2.83301 30.501 8.5s20.834 14.5 33.501 26.5l59 -62c-16.667 -22.667 -34.834 -39 -54.501 -49
s-42.5 -15 -68.5 -15c-18 0 -33.5 2.16699 -46.5 6.5s-26.5 10.166 -40.5 17.499c-2 1.33301 -7.66699 4 -17 8s-18.333 6 -27 6c-11.333 0 -22 -2.83301 -32 -8.5s-20.667 -14.5 -32 -26.5l-59 63c16.667 21.333 35 37 55 47z" />
    <glyph glyph-name="hungarumlaut" unicode="&#x2dd;" horiz-adv-x="511" 
d="M139 706h132l-130 -156h-105zM344 706h132l-130 -156h-106z" />
    <glyph glyph-name="gravecomb" unicode="&#x300;" horiz-adv-x="0" 
d="M-328 706l103 -156h-105l-130 156h132z" />
    <glyph glyph-name="acutecomb" unicode="&#x301;" horiz-adv-x="0" 
d="M-277 706h132l-130 -156h-105z" />
    <glyph glyph-name="uni0302" unicode="&#x302;" horiz-adv-x="0" 
d="M-301 632l-72 -84h-108l113 153h134l113 -153h-107z" />
    <glyph glyph-name="tildecomb" unicode="&#x303;" horiz-adv-x="0" 
d="M-434 675c20 10 42.6699 15 68.0029 15c17.333 0 32.166 -2 44.499 -6s26.833 -9.66699 43.5 -17c17.333 -9.33301 31.666 -14 42.999 -14c20.667 0 42 11.667 64 35l60 -62c-17.333 -22.667 -36 -39 -56 -49s-42.667 -15 -68 -15c-16.667 0 -30.834 1.83301 -42.501 5.5
s-26.167 9.5 -43.5 17.5c-7.33301 4 -14.833 7.5 -22.5 10.5s-15.167 4.5 -22.5 4.5c-10.667 0 -21 -2.83301 -31 -8.5s-21 -14.5 -33 -26.5l-59 63c16.667 21.333 35 37 55 47z" />
    <glyph glyph-name="uni0304" unicode="&#x304;" horiz-adv-x="0" 
d="M-142 668v-88h-319v88h319z" />
    <glyph glyph-name="uni0306" unicode="&#x306;" horiz-adv-x="0" 
d="M-301 631c48 0 81 29 99 87l85 -24c-13.333 -48.667 -36 -86.167 -68 -112.5s-70.667 -39.5 -116 -39.5s-84 13.167 -116 39.5s-54.333 63.833 -67 112.5l84 24c16.667 -58 49.667 -87 99 -87z" />
    <glyph glyph-name="uni0307" unicode="&#x307;" horiz-adv-x="0" 
d="M-250.5 693c13.667 -14 20.5 -31 20.5 -51s-6.83301 -36.833 -20.5 -50.5s-30.5 -20.5 -50.5 -20.5s-36.833 6.83301 -50.5 20.5s-20.5 30.5 -20.5 50.5s6.83301 37 20.5 51s30.5 21 50.5 21s36.833 -7 50.5 -21z" />
    <glyph glyph-name="uni0308" unicode="&#x308;" horiz-adv-x="0" 
d="M-357.5 675c13.667 -14 20.5 -31 20.5 -51s-6.83301 -36.833 -20.5 -50.5s-30.5 -20.5 -50.5 -20.5c-20.667 0 -37.667 6.83301 -51 20.5s-20 30.5 -20 50.5s6.83301 37 20.5 51s30.5 21 50.5 21s36.833 -7 50.5 -21zM-144.5 675c13.667 -14 20.5 -31 20.5 -51
s-6.83301 -36.833 -20.5 -50.5s-30.834 -20.5 -51.501 -20.5c-20 0 -36.833 6.83301 -50.5 20.5s-20.5 30.5 -20.5 50.5s6.83301 37 20.5 51s30.5 21 50.5 21c20.667 0 37.834 -7 51.501 -21z" />
    <glyph glyph-name="uni030A" unicode="&#x30a;" horiz-adv-x="0" 
d="M-363 553.5c-19.333 11 -34.667 25.833 -46 44.5s-17 39 -17 61s5.66699 42.5 17 61.5s26.5 34 45.5 45s39.833 16.5 62.5 16.5c34 0 63.167 -12 87.5 -36s36.5 -53 36.5 -87c0 -22 -5.66699 -42.333 -17 -61s-26.5 -33.5 -45.5 -44.5s-39.5 -16.5 -61.5 -16.5
s-42.667 5.5 -62 16.5zM-261.001 618c11.333 11.333 17 25 17 41c0 16.667 -5.66699 30.667 -17 42s-24.666 17 -39.999 17c-16 0 -29.667 -5.66699 -41 -17s-17 -25.333 -17 -42c0 -16 5.66699 -29.667 17 -41s25 -17 41 -17c15.333 0 28.666 5.66699 39.999 17z" />
    <glyph glyph-name="uni030B" unicode="&#x30b;" horiz-adv-x="0" 
d="M-352 706h118l-110 -156h-107zM-158 706h120l-123 -156h-107z" />
    <glyph glyph-name="uni030C" unicode="&#x30c;" horiz-adv-x="0" 
d="M-301 616l73 84h107l-113 -153h-134l-113 153h108z" />
    <glyph glyph-name="uni0312" unicode="&#x312;" horiz-adv-x="0" 
d="M-317 738h91l-21 -188h-113z" />
    <glyph glyph-name="dotbelowcomb" unicode="&#x323;" horiz-adv-x="0" 
d="M-249.5 -83.5c13.667 -13.667 20.5 -30.834 20.5 -51.501c0 -20 -6.83301 -36.833 -20.5 -50.5s-30.5 -20.5 -50.5 -20.5c-20.667 0 -37.667 6.83301 -51 20.5s-20 30.5 -20 50.5c0 20.667 6.66699 37.834 20 51.501s30.333 20.5 51 20.5
c20 0 36.833 -6.83301 50.5 -20.5z" />
    <glyph glyph-name="uni0326" unicode="&#x326;" horiz-adv-x="0" 
d="M-280 -231h-91l21 188h113z" />
    <glyph glyph-name="uni0327" unicode="&#x327;" horiz-adv-x="0" 
d="M-380 -161l56 165h103l-52 -165h-107z" />
    <glyph glyph-name="uni0328" unicode="&#x328;" horiz-adv-x="0" 
d="M-295 -209c-41.333 0 -75.167 10.002 -101.5 30.002s-39.5 45.667 -39.5 77c0 34.667 13.833 63.167 41.5 85.5s69.167 43.166 124.5 62.499l25 -25c-32 -17.333 -54.833 -33.833 -68.5 -49.5s-20.5 -32.5 -20.5 -50.5c0 -12.667 4.5 -22.834 13.5 -30.501
s21.167 -11.5 36.5 -11.5c22.667 0 43 8.33301 61 25l57 -63c-35.333 -33.333 -78.333 -50 -129 -50z" />
    <glyph glyph-name="uni032E" unicode="&#x32e;" horiz-adv-x="0" 
d="M-300 -130c47.333 0 80.333 29 99 87l84 -25c-13.333 -48.667 -35.833 -85.834 -67.5 -111.501s-70.167 -38.5 -115.5 -38.5c-46 0 -84.833 12.833 -116.5 38.5s-54.167 62.834 -67.5 111.501l85 25c16.667 -58 49.667 -87 99 -87z" />
    <glyph glyph-name="uni0331" unicode="&#x331;" horiz-adv-x="0" 
d="M-141 -87v-88h-320v88h320z" />
    <glyph glyph-name="uni0335" unicode="&#x335;" horiz-adv-x="0" 
d="M-484 217v93h366v-93h-366z" />
    <glyph glyph-name="uni0336" unicode="&#x336;" horiz-adv-x="0" 
d="M-679 217v93h757v-93h-757z" />
    <glyph glyph-name="uni0394" unicode="&#x394;" horiz-adv-x="699" 
d="M664 0h-629v92l243 608h143l243 -608v-92zM535 110l-186 475l-185 -475h371z" />
    <glyph glyph-name="uni03A9" unicode="&#x3a9;" horiz-adv-x="853" 
d="M93 216.5c-20.667 43 -30.9971 90.167 -30.9971 141.5c0 67.333 15.667 128 47 182s74.666 96.167 129.999 126.5s118 45.5 188 45.5s132.667 -15.167 188 -45.5s98.666 -72.5 129.999 -126.5s47 -114.667 47 -182c0 -51.333 -10.333 -98.5 -31 -141.5
s-49.667 -79.5 -87 -109.5h144v-107h-314v95c50 16 90.167 46 120.5 90s45.5 96.667 45.5 158c0 50 -10.5 94.5 -31.5 133.5s-49.833 69.167 -86.5 90.5s-78.334 32 -125.001 32c-46 0 -87.5 -10.667 -124.5 -32s-66 -51.5 -87 -90.5s-31.5 -83.5 -31.5 -133.5
c0 -61.333 15.167 -114 45.5 -158s70.5 -74 120.5 -90v-95h-315v107h145c-37.333 30 -66.333 66.5 -87 109.5z" />
    <glyph glyph-name="uni03BC" unicode="&#x3bc;" horiz-adv-x="593" 
d="M71 481h109v-268c0 -38.667 9.66699 -68.5 29 -89.5s46.666 -31.5 81.999 -31.5c34 0 62.167 10.833 84.5 32.5s33.5 51.5 33.5 89.5v267h110v-481h-107v64c-17.333 -26 -39 -45.167 -65 -57.5s-54.333 -18.5 -85 -18.5c-31.333 0 -59.666 7.33301 -84.999 22v-210h-106
v681z" />
    <glyph glyph-name="pi" unicode="&#x3c0;" horiz-adv-x="594" 
d="M415 0v383h-231v-383h-109v481h449v-481h-109z" />
    <glyph glyph-name="uni10D0" unicode="&#x10d0;" horiz-adv-x="542" 
d="M151.5 13.5c-35 17 -62.666 40.835 -82.999 71.502s-30.5 65.667 -30.5 105c0 33.333 6.33301 63 19 89l100 -25c-6.66699 -16 -10 -34 -10 -54c0 -34 11.167 -61.333 33.5 -82s51.166 -31 86.499 -31c36.667 0 65.834 9.83301 87.501 29.5s32.5 46.5 32.5 80.5
c0 26 -6.33301 47.167 -19 63.5s-32 34.166 -58 53.499c-20.667 16 -37.334 30.5 -50.001 43.5s-23.5 29.667 -32.5 50s-13.5 44.833 -13.5 73.5h110c0 -19.333 5.5 -35.833 16.5 -49.5s28.167 -29.5 51.5 -47.5c22.667 -18 41 -34.333 55 -49s26.167 -34 36.5 -58
s15.5 -53 15.5 -87c0 -38.667 -10.5 -73.334 -31.5 -104.001s-49.333 -54.667 -85 -72s-74.167 -26 -115.5 -26c-42 0 -80.5 8.5 -115.5 25.5z" />
    <glyph glyph-name="uni10D1" unicode="&#x10d1;" 
d="M168.5 21c-39 22 -69.666 52.334 -91.999 91.001s-33.5 81.667 -33.5 129c0 42.667 9.16699 81.667 27.5 117s43.666 64.5 75.999 87.5s69.166 37.5 110.499 43.5v55c0 16.667 -3.16699 30 -9.5 40s-16.5 21.333 -30.5 34c-16 14.667 -28.167 29 -36.5 43
s-12.5 33.667 -12.5 59h117c0 -13.333 3 -24.333 9 -33s15 -18 27 -28c17.333 -14.667 30.333 -29.167 39 -43.5s13 -35.166 13 -62.499v-71c54.667 -14.667 99 -43.834 133 -87.501s51 -94.834 51 -153.501c0 -47.333 -11.167 -90.333 -33.5 -129s-53.166 -69 -92.499 -91
s-83.333 -33 -132 -33c-48 0 -91.5 11 -130.5 33zM403.501 133.001c27.667 28 41.5 64 41.5 108c0 43.333 -13.833 79 -41.5 107s-62.5 42 -104.5 42c-41.333 0 -75.666 -14 -102.999 -42s-41 -63.667 -41 -107c0 -44 13.667 -80 41 -108s61.666 -42 102.999 -42
c42 0 76.833 14 104.5 42z" />
    <glyph glyph-name="uni10D2" unicode="&#x10d2;" 
d="M520.5 153.5c24.333 -35.667 36.5 -78.167 36.5 -127.5c0 -43.333 -11.167 -82.833 -33.5 -118.5s-53.166 -64 -92.499 -85s-83.333 -31.5 -132 -31.5c-48 0 -91.5 10.5 -130.5 31.5s-69.667 50 -92 87s-33.5 78.167 -33.5 123.5c0 66.667 22.167 120.5 66.5 161.5
s104.5 66.167 180.5 75.5c34 3.33301 59.167 10.333 75.5 21s24.5 26 24.5 46c0 18 -8 33 -24 45s-38.333 18 -67 18c-28 0 -50.333 -7 -67 -21s-25 -33 -25 -57h-109c0 52.667 18.667 94.167 56 124.5s85.666 45.5 144.999 45.5c39.333 0 74.333 -6.33301 105 -19
s54.667 -30 72 -52s26 -46.333 26 -73c0 -55.333 -29 -94.333 -87 -117c46 -16 81.167 -41.833 105.5 -77.5zM404.5 -68.5c27 26.333 40.5 59.5 40.5 99.5s-13.667 73.333 -41 100s-62.333 40 -105 40s-77.334 -13.333 -104.001 -40s-40 -60 -40 -100
s13.333 -73.167 40 -99.5s61.334 -39.5 104.001 -39.5c43.333 0 78.5 13.167 105.5 39.5z" />
    <glyph glyph-name="uni10D3" unicode="&#x10d3;" horiz-adv-x="862" 
d="M238.5 -145c-67.667 36.667 -117.169 85.499 -148.502 146.499s-47 128.5 -47 202.5c0 93.333 19 164.666 57 213.999s89.333 74 154 74c36.667 0 69.334 -9.5 98.001 -28.5s50 -47.5 64 -85.5c14.667 38 38.334 66.667 71.001 86s70.334 29 113.001 29
c38 0 73.833 -10.167 107.5 -30.5s60.667 -48.666 81 -84.999s30.5 -78.166 30.5 -125.499c0 -48 -10.167 -90.167 -30.5 -126.5s-48 -64.333 -83 -84s-73.833 -29.5 -116.5 -29.5c-42 0 -80.667 9.83301 -116 29.5s-63.333 47.5 -84 83.5s-31 77.333 -31 124v20
c0 37.333 -8.66699 66.833 -26 88.5s-41 32.5 -71 32.5c-70 0 -105 -62 -105 -186c0 -93.333 28.833 -167 86.5 -221s145.5 -81 263.5 -81h178v-102h-190c-102.667 0 -187.834 18.333 -255.501 55zM673.998 147.499c23.333 25 35 59.167 35 102.5s-11.667 77.5 -35 102.5
s-51.666 37.5 -84.999 37.5s-61.833 -12.5 -85.5 -37.5s-35.5 -59.167 -35.5 -102.5s11.833 -77.5 35.5 -102.5s52.167 -37.5 85.5 -37.5s61.666 12.5 84.999 37.5z" />
    <glyph glyph-name="uni10D4" unicode="&#x10d4;" horiz-adv-x="577" 
d="M158.5 -181c-37 18.667 -66.333 44.502 -88 77.502s-32.5 70.167 -32.5 111.5c0 30.667 6.33301 61 19 91l99 -21c-5.33301 -16.667 -8 -35.334 -8 -56.001c0 -37.333 12.167 -68 36.5 -92s55.833 -36 94.5 -36c38 0 69 13.5 93 40.5s36 62.5 36 106.5v212
c0 42.667 -11.333 76.167 -34 100.5s-53.334 36.5 -92.001 36.5c-34 0 -62 -9.66699 -84 -29s-33 -45.333 -33 -78c0 -13.333 2 -28 6 -44l-104 -19c-8.66699 23.333 -13 47 -13 71c0 38 10.167 72.333 30.5 103s48 54.667 83 72s73.167 26 114.5 26
c42.667 0 81.834 -8.66699 117.501 -26s64.167 -43.5 85.5 -78.5s32 -77.5 32 -127.5v-226c0 -50.667 -11 -94.334 -33 -131.001s-51 -64.5 -87 -83.5s-75.333 -28.5 -118 -28.5c-43.333 0 -83.5 9.33301 -120.5 28z" />
    <glyph glyph-name="uni10D5" unicode="&#x10d5;" horiz-adv-x="578" 
d="M160 -183c-38 17.333 -67.834 41.166 -89.501 71.499s-32.5 64.5 -32.5 102.5c0 29.333 6 57.333 18 84l99 -20c-4.66699 -14.667 -7 -30.667 -7 -48c0 -36.667 12.333 -64.834 37 -84.501s59 -29.5 103 -29.5c40.667 0 73.5 9.83301 98.5 29.5s37.5 44.5 37.5 74.5
c0 32 -11.167 57.833 -33.5 77.5s-51.166 29.5 -86.499 29.5h-48v99h39c74.667 0 112 28 112 84c0 30 -11.167 54.667 -33.5 74s-51.5 29 -87.5 29c-36.667 0 -66 -9.33301 -88 -28s-33 -41.667 -33 -69c0 -13.333 2 -27 6 -41l-105 -19c-7.33301 24 -11 46.333 -11 67
c0 34.667 10 66.667 30 96s47.5 52.666 82.5 69.999s73.833 26 116.5 26c42 0 81 -8.16699 117 -24.5s64.833 -39.166 86.5 -68.499s32.5 -62.666 32.5 -99.999c0 -39.333 -8.83301 -70.666 -26.5 -93.999s-43.167 -41 -76.5 -53c35.333 -9.33301 64 -28 86 -56
s33 -64.333 33 -109c0 -38 -11.167 -72 -33.5 -102s-52.333 -53.167 -90 -69.5s-79.167 -24.5 -124.5 -24.5c-47.333 0 -90 8.66699 -128 26z" />
    <glyph glyph-name="uni10D6" unicode="&#x10d6;" horiz-adv-x="630" 
d="M210 20.5c-38 21.667 -67.835 51.666 -89.502 89.999s-32.5 81.5 -32.5 129.5c0 30 5.33301 58.5 16 85.5s26 49.167 46 66.5c-38 12 -68.667 31.833 -92 59.5s-35 61.834 -35 102.501c0 34 7.83301 64.5 23.5 91.5s38.334 48.167 68.001 63.5s64.167 23 103.5 23
c38.667 0 72.834 -7.5 102.501 -22.5s52.667 -35.167 69 -60.5s24.5 -53.333 24.5 -84c0 -36 -10.333 -66.333 -31 -91c39.333 -4 74.5 -16.667 105.5 -38s55.167 -49 72.5 -83s26 -71.667 26 -113c0 -48 -11 -91.167 -33 -129.5s-52 -68.333 -90 -90
s-80.333 -32.5 -127 -32.5s-89 10.833 -127 32.5zM281.998 486.499c16.667 16.333 25 37.5 25 63.5c0 25.333 -8.33301 46.333 -25 63s-38 25 -64 25c-25.333 0 -46.333 -8.33301 -63 -25s-25 -37.667 -25 -63c0 -26 8.33301 -47.167 25 -63.5s37.667 -24.5 63 -24.5
c26 0 47.333 8.16699 64 24.5zM435.498 131.999c26.333 27.333 39.5 63.333 39.5 108c0 44 -13.167 79.667 -39.5 107s-59.166 41 -98.499 41s-72.166 -13.667 -98.499 -41s-39.5 -63 -39.5 -107c0 -44.667 13.167 -80.667 39.5 -108s59.166 -41 98.499 -41
s72.166 13.667 98.499 41z" />
    <glyph glyph-name="uni10D7" unicode="&#x10d7;" horiz-adv-x="874" 
d="M159.5 19c-35.667 20.667 -64.001 50.168 -85.001 88.501s-31.5 82.833 -31.5 133.5c0 49.333 10.333 93.166 31 131.499s48 67.833 82 88.5s70.667 31 110 31c46 0 85.667 -9.5 119 -28.5s57.666 -47.833 72.999 -86.5c14.667 38 36.334 66.667 65.001 86
s61.334 29 98.001 29c41.333 0 78 -10.5 110 -31.5s56.667 -50.667 74 -89s26 -82.833 26 -133.5c0 -80.667 -21.333 -160 -64 -238h-112c43.333 83.333 65 161.333 65 234c0 48 -9.5 86 -28.5 114s-44.833 42 -77.5 42c-30 0 -53.833 -11 -71.5 -33
s-26.5 -52.333 -26.5 -91v-25c0 -50.667 -10.5 -95.167 -31.5 -133.5s-49.5 -67.833 -85.5 -88.5s-76 -31 -120 -31s-83.833 10.333 -119.5 31zM369.499 130.501c24.333 26.333 36.5 63.166 36.5 110.499c0 46.667 -12.167 83.167 -36.5 109.5s-54.5 39.5 -90.5 39.5
c-35.333 0 -65.166 -13.167 -89.499 -39.5s-36.5 -62.833 -36.5 -109.5c0 -47.333 12.167 -84.166 36.5 -110.499s54.166 -39.5 89.499 -39.5c36 0 66.167 13.167 90.5 39.5z" />
    <glyph glyph-name="uni10D8" unicode="&#x10d8;" horiz-adv-x="578" 
d="M43 238c0 50.667 10.332 95.167 30.999 133.5s49.5 68 86.5 89s79.833 31.5 128.5 31.5s91.667 -10.5 129 -31.5s66.333 -50.667 87 -89s31 -82.833 31 -133.5c0 -82 -21.667 -161.333 -65 -238h-112c43.333 83.333 65 161.333 65 234
c0 47.333 -12.167 85.166 -36.5 113.499s-57.166 42.5 -98.499 42.5c-40.667 0 -73.167 -14.167 -97.5 -42.5s-36.5 -66.166 -36.5 -113.499c0 -72.667 21.667 -150.667 65 -234h-112c-43.333 76.667 -65 156 -65 238z" />
    <glyph glyph-name="uni10D9" unicode="&#x10d9;" horiz-adv-x="551" 
d="M140.5 -181.5c-37 18.333 -65.834 43.3281 -86.501 74.9951s-31 66.5 -31 104.5c0 30 6 58 18 84l102 -20c-4.66699 -14.667 -7 -30.667 -7 -48c0 -35.333 11.333 -64.166 34 -86.499s54.667 -33.5 96 -33.5c42.667 0 75.834 9.83301 99.501 29.5s35.5 46.167 35.5 79.5
c0 34 -10.667 60.833 -32 80.5s-50.333 29.5 -87 29.5h-49v100h40c74.667 0 112 28 112 84c0 28 -9.83301 50.333 -29.5 67s-45.5 25.334 -77.5 26.001v102c38.667 -0.666992 74.834 -8.5 108.501 -23.5s60.5 -36.333 80.5 -64s30 -59.5 30 -95.5
c0 -39.333 -8.83301 -70.666 -26.5 -93.999s-42.834 -40.666 -75.501 -51.999c34 -9.33301 62.333 -27.833 85 -55.5s34 -64.5 34 -110.5c0 -41.333 -11.167 -77.666 -33.5 -108.999s-52.333 -55.333 -90 -72s-79.167 -25 -124.5 -25c-46.667 0 -88.5 9.16699 -125.5 27.5z
" />
    <glyph glyph-name="uni10DA" unicode="&#x10da;" horiz-adv-x="1097" 
d="M251.5 -144.5c-72.333 37 -125.167 87.334 -158.5 151.001s-50 136.5 -50 218.5c0 84 17.833 149.5 53.5 196.5s83.834 70.5 144.501 70.5c77.333 0 130 -36.333 158 -109c13.333 37.333 33.333 64.833 60 82.5s56.667 26.5 90 26.5c34 0 64.833 -8.83301 92.5 -26.5
s47.5 -45.167 59.5 -82.5c26.667 72.667 79 109 157 109c37.333 0 71 -10.5 101 -31.5s53.5 -50.833 70.5 -89.5s25.5 -83 25.5 -133c0 -39.333 -5.16699 -76.833 -15.5 -112.5s-23.833 -67.5 -40.5 -95.5l-97 33c27.333 54.667 41 111.667 41 171
c0 47.333 -9 85.166 -27 113.499s-42 42.5 -72 42.5c-29.333 0 -52 -11.667 -68 -35s-24 -57 -24 -101v-148h-111v154c0 40.667 -7.83301 72.5 -23.5 95.5s-38.5 34.5 -68.5 34.5s-52.833 -11.5 -68.5 -34.5s-23.5 -54.833 -23.5 -95.5v-154h-112v148
c0 44 -8 77.667 -24 101s-39.333 35 -70 35c-30 0 -53.5 -13.333 -70.5 -40s-25.5 -66.667 -25.5 -120c0 -108 31.667 -189.667 95 -245s162.666 -83 297.999 -83h276v-102h-296c-112 0 -204.167 18.5 -276.5 55.5z" />
    <glyph glyph-name="uni10DB" unicode="&#x10db;" horiz-adv-x="601" 
d="M163.5 21c-38.333 22 -67.999 52.1689 -88.999 90.502s-31.5 81.5 -31.5 129.5c0 46 10.333 88 31 126s48.834 67.833 84.501 89.5s75.5 32.5 119.5 32.5c64.667 0 116 -24.667 154 -74v92c0 38.667 -12.833 69 -38.5 91s-57.834 33 -96.501 33
c-37.333 0 -68 -8.33301 -92 -25s-36 -39.334 -36 -68.001h-109c0 40.667 10.833 75.667 32.5 105s50.834 51.5 87.501 66.5s76.667 22.5 120 22.5c45.333 0 86.166 -8.66699 122.499 -26s65.166 -42.333 86.499 -75s32 -71.334 32 -116.001v-274
c0 -52.667 -11 -98 -33 -136s-51.667 -67 -89 -87s-78.333 -30 -123 -30c-50 0 -94.167 11 -132.5 33zM397.001 133.502c26 28.333 39.001 64.168 39.001 107.501c0 41.333 -13 75.833 -39 103.5s-59.667 41.5 -101 41.5c-27.333 0 -51.833 -6.5 -73.5 -19.5
s-38.334 -30.5 -50.001 -52.5s-17.5 -46.333 -17.5 -73c0 -42.667 13 -78.334 39 -107.001s60 -43 102 -43c41.333 0 75 14.167 101 42.5z" />
    <glyph glyph-name="uni10DC" unicode="&#x10dc;" horiz-adv-x="601" 
d="M183 18c-37.333 20 -67.001 49 -89.001 87s-33 83.333 -33 136v288c0 39.333 10.167 73.5 30.5 102.5s47.333 51 81 66s70.5 22.5 110.5 22.5h225v-100h-210c-36.667 0 -67.167 -9 -91.5 -27s-36.5 -44.333 -36.5 -79v-95c37.333 48.667 89 73 155 73
c43.333 0 82.833 -11 118.5 -33s63.834 -52.167 84.501 -90.5s31 -80.833 31 -127.5c0 -48 -10.5 -91.167 -31.5 -129.5s-50.667 -68.5 -89 -90.5s-82.5 -33 -132.5 -33c-44.667 0 -85.667 10 -123 30zM407.999 134c26 28.667 39 64.332 39 106.999s-13 78.167 -39 106.5
s-60 42.5 -102 42.5c-41.333 0 -74.833 -14 -100.5 -42s-38.5 -63.667 -38.5 -107s12.833 -79.166 38.5 -107.499s59.167 -42.5 100.5 -42.5c42 0 76 14.333 102 43z" />
    <glyph glyph-name="uni10DD" unicode="&#x10dd;" horiz-adv-x="826" 
d="M43 238c0 50.667 8.66699 95.167 26 133.5s41.333 68 72 89s65.667 31.5 105 31.5c82 0 138 -36.333 168 -109c29.333 72.667 85 109 167 109c39.333 0 74.333 -10.5 105 -31.5s54.667 -50.667 72 -89s26 -82.833 26 -133.5c0 -46 -6.16699 -89.333 -18.5 -130
s-27.833 -76.667 -46.5 -108h-111c20.667 41.333 36.667 81 48 119s17 76.333 17 115c0 48 -9.5 86 -28.5 114s-44.833 42 -77.5 42c-32 0 -56.167 -12.667 -72.5 -38s-24.5 -60.666 -24.5 -105.999v-140h-112v140c0 45.333 -8.16699 80.666 -24.5 105.999
s-40.5 38 -72.5 38c-33.333 0 -59.333 -14 -78 -42s-28 -66 -28 -114c0 -72.667 21.667 -150.667 65 -234h-112c-43.333 76.667 -65 156 -65 238z" />
    <glyph glyph-name="uni10DE" unicode="&#x10de;" horiz-adv-x="581" 
d="M162 16.5c-38.667 18.333 -68.999 43.3291 -90.999 74.9961s-33 66.5 -33 104.5c0 29.333 6 57.333 18 84l102 -20c-4.66699 -14.667 -7 -30.667 -7 -48c0 -37.333 12.333 -66.833 37 -88.5s59 -32.5 103 -32.5c41.333 0 74.333 10.5 99 31.5s37 49.833 37 86.5
c0 36 -12 63.667 -36 83s-55.333 29 -94 29h-41v100h59c34.667 0 59.167 5.5 73.5 16.5s21.5 27.5 21.5 49.5c0 19.333 -6 34.666 -18 45.999s-30.667 24.333 -56 39c-22.667 12 -41.167 23.333 -55.5 34s-26.5 25.334 -36.5 44.001s-15 42 -15 70h109
c0 -16 5.83301 -29.167 17.5 -39.5s29.5 -22.166 53.5 -35.499c23.333 -13.333 42.666 -25.666 57.999 -36.999s28.333 -26.333 39 -45s16 -41.334 16 -68.001c0 -32.667 -9.5 -59.5 -28.5 -80.5s-44.167 -36.5 -75.5 -46.5c33.333 -9.33301 61.833 -28.666 85.5 -57.999
s35.5 -67.666 35.5 -114.999c0 -41.333 -11.167 -77.666 -33.5 -108.999s-52.333 -55.333 -90 -72s-79.167 -25 -124.5 -25c-47.333 0 -90.333 9.16699 -129 27.5z" />
    <glyph glyph-name="uni10DF" unicode="&#x10df;" horiz-adv-x="579" 
d="M509 481l-0.000976562 -456.999c0 -50.667 -10.667 -93.5 -32 -128.5s-49.833 -61.167 -85.5 -78.5s-75.5 -26 -119.5 -26c-45.333 0 -85.666 8.66699 -120.999 26s-63 40.833 -83 70.5s-30 61.834 -30 96.501c0 20.667 4 42 12 64l99 -20c-2 -10 -3 -19.667 -3 -29
c0 -31.333 11.333 -56.833 34 -76.5s53.334 -29.5 92.001 -29.5c40 0 71.333 12 94 36s34 58 34 102v359l-198 -40c34.667 -12 60.667 -28.667 78 -50s26 -46.333 26 -75c0 -38.667 -13 -68.5 -39 -89.5s-58.333 -31.5 -97 -31.5c-26 0 -50.333 4.16699 -73 12.5
s-41.334 20.166 -56.001 35.499l50 62c17.333 -14 38 -21 62 -21c16.667 0 29.5 3.66699 38.5 11s13.5 18 13.5 32c0 35.333 -24.333 59.666 -73 72.999l-38 10v97l304 65h111z" />
    <glyph glyph-name="uni10E0" unicode="&#x10e0;" horiz-adv-x="826" 
d="M61 122.5c-12 46.333 -18.002 103.834 -18.002 172.501c0 129.333 33.667 232.5 101 309.5s175 115.5 323 115.5h124v-102h-122c-96 0 -169 -15.667 -219 -47s-84.667 -77.333 -104 -138c27.333 39.333 66 59 116 59c74.667 0 125.334 -36.333 152.001 -109
c27.333 72.667 83 109 167 109c39.333 0 74.333 -10.5 105 -31.5s54.667 -50.667 72 -89s26 -82.833 26 -133.5c0 -82 -21.667 -161.333 -65 -238h-111c42.667 84 64 162 64 234c0 48 -9.33301 86 -28 114s-44.667 42 -78 42c-31.333 0 -55.166 -12.667 -71.499 -38
s-24.5 -60.666 -24.5 -105.999v-119h-112v119c0 45.333 -8.16699 80.666 -24.5 105.999s-40.5 38 -72.5 38c-33.333 0 -59.333 -14 -78 -42s-28 -66 -28 -114c0 -72.667 21.667 -150.667 65 -234h-112c-19.333 35.333 -35 76.166 -47 122.499z" />
    <glyph glyph-name="uni10E1" unicode="&#x10e1;" horiz-adv-x="607" 
d="M188 18c-37.333 20 -67.001 49.332 -89.001 87.999s-33 84.667 -33 138v476h109v-476c0 -45.333 12.333 -82.166 37 -110.499s57.667 -42.5 99 -42.5c42 0 76 12.667 102 38s39 58 39 98c0 23.333 -3.83301 43.5 -11.5 60.5s-19.5 36.167 -35.5 57.5
c-17.333 23.333 -30.333 44.666 -39 63.999s-13 43.333 -13 72h109c0 -14.667 3.33301 -28.667 10 -42s17 -29.666 31 -48.999c20 -28 35.333 -54 46 -78s16 -52.333 16 -85c0 -46.667 -10.667 -88 -32 -124s-51.166 -64.167 -89.499 -84.5s-82.5 -30.5 -132.5 -30.5
c-44.667 0 -85.667 10 -123 30z" />
    <glyph glyph-name="uni10E2" unicode="&#x10e2;" horiz-adv-x="721" 
d="M549.5 427c41 -30 72.832 -70 95.499 -120s34 -107 34 -171c0 -66 -13.833 -125.333 -41.5 -178s-65.667 -93.667 -114 -123s-102.5 -44 -162.5 -44s-114.167 14.667 -162.5 44s-86.333 70.333 -114 123s-41.5 112 -41.5 178c0 64 11.333 121 34 171
s54.334 90 95.001 120s87 48 139 54l-5 108h109l-5 -108c52 -6 98.5 -24 139.5 -54zM466.999 -77c31.333 20 55.834 48.333 73.501 85s26.5 79.334 26.5 128.001c0 68.667 -14.5 124.167 -43.5 166.5s-67.5 68.5 -115.5 78.5c4.66699 -30.667 7 -63.667 7 -99v-176h-109v173
c0 36 2.33301 70 7 102c-47.333 -10.667 -85.333 -37 -114 -79s-43 -97.333 -43 -166c0 -48.667 8.66699 -91.334 26 -128.001s41.5 -65 72.5 -85s66.5 -30 106.5 -30c39.333 0 74.666 10 105.999 30z" />
    <glyph glyph-name="uni10E3" unicode="&#x10e3;" horiz-adv-x="584" 
d="M443.5 471c25 -14 44.667 -34.3291 59 -60.9961s21.5 -58.334 21.5 -95.001v-281c0 -51.333 -11 -95.333 -33 -132s-51.167 -64.334 -87.5 -83.001s-75.833 -28 -118.5 -28c-43.333 0 -83.333 9.33301 -120 28s-65.834 44.5 -87.501 77.5s-32.5 70.167 -32.5 111.5
c0 30.667 6.33301 61 19 91l99 -21c-6 -18.667 -9 -37.334 -9 -56.001c0 -37.333 12.167 -68 36.5 -92s55.833 -36 94.5 -36s69.834 13.167 93.501 39.5s35.5 62.166 35.5 107.499v266c0 28.667 -6.5 50 -19.5 64s-29.833 21 -50.5 21c-19.333 0 -35.333 -7.16699 -48 -21.5
s-19 -34.833 -19 -61.5v-116h-109v116c0 25.333 -5.5 44.333 -16.5 57s-26.167 19 -45.5 19h-68v103h72c28 0 51.667 -5.5 71 -16.5s34.333 -30.167 45 -57.5c23.333 52 68 78 134 78c30.667 0 58.5 -7 83.5 -21z" />
    <glyph glyph-name="uni10E4" unicode="&#x10e4;" horiz-adv-x="820" 
d="M752 -24c0 -58.667 -24.835 -104.169 -74.502 -136.502s-114.5 -48.5 -194.5 -48.5c-55.333 0 -102.833 7 -142.5 21s-69.834 33.667 -90.501 59s-31 54 -31 86c0 11.333 1.33301 21.333 4 30l105 -13c-1.33301 -26.667 10.167 -47 34.5 -61s64.5 -21 120.5 -21
c52 0 91.167 8 117.5 24s39.5 39 39.5 69c0 24.667 -7.66699 44.834 -23 60.501s-38.333 23.5 -69 23.5h-23v100h40c32.667 0 57.5 9.5 74.5 28.5s25.5 44.167 25.5 75.5c0 34.667 -8.33301 62.834 -25 84.501s-39 32.5 -67 32.5s-50.333 -9.66699 -67 -29s-25 -47 -25 -83
v-23c0 -40.667 -9.66699 -77 -29 -109s-45.666 -56.833 -78.999 -74.5s-70.333 -26.5 -111 -26.5s-77.667 9.33301 -111 28s-59.666 45 -78.999 79s-29 72.667 -29 116s9.5 82 28.5 116s44.333 60.5 76 79.5s66.167 28.5 103.5 28.5c41.333 0 77.333 -9.33301 108 -28
s53 -46.334 67 -83.001c14 37.333 35.333 65.166 64 83.499s63.334 27.5 104.001 27.5c34 0 64.833 -8.66699 92.5 -26s49.667 -41.5 66 -72.5s24.5 -65.833 24.5 -104.5c0 -48 -10.667 -86.667 -32 -116s-50.333 -49.666 -87 -60.999
c62.667 -17.333 94 -62.666 94 -135.999zM341.998 176.498c21.333 23 32 53.5 32 91.5s-10.667 68.667 -32 92s-48 35 -80 35s-58.667 -11.667 -80 -35s-32 -54 -32 -92s10.667 -68.5 32 -91.5s48 -34.5 80 -34.5s58.667 11.5 80 34.5z" />
    <glyph glyph-name="uni10E5" unicode="&#x10e5;" horiz-adv-x="588" 
d="M158.5 -181c-37 18.667 -66.3311 44.502 -87.998 77.502s-32.5 70.167 -32.5 111.5c0 30.667 6.33301 61 19 91l100 -21c-6 -18.667 -9 -39 -9 -61c0 -34.667 12.667 -63.834 38 -87.501s56.666 -35.5 93.999 -35.5c39.333 0 70.5 12.833 93.5 38.5
s34.5 61.834 34.5 108.501v199c0 44 -11.667 80 -35 108s-55 42 -95 42c-32 0 -58.667 -9.83301 -80 -29.5s-32 -45.5 -32 -77.5c0 -14.667 2.33301 -29.334 7 -44.001l-105 -19c-8.66699 26 -13 49.667 -13 71c0 40 9.16699 75.167 27.5 105.5s42.5 53.833 72.5 70.5
s62.333 25 97 25c34 0 64.167 -6.5 90.5 -19.5s48.166 -30.833 65.499 -53.5v301h110v-686c0 -50.667 -11 -94.334 -33 -131.001s-51 -64.5 -87 -83.5s-75.333 -28.5 -118 -28.5c-44 0 -84.5 9.33301 -121.5 28z" />
    <glyph glyph-name="uni10E6" unicode="&#x10e6;" horiz-adv-x="826" 
d="M146 -89c-68.667 74 -102.999 170.667 -102.999 290c0 96.667 18.333 169.334 55 218.001s86 73 148 73c84 0 140 -36.333 168 -109c29.333 72.667 85 109 167 109c39.333 0 74.333 -10.5 105 -31.5s54.667 -50.667 72 -89s26 -82.833 26 -133.5
c0 -39.333 -5 -76.833 -15 -112.5s-23.333 -67.5 -40 -95.5l-97 33c26.667 55.333 40 112.333 40 171c0 48 -9.33301 86 -28 114s-44.334 42 -77.001 42c-32 0 -56.167 -12.667 -72.5 -38s-24.5 -60.666 -24.5 -105.999v-140h-112v140
c0 45.333 -8.16699 80.666 -24.5 105.999s-40.5 38 -72.5 38c-34.667 0 -61 -14.833 -79 -44.5s-27 -77.834 -27 -144.501c0 -98 25.833 -172.333 77.5 -223s135.167 -76 250.5 -76h141v-102h-153c-148 0 -256.333 37 -325 111z" />
    <glyph glyph-name="uni10E7" unicode="&#x10e7;" horiz-adv-x="606" 
d="M536 481v-460.001c0 -72 -22.667 -128.333 -68 -169s-105.333 -61 -180 -61c-46 0 -87.167 8.83301 -123.5 26.5s-64.833 41.167 -85.5 70.5s-31 61.333 -31 96c0 22.667 3.66699 44 11 64l99 -20c-2 -10 -3 -19.667 -3 -29c0 -30.667 12.167 -56 36.5 -76
s56.5 -30 96.5 -30c42.667 0 76.5 11.167 101.5 33.5s37.5 56.5 37.5 102.5v124c-38 -49.333 -90.333 -74 -157 -74c-44 0 -83 9.66699 -117 29s-60.667 46.333 -80 81s-29 74 -29 118c-0.666992 33.333 2.5 63.333 9.5 90s17.833 54.667 32.5 84h108
c-13.333 -31.333 -23 -59 -29 -83s-9 -48.667 -9 -74c0 -44.667 11.5 -79.667 34.5 -105s57.5 -38 103.5 -38c40.667 0 73 13.333 97 40s36 63.334 36 110.001v150h109z" />
    <glyph glyph-name="uni10E8" unicode="&#x10e8;" horiz-adv-x="617" 
d="M476.5 710.5c25 -14.333 44.666 -34.999 58.999 -61.999s21.5 -59.167 21.5 -96.5v-314c0 -51.333 -11 -96 -33 -134s-51.667 -66.833 -89 -86.5s-78.333 -29.5 -123 -29.5c-50 0 -94.167 10.833 -132.5 32.5s-68 51.5 -89 89.5s-31.5 80.667 -31.5 128
c0 44.667 10.333 85.5 31 122.5s48.834 66.333 84.501 88s75.167 32.5 118.5 32.5c65.333 0 117 -24.667 155 -74v138c0 28.667 -7 50.167 -21 64.5s-31 21.5 -51 21.5s-36.5 -6.16699 -49.5 -18.5s-19.5 -29.833 -19.5 -52.5v-26h-109v25c0 22 -5.33301 39.167 -16 51.5
s-25.667 18.5 -45 18.5c-22 0 -45.333 -7 -70 -21l-44 85c18.667 13.333 37.334 23.166 56.001 29.499s39.667 9.5 63 9.5c56 0 94.333 -26.333 115 -79c23.333 52.667 68.666 79 135.999 79c30.667 0 58.5 -7.16699 83.5 -21.5zM411.999 133.001
c26 28 38.999 62.9971 38.999 104.997c0 25.333 -5.83301 48.833 -17.5 70.5s-28.167 38.834 -49.5 51.501s-45.333 19 -72 19c-28 0 -52.667 -6.5 -74 -19.5s-38 -30.167 -50 -51.5s-18 -44.666 -18 -69.999c0 -26.667 5.83301 -51.167 17.5 -73.5
s28.334 -40.166 50.001 -53.499s46.5 -20 74.5 -20c40.667 0 74 14 100 42z" />
    </font>
</defs>
</svg>
